<?xml version="1.0" encoding="UTF-8"?>
<svg id="Layer_1" data-name="Layer 1" xmlns="http://www.w3.org/2000/svg" xmlns:xlink="http://www.w3.org/1999/xlink" viewBox="0 0 453.3904 113.7579">
  <a xlink:href="88.800431372549">
    <rect id="fullLogo" y="92.1957" width="17.1865" height="5.4542" style="fill: #fff;"/>
  </a>
  <a xlink:href="88.800431372549">
    <rect id="fullLogo-2" data-name="fullLogo" y="76.6853" width="17.1865" height="5.4541" style="fill: #fff;"/>
  </a>
  <a xlink:href="88.800431372549">
    <path id="fullLogo-3" data-name="fullLogo" d="M50.6784,2.2583V68.6319h-17.1862v-2.8266c0-1.4061-1.2785-2.4714-2.6562-2.2299l-11.7749,2.0737c-1.0795,.1847-1.8746,1.1363-1.8746,2.23v.7528H0V2.6703C0,1.4204,1.0084,.4119,2.2585,.4119H14.928c1.2498,0,2.2585,1.0085,2.2585,2.2584V49.457c0,1.4061,1.2782,2.4714,2.6559,2.2299l11.7749-2.0737c1.0795-.1989,1.875-1.1363,1.875-2.23V2.2583c0-1.2499,1.0084-2.2583,2.2582-2.2583h12.6699c1.2498,0,2.2582,1.0084,2.2582,2.2583Z" style="fill: #fff;"/>
  </a>
  <a xlink:href="88.800431372549">
    <rect id="fullLogo-4" data-name="fullLogo" x="33.4922" y="76.6853" width="17.1862" height="5.4541" style="fill: #fff;"/>
  </a>
  <a xlink:href="88.800431372549">
    <rect id="fullLogo-5" data-name="fullLogo" x="33.4922" y="92.1957" width="17.1862" height="5.4542" style="fill: #fff;"/>
  </a>
  <path id="fullLogo-6" data-name="fullLogo" d="M98.3174,92.1957h-12.7548l1.0226,5.4542h12.7833l-1.0511-5.4542Zm-2.9829-15.5103h-12.698l1.023,5.4541h12.7264l-1.0514-5.4541Zm-7.9965-41.4888c-.1987-1.0653-1.1364-1.8322-2.2158-1.8322h-13.2517c-1.1079,0-2.0595,.7954-2.2301,1.8891l-5.5254,33.3785h29.6716l-6.4485-33.4354Zm-5.5677,29.3447h-5.5254c-.696,0-1.2071-.6392-1.0653-1.3068l2.2158-10.4823c.3409-1.6191,2.6562-1.6191,2.9971,0l2.2582,10.7096c.128,.554-.2982,1.0795-.8804,1.0795Zm-19.8993,17.5982h12.7975l.8662-5.4541h-12.7548l-.9089,5.4541Zm-1.6621,10.0562l-.9089,5.4542h12.9254l.852-5.4542h-12.8686Z" style="fill: #fff;"/>
  <a xlink:href="88.800431372549">
    <path id="fullLogo-7" data-name="fullLogo" d="M121.7392,36.1624v32.4695h-12.9535V36.1624c0-1.2499,1.0084-2.2583,2.2582-2.2583h8.4369c1.2501,0,2.2585,1.0084,2.2585,2.2583Z" style="fill: #fff;"/>
  </a>
  <a xlink:href="88.800431372549">
    <rect id="fullLogo-8" data-name="fullLogo" x="108.7857" y="76.6853" width="12.9535" height="5.4541" style="fill: #fff;"/>
  </a>
  <a xlink:href="88.800431372549">
    <path id="fullLogo-9" data-name="fullLogo" d="M121.7534,97.6499h-12.9677v-5.4542h12.9535v5.2554c0,.071,0,.142,.0142,.1989Z" style="fill: #fff;"/>
  </a>
  <a xlink:href="88.800431372549">
    <rect id="fullLogo-10" data-name="fullLogo" x="151.5384" y="92.1957" width="12.9681" height="5.4542" style="fill: #fff;"/>
  </a>
  <a xlink:href="88.800431372549">
    <rect id="fullLogo-11" data-name="fullLogo" x="151.5384" y="76.6853" width="12.9681" height="5.4541" style="fill: #fff;"/>
  </a>
  <a xlink:href="88.800431372549">
    <path id="fullLogo-12" data-name="fullLogo" d="M185.5421,35.8499l-4.2472,7.1586c-.5822,.9658-1.7755,1.3778-2.8123,.9516-1.1221-.4829-2.8265-.9516-5.1415-.9516-5.3832,0-8.8346,3.9629-8.8346,8.8489v3.6077c0,1.2499,1.0084,2.2583,2.2582,2.2583h9.3461c1.2498,0,2.2585,1.0085,2.2585,2.2584v8.1955c0,.1562-.0142,.3124-.0427,.4545h-42.3269c-.0284-.1421-.0427-.2983-.0427-.4545v-8.1955c0-1.2499,1.0084-2.2584,2.2585-2.2584h11.0647c1.2498,0,2.2582-1.0084,2.2582-2.2583v-7.7268c0-9.7721,8.011-17.6977,17.698-17.6977,8.0391,0,12.8256,1.4772,15.297,2.5993,1.2217,.554,1.7044,2.0595,1.0087,3.21Z" style="fill: #fff;"/>
  </a>
  <a xlink:href="88.800431372549">
    <path id="fullLogo-13" data-name="fullLogo" d="M201.0239,76.6853c-.4688,1.0937-.9092,2.2158-1.2782,3.3663-.2275,.696-.4262,1.3919-.5968,2.0879h-14.6437c.1987-.7102,.44-1.4061,.6817-2.0879,.4116-1.1647,.8804-2.2868,1.3635-3.3663h14.4734Z" style="fill: #fff;"/>
  </a>
  <a xlink:href="88.800431372549">
    <path id="fullLogo-14" data-name="fullLogo" d="M204.7308,97.6499h-20.4104c-.128-.3693-.2556-.7528-.3693-1.1221-.412-1.4204-.6533-2.8833-.7528-4.3321h15.7662c.568,1.7897,1.5906,3.2953,3.1958,4.3321,.7244,.483,1.5764,.8523,2.5706,1.1221Z" style="fill: #fff;"/>
  </a>
  <a xlink:href="88.800431372549">
    <path id="fullLogo-15" data-name="fullLogo" d="M221.5054,92.1957h16.1355c-.4973,1.4771-1.0937,2.9259-1.7755,4.3321-.1848,.3835-.3693,.7528-.5684,1.1221h-22.9245c1.179-.2699,2.2869-.6392,3.3376-1.1221,2.2585-1.0226,4.2188-2.514,5.7952-4.3321Z" style="fill: #fff;"/>
  </a>
  <a xlink:href="88.800431372549">
    <path id="fullLogo-16" data-name="fullLogo" d="M238.9759,68.6319h-15.8227c-.128-.2557-.2843-.4972-.4404-.7386-.1137-.1989-.2414-.3977-.3693-.5965-10.7096-15.624-23.6631-21.2629-28.4499-29.4867-10.0847-17.3284-1.0368-30.1685,12.4282-34.9551,10.5816-3.764,21.5326,2.301,25.751,5.0848,1.023,.6818,1.3212,2.0453,.6817,3.0822l-5.3264,8.5647c-.6391,1.0368-1.9884,1.3636-3.0394,.767-15.6098-8.9625-25.4954,4.2753-12.7548,14.8428,11.2065,9.3034,19.5442,14.3031,25.95,29.3447,.4688,1.0794,.852,2.2015,1.1932,3.352,.0707,.2414,.1418,.4971,.1987,.7386Z" style="fill: #fff;"/>
  </a>
  <a xlink:href="88.800431372549">
    <path id="fullLogo-17" data-name="fullLogo" d="M240.0696,80.0516c-.0427,.696-.0995,1.3919-.1703,2.0879h-13.9196c.0992-.6817,.156-1.3777,.1845-2.0879,.0284-1.1221-.0284-2.2442-.1845-3.3663h14.1183c.0427,1.1078,.0284,2.2442-.0284,3.3663Z" style="fill: #fff;"/>
  </a>
  <a xlink:href="88.800431372549">
    <path id="fullLogo-18" data-name="fullLogo" d="M274.3855,96.7693c.2698,.3124,.5684,.6107,.895,.8806h-15.7377c-.0427-.2841-.0711-.5824-.0995-.8806-.0139-.0711-.0139-.1563-.0284-.2415-.0423-.5113-.0707-1.0226-.0707-1.5339v-2.7982h13.053v.0284c.2271,1.6192,.8378,3.0964,1.7897,4.3037,.0711,.0852,.1418,.1704,.1987,.2415Z" style="fill: #fff;"/>
  </a>
  <a xlink:href="88.800431372549">
    <rect id="fullLogo-19" data-name="fullLogo" x="259.344" y="76.6853" width="12.9535" height="5.4541" style="fill: #fff;"/>
  </a>
  <a xlink:href="88.800431372549">
    <path id="fullLogo-20" data-name="fullLogo" d="M289.8107,49.5138v6.8745c0,1.2499-1.0226,2.2584-2.2585,2.2584h-12.982c-1.2501,0-2.2727,1.0085-2.2727,2.2584v7.7268h-12.9535v-7.7268c0-1.2499-1.0084-2.2584-2.2585-2.2584h-11.0647c-1.2498,0-2.2585-1.0085-2.2585-2.2584v-6.8745c0-1.2499,1.0087-2.2725,2.2585-2.2725h11.0647c1.2501,0,2.2585-1.0085,2.2585-2.2584v-12.6696c0-1.2499,1.0084-2.2726,2.2582-2.2726h8.4369c1.2501,0,2.2585,1.0227,2.2585,2.2726v12.6696c0,1.2499,1.0226,2.2584,2.2727,2.2584h12.982c1.2359,0,2.2585,1.0226,2.2585,2.2725Z" style="fill: #fff;"/>
  </a>
  <path id="fullLogo-21" data-name="fullLogo" d="M302.5656,92.1957l-.9089,5.4542h12.9251l.8524-5.4542h-12.8686Zm2.5567-15.5103l-.895,5.4541h12.7975l.8666-5.4541h-12.769Zm24.572-41.4888c-.1987-1.0653-1.136-1.8322-2.2155-1.8322h-13.2663c-1.0937,0-2.0452,.7954-2.2297,1.8891l-5.5254,33.3785h29.6854l-6.4485-33.4354Zm-5.5677,29.3447h-5.5251c-.696,0-1.2074-.6392-1.0653-1.3068l2.2155-10.4823c.3412-1.6191,2.6562-1.6191,2.9971,0l2.2585,10.7096c.1137,.554-.3124,1.0795-.8808,1.0795Zm13.5645,12.1441h-12.698l1.0226,5.4541h12.7264l-1.0511-5.4541Zm2.9829,15.5103h-12.769l1.0226,5.4542h12.7975l-1.0511-5.4542Z" style="fill: #fff;"/>
  <a xlink:href="88.800431372549">
    <path id="fullLogo-22" data-name="fullLogo" d="M365.2602,97.593c.0284,.0142,.0427,.0427,.0711,.0569h-14.161c-.0142-.0142-.0142-.0427-.0284-.0569-.1703-.3834-.3267-.767-.4827-1.1647-.0995-.2557-.2133-.4971-.3128-.7527-.3124-.8238-.6107-1.6618-.8804-2.5424-.0995-.3125-.1987-.625-.284-.9375h12.1865c.128,.3267,.284,.6392,.4404,.9375,.1848,.3551,.3835,.696,.5822,1.0226,.3412,.5397,.6963,1.0368,1.0653,1.5198,.2133,.2557,.4262,.5113,.6394,.7527,.3835,.4262,.7671,.8238,1.1644,1.1647Z" style="fill: #fff;"/>
  </a>
  <a xlink:href="88.800431372549">
    <path id="fullLogo-23" data-name="fullLogo" d="M358.897,81.3015c.0284,.2841,.0569,.5681,.0853,.838h-11.6327c-.0427-.2699-.0569-.5539-.0853-.838-.0284-.412-.0569-.8381-.0853-1.2499-.0423-.7386-.0853-1.4914-.0992-2.2442-.0142-.3267-.0284-.6392-.0427-.9658v-.1562h11.6042v.1562c.0142,.3267,.0284,.6392,.0427,.9658,.0284,.7671,.0711,1.5198,.1276,2.2442,.0284,.4261,.0569,.838,.0853,1.2499Z" style="fill: #fff;"/>
  </a>
  <a xlink:href="88.800431372549">
    <path id="fullLogo-24" data-name="fullLogo" d="M393.3977,58.0502l-6.8605,2.2158c-1.2071,.3834-2.4995-.3125-2.8262-1.5482-.7532-2.8265-1.9603-5.1417-3.622-6.9456-2.0879-2.2583-4.6162-3.3804-7.5991-3.3804-4.1331,0-7.4711,2.0027-10.0421,5.9939-1.5906,2.4714-2.6843,5.8803-3.2811,10.2408-.1418,1.0368-.2698,2.1305-.3551,3.2668-.0139,.2414-.0281,.4829-.0565,.7386h-11.5051c.0284-.2415,.0427-.4972,.0569-.7386,.0995-1.1079,.1987-2.2158,.3409-3.2668,.9942-7.67,3.1816-13.948,6.5477-18.834,4.7868-6.9172,11.0647-10.3828,18.8482-10.3828,6.8178,0,12.3432,2.7271,16.5901,8.1529,2.2443,2.8549,3.9913,6.8035,5.2411,11.8459,.2698,1.1363-.3693,2.2868-1.4772,2.6419Z" style="fill: #fff;"/>
  </a>
  <a xlink:href="88.800431372549">
    <path id="fullLogo-25" data-name="fullLogo" d="M394.2358,92.1957c-.1706,.6676-.3693,1.3778-.6252,2.1873-.1276,.4404-.2698,.8665-.4116,1.2926-.0853,.2557-.1706,.4971-.2556,.7527-.128,.341-.2417,.6818-.3835,1.0227-.0284,.071-.0569,.1278-.0853,.1989h-14.36c.0711-.0569,.1564-.1279,.2271-.1989,.3412-.3125,.6679-.6534,.9945-1.0227,.0569-.071,.1276-.142,.1845-.213,.1422-.1704,.2843-.3551,.4262-.5397,.5822-.7812,1.1221-1.676,1.5906-2.6845,.128-.2557,.2417-.5113,.3697-.7954h12.3286Z" style="fill: #fff;"/>
  </a>
  <a xlink:href="88.800431372549">
    <rect id="fullLogo-26" data-name="fullLogo" x="403.5392" y="92.1957" width="12.9677" height="5.4542" style="fill: #fff;"/>
  </a>
  <a xlink:href="88.800431372549">
    <polygon id="fullLogo-27" data-name="fullLogo" points="441.9313 92.1957 447.3856 97.6499 429.0204 97.6499 423.5661 92.1957 441.9313 92.1957" style="fill: #fff;"/>
  </a>
  <a xlink:href="88.800431372549">
    <polygon id="fullLogo-28" data-name="fullLogo" points="426.4069 76.6853 431.8612 82.1395 403.5392 82.1395 403.5392 76.6853 426.4069 76.6853" style="fill: #fff;"/>
  </a>
  <a xlink:href="88.800431372549">
    <path id="fullLogo-29" data-name="fullLogo" d="M452.7404,45.0823l-23.5497,23.5496h-25.6515V36.5601c0-1.2357,.9942-2.23,2.2155-2.23h8.5364c1.2359,0,2.2158,.9943,2.2158,2.23v22.1008c0,1.5908,1.9176,2.3862,3.0398,1.2641l24.0182-24.0184c.8666-.8664,2.2724-.8664,3.1389,0l6.0365,6.0365c.8666,.8664,.8666,2.2726,0,3.139Z" style="fill: #fff;"/>
  </a>
  <a xlink:href="88.800431372549">
    <path id="fullLogo-30" data-name="fullLogo" d="M.0003,110.42c0,1.2499,1.0084,2.2584,2.2583,2.2584H14.9283c1.2498,0,2.2583-1.0085,2.2583-2.2584v-12.769H.0003v12.769Z" style="fill: #fff; opacity: .5;"/>
  </a>
  <a xlink:href="88.800431372549">
    <path id="fullLogo-31" data-name="fullLogo" d="M33.4923,110.0081c0,1.2357,1.0086,2.2583,2.2583,2.2583h12.6697c1.2499,0,2.2583-1.0226,2.2583-2.2583v-12.3572h-17.1863v12.3572Z" style="fill: #fff; opacity: .5;"/>
  </a>
  <a xlink:href="88.800431372549">
    <rect id="fullLogo-32" data-name="fullLogo" x=".0003" y="82.1406" width="17.1863" height="10.0562" style="fill: #fff; opacity: .5;"/>
  </a>
  <a xlink:href="88.800431372549">
    <rect id="fullLogo-33" data-name="fullLogo" x="33.4923" y="82.1406" width="17.1863" height="10.0562" style="fill: #fff; opacity: .5;"/>
  </a>
  <a xlink:href="88.800431372549">
    <rect id="fullLogo-34" data-name="fullLogo" x=".0003" y="68.6329" width="17.1863" height="8.0534" style="fill: #fff; opacity: .5;"/>
  </a>
  <a xlink:href="88.800431372549">
    <rect id="fullLogo-35" data-name="fullLogo" x="33.4923" y="68.6329" width="17.1863" height="8.0534" style="fill: #fff; opacity: .5;"/>
  </a>
  <a xlink:href="88.800431372549">
    <path id="fullLogo-36" data-name="fullLogo" d="M57.4538,108.8434l-.1989,1.2073c-.2273,1.3778,.838,2.6277,2.2299,2.6277h8.437c1.1081,0,2.0596-.8096,2.2299-1.9033l.2986-1.9317,1.7755-11.1925h-12.9254l-1.8465,11.1925Z" style="fill: #fff; opacity: .5;"/>
  </a>
  <a xlink:href="88.800431372549">
    <path id="fullLogo-37" data-name="fullLogo" d="M101.5277,108.8434l-2.159-11.1925h-12.7833l2.1021,11.1925,.3693,2.0027c.1987,1.0653,1.1364,1.8323,2.2158,1.8323h8.2666c1.4204,0,2.4856-1.2926,2.2155-2.6845l-.2271-1.1505Z" style="fill: #fff; opacity: .5;"/>
  </a>
  <a xlink:href="88.800431372549">
    <polygon id="fullLogo-38" data-name="fullLogo" points="60.2093 92.1968 73.0778 92.1968 74.6684 82.1406 61.8711 82.1406 60.2093 92.1968" style="fill: #fff; opacity: .5;"/>
  </a>
  <a xlink:href="88.800431372549">
    <polygon id="fullLogo-39" data-name="fullLogo" points="96.3858 82.1406 83.6595 82.1406 85.5629 92.1968 98.3177 92.1968 96.3858 82.1406" style="fill: #fff; opacity: .5;"/>
  </a>
  <a xlink:href="88.800431372549">
    <path id="fullLogo-40" data-name="fullLogo" d="M93.7868,68.6329h-29.6716l-1.3351,8.0534h12.7548l.1706-1.0653,.0142-.0568c.1703-1.1079,1.1221-1.9175,2.2297-1.9175h2.2443c1.0937,0,2.0168,.7813,2.2158,1.8465l.0284,.1278,.1987,1.0653h12.698l-1.548-8.0534Z" style="fill: #fff; opacity: .5;"/>
  </a>
  <a xlink:href="88.800431372549">
    <path id="fullLogo-41" data-name="fullLogo" d="M140.5592,99.7247h-16.5613c-1.179,0-2.1448-.9091-2.2443-2.0738h-12.9681v12.769c0,1.2499,1.0087,2.2584,2.2585,2.2584h29.5152c1.2498,0,2.2585-1.0085,2.2585-2.2584v-8.437c0-1.2499-1.0087-2.2583-2.2585-2.2583Z" style="fill: #fff; opacity: .5;"/>
  </a>
  <a xlink:href="88.800431372549">
    <rect id="fullLogo-42" data-name="fullLogo" x="108.7856" y="82.1406" width="12.9539" height="10.0562" style="fill: #fff; opacity: .5;"/>
  </a>
  <a xlink:href="88.800431372549">
    <rect id="fullLogo-43" data-name="fullLogo" x="108.7856" y="68.6329" width="12.9539" height="8.0534" style="fill: #fff; opacity: .5;"/>
  </a>
  <a xlink:href="88.800431372549">
    <path id="fullLogo-44" data-name="fullLogo" d="M151.5386,110.42c0,1.2499,1.0084,2.2584,2.2585,2.2584h8.4369c1.2501,0,2.2724-1.0085,2.2724-2.2584v-12.769h-12.9677v12.769Z" style="fill: #fff; opacity: .5;"/>
  </a>
  <a xlink:href="88.800431372549">
    <rect id="fullLogo-45" data-name="fullLogo" x="151.5386" y="82.1406" width="12.9677" height="10.0562" style="fill: #fff; opacity: .5;"/>
  </a>
  <a xlink:href="88.800431372549">
    <path id="fullLogo-46" data-name="fullLogo" d="M138.2158,70.4368h11.0647c1.0791,0,1.9742,.767,2.2013,1.7755,.0284,.1562,.0569,.3124,.0569,.4829v3.9912h12.9677v-3.9912c0-.1704,.0146-.3267,.0569-.4829,.2133-1.0085,1.1221-1.7755,2.2016-1.7755h9.3461c1.0937,0,2.0026-.7671,2.2158-1.8039h-42.3269c.2129,1.0368,1.1221,1.8039,2.2158,1.8039Z" style="fill: #fff; opacity: .5;"/>
  </a>
  <a xlink:href="88.800431372549">
    <path id="fullLogo-47" data-name="fullLogo" d="M208.6798,98.0912c-1.5057,.0284-2.8123-.1278-3.9486-.4403h-20.4104c1.9884,5.4116,6.6614,10.4255,15.8511,13.9337,3.4514,1.3209,6.7183,2.0169,9.8007,2.1732h2.3577c10.411-.4262,18.2941-7.1729,22.9671-16.1069h-22.9245c-1.179,.2557-2.4003,.4119-3.6931,.4403Z" style="fill: #fff; opacity: .5;"/>
  </a>
  <a xlink:href="88.800431372549">
    <path id="fullLogo-48" data-name="fullLogo" d="M198.3679,88.6742c-.0711-2.0595,.2271-4.3037,.7813-6.5336h-14.644c-.6391,2.1021-1.1079,4.3179-1.2924,6.5336-.0853,1.1789-.0995,2.3436-.0142,3.5226h15.7662c-.3551-1.0795-.5399-2.2584-.5968-3.5226Z" style="fill: #fff; opacity: .5;"/>
  </a>
  <a xlink:href="88.800431372549">
    <path id="fullLogo-49" data-name="fullLogo" d="M223.9202,88.6742c-.6675,1.2641-1.4772,2.4431-2.4145,3.5226h16.1355c.4258-1.1506,.7809-2.3294,1.0937-3.5226,.5538-2.1448,.9373-4.3321,1.1644-6.5336h-13.9193c-.2986,2.3152-1.0087,4.531-2.0598,6.5336Z" style="fill: #fff; opacity: .5;"/>
  </a>
  <a xlink:href="88.800431372549">
    <path id="fullLogo-50" data-name="fullLogo" d="M202.4445,73.7889c.2698-.5113,.3409-1.0653,.2271-1.5766-.1276-.6107-.5111-1.1647-1.0937-1.4914l-1.6333-.9232-2.0737-1.1647-1.3212-.7386-1.7897-1.0084c-1.0226-.5682-2.2866-.2841-2.9541,.6533-.0853,.1137-.1564,.2273-.2417,.3551-.156,.2273-.3267,.4687-.4969,.7386-.3693,.5397-.7671,1.1505-1.179,1.8322-.3409,.5397-.6817,1.1221-1.0368,1.7471-.7671,1.3351-1.5625,2.8407-2.3012,4.4741h14.4738c.44-1.0084,.9231-1.9885,1.4204-2.8975Z" style="fill: #fff; opacity: .5;"/>
  </a>
  <a xlink:href="88.800431372549">
    <path id="fullLogo-51" data-name="fullLogo" d="M238.9762,68.6329h-15.823c.7102,1.1647,1.2785,2.3578,1.7186,3.5793,.5399,1.4771,.9092,2.9827,1.1083,4.4741h14.1183c-.0284-1.5198-.1564-3.0112-.3835-4.4741-.1848-1.2216-.4262-2.4146-.7386-3.5793Z" style="fill: #fff; opacity: .5;"/>
  </a>
  <a xlink:href="88.800431372549">
    <path id="fullLogo-52" data-name="fullLogo" d="M292.9073,106.1305c-.0711-.0994-.128-.1989-.1703-.2983l-.4546-.7528-2.6989-4.5451-.4827-.8096c-.5826-.9658-1.7755-1.392-2.8123-.9517-1.1221,.4687-2.8269,.9517-5.1419,.9517-2.3719,0-4.3748-.7812-5.8659-2.0738h-15.7377c.156,.9943,.3835,1.9459,.696,2.8834,.5399,1.6334,1.3208,3.1674,2.2869,4.5451,.9942,1.4204,2.1871,2.6987,3.5509,3.764,3.0252,2.4004,6.8317,3.835,10.9509,3.835,7.1302,0,11.6896-1.1505,14.3597-2.1874,.1137-.0426,.2414-.0993,.3409-.142,.8097-.3693,2.6136-1.4629,1.5341-3.6219l-.3551-.5965Z" style="fill: #fff; opacity: .5;"/>
  </a>
  <a xlink:href="88.800431372549">
    <path id="fullLogo-53" data-name="fullLogo" d="M272.2978,90.8758v-8.7352h-12.9539v10.0562h13.0534c-.0569-.4262-.0995-.8807-.0995-1.321Z" style="fill: #fff; opacity: .5;"/>
  </a>
  <a xlink:href="88.800431372549">
    <rect id="fullLogo-54" data-name="fullLogo" x="259.344" y="68.6329" width="12.9539" height="8.0534" style="fill: #fff; opacity: .5;"/>
  </a>
  <a xlink:href="88.800431372549">
    <path id="fullLogo-55" data-name="fullLogo" d="M299.8104,108.8434l-.199,1.2073c-.2271,1.3778,.8381,2.6277,2.2301,2.6277h8.4369c1.1079,0,2.0452-.8096,2.2301-1.9033l.2982-1.9317,1.7755-11.1925h-12.9254l-1.8462,11.1925Z" style="fill: #fff; opacity: .5;"/>
  </a>
  <a xlink:href="88.800431372549">
    <path id="fullLogo-56" data-name="fullLogo" d="M343.8839,108.8434l-2.159-11.1925h-12.7971l2.1021,11.1925,.3835,2.0027c.1987,1.0653,1.136,1.8323,2.2155,1.8323h8.2524c1.4204,0,2.4999-1.2926,2.2301-2.6845l-.2275-1.1505Z" style="fill: #fff; opacity: .5;"/>
  </a>
  <a xlink:href="88.800431372549">
    <polygon id="fullLogo-57" data-name="fullLogo" points="302.5658 92.1968 315.4344 92.1968 317.025 82.1406 304.2275 82.1406 302.5658 92.1968" style="fill: #fff; opacity: .5;"/>
  </a>
  <a xlink:href="88.800431372549">
    <polygon id="fullLogo-58" data-name="fullLogo" points="338.7424 82.1406 326.016 82.1406 327.9049 92.1968 340.6743 92.1968 338.7424 82.1406" style="fill: #fff; opacity: .5;"/>
  </a>
  <a xlink:href="88.800431372549">
    <path id="fullLogo-59" data-name="fullLogo" d="M336.143,68.6329h-29.6854l-1.3354,8.0534h12.7694l.1703-1.0653,.0142-.0568c.1706-1.1079,1.1221-1.9175,2.2301-1.9175h2.2439c1.0798,0,2.0172,.7813,2.2158,1.8465l.0284,.1278,.199,1.0653h12.698l-1.5483-8.0534Z" style="fill: #fff; opacity: .5;"/>
  </a>
  <a xlink:href="88.800431372549">
    <path id="fullLogo-60" data-name="fullLogo" d="M372.2627,100.2076c-2.6417,0-4.9428-.8522-6.9312-2.5566h-14.161c.568,1.2784,1.2071,2.4856,1.9034,3.6219,.3405,.5824,.7102,1.1363,1.0791,1.676,.6963,1.0085,1.4349,1.9318,2.1874,2.7982,1.2643,1.4346,2.6136,2.6561,4.0482,3.6787,3.5083,2.5141,7.4996,3.764,11.9736,3.764,4.7441,0,8.3803-1.4061,11.8033-3.906,.895-.6534,1.747-1.3919,2.5425-2.2158,.4546-.4687,.8804-.9516,1.3066-1.4771,1.0653-1.3068,2.031-2.7982,2.8976-4.46,.568-1.0937,1.0937-2.2442,1.5622-3.4799h-14.3597c-1.8039,1.6192-3.494,2.5566-5.8521,2.5566Z" style="fill: #fff; opacity: .5;"/>
  </a>
  <a xlink:href="88.800431372549">
    <path id="fullLogo-61" data-name="fullLogo" d="M360.3461,89.4554c-.0711-.2557-.1418-.5113-.1987-.7812-.1422-.4829-.2559-.9801-.3693-1.5056-.1564-.696-.2986-1.4204-.412-2.1731-.1564-.9091-.2701-1.8607-.3835-2.8549h-11.6327c.085,.9658,.1987,1.9175,.3267,2.8549,.0995,.7385,.2129,1.4629,.3409,2.1731,.0853,.5113,.1987,1.0085,.2982,1.5056,.0569,.2557,.0995,.5255,.156,.7812,.2133,.9375,.4404,1.8465,.7102,2.7414h12.1868c-.3835-.8381-.7244-1.7471-1.0226-2.7414Z" style="fill: #fff; opacity: .5;"/>
  </a>
  <a xlink:href="88.800431372549">
    <path id="fullLogo-62" data-name="fullLogo" d="M394.3921,82.2542l-.2698-.0711-.1422-.0426-7.201-1.9885c-1.1932-.0852-2.0029,.3693-2.2301,1.9885-.0142,.0142-.0142,.0426-.0142,.071-.0427,.2557-.284,1.3919-.5826,2.6987-.1703,.7527-.3405,1.5481-.5111,2.2583-.1422,.5824-.2556,1.1079-.3551,1.5056-.1137,.4972-.199,.8238-.199,.8238-.284,.9658-.6249,1.8749-.98,2.6987h12.329c.284-1.1647,.4969-2.23,.7102-3.5226,.0707-.4687,.156-.9516,.2414-1.5056,.1137-.7102,.2271-1.5056,.3693-2.4146,.1703-1.0936,.0569-1.9601-1.1648-2.4998Z" style="fill: #fff; opacity: .5;"/>
  </a>
  <a xlink:href="88.800431372549">
    <path id="fullLogo-63" data-name="fullLogo" d="M358.599,73.8314c0-.5539,.0142-1.0794,.0142-1.6191,.0284-.9943,.0569-1.9743,.0995-2.9118,.0142-.2272,.0281-.4544,.0427-.6675h-11.5051c-.0142,.2272-.0284,.4403-.0427,.6675-.0711,.9517-.1137,1.9175-.1418,2.9118-.0284,.8948-.043,1.818-.043,2.7555,0,.5823,0,1.1646,.0146,1.7186h11.6042c-.0284-.9232-.0427-1.8749-.0427-2.8549Z" style="fill: #fff; opacity: .5;"/>
  </a>
  <a xlink:href="88.800431372549">
    <path id="fullLogo-64" data-name="fullLogo" d="M403.5391,111.5421c0,1.2215,.9945,2.2158,2.2158,2.2158h8.5364c1.2359,0,2.2158-.9943,2.2158-2.2158v-13.8912h-12.9681v13.8912Z" style="fill: #fff; opacity: .5;"/>
  </a>
  <a xlink:href="88.800431372549">
    <path id="fullLogo-65" data-name="fullLogo" d="M452.7407,103.0057l-5.3548-5.3548h-18.3652l14.5445,14.5303c.8662,.8806,2.2724,.8806,3.1389,0l6.0365-6.0223c.8662-.8664,.8662-2.2725,0-3.1532Z" style="fill: #fff; opacity: .5;"/>
  </a>
  <a xlink:href="88.800431372549">
    <path id="fullLogo-66" data-name="fullLogo" d="M431.8614,82.1406h-28.3223v10.0562h12.9681v-2.7697c0-.2699,.0569-.5255,.1703-.7386,.4688-1.0511,1.9461-1.4346,2.8692-.5113l.5115,.5113,3.5083,3.5083h18.3652l-10.0701-10.0562Z" style="fill: #fff; opacity: .5;"/>
  </a>
  <a xlink:href="88.800431372549">
    <path id="fullLogo-67" data-name="fullLogo" d="M425.0294,75.3086c-.696-.696-.696-1.8323,0-2.5141l4.1616-4.1617h-25.6518v8.0534h22.868l-1.3777-1.3777Z" style="fill: #fff; opacity: .5;"/>
  </a>
</svg>