<svg id="Layer_1" data-name="Layer 1" xmlns="http://www.w3.org/2000/svg" viewBox="0 0 311.9664 83.1362">
  <g>
    <path id="fullLogo" d="M12.1063,47.786a1.5911,1.5911,0,0,1,1.3148-1.567L21.71,44.758a1.5913,1.5913,0,0,1,1.8675,1.567v1.4733H35.6835V1.5911A1.5911,1.5911,0,0,0,34.0924,0h-8.924a1.5911,1.5911,0,0,0-1.5911,1.5911V33.36a1.5913,1.5913,0,0,1-1.3151,1.567l-8.2887,1.461a1.5911,1.5911,0,0,1-1.8672-1.567V1.8818A1.5912,1.5912,0,0,0,10.5152.2906H1.5911A1.5911,1.5911,0,0,0,0,1.8818V47.7983H12.1063Z" style="fill: #31314f;fill-rule: evenodd"/>
    <path id="fullLogo-2" data-name="fullLogo" d="M60.4891,24.7718a1.5912,1.5912,0,0,0-1.5624-1.29H49.5918a1.5911,1.5911,0,0,0-1.57,1.3315l-3.8009,22.985H64.9268ZM56.5685,45.44h-3.89a.7691.7691,0,0,1-.7525-.9282l1.5607-7.3769a1.0769,1.0769,0,0,1,2.1072,0l1.5952,7.54A.6344.6344,0,0,1,56.5685,45.44Z" style="fill: #31314f;fill-rule: evenodd"/>
    <path id="fullLogo-3" data-name="fullLogo" d="M83.714,25.4548a1.5913,1.5913,0,0,0-1.5911-1.5911H76.18a1.5911,1.5911,0,0,0-1.5911,1.5911V47.7983H83.714Z" style="fill: #31314f;fill-rule: evenodd"/>
    <path id="fullLogo-4" data-name="fullLogo" d="M122.5818,42.23a1.5912,1.5912,0,0,0-1.5911-1.5912h-6.5824a1.5911,1.5911,0,0,1-1.5912-1.5911v-2.542a6.013,6.013,0,0,1,6.2275-6.2275,9.2784,9.2784,0,0,1,3.6185.6684,1.5945,1.5945,0,0,0,1.9777-.6709l2.9948-5.0325a1.593,1.593,0,0,0-.7164-2.2662c-1.742-.7908-5.1028-1.8241-10.7724-1.8241a12.4941,12.4941,0,0,0-12.455,12.4549v5.44a1.5912,1.5912,0,0,1-1.5911,1.5911H94.3141A1.5911,1.5911,0,0,0,92.723,42.23v5.5685h29.8588Z" style="fill: #31314f;fill-rule: evenodd"/>
    <rect id="fullLogo-5" data-name="fullLogo" y="50.8356" width="12.1063" height="5.5224" style="fill: #31314f"/>
    <rect id="fullLogo-6" data-name="fullLogo" y="62.4326" width="12.1063" height="5.5224" style="fill: #31314f"/>
    <rect id="fullLogo-7" data-name="fullLogo" x="23.5773" y="62.4326" width="12.1063" height="5.5224" style="fill: #31314f"/>
    <rect id="fullLogo-8" data-name="fullLogo" x="23.5773" y="50.8356" width="12.1063" height="5.5224" style="fill: #31314f"/>
    <polygon id="fullLogo-9" data-name="fullLogo" points="59.236 64.932 59.804 67.955 68.809 67.955 68.228 64.932 67.746 62.433 58.766 62.433 59.236 64.932" style="fill: #31314f;fill-rule: evenodd"/>
    <polygon id="fullLogo-10" data-name="fullLogo" points="50.455 64.932 50.847 62.433 41.799 62.433 41.388 64.932 40.886 67.955 49.977 67.955 50.455 64.932" style="fill: #31314f;fill-rule: evenodd"/>
    <path id="fullLogo-11" data-name="fullLogo" d="M43.3225,53.2325l-.5189,3.1255h9.0045l.4944-3.1255.0067-.0415a1.5911,1.5911,0,0,1,1.5713-1.341H55.46a1.5909,1.5909,0,0,1,1.5634,1.2954l.0166.0871.5836,3.1255H66.574l-.6-3.1255-.462-2.3969H43.7189Z" style="fill: #31314f;fill-rule: evenodd"/>
    <rect id="fullLogo-12" data-name="fullLogo" x="74.5887" y="62.4326" width="9.1253" height="5.5224" style="fill: #31314f"/>
    <rect id="fullLogo-13" data-name="fullLogo" x="74.5887" y="50.8356" width="9.1253" height="5.5224" style="fill: #31314f"/>
    <rect id="fullLogo-14" data-name="fullLogo" x="103.6918" y="62.4326" width="9.1253" height="5.5224" style="fill: #31314f"/>
    <path id="fullLogo-15" data-name="fullLogo" d="M112.8577,50.8356h-9.2064a1.5937,1.5937,0,0,1,.04.347V56.358h9.1253V51.1826A1.5876,1.5876,0,0,1,112.8577,50.8356Z" style="fill: #31314f;fill-rule: evenodd"/>
    <path id="fullLogo-16" data-name="fullLogo" d="M163.2759,45.44C158.7574,34.8494,152.895,31.3267,145,24.7793c-8.973-7.4415-2.0083-16.7588,8.9825-10.4521a1.5894,1.5894,0,0,0,2.14-.54l3.7469-6.0294a1.5907,1.5907,0,0,0-.477-2.1695C156.4231,3.6332,148.7072-.6378,141.26,2.0094,131.7773,5.38,125.4142,14.4185,132.5136,26.62c3.37,5.7916,12.4863,9.7562,20.0264,20.7627.0939.1371.1768.277.2656.4155h11.3049A20.5434,20.5434,0,0,0,163.2759,45.44Z" style="fill: #31314f;fill-rule: evenodd"/>
    <path id="fullLogo-17" data-name="fullLogo" d="M133.1169,47.0856a1.5877,1.5877,0,0,0-2.0775.4671c-.0551.0781-.1125.16-.1715.2456h3.518Z" style="fill: #d636c4;fill-rule: evenodd"/>
    <path id="fullLogo-18" data-name="fullLogo" d="M147.8678,67.955h14.1933a30.0732,30.0732,0,0,0,2.0162-5.5224h-10.43A12.2855,12.2855,0,0,1,147.8678,67.955Z" style="fill: #31314f;fill-rule: evenodd"/>
    <path id="fullLogo-19" data-name="fullLogo" d="M135.66,62.4326H124.995a15.1905,15.1905,0,0,0,.5191,5.5224h12.813C136.5223,66.7768,135.7467,64.7622,135.66,62.4326Z" style="fill: #31314f;fill-rule: evenodd"/>
    <path id="fullLogo-20" data-name="fullLogo" d="M155.2276,56.358H165.02a27.55,27.55,0,0,0-.25-5.5224H154.3245A14.707,14.707,0,0,1,155.2276,56.358Z" style="fill: #31314f;fill-rule: evenodd"/>
    <path id="fullLogo-21" data-name="fullLogo" d="M138.5318,51.9455a1.5971,1.5971,0,0,0,.1584-1.11h-9.7317a35.96,35.96,0,0,0-2.58,5.5224h10.2573A25.6026,25.6026,0,0,1,138.5318,51.9455Z" style="fill: #31314f;fill-rule: evenodd"/>
    <path id="fullLogo-22" data-name="fullLogo" d="M23.5773,77.4439a1.591,1.591,0,0,0,1.5911,1.5911h8.924a1.591,1.591,0,0,0,1.5911-1.5911V67.955H23.5773Z" style="fill: #a633db"/>
    <path id="fullLogo-23" data-name="fullLogo" d="M1.5911,79.33h8.9241a1.5912,1.5912,0,0,0,1.5911-1.5911V67.955H0v9.7837A1.5911,1.5911,0,0,0,1.5911,79.33Z" style="fill: #a633db"/>
    <path id="fullLogo-24" data-name="fullLogo" d="M59.8377,68.1328l.4983,2.6446.6021,3.2051.4981,2.6446L61.7,78.0317A1.5911,1.5911,0,0,0,63.2633,79.33h5.8125a1.591,1.591,0,0,0,1.5625-1.8912l-.1557-.8115-.5106-2.6446-.6187-3.2051-.5107-2.6446-.034-.1778H59.8043Z" style="fill: #a633db"/>
    <path id="fullLogo-25" data-name="fullLogo" d="M40.42,70.7774l-.5313,3.2051-.4358,2.6446-.1413.8511a1.5912,1.5912,0,0,0,1.57,1.8516h5.935a1.5914,1.5914,0,0,0,1.5717-1.3425l.215-1.36.4195-2.6446.5063-3.2051.4195-2.6446.0281-.1778H40.8861l-.03.1778Z" style="fill: #a633db"/>
    <path id="fullLogo-26" data-name="fullLogo" d="M74.5887,77.7387A1.5911,1.5911,0,0,0,76.18,79.33H96.965a1.5913,1.5913,0,0,0,1.5912-1.5911V71.7956a1.5912,1.5912,0,0,0-1.5912-1.5911h-11.66a1.5911,1.5911,0,0,1-1.5911-1.5912V67.955H74.5887Z" style="fill: #a633db"/>
    <path id="fullLogo-27" data-name="fullLogo" d="M103.6918,77.7387a1.5912,1.5912,0,0,0,1.5911,1.5911h5.9431a1.5911,1.5911,0,0,0,1.5911-1.5911V67.955h-9.1253Z" style="fill: #a633db"/>
    <path id="fullLogo-28" data-name="fullLogo" d="M142.9186,69.0563a7.96,7.96,0,0,1-4.5915-1.1013h-12.813c1.2127,4.1165,4.51,7.96,11.4157,10.6026,11.9641,4.5786,20.7947-1.6188,25.1313-10.6026H147.8678A12.4551,12.4551,0,0,1,142.9186,69.0563Z" style="fill: #a633db"/>
    <rect id="fullLogo-29" data-name="fullLogo" x="23.5773" y="56.358" width="12.1063" height="6.0746" style="fill: #bf35d8"/>
    <rect id="fullLogo-30" data-name="fullLogo" y="56.358" width="12.1063" height="6.0746" style="fill: #bf35d8"/>
    <polygon id="fullLogo-31" data-name="fullLogo" points="50.87 62.283 51.377 59.082 51.796 56.433 51.808 56.358 42.804 56.358 42.791 56.433 42.355 59.082 41.824 62.283 41.799 62.433 50.847 62.433 50.87 62.283" style="fill: #bf35d8"/>
    <polygon id="fullLogo-32" data-name="fullLogo" points="57.637 56.433 58.136 59.082 58.738 62.283 58.766 62.433 67.746 62.433 67.718 62.283 67.099 59.082 66.588 56.433 66.574 56.358 57.623 56.358 57.637 56.433" style="fill: #bf35d8"/>
    <rect id="fullLogo-33" data-name="fullLogo" x="74.5887" y="56.358" width="9.1253" height="6.0746" style="fill: #bf35d8"/>
    <rect id="fullLogo-34" data-name="fullLogo" x="103.6918" y="56.358" width="9.1253" height="6.0746" style="fill: #bf35d8"/>
    <path id="fullLogo-35" data-name="fullLogo" d="M136.6356,56.358H126.3783a23.5361,23.5361,0,0,0-1.3833,6.0746H135.66A18.1388,18.1388,0,0,1,136.6356,56.358Z" style="fill: #bf35d8"/>
    <path id="fullLogo-36" data-name="fullLogo" d="M153.6477,62.4326h10.43a30.82,30.82,0,0,0,.9428-6.0746h-9.7925A13.9737,13.9737,0,0,1,153.6477,62.4326Z" style="fill: #bf35d8"/>
    <rect id="fullLogo-37" data-name="fullLogo" x="23.5773" y="47.7983" width="12.1063" height="3.0373" style="fill: #d636c4"/>
    <rect id="fullLogo-38" data-name="fullLogo" y="47.7983" width="12.1063" height="3.0373" style="fill: #d636c4"/>
    <polygon id="fullLogo-39" data-name="fullLogo" points="44.221 47.798 43.719 50.836 65.512 50.836 64.927 47.798 44.221 47.798" style="fill: #d636c4"/>
    <rect id="fullLogo-40" data-name="fullLogo" x="74.5887" y="47.7983" width="9.1253" height="3.0373" style="fill: #d636c4"/>
    <path id="fullLogo-41" data-name="fullLogo" d="M137.9223,49.7842l-3.5364-1.9859h-3.518c-.525.7581-1.2019,1.796-1.9094,3.0373H138.69A1.5741,1.5741,0,0,0,137.9223,49.7842Z" style="fill: #d636c4"/>
    <path id="fullLogo-42" data-name="fullLogo" d="M152.8056,47.7983a15.5641,15.5641,0,0,1,1.5189,3.0373H164.77a23.4441,23.4441,0,0,0-.66-3.0373Z" style="fill: #d636c4"/>
    <path id="fullLogo-43" data-name="fullLogo" d="M114.4083,49.5915h6.5824A1.5912,1.5912,0,0,0,122.5818,48v-.2021H92.723V48a1.5911,1.5911,0,0,0,1.5911,1.5911h7.7866a1.59,1.59,0,0,1,1.5506,1.2441h9.2064A1.59,1.59,0,0,1,114.4083,49.5915Z" style="fill: #d636c4"/>
    <path id="fullLogo-44" data-name="fullLogo" d="M186.7166,42.8793a1.5911,1.5911,0,0,1,1.5911-1.5911h9.14a1.5911,1.5911,0,0,0,1.5911-1.5911V34.8542a1.5911,1.5911,0,0,0-1.5911-1.5912h-9.14a1.591,1.591,0,0,1-1.5911-1.5911V22.7438a1.5912,1.5912,0,0,0-1.5912-1.5911h-5.943a1.5912,1.5912,0,0,0-1.5912,1.5911v8.9281A1.5912,1.5912,0,0,1,176,33.263h-7.7866a1.5911,1.5911,0,0,0-1.5911,1.5912v4.8429a1.5911,1.5911,0,0,0,1.5911,1.5911H176a1.5912,1.5912,0,0,1,1.5911,1.5911v4.919h9.1254Z" style="fill: #31314f;fill-rule: evenodd"/>
    <rect id="fullLogo-45" data-name="fullLogo" x="177.5912" y="56.358" width="9.1253" height="6.0746" style="fill: #bf35d8"/>
    <path id="fullLogo-46" data-name="fullLogo" d="M308.1816,29.0989a1.5913,1.5913,0,0,0,0-2.25l-2.2834-2.2833a1.5911,1.5911,0,0,0-2.25,0l-16.3645,16.368a1.2,1.2,0,0,1-2.0479-.8482V25.0729a1.591,1.591,0,0,0-1.5911-1.5911H277.701a1.591,1.591,0,0,0-1.5911,1.5911V47.7983h13.3759Z" style="fill: #31314f;fill-rule: evenodd"/>
    <path id="fullLogo-47" data-name="fullLogo" d="M277.701,79.33h5.9431a1.5911,1.5911,0,0,0,1.5911-1.5911V67.955H276.11v9.7837A1.5911,1.5911,0,0,0,277.701,79.33Z" style="fill: #a633db"/>
    <path id="fullLogo-48" data-name="fullLogo" d="M306.8147,78.5153a1.5911,1.5911,0,0,0,2.251-.0008l1.8848-1.8874.3945-.3945a1.591,1.591,0,0,0,0-2.25L308.14,70.7774l-2.8225-2.8224h-9.0631Z" style="fill: #a633db"/>
    <path id="fullLogo-49" data-name="fullLogo" d="M276.11,62.4326h9.1253v-2.69a1.1625,1.1625,0,0,1,1.9846-.822l3.5123,3.5122h9.0629l-.1494-.15-3.2009-3.2009-2.7241-2.7242H276.11Z" style="fill: #bf35d8"/>
    <path id="fullLogo-50" data-name="fullLogo" d="M177.5912,66.8748c0,.3633.0189.723.0521,1.08h10.4023a6.2413,6.2413,0,0,1-1.2668-3.0232,7.2178,7.2178,0,0,1-.0622-.9548V62.4326h-9.1254Z" style="fill: #31314f;fill-rule: evenodd"/>
    <rect id="fullLogo-51" data-name="fullLogo" x="177.5912" y="50.8356" width="9.1253" height="5.5224" style="fill: #31314f"/>
    <polygon id="fullLogo-52" data-name="fullLogo" points="296.254 67.955 305.317 67.955 302.294 64.932 299.795 62.433 290.732 62.433 296.254 67.955" style="fill: #31314f;fill-rule: evenodd"/>
    <path id="fullLogo-53" data-name="fullLogo" d="M276.11,56.358h17.6107l-5.2721-5.272a1.6,1.6,0,0,1-.2043-.25H276.11Z" style="fill: #31314f;fill-rule: evenodd"/>
    <rect id="fullLogo-54" data-name="fullLogo" x="276.1099" y="62.4326" width="9.1253" height="5.5224" style="fill: #31314f"/>
    <polygon id="fullLogo-55" data-name="fullLogo" points="224.863 64.932 225.432 67.955 234.436 67.955 233.856 64.932 233.374 62.433 224.393 62.433 224.863 64.932" style="fill: #31314f;fill-rule: evenodd"/>
    <polygon id="fullLogo-56" data-name="fullLogo" points="216.083 64.932 216.474 62.433 207.427 62.433 207.015 64.932 206.514 67.955 215.604 67.955 216.083 64.932" style="fill: #31314f;fill-rule: evenodd"/>
    <path id="fullLogo-57" data-name="fullLogo" d="M208.95,53.2325l-.519,3.1255h9.0045l.4944-3.1255.0067-.0415a1.5911,1.5911,0,0,1,1.5713-1.341h1.5792a1.5909,1.5909,0,0,1,1.5633,1.2954l.0166.0871.5837,3.1255h8.9508l-.6-3.1255-.462-2.3969H209.3465Z" style="fill: #31314f;fill-rule: evenodd"/>
    <path id="fullLogo-58" data-name="fullLogo" d="M226.1167,24.7718a1.5911,1.5911,0,0,0-1.5624-1.29h-9.3349a1.5909,1.5909,0,0,0-1.57,1.3315l-3.801,22.985h20.7056ZM222.1961,45.44h-3.89a.7691.7691,0,0,1-.7525-.9282l1.5607-7.3769a1.077,1.077,0,0,1,2.1073,0l1.5951,7.54A.6344.6344,0,0,1,222.1961,45.44Z" style="fill: #31314f;fill-rule: evenodd"/>
    <path id="fullLogo-59" data-name="fullLogo" d="M225.4654,68.1328l.4982,2.6446.6021,3.2051.4981,2.6446.2633,1.4046a1.5911,1.5911,0,0,0,1.5638,1.2981h5.8125a1.5909,1.5909,0,0,0,1.5625-1.8912l-.1557-.8115L235.6,73.9825l-.6187-3.2051-.5106-2.6446-.0341-.1778h-9.0043Z" style="fill: #a633db"/>
    <path id="fullLogo-60" data-name="fullLogo" d="M206.0481,70.7774l-.5314,3.2051-.4358,2.6446-.1413.8511a1.5912,1.5912,0,0,0,1.57,1.8516h5.935a1.5914,1.5914,0,0,0,1.5717-1.3425l.2151-1.36.4194-2.6446.5064-3.2051.4194-2.6446.0282-.1778h-9.0907l-.03.1778Z" style="fill: #a633db"/>
    <polygon id="fullLogo-61" data-name="fullLogo" points="216.498 62.283 217.004 59.082 217.424 56.433 217.436 56.358 208.431 56.358 208.419 56.433 207.983 59.082 207.451 62.283 207.427 62.433 216.474 62.433 216.498 62.283" style="fill: #bf35d8"/>
    <polygon id="fullLogo-62" data-name="fullLogo" points="223.265 56.433 223.763 59.082 224.365 62.283 224.393 62.433 233.374 62.433 233.345 62.283 232.727 59.082 232.216 56.433 232.202 56.358 223.251 56.358 223.265 56.433" style="fill: #bf35d8"/>
    <rect id="fullLogo-63" data-name="fullLogo" x="177.5912" y="47.7983" width="9.1253" height="3.0373" style="fill: #d636c4"/>
    <path id="fullLogo-64" data-name="fullLogo" d="M288.4483,48.8359l1.0375-1.0376H276.11v3.0373h12.1343A1.5916,1.5916,0,0,1,288.4483,48.8359Z" style="fill: #d636c4"/>
    <polygon id="fullLogo-65" data-name="fullLogo" points="209.849 47.798 209.346 50.836 231.14 50.836 230.554 47.798 209.849 47.798" style="fill: #d636c4"/>
    <path id="fullLogo-66" data-name="fullLogo" d="M200.1517,77.7865h0c.0845-.033.1652-.0658.2444-.0984a1.7855,1.7855,0,0,0,1.0771-2.5515l-.2467-.4144v0a1.8636,1.8636,0,0,1-.1277-.2144l-.3126-.5252-1.9056-3.2051-.3407-.5732a1.5926,1.5926,0,0,0-1.9775-.67,9.2553,9.2553,0,0,1-3.6186.67,6.0931,6.0931,0,0,1-4.7577-2.0716c-.0491-.0575-.0939-.1185-.1407-.1778H177.6433c.0055.0591.0077.1188.0142.1778a11.9425,11.9425,0,0,0,.5648,2.6446,12.1575,12.1575,0,0,0,1.6108,3.2051A12.5387,12.5387,0,0,0,190.0462,79.33a27.8962,27.8962,0,0,0,10.1055-1.5432Z" style="fill: #a633db"/>
    <path id="fullLogo-67" data-name="fullLogo" d="M241.5772,71.3028c.2441.403.5007.7979.765,1.18a21.33,21.33,0,0,0,1.5389,1.9623,16.5711,16.5711,0,0,0,2.85,2.5931,14.1439,14.1439,0,0,0,8.4346,2.65,13.3408,13.3408,0,0,0,8.31-2.7541,13.9649,13.9649,0,0,0,1.787-1.5591c.3176-.3257.6227-.6677.9161-1.034a18.7935,18.7935,0,0,0,2.0436-3.1427,25.0684,25.0684,0,0,0,1.1642-2.5933c.0908-.2331.1775-.4734.2627-.7165h-9.5809a8.8273,8.8273,0,0,1-.6924.7165,6.0047,6.0047,0,0,1-4.2871,1.944,7.2876,7.2876,0,0,1-4.9258-1.84,8.8866,8.8866,0,0,1-.8194-.82h-9.461c.1114.275.2193.5538.3393.82A23.2608,23.2608,0,0,0,241.5772,71.3028Z" style="fill: #a633db"/>
    <path id="fullLogo-68" data-name="fullLogo" d="M262.5757,63.0091a17.2274,17.2274,0,0,1-.9492,2.458,11.0153,11.0153,0,0,1-1.1254,1.8872c-.0982.1315-.1969.2623-.2991.3844-.0437.0525-.09.1-.1342.1505h9.5809c.0618-.1769.123-.3547.1828-.5349.0994-.2992.1975-.6.2921-.9079a27.8845,27.8845,0,0,0,.9348-4.0138H262.71C262.6286,62.7832,262.5757,63.0091,262.5757,63.0091Z" style="fill: #31314f"/>
    <path id="fullLogo-69" data-name="fullLogo" d="M238.3446,62.9737c.1995.8956.4274,1.7627.6921,2.5973.19.6139.4012,1.205.6242,1.7833.07.1818.1486.3555.2212.5349h9.461c-.1521-.1716-.3021-.3483-.4484-.5349a12.4116,12.4116,0,0,1-.7552-1.0669c-.1427-.2279-.2769-.464-.4072-.7164a14.3786,14.3786,0,0,1-1.026-2.5973c-.0523-.1748-.1-.3586-.149-.5411h-8.3217C238.2731,62.6118,238.3047,62.7972,238.3446,62.9737Z" style="fill: #31314f"/>
    <path id="fullLogo-70" data-name="fullLogo" d="M271.495,59.667a1.4,1.4,0,0,0-.82-1.7624L265.3105,56.43c-.8449-.06-1.4291.272-1.582,1.4486-.0377.29-.45,2.0986-.7707,3.4871-.0949.41-.1806.78-.2475,1.0667h8.3481c.0555-.3321.1115-.679.1721-1.0667C271.3091,60.8639,271.3947,60.3072,271.495,59.667Z" style="fill: #bf35d8"/>
    <path id="fullLogo-71" data-name="fullLogo" d="M246.01,59.8351c-.1344-.8142-.24-1.6772-.3256-2.5973-.0259-.2849-.0458-.5828-.066-.88h-8.1864c.0174.2952.0345.5909.0578.88.0732.8916.1709,1.7546.2887,2.5973.07.52.152,1.0294.2418,1.5308.0649.3627.1411.7135.2151,1.0667h8.3217c-.0918-.3444-.18-.697-.26-1.0667C246.1916,60.8775,246.0949,60.3689,246.01,59.8351Z" style="fill: #bf35d8"/>
    <path id="fullLogo-72" data-name="fullLogo" d="M245.8689,45.4968a18.0192,18.0192,0,0,1,2.3112-7.205q2.7111-4.2257,7.0671-4.2256a7.0217,7.0217,0,0,1,5.3572,2.3856,11.3634,11.3634,0,0,1,2.551,4.89,1.558,1.558,0,0,0,1.9836,1.0829l4.8318-1.56a1.5586,1.5586,0,0,0,1.0379-1.8512,21.9326,21.9326,0,0,0-3.6872-8.3421,14.1411,14.1411,0,0,0-11.6753-5.7441q-8.2255,0-13.2754,7.3155a29.8116,29.8116,0,0,0-4.6084,13.2543c-.0969.7459-.1715,1.5178-.2359,2.3015h8.0967Q245.7173,46.5922,245.8689,45.4968Z" style="fill: #31314f"/>
    <path id="fullLogo-73" data-name="fullLogo" d="M237.3509,50.8356c-.02.6359-.032,1.2812-.032,1.9405,0,.4478.004.8875.0162,1.3231.0045.23.0162.4525.0233.6795.0171.5344.0428,1.06.0738,1.5793h8.1864c-.0349-.5139-.0653-1.0381-.0876-1.5793-.01-.2275-.0229-.4466-.03-.6795-.02-.684-.0325-1.3883-.0325-2.1169,0-.3922.0082-.7684.0155-1.1467Z" style="fill: #31314f"/>
    <path id="fullLogo-74" data-name="fullLogo" d="M245.5555,48.79c.0191-.3374.0422-.667.0677-.9921h-8.0967c-.0272.33-.0574.6559-.0791.9921q-.0645,1.0037-.0965,2.0452h8.1335C245.4975,50.1338,245.5184,49.4467,245.5555,48.79Z" style="fill: #d636c4"/>
  </g>
</svg>
