<svg id="Layer_1" data-name="Layer 1" xmlns="http://www.w3.org/2000/svg" xmlns:xlink="http://www.w3.org/1999/xlink" width="52" height="23" viewBox="0 0 52 23"><defs><style>.cls-1{fill:url(#linear-gradient);}.cls-2{fill:url(#linear-gradient-2);}.cls-3{fill:#333;}</style><linearGradient id="linear-gradient" x1="18.891" y1="7.145" x2="33.051" y2="17.584" gradientUnits="userSpaceOnUse"><stop offset="0.005" stop-color="#f37437"/><stop offset="1" stop-color="#fac927"/></linearGradient><linearGradient id="linear-gradient-2" x1="23.987" y1="2.248" x2="39.827" y2="21.078" gradientUnits="userSpaceOnUse"><stop offset="0" stop-color="#f37437"/><stop offset="1" stop-color="#fac927"/></linearGradient></defs><path class="cls-1" d="M26.244,19.479a7.9,7.9,0,0,1,0-15.232A1.588,1.588,0,0,0,25.4,1.185a11.079,11.079,0,0,0,0,21.355,1.56,1.56,0,0,0,.424.058h0a1.588,1.588,0,0,0,.423-3.12Z"/><path class="cls-2" d="M31.412,1.186a1.607,1.607,0,0,0-.425-.058h0a1.588,1.588,0,0,0-.423,3.12,7.905,7.905,0,0,1,0,15.232,1.589,1.589,0,0,0,.848,3.062,11.079,11.079,0,0,0,0-21.355Z"/><path class="cls-3" d="M1.979,22.58A1.971,1.971,0,0,1,.39,21.168a2.618,2.618,0,0,1,1.057-2.541l.847-.762c.355-.315.709-.657,1.077-.952l5.253-4.485.782-.657a19.9,19.9,0,0,0,1.53-1.313A4.284,4.284,0,0,0,12.21,7.339,2.756,2.756,0,0,0,11.244,5.3a4.3,4.3,0,0,0-3.211-.972,6.393,6.393,0,0,0-4.228,2.3A1.586,1.586,0,0,1,1.362,4.607h0A9.635,9.635,0,0,1,7.744,1.166,7.389,7.389,0,0,1,13.28,2.86a5.91,5.91,0,0,1,2.1,4.334,7.444,7.444,0,0,1-2.16,5.5,22.681,22.681,0,0,1-1.773,1.55l-.736.591-5.377,4.6H13.8a1.586,1.586,0,0,1,1.586,1.586A1.57,1.57,0,0,1,13.8,22.58Z"/><circle class="cls-3" cx="43.827" cy="2.716" r="1.596"/><path class="cls-3" d="M43.84,22.573a1.582,1.582,0,0,1-1.582-1.582V9.328a1.586,1.586,0,0,1,3.172,0V20.984a1.583,1.583,0,0,1-1.576,1.589Z"/><path class="cls-3" d="M51.676,2.143a1.754,1.754,0,1,1-3.507.011A1.732,1.732,0,0,1,49.928.4,1.709,1.709,0,0,1,51.676,2.143Zm-.288,0a1.429,1.429,0,0,0-1.46-1.47,1.45,1.45,0,0,0-1.475,1.481,1.468,1.468,0,1,0,2.935-.011Zm-.954.319.437.67h-.427l-.387-.6h-.442v.6h-.428V1.175H50c.516,0,.824.268.824.681A.609.609,0,0,1,50.434,2.462Zm-.456-.26c.277,0,.437-.129.437-.346s-.16-.342-.437-.342H49.61V2.2Z"/></svg>