<?xml version="1.0" encoding="UTF-8"?>
<svg width="887px" height="203px" viewBox="0 0 887 203" version="1.1" xmlns="http://www.w3.org/2000/svg" xmlns:xlink="http://www.w3.org/1999/xlink">
    <!-- Generator: Sketch 56 (81588) - https://sketch.com -->
    <title>APEX COLOR LOGO</title>
    <desc>Created with Sketch.</desc>
    <defs>
        <polygon id="path-1" points="0.621 0.972 123.978 0.972 123.978 51.94 0.621 51.94"></polygon>
    </defs>
    <g id="APEX-COLOR-LOGO" stroke="none" stroke-width="1" fill="none" fill-rule="evenodd">
        <path d="M351.033,169.347 L315.493,169.347 L324.312,174.633 L351.149,174.633 C351.138,172.864 351.097,171.103 351.033,169.347 L351.033,169.347 Z M350.391,159.364 L298.837,159.364 L308.635,165.237 L350.838,165.237 C350.722,163.27 350.573,161.313 350.391,159.364 L350.391,159.364 Z M0.654,191.077 L0.882,191.077 L8.554,186.378 L0.316,186.378 C0.411,187.948 0.519,189.516 0.654,191.077 L0.654,191.077 Z M348.804,147.031 L278.26,147.031 L291.979,155.255 L349.96,155.255 C349.638,152.494 349.252,149.753 348.804,147.031 L348.804,147.031 Z M344.477,127.653 L245.928,127.653 L271.402,142.922 L348.076,142.922 C347.096,137.75 345.901,132.653 344.477,127.653 L344.477,127.653 Z M0.116,182.267 L15.264,182.267 L21.015,178.744 L0.018,178.744 C0.038,179.922 0.072,181.095 0.116,182.267 L0.116,182.267 Z M350.547,190.357 C350.655,189.033 350.753,187.709 350.833,186.378 L343.907,186.378 L350.547,190.357 Z M337.049,182.267 L351.033,182.267 C351.077,181.095 351.111,179.922 351.131,178.744 L331.17,178.744 L337.049,182.267 Z M0.311,165.237 L43.064,165.237 L52.65,159.364 L0.758,159.364 C0.577,161.313 0.428,163.27 0.311,165.237 L0.311,165.237 Z M1.189,155.255 L59.36,155.255 L72.784,147.031 L2.346,147.031 C1.897,149.753 1.511,152.494 1.189,155.255 L1.189,155.255 Z M7.895,123.543 L111.129,123.543 L142.767,104.161 L15.227,104.161 C12.419,110.437 9.963,116.903 7.895,123.543 L7.895,123.543 Z M3.073,142.922 L79.494,142.922 L104.419,127.653 L6.672,127.653 C5.248,132.653 4.054,137.75 3.073,142.922 L3.073,142.922 Z M0,174.633 L27.725,174.633 L36.354,169.347 L0.116,169.347 C0.052,171.103 0.012,172.864 0,174.633 L0,174.633 Z M335.922,104.161 L206.732,104.161 L239.069,123.543 L343.254,123.543 C341.186,116.903 338.73,110.437 335.922,104.161 L335.922,104.161 Z M175.574,0.218 C133.578,0.218 95.031,14.97 64.815,39.564 L286.334,39.564 C256.118,14.97 217.571,0.218 175.574,0.218 L175.574,0.218 Z M291.205,43.675 L59.944,43.675 C50.512,51.937 41.97,61.19 34.485,71.276 L316.664,71.276 C309.179,61.19 300.638,51.937 291.205,43.675 L291.205,43.675 Z M319.618,75.386 L31.531,75.386 C26.094,83.172 21.265,91.413 17.128,100.05 L149.478,100.05 L174.401,84.783 L199.874,100.05 L334.021,100.05 C329.884,91.413 325.056,83.172 319.618,75.386 L319.618,75.386 Z" id="Fill-1" fill="#217AB2"></path>
        <polyline id="Fill-2" fill="#217AB2" points="342.355 191.077 6.446 191.077 174.401 137.048 342.355 191.077"></polyline>
        <path d="M461.885,78.322 L427.702,78.322 L378.5,144.095 L407.503,144.095 L416.825,128.239 L471.725,128.239 L482.084,143.508 L510.05,143.508 L461.885,78.322 Z M426.149,118.844 L444.274,92.417 L462.401,118.844 L426.149,118.844 L426.149,118.844 Z" id="Fill-3" fill="#797C7A"></path>
        <path d="M604.312,78.91 L526.105,78.91 L526.105,142.922 L553.556,142.922 L553.556,117.669 L603.278,117.669 C641.93,115.696 644.662,81.121 604.312,78.91 M592.45,108.442 L553.615,108.442 L553.615,87.971 L592.45,87.971 C613.164,88.623 605.107,108.846 592.45,108.442" id="Fill-4" fill="#797C7A"></path>
        <polyline id="Fill-5" fill="#797C7A" points="646.088 78.633 748.251 78.633 748.251 88.706 673.502 88.706 673.502 102.665 742.412 102.665 742.412 113.6 673.375 113.6 673.375 132.064 751.932 132.064 751.932 142.092 646.088 142.092 646.088 78.633"></polyline>
        <polyline id="Fill-6" fill="#797C7A" points="770.707 78.515 802.858 78.515 826.756 99.763 852.276 78.515 882.592 78.515 844.394 108.304 886.632 142.259 855.4 142.259 826.756 118.698 796.61 142.259 767.212 142.259 810.388 108.096 770.707 78.515"></polyline>
        <g id="Group-10" transform="translate(378.000000, 151.000000)">
            <mask id="mask-2" fill="white">
                <use xlink:href="#path-1"></use>
            </mask>
            <g id="Clip-8"></g>
            <path d="M0.621,28.038 L7.721,27.613 C8.1,29.754 8.959,31.422 10.3,32.617 C11.641,33.809 13.558,34.77 16.051,35.495 C18.543,36.22 21.352,36.583 24.476,36.583 C28.956,36.583 32.435,35.97 34.912,34.742 C37.388,33.516 38.627,31.921 38.627,29.962 C38.627,28.817 38.178,27.815 37.278,26.957 C36.379,26.101 35.022,25.4 33.208,24.853 C31.393,24.305 27.473,23.531 21.446,22.53 C16.082,21.639 12.265,20.741 9.993,19.838 C7.721,18.937 5.953,17.791 4.691,16.404 C3.429,15.014 2.798,13.444 2.798,11.694 C2.798,8.543 4.612,5.97 8.241,3.972 C11.87,1.973 16.761,0.972 22.914,0.972 C27.142,0.972 30.842,1.441 34.013,2.379 C37.184,3.316 39.645,4.66 41.396,6.413 C43.147,8.163 44.085,10.225 44.212,12.594 L36.971,12.966 C36.592,10.435 35.243,8.562 32.924,7.342 C30.605,6.12 27.346,5.509 23.15,5.509 C18.891,5.509 15.641,6.044 13.4,7.113 C11.16,8.187 10.04,9.569 10.04,11.267 C10.04,12.841 10.859,14.061 12.501,14.929 C14.142,15.795 17.833,16.673 23.573,17.561 C29.186,18.431 33.129,19.189 35.4,19.827 C38.869,20.822 41.49,22.127 43.26,23.745 C45.03,25.364 45.917,27.291 45.917,29.537 C45.917,31.764 44.985,33.792 43.124,35.619 C41.262,37.449 38.729,38.84 35.527,39.795 C32.324,40.748 28.467,41.227 23.955,41.227 C16.918,41.227 11.31,40.04 7.129,37.671 C2.948,35.3 0.779,32.089 0.621,28.038" id="Fill-7" fill="#797C7A" mask="url(#mask-2)"></path>
            <path d="M89.852,51.416 L89.095,46.933 C90.642,47.214 91.969,47.356 93.074,47.356 C94.558,47.356 95.782,47.189 96.745,46.852 C97.708,46.515 98.506,45.993 99.138,45.285 C99.358,45.038 100.274,43.478 101.886,40.605 L86.208,12.382 L93.733,12.382 L102.347,28.695 C103.421,30.728 104.414,32.901 105.329,35.217 C106.118,33.023 107.064,30.886 108.169,28.798 L116.972,12.382 L123.978,12.382 L108.341,41.04 C106.286,44.756 104.666,47.238 103.481,48.485 C102.296,49.732 100.953,50.628 99.452,51.177 C97.951,51.726 96.252,52 94.356,52 C93.028,52 91.526,51.805 89.852,51.416" id="Fill-9" fill="#797C7A" mask="url(#mask-2)"></path>
        </g>
        <path d="M540.045,183.126 L547.002,182.382 C547.41,184.37 548.528,185.853 550.354,186.821 C552.18,187.789 554.604,188.275 557.626,188.275 C560.647,188.275 562.985,187.854 564.639,187.013 C566.289,186.172 567.118,185.109 567.118,183.815 C567.118,182.701 566.407,181.834 564.988,181.214 C564.009,180.788 561.643,180.259 557.889,179.622 C552.46,178.685 548.831,177.888 547.002,177.235 C545.172,176.58 543.751,175.703 542.742,174.608 C541.731,173.51 541.229,172.263 541.229,170.864 C541.229,168.46 542.6,166.506 545.346,165.001 C548.091,163.497 551.893,162.745 556.752,162.745 C559.812,162.745 562.503,163.056 564.822,163.674 C567.142,164.294 568.916,165.124 570.146,166.168 C571.378,167.211 572.229,168.707 572.703,170.655 L565.888,171.289 C565.255,168.211 562.272,166.672 556.941,166.672 C553.912,166.672 551.655,167.011 550.174,167.69 C548.689,168.37 547.949,169.236 547.949,170.293 C547.949,171.332 548.658,172.152 550.082,172.751 C550.935,173.103 553.464,173.668 557.669,174.443 C563.45,175.471 567.189,176.291 568.889,176.904 C570.586,177.513 571.906,178.347 572.849,179.401 C573.792,180.456 574.265,181.709 574.265,183.163 C574.265,185.855 572.741,188.035 569.697,189.7 C566.651,191.368 562.494,192.201 557.227,192.201 C547.348,192.201 541.621,189.174 540.045,183.126" id="Fill-11" fill="#797C7A"></path>
        <path d="M632.92,187.29 L633.865,191.51 C631.94,191.793 630.204,191.936 628.66,191.936 C626.229,191.936 624.272,191.666 622.79,191.125 C621.307,190.586 620.29,189.847 619.739,188.907 C619.185,187.972 618.91,186.105 618.91,183.313 L618.91,167.098 L613.797,167.098 L613.797,163.382 L618.91,163.382 L618.91,156.405 L625.867,153.539 L625.867,163.382 L632.92,163.382 L632.92,167.098 L625.867,167.098 L625.867,183.575 C625.867,185.099 626.071,186.081 626.482,186.522 C627.081,187.158 628.201,187.476 629.843,187.476 C630.632,187.476 631.656,187.416 632.92,187.29" id="Fill-12" fill="#797C7A"></path>
        <path d="M679.6,174.766 L702.603,174.766 C702.286,172.324 701.356,170.503 699.811,169.302 C697.57,167.55 694.715,166.672 691.242,166.672 C688.119,166.672 685.453,167.404 683.244,168.863 C681.036,170.32 679.821,172.288 679.6,174.766 Z M702.556,182.488 L709.749,183.097 C708.551,186.105 706.381,188.373 703.241,189.905 C700.102,191.436 696.213,192.201 691.575,192.201 C685.737,192.201 681.013,190.958 677.398,188.472 C673.786,185.988 671.979,182.401 671.979,177.712 C671.979,172.847 673.803,169.137 677.446,166.58 C681.092,164.025 685.706,162.745 691.29,162.745 C696.623,162.745 701.072,164.001 704.638,166.513 C708.202,169.025 709.986,172.661 709.986,177.419 L709.939,178.694 L679.175,178.694 C679.458,181.861 680.768,184.248 683.103,185.857 C685.438,187.468 688.276,188.275 691.622,188.275 C696.86,188.275 700.504,186.346 702.556,182.488 L702.556,182.488 Z" id="Fill-13" fill="#797C7A"></path>
        <path d="M753.544,191.563 L753.544,163.382 L759.791,163.382 L759.791,167.31 C761.177,165.851 762.957,164.724 765.13,163.934 C767.304,163.142 769.682,162.745 772.265,162.745 C775.163,162.745 777.612,163.163 779.612,163.999 C781.612,164.836 783.039,166.055 783.89,167.654 C785.534,166.019 787.428,164.792 789.563,163.972 C791.702,163.155 794.068,162.745 796.664,162.745 C800.621,162.745 803.74,163.497 806.021,165.001 C808.301,166.506 809.44,168.91 809.44,172.217 L809.44,191.563 L802.483,191.563 L802.483,173.792 C802.483,171.774 802.222,170.343 801.697,169.5 C801.174,168.661 800.326,168.011 799.152,167.551 C797.978,167.09 796.661,166.857 795.202,166.857 C792.187,166.857 789.729,167.53 787.825,168.864 C785.922,170.201 784.971,172.304 784.971,175.174 L784.971,191.563 L778.013,191.563 L778.013,173.235 C778.013,170.896 777.375,169.249 776.097,168.294 C774.819,167.336 773.059,166.857 770.819,166.857 C767.632,166.857 765.116,167.579 763.27,169.024 C761.425,170.468 760.502,173.102 760.502,176.927 L760.502,191.563 L753.544,191.563" id="Fill-14" fill="#797C7A"></path>
        <path d="M851.908,183.126 L858.867,182.382 C859.275,184.37 860.394,185.853 862.218,186.821 C864.044,187.789 866.469,188.275 869.491,188.275 C872.513,188.275 874.849,187.854 876.504,187.013 C878.155,186.172 878.982,185.109 878.982,183.815 C878.982,182.701 878.272,181.834 876.853,181.214 C875.873,180.788 873.507,180.259 869.753,179.622 C864.324,178.685 860.696,177.888 858.867,177.235 C857.035,176.58 855.616,175.703 854.606,174.608 C853.597,173.51 853.092,172.263 853.092,170.864 C853.092,168.46 854.466,166.506 857.21,165.001 C859.955,163.497 863.757,162.745 868.617,162.745 C871.677,162.745 874.367,163.056 876.688,163.674 C879.006,164.294 880.78,165.124 882.012,166.168 C883.242,167.211 884.094,168.707 884.567,170.655 L877.752,171.289 C877.119,168.211 874.138,166.672 868.807,166.672 C865.777,166.672 863.52,167.011 862.037,167.69 C860.554,168.37 859.813,169.236 859.813,170.293 C859.813,171.332 860.524,172.152 861.946,172.751 C862.8,173.103 865.328,173.668 869.533,174.443 C875.315,175.471 879.056,176.291 880.752,176.904 C882.45,177.513 883.77,178.347 884.714,179.401 C885.656,180.456 886.129,181.709 886.129,183.163 C886.129,185.855 884.605,188.035 881.562,189.7 C878.516,191.368 874.358,192.201 869.09,192.201 C859.213,192.201 853.486,189.174 851.908,183.126" id="Fill-15" fill="#797C7A"></path>
        <path d="M885.475,70.395 L885.265,67.036 C885.244,66.595 885.244,66.049 885.223,65.44 L885.16,65.44 C885.013,65.944 884.824,66.616 884.677,67.141 L883.648,70.311 L882.473,70.311 L881.443,67.057 C881.338,66.637 881.17,65.944 881.045,65.44 L880.981,65.44 C880.981,65.965 880.961,66.511 880.939,67.036 L880.729,70.395 L879.638,70.395 L880.058,64.684 L881.758,64.684 L882.745,67.477 C882.893,67.918 882.977,68.338 883.123,68.925 L883.145,68.925 C883.291,68.422 883.417,67.918 883.543,67.519 L884.529,64.684 L886.168,64.684 L886.608,70.395 L885.475,70.395 Z M879.302,64.684 L879.302,65.629 L877.475,65.629 L877.475,70.395 L876.342,70.395 L876.342,65.629 L874.535,65.629 L874.535,64.684 L879.302,64.684 L879.302,64.684 Z" id="Fill-16" fill="#797C7A"></path>
    </g>
</svg>