<svg width="183" height="50" viewBox="0 0 183 50" fill="none" xmlns="http://www.w3.org/2000/svg"><path d="M67.6312 26.3065C68.431 27.242 68.8309 28.4749 68.8309 30.0054C68.8309 31.9767 68.1435 33.5 66.7685 34.5753C65.3936 35.6506 63.4165 36.1828 60.8374 36.1721H51.3071V13.8602H59.5244C61.9562 13.8602 63.838 14.3764 65.1698 15.4086C66.5016 16.4409 67.1684 17.9023 67.1702 19.793C67.1966 20.8369 66.9305 21.8674 66.4019 22.7688C65.9026 23.5871 65.1335 24.2068 64.2262 24.5215V24.6156C65.6982 24.8092 66.8332 25.3728 67.6312 26.3065ZM62.5466 17.6506C61.8619 17.129 60.7745 16.8683 59.2845 16.8683H54.8254V23.2769H59.271C60.761 23.2769 61.8484 23.017 62.5331 22.4973C63.2179 21.9776 63.5585 21.164 63.5549 20.0565C63.5549 18.974 63.2188 18.1721 62.5466 17.6506ZM64.113 32.3172C64.8319 31.7796 65.1914 30.9131 65.1914 29.7178C65.1914 28.5224 64.8319 27.6407 64.113 27.0726C63.3941 26.5188 62.1997 26.242 60.53 26.242H54.8254V33.1317H60.5166C62.1791 33.1317 63.3734 32.8602 64.0995 32.3172H64.113Z" fill="white"></path><path d="M86.0663 29.7177H74.0423C74.1915 31.06 74.666 32.0753 75.4658 32.7634C76.2656 33.4516 77.326 33.7975 78.647 33.8011C79.5853 33.8357 80.5159 33.6204 81.343 33.1774C81.6677 33.0078 81.9552 32.7754 82.189 32.4939C82.4227 32.2124 82.5979 31.8873 82.7045 31.5376H85.9019C85.5753 32.9909 84.7082 34.2666 83.4755 35.1075C82.1761 36.043 80.5585 36.5108 78.6228 36.5108C77.1749 36.5416 75.7434 36.2009 74.4656 35.5215C73.2938 34.885 72.3286 33.9281 71.6833 32.7634C71.0057 31.5169 70.6639 30.1165 70.6912 28.6989C70.6676 27.286 71.0093 25.8909 71.6833 24.6479C72.3256 23.4782 73.2839 22.5115 74.4494 21.8575C75.6973 21.1723 77.1041 20.8265 78.5284 20.8548C79.9135 20.8305 81.2811 21.1659 82.4969 21.828C83.6388 22.4603 84.5746 23.4064 85.1928 24.5538C85.8509 25.8006 86.1811 27.1935 86.1526 28.6022C86.157 28.9758 86.1282 29.3492 86.0663 29.7177ZM75.5278 24.4893C74.7729 25.1272 74.2885 26.0735 74.0747 27.328H82.7665C82.576 26.0735 82.1176 25.1272 81.3915 24.4893C80.6654 23.8513 79.7065 23.5323 78.5149 23.5323C77.282 23.5323 76.2863 23.8513 75.5278 24.4893Z" fill="white"></path><path d="M103.927 21.2043V36.1613H100.889L100.697 33.9274H100.6C100.135 34.7529 99.4264 35.4155 98.5703 35.8252C97.6211 36.2921 96.5741 36.527 95.5158 36.5107C94.1966 36.5247 92.9 36.1689 91.7738 35.4838C90.6478 34.7969 89.7263 33.8224 89.1048 32.6613C88.4635 31.4326 88.1287 30.0679 88.1287 28.6828C88.1287 27.2977 88.4635 25.933 89.1048 24.7043C89.7211 23.5394 90.6437 22.5637 91.7738 21.8817C92.9022 21.2025 94.1978 20.8498 95.5158 20.8629C96.5741 20.8466 97.6211 21.0816 98.5703 21.5484C99.4264 21.9581 100.135 22.6208 100.6 23.4462H100.697L100.889 21.2124L103.927 21.2043ZM92.7982 32.1425C93.6811 33.0202 94.877 33.5131 96.1237 33.5131C97.3705 33.5131 98.5663 33.0202 99.4492 32.1425C100.314 31.1947 100.773 29.9472 100.727 28.6666C100.769 27.3964 100.31 26.1603 99.4492 25.2231C98.5663 24.3454 97.3705 23.8525 96.1237 23.8525C94.877 23.8525 93.6811 24.3454 92.7982 25.2231C91.9354 26.1593 91.4755 27.3958 91.5176 28.6666C91.4716 29.9477 91.9314 31.1957 92.7982 32.1425Z" fill="white"></path><path d="M129.062 22.5134C130.065 23.6174 130.566 25.1407 130.566 27.0833V36.172H127.25V27.9328C127.25 26.5941 126.972 25.5842 126.417 24.9032C125.862 24.2222 125.073 23.8826 124.053 23.8844C123.556 23.8686 123.062 23.9602 122.605 24.1527C122.147 24.3453 121.737 24.6343 121.402 25C120.71 25.7455 120.364 26.7554 120.364 28.0296V36.1613H117.038V27.9328C117.038 26.5941 116.761 25.5842 116.207 24.9032C115.925 24.5639 115.566 24.2951 115.161 24.1182C114.756 23.9413 114.314 23.8613 113.873 23.8844C113.375 23.8671 112.88 23.9579 112.422 24.1506C111.963 24.3432 111.552 24.6331 111.217 25C110.536 25.7455 110.195 26.7554 110.195 28.0296V36.1613H106.868V21.2043H109.907L110.098 23.5645H110.225C110.6 22.7255 111.234 22.0278 112.034 21.5726C112.916 21.094 113.906 20.8471 114.91 20.8551C115.914 20.8631 116.899 21.1257 117.774 21.6183C118.614 22.1416 119.273 22.9103 119.661 23.8199H119.755C120.21 22.899 120.935 22.1377 121.834 21.6371C122.791 21.1053 123.873 20.8354 124.969 20.8548C126.695 20.8548 128.059 21.4077 129.062 22.5134Z" fill="white"></path><path d="M147.739 29.7178H135.715C135.863 31.06 136.337 32.0753 137.139 32.7635C137.94 33.4516 139.001 33.7975 140.32 33.8011C141.258 33.8357 142.189 33.6204 143.016 33.1774C143.339 33.007 143.624 32.7742 143.855 32.4927C144.087 32.2112 144.26 31.8865 144.364 31.5376H147.564C147.238 32.9909 146.371 34.2666 145.138 35.1075C143.838 36.043 142.221 36.5108 140.285 36.5108C138.844 36.5384 137.419 36.1978 136.147 35.5215C134.975 34.885 134.01 33.9281 133.364 32.7635C132.687 31.5169 132.345 30.1165 132.372 28.6989C132.349 27.286 132.69 25.8909 133.364 24.6479C134.007 23.4782 134.965 22.5115 136.131 21.8575C137.373 21.1755 138.773 20.8298 140.191 20.8548C141.579 20.8286 142.951 21.164 144.17 21.828C145.312 22.4603 146.248 23.4064 146.866 24.5538C147.523 25.8009 147.852 27.1937 147.823 28.6022C147.828 28.9758 147.8 29.3491 147.739 29.7178ZM137.204 24.4893C136.449 25.1272 135.964 26.0735 135.75 27.328H144.448C144.257 26.0735 143.799 25.1272 143.073 24.4893C142.347 23.8513 141.386 23.5323 140.191 23.5323C138.958 23.5323 137.962 23.8513 137.204 24.4893Z" fill="white"></path><path d="M159.332 21.1425V24.1935C158.845 24.112 158.353 24.0697 157.86 24.0672C156.37 24.0672 155.224 24.5403 154.423 25.4865C153.621 26.4328 153.222 27.8727 153.226 29.8064V36.1532H149.896V21.2043H152.934L153.126 24.0753H153.223C153.579 23.1151 154.233 22.2937 155.091 21.7312C155.945 21.188 156.941 20.9076 157.954 20.9247C158.423 20.9108 158.89 20.9846 159.332 21.1425Z" fill="white"></path><path d="M176.732 21.2043L167.15 43.0484H163.589L166.881 35.7124L160.518 21.1962H164.069L168.577 32.1344H168.674L173.149 21.1962L176.732 21.2043Z" fill="white"></path><path d="M14.4155 39.8092L19.5567 42.7661V23.2688C19.5565 22.8192 19.4375 22.3775 19.2117 21.9882C18.986 21.5989 18.6615 21.2757 18.2708 21.0511C17.8802 20.8259 17.4371 20.7073 16.986 20.7071C16.5349 20.7069 16.0916 20.8251 15.7009 21.0499C15.3101 21.2747 14.9856 21.5981 14.76 21.9876C14.5343 22.3771 14.4155 22.819 14.4155 23.2688V39.8092Z" fill="#F15852"></path><path d="M10.1475 16.3737C9.7568 16.1491 9.31372 16.031 8.86276 16.0312C8.4118 16.0315 7.96885 16.1501 7.57843 16.3751C7.188 16.6001 6.86385 16.9236 6.63855 17.3131C6.41325 17.7027 6.29474 18.1444 6.29492 18.5941V32.1559C6.29412 33.0611 6.53271 33.9505 6.98663 34.7344C7.44055 35.5184 8.09375 36.1691 8.88036 36.621L11.4335 38.0914V18.5941C11.4331 18.1441 11.3141 17.702 11.0884 17.3123C10.8627 16.9226 10.5382 16.5989 10.1475 16.3737Z" fill="#F15852"></path><path d="M40.6662 25.7823V19.8683L23.7247 29.6129C23.3345 29.8385 23.0105 30.1623 22.7853 30.552C22.5601 30.9417 22.4415 31.3836 22.4414 31.8333C22.4417 32.2828 22.5606 32.7242 22.786 33.1133C23.0115 33.5025 23.3357 33.8256 23.7261 34.0503C24.1164 34.275 24.5592 34.3934 25.0099 34.3935C25.4606 34.3937 25.9035 34.2756 26.294 34.0511L40.6662 25.7823Z" fill="#F15852"></path><path d="M22.4465 41.1828C22.4463 41.6324 22.5649 42.0742 22.7902 42.4637C23.0155 42.8533 23.3396 43.1768 23.73 43.4018C24.1205 43.6268 24.5634 43.7454 25.0144 43.7457C25.4653 43.7459 25.9084 43.6278 26.2991 43.4032L38.0805 36.621C38.8662 36.168 39.5186 35.5171 39.9724 34.7334C40.4262 33.9497 40.6654 33.0608 40.6659 32.1559V29.2151L23.7244 38.9785C23.3374 39.2032 23.0159 39.5247 22.7918 39.9114C22.5676 40.298 22.4486 40.7362 22.4465 41.1828Z" fill="#F15852"></path><path d="M15.367 10.129L10.2285 13.086L27.1538 22.8495C27.5445 23.074 27.9875 23.1923 28.4385 23.1923C28.8894 23.1923 29.3324 23.074 29.7231 22.8495C30.1139 22.6247 30.4385 22.3013 30.6641 21.9117C30.8898 21.5222 31.0086 21.0802 31.0086 20.6304C31.0086 20.1805 30.8898 19.7386 30.6641 19.3491C30.4385 18.9595 30.1139 18.6361 29.7231 18.4113L15.367 10.129Z" fill="#F15852"></path><path d="M37.8462 18.1586C38.2364 17.9337 38.5603 17.6103 38.7856 17.221C39.0108 16.8318 39.1293 16.3903 39.1293 15.9409C39.1293 15.4915 39.0108 15.05 38.7856 14.6607C38.5603 14.2714 38.2364 13.9481 37.8462 13.7231L26.0648 6.94087C25.2794 6.48779 24.3881 6.24922 23.4807 6.24922C22.5734 6.24922 21.682 6.48779 20.8966 6.94087L18.3328 8.4113L35.2689 18.1586C35.66 18.386 36.1047 18.5059 36.5575 18.5059C37.0104 18.5059 37.455 18.386 37.8462 18.1586Z" fill="#F15852"></path></svg>