<svg id="Layer_1" data-name="Layer 1" xmlns="http://www.w3.org/2000/svg" viewBox="0 0 62.82 62.38"><title>CItyJS_Icon</title><path d="M448.73,311.85a.75.75,0,0,1-.75-.75v-1a.75.75,0,1,1,1.5,0v1A.75.75,0,0,1,448.73,311.85Zm-4.2,0a.75.75,0,0,1-.75-.75v-1a.75.75,0,0,1,1.5,0v1A.75.75,0,0,1,444.52,311.85Zm-46.22,0a.75.75,0,0,1-.75-.75v-1a.75.75,0,1,1,1.5,0v1A.75.75,0,0,1,398.31,311.85Zm-4.2,0a.75.75,0,0,1-.75-.75v-1a.75.75,0,0,1,1.5,0v1A.75.75,0,0,1,394.1,311.85Zm54.63-4.16a.75.75,0,0,1-.75-.75v-1a.75.75,0,0,1,1.5,0v1A.75.75,0,0,1,448.73,307.69Zm-4.2,0a.75.75,0,0,1-.75-.75v-1a.75.75,0,0,1,1.5,0v1A.75.75,0,0,1,444.52,307.69Zm-46.22,0a.75.75,0,0,1-.75-.75v-1a.75.75,0,1,1,1.5,0v1A.75.75,0,0,1,398.31,307.69Zm-4.2,0a.75.75,0,0,1-.75-.75v-1a.75.75,0,0,1,1.5,0v1A.75.75,0,0,1,394.1,307.69Zm48-1H400.71V301h17.86v-1.33a.75.75,0,0,1,1.5,0V301h3.76v-1.33a.75.75,0,0,1,1.5,0V301h16.81Zm-8.4-1.5h6.91v-2.67h-6.91Zm-8.4,0h6.9v-2.67h-6.9Zm-5.25,0h3.76v-2.67h-3.76Zm-8.41,0h6.91v-2.67h-6.91Zm-9.45,0h8v-2.67h-8Zm46.53-4.75a.75.75,0,0,1-.75-.75v-3.12a.75.75,0,1,1,1.5,0v3.12A.75.75,0,0,1,448.73,300.41Zm-4.2,0a.75.75,0,0,1-.75-.75v-3.12a.75.75,0,0,1,1.5,0v3.12A.75.75,0,0,1,444.52,300.41Zm-46.22,0a.75.75,0,0,1-.75-.75v-3.12a.75.75,0,1,1,1.5,0v3.12A.75.75,0,0,1,398.31,300.41Zm-4.2,0a.75.75,0,0,1-.75-.75v-3.12a.75.75,0,0,1,1.5,0v3.12A.75.75,0,0,1,394.1,300.41Z" transform="translate(-389.9 -267.43)"/><path d="M421.41,329.54a31.27,31.27,0,0,1-22.07-9.05,30.8,30.8,0,0,1-6.69-9.83,30.75,30.75,0,0,1,0-24.07,30.8,30.8,0,0,1,6.69-9.83,31.38,31.38,0,0,1,44.14,0,30.8,30.8,0,0,1,6.69,9.83,30.75,30.75,0,0,1,0,24.07,30.8,30.8,0,0,1-6.69,9.83,31.27,31.27,0,0,1-22.07,9.05Zm0-60.34a29.77,29.77,0,0,0-21,8.62,29.31,29.31,0,0,0-6.37,9.35,29.25,29.25,0,0,0,0,22.9,29.31,29.31,0,0,0,6.37,9.35,29.88,29.88,0,0,0,42,0,29.31,29.31,0,0,0,6.37-9.35,29.25,29.25,0,0,0,0-22.9,29.31,29.31,0,0,0-6.37-9.35,29.77,29.77,0,0,0-21-8.62Z" transform="translate(-389.9 -267.43)"/><path d="M440.62,323V287.47h1.28l3.28-8.92.83,1a30.72,30.72,0,0,1,4.53,7.88h0l.18.49h0l.38,1h0a30.7,30.7,0,0,1,1,3.7h0l0,.16.08.46.15.88h0a31,31,0,0,1,.33,4.45,30.38,30.38,0,0,1-2.91,13,30.86,30.86,0,0,1-7.85,10.3Zm1.5-28.86v25.54a29.3,29.3,0,0,0,6.24-8.68,28.89,28.89,0,0,0,2.77-12.41,29.45,29.45,0,0,0-.35-4.45Zm0-5.2v3.71h8.4a29.18,29.18,0,0,0-1-3.71Zm1.37-1.5h5.42a29.21,29.21,0,0,0-3.27-5.87Zm-42,1.5h-9.74l.38-1a30.73,30.73,0,0,1,4.72-8.36l.83-1Zm-7.57-1.5h5.42l-2.15-5.87A29.21,29.21,0,0,0,393.91,287.47Z" transform="translate(-389.9 -267.43)"/><path d="M409.21,327.19l-.39-.29a31.32,31.32,0,0,1-3.94-2.07l-1-.63,16.19-10.31v4.85Zm-2.51-3c.78.44,1.58.85,2.39,1.21l9.47-7.37v-1.39Zm27,2.85-9.9-8.3v-4.89l15.13,10.37-1,.6a31.27,31.27,0,0,1-3.83,2Zm-8.41-9,8.65,7.25c.76-.35,1.5-.73,2.23-1.14l-10.88-7.46Zm-23.11,4.11h-1L401,322a30.86,30.86,0,0,1-7.85-10.3,30.38,30.38,0,0,1-2.91-13,30.88,30.88,0,0,1,.33-4.45h0l.12-.68,0-.19h0l0-.2.08-.42h0a30.51,30.51,0,0,1,1.32-4.71l.18-.49h9.92Zm-.75-.75h0ZM392,294.16a29.37,29.37,0,0,0-.35,4.45A28.89,28.89,0,0,0,394.47,311a29.77,29.77,0,0,0,6.24,8.68V294.16Zm.27-1.5h8.4V289h-7.37A29,29,0,0,0,392.31,292.67Zm55.6,22.3h-7.29V302h11.82l-.12.85a30.36,30.36,0,0,1-4.2,11.73Zm-5.79-1.5h4.95a28.84,28.84,0,0,0,3.64-10h-8.59Z" transform="translate(-389.9 -267.43)"/><path d="M402.2,315h-7.28l-.22-.36a30.37,30.37,0,0,1-4.2-11.73l-.12-.85H402.2Zm-6.44-1.5h4.95v-10h-8.59A28.85,28.85,0,0,0,395.76,313.48Z" transform="translate(-389.9 -267.43)"/><path d="M421.31,267.43a31.19,31.19,0,1,1-31.41,31.19,31.3,31.3,0,0,1,31.41-31.19m0,.62h0a30.57,30.57,0,1,0,30.78,30.56A30.67,30.67,0,0,0,421.31,268.05Z" transform="translate(-389.9 -267.43)"/><path d="M419.1,285.6a2.48,2.48,0,0,1-.53.95,2.61,2.61,0,0,1-1,.67,4.06,4.06,0,0,1-1.53.25,3.22,3.22,0,0,1-2.34-.8,3.13,3.13,0,0,1-.82-2.34v-.67h1.44v.46a4.57,4.57,0,0,0,.08.87,1.87,1.87,0,0,0,.27.68,1.25,1.25,0,0,0,.53.45,2.07,2.07,0,0,0,.87.16,1.55,1.55,0,0,0,1.36-.53,2.44,2.44,0,0,0,.37-1.43v-7.92h1.44v8.13A3.73,3.73,0,0,1,419.1,285.6Z" transform="translate(-389.9 -267.43)"/><path d="M427.05,277.87a3.06,3.06,0,0,0-1.84-.52,4.41,4.41,0,0,0-.9.09,2.38,2.38,0,0,0-.78.3,1.6,1.6,0,0,0-.55.57,1.76,1.76,0,0,0-.21.89,1.13,1.13,0,0,0,.3.81,2.19,2.19,0,0,0,.79.51,6.59,6.59,0,0,0,1.12.33l1.27.28q.64.15,1.27.36a4.18,4.18,0,0,1,1.12.55,2.64,2.64,0,0,1,.79.88,3.09,3.09,0,0,1-.09,2.82,3.18,3.18,0,0,1-1,1,4.32,4.32,0,0,1-1.36.56,6.59,6.59,0,0,1-1.49.17,6.36,6.36,0,0,1-1.72-.23,4.25,4.25,0,0,1-1.43-.69,3.27,3.27,0,0,1-1-1.18,3.81,3.81,0,0,1-.36-1.71h1.37a2.45,2.45,0,0,0,.27,1.18,2.41,2.41,0,0,0,.7.81,2.94,2.94,0,0,0,1,.47,4.63,4.63,0,0,0,1.18.15,5.38,5.38,0,0,0,1-.09,2.88,2.88,0,0,0,.89-.31,1.67,1.67,0,0,0,.88-1.57,1.36,1.36,0,0,0-.3-.91,2.18,2.18,0,0,0-.79-.57,5.8,5.8,0,0,0-1.12-.36l-1.27-.28q-.65-.14-1.27-.33a4.57,4.57,0,0,1-1.12-.5,2.4,2.4,0,0,1-.79-.8,2.37,2.37,0,0,1-.3-1.24,2.87,2.87,0,0,1,.33-1.42,2.92,2.92,0,0,1,.89-1,4,4,0,0,1,1.26-.58,5.56,5.56,0,0,1,1.45-.19,5.8,5.8,0,0,1,1.55.2,3.51,3.51,0,0,1,1.25.62,3,3,0,0,1,.85,1.07,3.82,3.82,0,0,1,.34,1.54H427.9A2.26,2.26,0,0,0,427.05,277.87Z" transform="translate(-389.9 -267.43)"/></svg>