<svg xmlns="http://www.w3.org/2000/svg" viewBox="0 0 405.27 184.13"><defs><style>.cls-1{fill:#e26566;}</style></defs><title>CMD_Logo_NoURL_inverse</title><g id="Layer_2" data-name="Layer 2"><path class="cls-1" d="M151.16,200a42.52,42.52,0,0,0-15.27-15.4,41.05,41.05,0,0,0-21.21-5.59,39.54,39.54,0,0,0-18.24,4.21,44.5,44.5,0,0,0-14.15,11.31A52.72,52.72,0,0,0,73.13,211a59,59,0,0,0-3.27,19.66,60.14,60.14,0,0,0,3.61,21.64A47.77,47.77,0,0,0,82.9,268,50.67,50.67,0,0,0,96.7,278.38a38.28,38.28,0,0,0,18,4.17q13.59,0,23.66-6.58t17.21-21.64l15.14,7.14a53.21,53.21,0,0,1-11.1,17.94,58.94,58.94,0,0,1-19.31,13.94,60,60,0,0,1-25.42,5.29,59.07,59.07,0,0,1-24.52-5,62.16,62.16,0,0,1-19.92-14.32,63,63,0,0,1-13.33-22,77.57,77.57,0,0,1-4.6-26.58,75,75,0,0,1,4.6-26.33A65.86,65.86,0,0,1,70,182.8a60.62,60.62,0,0,1,19.79-14.45,58.79,58.79,0,0,1,24.91-5.29q12,0,20.65,3.4a59.37,59.37,0,0,1,14.75,8.09,61,61,0,0,1,10.45,10.19h9.12V200Z" transform="translate(-52.48 -163.05)"/><path class="cls-1" d="M174.9,281.26h12.39V182.07H174.9V165.64h41.29l41.38,112.61,41.9-112.61h39.14v16.43h-12.3v99.19h12.3v14.8H296.29v-14.8h13.94V181.12l-45.6,114.94H250L203.8,180.86v100.4h13.42v14.8H174.9Z" transform="translate(-52.48 -163.05)"/><path class="cls-1" d="M346.51,165.64H395a61.39,61.39,0,0,1,17,2.32,62.22,62.22,0,0,1,37.38,29.77,66.18,66.18,0,0,1,6.15,15.53,68.52,68.52,0,0,1,2.15,17.25A69.72,69.72,0,0,1,455.6,248a67.63,67.63,0,0,1-6.15,15.66,63.33,63.33,0,0,1-9.68,13.29,61.81,61.81,0,0,1-12.65,10.24,61,61,0,0,1-32.09,8.9H346.51v-14.8H358.9V180.52H346.51Zm29.25,14.88V281.26h20.3a37.65,37.65,0,0,0,17-4A44.46,44.46,0,0,0,427,266.51a51.88,51.88,0,0,0,9.38-16.09,56.65,56.65,0,0,0,3.44-19.92,55.11,55.11,0,0,0-3.44-19.61A51.13,51.13,0,0,0,427,195a43.94,43.94,0,0,0-13.89-10.62,38.34,38.34,0,0,0-17-3.87Z" transform="translate(-52.48 -163.05)"/><path class="cls-1" d="M57.28,316.34H66a11.11,11.11,0,0,1,5.79,1.6,11.26,11.26,0,0,1,4,4.19,12,12,0,0,1,1.11,2.8,12.36,12.36,0,0,1,.39,3.11,12.57,12.57,0,0,1-.39,3.15A12.25,12.25,0,0,1,75.85,334a11.47,11.47,0,0,1-1.75,2.4,11.19,11.19,0,0,1-2.28,1.85A11,11,0,0,1,66,339.87H57.28V337.2h2.23V319H57.28ZM62.56,319V337.2h3.66a6.78,6.78,0,0,0,3.07-.71,8,8,0,0,0,2.51-1.95,9.36,9.36,0,0,0,1.69-2.9A10.21,10.21,0,0,0,74.1,328a9.94,9.94,0,0,0-.62-3.54,9.21,9.21,0,0,0-1.69-2.86,7.93,7.93,0,0,0-2.51-1.92,6.91,6.91,0,0,0-3.07-.7Z" transform="translate(-52.48 -163.05)"/><path class="cls-1" d="M82.73,332.2a7.15,7.15,0,0,0,.1,1.25,6.47,6.47,0,0,0,.29,1.08A4.46,4.46,0,0,0,85,336.87a5.33,5.33,0,0,0,2.86.78,8.6,8.6,0,0,0,2.45-.35,11.71,11.71,0,0,0,2.49-1.09l1.16,2a12.64,12.64,0,0,1-3.18,1.62,10.54,10.54,0,0,1-3.32.53,8.21,8.21,0,0,1-3-.54A6.43,6.43,0,0,1,82,338.16a7.51,7.51,0,0,1-1.57-2.67,11.11,11.11,0,0,1-.57-3.73,10.79,10.79,0,0,1,.48-3.25,7.75,7.75,0,0,1,1.44-2.67A6.86,6.86,0,0,1,84.16,324a7.63,7.63,0,0,1,3.29-.67,7.37,7.37,0,0,1,3,.55,5.54,5.54,0,0,1,2,1.46,6.31,6.31,0,0,1,1.16,2.07,12.22,12.22,0,0,1,.55,2.37q.08.59.1,1.2c0,.4,0,.8,0,1.18Zm4.52-6.41a4.93,4.93,0,0,0-1.76.29,3.55,3.55,0,0,0-1.28.82,4,4,0,0,0-.85,1.31,7.82,7.82,0,0,0-.47,1.74h8.34a7.75,7.75,0,0,0-.29-1.66,3.64,3.64,0,0,0-.69-1.32,3.11,3.11,0,0,0-1.2-.87A4.58,4.58,0,0,0,87.25,325.79Z" transform="translate(-52.48 -163.05)"/><path class="cls-1" d="M97,323.79h5.56v2.67h-1.51l4,11.08,3.88-11.08h-1v-2.67H113v2.67h-1.38l-5.26,13.66h-2.86l-5.25-13.66H97Z" transform="translate(-52.48 -163.05)"/><path class="cls-1" d="M118,332.2a7.15,7.15,0,0,0,.1,1.25,6.47,6.47,0,0,0,.29,1.08,4.46,4.46,0,0,0,1.84,2.34,5.33,5.33,0,0,0,2.86.78,8.6,8.6,0,0,0,2.45-.35,11.71,11.71,0,0,0,2.49-1.09l1.16,2a12.64,12.64,0,0,1-3.18,1.62,10.54,10.54,0,0,1-3.32.53,8.21,8.21,0,0,1-3-.54,6.43,6.43,0,0,1-2.39-1.61,7.53,7.53,0,0,1-1.57-2.67,11.14,11.14,0,0,1-.57-3.73,10.76,10.76,0,0,1,.48-3.25,7.73,7.73,0,0,1,1.44-2.67,6.86,6.86,0,0,1,2.37-1.81,7.63,7.63,0,0,1,3.29-.67,7.37,7.37,0,0,1,3,.55,5.54,5.54,0,0,1,2,1.46,6.33,6.33,0,0,1,1.16,2.07,12.15,12.15,0,0,1,.55,2.37q.08.59.1,1.2c0,.4,0,.8,0,1.18Zm4.52-6.41a4.93,4.93,0,0,0-1.76.29,3.55,3.55,0,0,0-1.28.82,4,4,0,0,0-.85,1.31,7.82,7.82,0,0,0-.47,1.74h8.34a7.75,7.75,0,0,0-.29-1.66,3.66,3.66,0,0,0-.69-1.32,3.11,3.11,0,0,0-1.2-.87A4.58,4.58,0,0,0,122.56,325.79Z" transform="translate(-52.48 -163.05)"/><path class="cls-1" d="M133.43,315.72h5.22V337.2h2.42v2.67h-7.64V337.2h2.33V318.39h-2.33Z" transform="translate(-52.48 -163.05)"/><path class="cls-1" d="M143.68,331.83a9.91,9.91,0,0,1,.61-3.48,8,8,0,0,1,1.67-2.69,7.3,7.3,0,0,1,2.55-1.73,8.47,8.47,0,0,1,3.24-.6,8.57,8.57,0,0,1,3.27.6,7.22,7.22,0,0,1,2.54,1.72,7.83,7.83,0,0,1,1.64,2.68,10.46,10.46,0,0,1,0,6.93,8.07,8.07,0,0,1-1.64,2.71,7.34,7.34,0,0,1-2.54,1.76,8.27,8.27,0,0,1-3.27.63,8.4,8.4,0,0,1-3.29-.62,7.3,7.3,0,0,1-2.53-1.75,8,8,0,0,1-1.65-2.69A10,10,0,0,1,143.68,331.83Zm3.06,0a7.46,7.46,0,0,0,.4,2.5,5.72,5.72,0,0,0,1.09,1.9,4.84,4.84,0,0,0,1.6,1.21,4.47,4.47,0,0,0,1.93.43,4.79,4.79,0,0,0,2-.42,4.68,4.68,0,0,0,1.61-1.2,5.73,5.73,0,0,0,1.07-1.9,7.66,7.66,0,0,0,.39-2.51,8,8,0,0,0-.39-2.59,5.53,5.53,0,0,0-1.06-1.89,4.37,4.37,0,0,0-1.61-1.15,5.15,5.15,0,0,0-2-.39,4.87,4.87,0,0,0-1.93.39,4.56,4.56,0,0,0-1.6,1.15,5.46,5.46,0,0,0-1.09,1.89A7.85,7.85,0,0,0,146.73,331.83Z" transform="translate(-52.48 -163.05)"/><path class="cls-1" d="M162.27,323.79h5.12v1.33a8.81,8.81,0,0,1,2.24-1.26,6.9,6.9,0,0,1,2.5-.47,7,7,0,0,1,2.9.59,6.64,6.64,0,0,1,2.27,1.66,7.6,7.6,0,0,1,1.48,2.57,9.93,9.93,0,0,1,.53,3.31,10.15,10.15,0,0,1-.59,3.54,8.19,8.19,0,0,1-1.64,2.74,7.38,7.38,0,0,1-2.49,1.78,7.75,7.75,0,0,1-3.17.64,8.43,8.43,0,0,1-2.18-.26,11.3,11.3,0,0,1-1.82-.66v5.2h2.51v2.67H162.3v-2.67h2.2V326.46h-2.23Zm9.1,2.16a5.32,5.32,0,0,0-2.15.45,5.53,5.53,0,0,0-1.79,1.24v8.71a4.6,4.6,0,0,0,1.47.95,5.94,5.94,0,0,0,2.38.42,4.83,4.83,0,0,0,1.91-.39,4.59,4.59,0,0,0,1.61-1.16,5.74,5.74,0,0,0,1.12-1.9,7.52,7.52,0,0,0,.42-2.62,6.87,6.87,0,0,0-.4-2.42,5.38,5.38,0,0,0-1.07-1.79,4.55,4.55,0,0,0-1.58-1.11A4.91,4.91,0,0,0,171.37,325.95Z" transform="translate(-52.48 -163.05)"/><path class="cls-1" d="M190.09,327.76a3.86,3.86,0,0,1,.3-1.52,4,4,0,0,1,.83-1.25,3.8,3.8,0,0,1,1.24-.84,3.92,3.92,0,1,1,3.06,7.22,3.9,3.9,0,0,1-5.13-2.07A3.91,3.91,0,0,1,190.09,327.76Z" transform="translate(-52.48 -163.05)"/><path class="cls-1" d="M209.46,316.34h8.75a11.11,11.11,0,0,1,5.79,1.6,11.27,11.27,0,0,1,4,4.19,12,12,0,0,1,1.11,2.8,12.36,12.36,0,0,1,.39,3.11,12.57,12.57,0,0,1-.39,3.15A12.25,12.25,0,0,1,228,334a11.44,11.44,0,0,1-1.75,2.4,11.18,11.18,0,0,1-2.28,1.85,11,11,0,0,1-5.79,1.61h-8.75V337.2h2.24V319h-2.24Zm5.28,2.69V337.2h3.66a6.79,6.79,0,0,0,3.07-.71,8,8,0,0,0,2.51-1.95,9.38,9.38,0,0,0,1.69-2.9,10.24,10.24,0,0,0,.62-3.59,10,10,0,0,0-.62-3.54,9.23,9.23,0,0,0-1.69-2.86,7.93,7.93,0,0,0-2.51-1.92,6.92,6.92,0,0,0-3.07-.7Z" transform="translate(-52.48 -163.05)"/><path class="cls-1" d="M234.92,332.2a7.16,7.16,0,0,0,.1,1.25,6.47,6.47,0,0,0,.29,1.08,4.46,4.46,0,0,0,1.84,2.34,5.32,5.32,0,0,0,2.86.78,8.6,8.6,0,0,0,2.45-.35,11.71,11.71,0,0,0,2.49-1.09l1.16,2a12.63,12.63,0,0,1-3.18,1.62,10.53,10.53,0,0,1-3.32.53,8.21,8.21,0,0,1-3-.54,6.43,6.43,0,0,1-2.39-1.61,7.53,7.53,0,0,1-1.57-2.67,11.14,11.14,0,0,1-.57-3.73,10.76,10.76,0,0,1,.48-3.25,7.73,7.73,0,0,1,1.44-2.67,6.86,6.86,0,0,1,2.37-1.81,7.62,7.62,0,0,1,3.29-.67,7.37,7.37,0,0,1,3,.55,5.54,5.54,0,0,1,2,1.46,6.33,6.33,0,0,1,1.16,2.07,12.15,12.15,0,0,1,.55,2.37q.08.59.1,1.2c0,.4,0,.8,0,1.18Zm4.52-6.41a4.93,4.93,0,0,0-1.76.29,3.55,3.55,0,0,0-1.28.82,4,4,0,0,0-.85,1.31,7.82,7.82,0,0,0-.47,1.74h8.33a7.69,7.69,0,0,0-.29-1.66,3.66,3.66,0,0,0-.69-1.32,3.11,3.11,0,0,0-1.2-.87A4.58,4.58,0,0,0,239.43,325.79Z" transform="translate(-52.48 -163.05)"/><path class="cls-1" d="M249.79,323.79h5.12v1.33a8.82,8.82,0,0,1,2.23-1.26,6.91,6.91,0,0,1,2.5-.47,7,7,0,0,1,2.9.59,6.64,6.64,0,0,1,2.27,1.66,7.58,7.58,0,0,1,1.48,2.57,9.92,9.92,0,0,1,.53,3.31,10.18,10.18,0,0,1-.59,3.54,8.19,8.19,0,0,1-1.64,2.74,7.39,7.39,0,0,1-2.49,1.78,7.75,7.75,0,0,1-3.17.64,8.43,8.43,0,0,1-2.18-.26,11.32,11.32,0,0,1-1.82-.66v5.2h2.51v2.67h-7.64v-2.67H252V326.46h-2.24Zm9.1,2.16a5.33,5.33,0,0,0-2.15.45,5.53,5.53,0,0,0-1.79,1.24v8.71a4.62,4.62,0,0,0,1.47.95,5.94,5.94,0,0,0,2.38.42,4.83,4.83,0,0,0,1.91-.39,4.58,4.58,0,0,0,1.61-1.16,5.74,5.74,0,0,0,1.12-1.9,7.54,7.54,0,0,0,.42-2.62,6.88,6.88,0,0,0-.4-2.42,5.39,5.39,0,0,0-1.07-1.79,4.54,4.54,0,0,0-1.58-1.11A4.9,4.9,0,0,0,258.88,325.95Z" transform="translate(-52.48 -163.05)"/><path class="cls-1" d="M269.69,315.72h5.21V337.2h2.42v2.67h-7.64V337.2H272V318.39h-2.33Z" transform="translate(-52.48 -163.05)"/><path class="cls-1" d="M279.93,331.83a9.93,9.93,0,0,1,.61-3.48,8,8,0,0,1,1.67-2.69,7.28,7.28,0,0,1,2.54-1.73,8.47,8.47,0,0,1,3.24-.6,8.58,8.58,0,0,1,3.27.6,7.24,7.24,0,0,1,2.54,1.72,7.83,7.83,0,0,1,1.64,2.68,10.48,10.48,0,0,1,0,6.93,8.07,8.07,0,0,1-1.64,2.71,7.36,7.36,0,0,1-2.54,1.76,8.28,8.28,0,0,1-3.27.63,8.4,8.4,0,0,1-3.29-.62,7.3,7.3,0,0,1-2.53-1.75,8,8,0,0,1-1.65-2.69A10,10,0,0,1,279.93,331.83Zm3.06,0a7.45,7.45,0,0,0,.4,2.5,5.72,5.72,0,0,0,1.09,1.9,4.84,4.84,0,0,0,1.6,1.21,4.46,4.46,0,0,0,1.93.43,4.79,4.79,0,0,0,2-.42,4.68,4.68,0,0,0,1.61-1.2,5.72,5.72,0,0,0,1.07-1.9,7.66,7.66,0,0,0,.39-2.51,8,8,0,0,0-.39-2.59,5.5,5.5,0,0,0-1.06-1.89A4.37,4.37,0,0,0,290,326.2a5.16,5.16,0,0,0-2-.39,4.86,4.86,0,0,0-1.93.39,4.57,4.57,0,0,0-1.6,1.15,5.46,5.46,0,0,0-1.09,1.89A7.85,7.85,0,0,0,283,331.83Z" transform="translate(-52.48 -163.05)"/><path class="cls-1" d="M298.09,323.79h6.1v2.67h-1.91l3.77,10.26L310,326.46H308.1v-2.67h6.1v2.67h-1.66l-7.16,18.05h2.2v2.67H301.1v-2.67h2l1.71-4.42-5.37-13.63h-1.3Z" transform="translate(-52.48 -163.05)"/><path class="cls-1" d="M325.21,327.76a3.86,3.86,0,0,1,.3-1.52,4,4,0,0,1,.83-1.25,3.8,3.8,0,0,1,1.24-.84,3.89,3.89,0,0,1,1.54-.3,3.91,3.91,0,0,1,2.76,1.13,3.95,3.95,0,0,1,0,5.56,3.9,3.9,0,0,1-6.37-1.24A3.91,3.91,0,0,1,325.21,327.76Z" transform="translate(-52.48 -163.05)"/><path class="cls-1" d="M344.58,316.34h8.75a11.11,11.11,0,0,1,5.79,1.6,11.26,11.26,0,0,1,4,4.19,12,12,0,0,1,1.11,2.8,12.41,12.41,0,0,1,.39,3.11,12.62,12.62,0,0,1-.39,3.15,12.21,12.21,0,0,1-1.11,2.83,11.43,11.43,0,0,1-1.75,2.4,11.19,11.19,0,0,1-2.28,1.85,11,11,0,0,1-5.79,1.61h-8.75V337.2h2.24V319h-2.24Zm5.28,2.69V337.2h3.66a6.79,6.79,0,0,0,3.07-.71,8,8,0,0,0,2.51-1.95,9.36,9.36,0,0,0,1.69-2.9,10.22,10.22,0,0,0,.62-3.59,10,10,0,0,0-.62-3.54,9.21,9.21,0,0,0-1.69-2.86,7.91,7.91,0,0,0-2.51-1.92,6.92,6.92,0,0,0-3.07-.7Z" transform="translate(-52.48 -163.05)"/><path class="cls-1" d="M370,332.2a7.24,7.24,0,0,0,.1,1.25,6.47,6.47,0,0,0,.29,1.08,4.47,4.47,0,0,0,1.84,2.34,5.33,5.33,0,0,0,2.86.78,8.6,8.6,0,0,0,2.44-.35,11.72,11.72,0,0,0,2.49-1.09l1.16,2a12.61,12.61,0,0,1-3.18,1.62,10.53,10.53,0,0,1-3.32.53,8.21,8.21,0,0,1-3-.54,6.44,6.44,0,0,1-2.39-1.61,7.53,7.53,0,0,1-1.57-2.67,11.14,11.14,0,0,1-.57-3.73,10.79,10.79,0,0,1,.48-3.25,7.73,7.73,0,0,1,1.44-2.67,6.85,6.85,0,0,1,2.37-1.81,7.62,7.62,0,0,1,3.29-.67,7.36,7.36,0,0,1,3,.55,5.55,5.55,0,0,1,2,1.46,6.33,6.33,0,0,1,1.16,2.07,12.15,12.15,0,0,1,.55,2.37q.08.59.1,1.2c0,.4,0,.8,0,1.18Zm4.52-6.41a4.94,4.94,0,0,0-1.76.29,3.55,3.55,0,0,0-1.28.82,4,4,0,0,0-.85,1.31,7.88,7.88,0,0,0-.47,1.74h8.33a7.7,7.7,0,0,0-.29-1.66,3.64,3.64,0,0,0-.69-1.32,3.11,3.11,0,0,0-1.2-.87A4.58,4.58,0,0,0,374.56,325.79Z" transform="translate(-52.48 -163.05)"/><path class="cls-1" d="M385.42,315.72h5.22V337.2h2.42v2.67h-7.64V337.2h2.33V318.39h-2.33Z" transform="translate(-52.48 -163.05)"/><path class="cls-1" d="M395.76,323.79H401V337.2h2.42v2.67h-7.64V337.2h2.3V326.46h-2.33Zm1.79-5.7a1.85,1.85,0,0,1,.16-.77,2.11,2.11,0,0,1,.43-.64,2.09,2.09,0,0,1,.64-.43,2,2,0,0,1,.79-.16,1.87,1.87,0,0,1,.77.16,2.07,2.07,0,0,1,1.07,1.07,1.85,1.85,0,0,1,.16.77,1.94,1.94,0,0,1-.16.79,2.27,2.27,0,0,1-.43.66,2,2,0,0,1-.64.45,1.87,1.87,0,0,1-.77.16,2,2,0,0,1-1.44-.61,2.29,2.29,0,0,1-.43-.66A1.94,1.94,0,0,1,397.54,318.09Z" transform="translate(-52.48 -163.05)"/><path class="cls-1" d="M404.84,323.79h5.56v2.67h-1.51l4,11.08,3.88-11.08h-1v-2.67h5.09v2.67h-1.38l-5.26,13.66h-2.86l-5.25-13.66h-1.27Z" transform="translate(-52.48 -163.05)"/><path class="cls-1" d="M425.89,332.2a7.15,7.15,0,0,0,.1,1.25,6.47,6.47,0,0,0,.29,1.08,4.46,4.46,0,0,0,1.84,2.34,5.33,5.33,0,0,0,2.87.78,8.61,8.61,0,0,0,2.44-.35,11.71,11.71,0,0,0,2.49-1.09l1.16,2a12.64,12.64,0,0,1-3.18,1.62,10.54,10.54,0,0,1-3.32.53,8.21,8.21,0,0,1-3-.54,6.44,6.44,0,0,1-2.39-1.61,7.53,7.53,0,0,1-1.57-2.67,11.16,11.16,0,0,1-.57-3.73,10.79,10.79,0,0,1,.48-3.25,7.75,7.75,0,0,1,1.44-2.67,6.86,6.86,0,0,1,2.37-1.81,7.62,7.62,0,0,1,3.29-.67,7.37,7.37,0,0,1,3,.55,5.55,5.55,0,0,1,2,1.46,6.33,6.33,0,0,1,1.16,2.07,12.08,12.08,0,0,1,.55,2.37q.08.59.1,1.2c0,.4,0,.8,0,1.18Zm4.52-6.41a4.93,4.93,0,0,0-1.76.29,3.55,3.55,0,0,0-1.28.82,4,4,0,0,0-.85,1.31A7.82,7.82,0,0,0,426,330h8.33a7.69,7.69,0,0,0-.29-1.66,3.64,3.64,0,0,0-.69-1.32,3.11,3.11,0,0,0-1.2-.87A4.58,4.58,0,0,0,430.4,325.79Z" transform="translate(-52.48 -163.05)"/><path class="cls-1" d="M453,327.19h-3v-1a3.08,3.08,0,0,0-1,.19,3.28,3.28,0,0,0-1,.59,3.69,3.69,0,0,0-.82,1,4.61,4.61,0,0,0-.5,1.45v7.76h2.73v2.67h-8V337.2h2.22l0-10.74h-2.24v-2.67h5.14V326a6.59,6.59,0,0,1,.63-.92,4.48,4.48,0,0,1,.78-.74,3.4,3.4,0,0,1,2.07-.68h1.52q.71,0,1.43,0Z" transform="translate(-52.48 -163.05)"/></g></svg>