<?xml version="1.0" encoding="UTF-8"?>
<svg width="286px" height="85px" viewBox="0 0 286 85" version="1.1" xmlns="http://www.w3.org/2000/svg" xmlns:xlink="http://www.w3.org/1999/xlink">
    <title>Corvid 01</title>
    <g id="Style-Guide" stroke="none" stroke-width="1" fill="none" fill-rule="evenodd">
        <g id="Logo-3" transform="translate(-360.000000, -400.000000)">
            <g id="Corvid-01" transform="translate(360.000000, 400.000000)">
                <g id="Icon">
                    <polygon id="Fill-3" fill="#14348E" points="0 63.04676 36.4 84.06216 36.4 63.04676 18.2 52.53906 18.2 31.52366 0 21.01596"></polygon>
                    <polygon id="Fill-4" fill="#2F2F30" points="36.40014 63.04676 36.40014 84.06216 72.79944 63.04676 54.59944 52.53906"></polygon>
                    <polygon id="Fill-5" fill="#0DD895" points="54.59986 31.52352 72.79986 21.01582 72.79986 63.04662 54.59986 52.53892"></polygon>
                    <polygon id="Fill-6" fill="#3536E5" points="36.40014 0.00014 0.00014 21.01554 18.20014 31.52324 36.40014 21.01554 54.59944 31.52324 72.79944 21.01554"></polygon>
                </g>
                <g id="Group" transform="translate(84.000000, 26.200000)" fill="#000000" fill-rule="nonzero">
                    <path d="M143.18,30.12 C144.126667,30.12 144.98,29.8933333 145.74,29.44 C146.5,28.9866667 147.106667,28.3566667 147.56,27.55 C148.013333,26.7433333 148.24,25.8133333 148.24,24.76 C148.24,23.7066667 148.016667,22.78 147.57,21.98 C147.123333,21.18 146.523333,20.5533333 145.77,20.1 C145.016667,19.6466667 144.173333,19.42 143.24,19.42 C142.466667,19.42 141.786667,19.5766667 141.2,19.89 C140.613333,20.2033333 140.146667,20.6266667 139.8,21.16 L139.8,21.16 L139.8,15.4 L137.16,15.4 L137.16,29.8 L139.78,29.8 L139.78,28.5 C140.126667,28.9933333 140.586667,29.3866667 141.16,29.68 C141.733333,29.9733333 142.406667,30.12 143.18,30.12 Z M142.56,27.92 C141.92,27.92 141.35,27.76 140.85,27.44 C140.35,27.12 140,26.6866667 139.8,26.14 L139.8,26.14 L139.8,24.84 C139.8,23.8533333 140.073333,23.07 140.62,22.49 C141.166667,21.91 141.853333,21.62 142.68,21.62 C143.546667,21.62 144.233333,21.9166667 144.74,22.51 C145.246667,23.1033333 145.5,23.8533333 145.5,24.76 C145.5,25.68 145.23,26.4366667 144.69,27.03 C144.15,27.6233333 143.44,27.92 142.56,27.92 Z M151.28,33.68 C152.253333,33.68 153.033333,33.45 153.62,32.99 C154.206667,32.53 154.686667,31.8533333 155.06,30.96 L155.06,30.96 L159.84,19.74 L157.2,19.74 L154.32,27.18 L151.44,19.74 L148.72,19.74 L153.02,29.82 L152.8,30.38 C152.48,31.14 151.926667,31.52 151.14,31.52 L151.14,31.52 L149.98,31.52 L149.98,33.68 L151.28,33.68 Z M171.82,29.8 L174.8,19.46 L177.78,29.8 L180.74,29.8 L184.84,15.5 L182.02,15.5 L179.22,26.48 L176.06,15.5 L173.6,15.5 L170.44,26.34 L167.66,15.5 L164.76,15.5 L168.88,29.8 L171.82,29.8 Z M188,18 C188.453333,18 188.833333,17.85 189.14,17.55 C189.446667,17.25 189.6,16.8866667 189.6,16.46 C189.6,16.02 189.446667,15.65 189.14,15.35 C188.833333,15.05 188.453333,14.9 188,14.9 C187.546667,14.9 187.166667,15.05 186.86,15.35 C186.553333,15.65 186.4,16.02 186.4,16.46 C186.4,16.8866667 186.553333,17.25 186.86,17.55 C187.166667,17.85 187.546667,18 188,18 Z M189.32,29.8 L189.32,19.74 L186.68,19.74 L186.68,29.8 L189.32,29.8 Z M193.82,29.8 L196.34,26.16 L198.88,29.8 L201.86,29.8 L198.02,24.58 L201.56,19.74 L198.58,19.74 L196.34,23.04 L194.12,19.74 L191.16,19.74 L194.68,24.58 L190.84,29.8 L193.82,29.8 Z" id="byWix"></path>
                    <path d="M15.08,30.44 C17.5333333,30.44 19.7733333,29.9533333 21.8,28.98 C23.8266667,28.0066667 25.4666667,26.7066667 26.72,25.08 L26.72,25.08 L23.16,21.48 C22.2533333,22.76 21.12,23.7733333 19.76,24.52 C18.4,25.2666667 16.88,25.64 15.2,25.64 C13.3866667,25.64 11.7666667,25.2 10.34,24.32 C8.91333333,23.44 7.78666667,22.2333333 6.96,20.7 C6.13333333,19.1666667 5.72,17.4266667 5.72,15.48 C5.72,13.5333333 6.13333333,11.8 6.96,10.28 C7.78666667,8.76 8.91333333,7.56 10.34,6.68 C11.7666667,5.8 13.3866667,5.36 15.2,5.36 C16.88,5.36 18.4,5.73333333 19.76,6.48 C21.12,7.22666667 22.2533333,8.24 23.16,9.52 L23.16,9.52 L26.72,5.92 C25.4666667,4.29333333 23.8466667,2.99333333 21.86,2.02 C19.8733333,1.04666667 17.6533333,0.56 15.2,0.56 C13.0133333,0.56 10.9933333,0.933333333 9.14,1.68 C7.28666667,2.42666667 5.67333333,3.46666667 4.3,4.8 C2.92666667,6.13333333 1.86666667,7.70666667 1.12,9.52 C0.373333333,11.3333333 -1.42108547e-14,13.32 -1.42108547e-14,15.48 C-1.42108547e-14,17.64 0.366666667,19.6333333 1.1,21.46 C1.83333333,23.2866667 2.87333333,24.8666667 4.22,26.2 C5.56666667,27.5333333 7.16,28.5733333 9,29.32 C10.84,30.0666667 12.8666667,30.44 15.08,30.44 Z M40.32,30.44 C42.5066667,30.44 44.44,29.98 46.12,29.06 C47.8,28.14 49.1133333,26.8733333 50.06,25.26 C51.0066667,23.6466667 51.48,21.8 51.48,19.72 C51.48,17.64 51.0066667,15.7933333 50.06,14.18 C49.1133333,12.5666667 47.8,11.3066667 46.12,10.4 C44.44,9.49333333 42.5066667,9.04 40.32,9.04 C38.16,9.04 36.24,9.49333333 34.56,10.4 C32.88,11.3066667 31.5666667,12.5666667 30.62,14.18 C29.6733333,15.7933333 29.2,17.64 29.2,19.72 C29.2,21.8 29.6733333,23.6466667 30.62,25.26 C31.5666667,26.8733333 32.88,28.14 34.56,29.06 C36.24,29.98 38.16,30.44 40.32,30.44 Z M40.32,26.04 C38.64,26.04 37.28,25.4533333 36.24,24.28 C35.2,23.1066667 34.68,21.5866667 34.68,19.72 C34.68,17.88 35.2,16.3733333 36.24,15.2 C37.28,14.0266667 38.64,13.44 40.32,13.44 C42.0266667,13.44 43.4,14.0266667 44.44,15.2 C45.48,16.3733333 46,17.88 46,19.72 C46,21.5866667 45.48,23.1066667 44.44,24.28 C43.4,25.4533333 42.0266667,26.04 40.32,26.04 Z M60.68,29.8 L60.68,21.2 C60.68,18.6933333 61.24,16.8866667 62.36,15.78 C63.48,14.6733333 64.9733333,14.12 66.84,14.12 L66.84,14.12 L67.92,14.12 L67.92,9.32 L67.2,9.32 C66.4,9.32 65.58,9.45333333 64.74,9.72 C63.9,9.98666667 63.12,10.4333333 62.4,11.06 C61.68,11.6866667 61.0933333,12.5466667 60.64,13.64 L60.64,13.64 L60.64,9.68 L55.4,9.68 L55.4,29.8 L60.68,29.8 Z M83.36,29.8 L91.92,9.68 L86.64,9.68 L80.88,24.56 L75.12,9.68 L69.68,9.68 L78.24,29.8 L83.36,29.8 Z M97.56,6.2 C98.4666667,6.2 99.2266667,5.9 99.84,5.3 C100.453333,4.7 100.76,3.97333333 100.76,3.12 C100.76,2.24 100.453333,1.5 99.84,0.9 C99.2266667,0.3 98.4666667,2.84217094e-14 97.56,2.84217094e-14 C96.6533333,2.84217094e-14 95.8933333,0.3 95.28,0.9 C94.6666667,1.5 94.36,2.24 94.36,3.12 C94.36,3.97333333 94.6666667,4.7 95.28,5.3 C95.8933333,5.9 96.6533333,6.2 97.56,6.2 Z M100.2,29.8 L100.2,9.68 L94.92,9.68 L94.92,29.8 L100.2,29.8 Z M114.24,30.44 C115.76,30.44 117.1,30.1533333 118.26,29.58 C119.42,29.0066667 120.346667,28.2266667 121.04,27.24 L121.04,27.24 L121.04,29.8 L126.28,29.8 L126.28,1 L121,1 L121,12.36 C120.306667,11.3466667 119.386667,10.54 118.24,9.94 C117.093333,9.34 115.746667,9.04 114.2,9.04 C112.36,9.04 110.68,9.49333333 109.16,10.4 C107.64,11.3066667 106.426667,12.56 105.52,14.16 C104.613333,15.76 104.16,17.6133333 104.16,19.72 C104.16,21.8266667 104.613333,23.6866667 105.52,25.3 C106.426667,26.9133333 107.64,28.1733333 109.16,29.08 C110.68,29.9866667 112.373333,30.44 114.24,30.44 Z M115.52,26.04 C113.76,26.04 112.34,25.4466667 111.26,24.26 C110.18,23.0733333 109.64,21.56 109.64,19.72 C109.64,17.9066667 110.16,16.4066667 111.2,15.22 C112.24,14.0333333 113.613333,13.44 115.32,13.44 C116.973333,13.44 118.333333,14.02 119.4,15.18 C120.466667,16.34 121,17.9066667 121,19.88 L121,19.88 L121,22.52 C120.6,23.5866667 119.906667,24.44 118.92,25.08 C117.933333,25.72 116.8,26.04 115.52,26.04 Z" id="Corvid"></path>
                </g>
            </g>
        </g>
    </g>
</svg>