<svg xmlns="http://www.w3.org/2000/svg" viewBox="0 0 220 265.35"><defs><style>.cls-1{fill:#ffc600;}.cls-1,.cls-2,.cls-3,.cls-4{fill-rule:evenodd;}.cls-2{fill:#fffffe;}.cls-3{fill:#171717;}.cls-5{fill:#fff;}</style></defs><g id="Layer_2" data-name="Layer 2"><g id="Layer_1-2" data-name="Layer 1"><g id="Group-4"><path id="Combined-Shape" class="cls-1" d="M78.34,235.47A3.31,3.31,0,0,1,80,241.62q.41.81.75,1.65a21.72,21.72,0,0,1,1.58,6.8c0,.28,0,.57,0,.86a18.77,18.77,0,0,1-1.06,6.25,7.71,7.71,0,0,1-.83,1.68,6.17,6.17,0,0,1-.88.95,5.68,5.68,0,0,1-1,.69,3.42,3.42,0,0,1-1.21.42,1.74,1.74,0,0,1-1.26-.26,2.13,2.13,0,0,1-.77-1.15,8,8,0,0,1-.17-3.08,22.94,22.94,0,0,1,.46-2.74c.37-1.59.73-2.62.73-2.62h0a24.66,24.66,0,0,0-.91,2.58,21.08,21.08,0,0,0-.66,2.73,8.64,8.64,0,0,0,0,3.29,2.72,2.72,0,0,0,.92,1.56,2.8,2.8,0,0,0,1.72.55,4.18,4.18,0,0,0,1.62-.32l.16-.07a18.85,18.85,0,0,1-2.93,3.43,3,3,0,0,1-3.32.08,13.18,13.18,0,0,0-4.76-1.38,13.33,13.33,0,0,0-4.77,1.38,3.06,3.06,0,0,1-3,.1,19.35,19.35,0,0,1-3.13-3.62l.17.08a4.62,4.62,0,0,0,1.62.32,2.86,2.86,0,0,0,1.72-.55,2.75,2.75,0,0,0,.92-1.56,8.64,8.64,0,0,0,0-3.29,23.17,23.17,0,0,0-.65-2.74c-.48-1.57-.91-2.58-.91-2.58h0a25.5,25.5,0,0,1,.72,2.62,22.16,22.16,0,0,1,.47,2.74,8.13,8.13,0,0,1-.18,3.07,2.09,2.09,0,0,1-.77,1.15,1.78,1.78,0,0,1-1.26.27,3.63,3.63,0,0,1-1.21-.42,5.71,5.71,0,0,1-1-.7,5.8,5.8,0,0,1-.7-.71l0,0-.14-.18a8.82,8.82,0,0,1-1-2,18.67,18.67,0,0,1-1-5.91c0-.29,0-.58,0-.86a22,22,0,0,1,1.59-6.8c.23-.56.48-1.12.75-1.65a3.31,3.31,0,0,1,1.68-6.15H78.34ZM68.27,230a3.25,3.25,0,0,1,2,.43h0l-.81,2.23a11.39,11.39,0,0,1,5.44,2H61.69a11.36,11.36,0,0,1,5.43-2h0l-.8-2.23A3.19,3.19,0,0,1,68.27,230Z"/><path id="Combined-Shape-2" data-name="Combined-Shape" class="cls-2" d="M68.2,243a4.09,4.09,0,1,1-4.09,4.09A4.09,4.09,0,0,1,68.2,243Zm-5.91-4.82a3,3,0,1,1-3,3A3,3,0,0,1,62.29,238.15Zm12,0a3,3,0,1,1-3,3A3,3,0,0,1,74.25,238.15Z"/><path id="Combined-Shape-3" data-name="Combined-Shape" class="cls-3" d="M68.3,243.91c1.72,0,2,.48,2,.51h0a.39.39,0,0,1,.08.14h0l0,0a.78.78,0,0,1,0,.16v0a1.45,1.45,0,0,1-.67,1.18,3.12,3.12,0,0,1-1.21.65h0v4.52l-.27,0H68v-4.52a3.19,3.19,0,0,1-1.21-.65,1.45,1.45,0,0,1-.67-1.18v0a.4.4,0,0,1,0-.15.12.12,0,0,1,0-.05h0a.59.59,0,0,1,.33-.33,3.49,3.49,0,0,1,1.78-.32h0Zm-5.94-4A1.34,1.34,0,1,1,61,241.23a1.27,1.27,0,0,1,0-.34.7.7,0,0,0,.37.11.74.74,0,0,0,.74-.74.77.77,0,0,0-.08-.34A1.18,1.18,0,0,1,62.36,239.89Zm11.82,0a1.34,1.34,0,1,1-1.34,1.34,1.86,1.86,0,0,1,0-.34.7.7,0,0,0,.38.11.74.74,0,0,0,.74-.74.67.67,0,0,0-.09-.34Zm-16-2.81a1.6,1.6,0,0,1,1,.38,22.28,22.28,0,0,0-1.91,2.7,1.67,1.67,0,0,1,.87-3.08Zm20.08,0a1.67,1.67,0,0,1,.87,3.08,22.28,22.28,0,0,0-1.91-2.7A1.68,1.68,0,0,1,78.31,237.08Z"/><path id="Fill-13" class="cls-2" d="M56.31,257.58a6.05,6.05,0,0,1-.45-.77,8.5,8.5,0,0,1-.64-1.87,10.94,10.94,0,0,1-.25-2c0-.54,0-.89,0-.89a1.64,1.64,0,0,1,.06.23l.15.63c.11.52.25,1.22.4,1.9s.32,1.36.47,1.87l.17.62c0,.15.07.24.07.24"/><path id="Fill-14" class="cls-2" d="M76.87,253.29a5.75,5.75,0,0,1,0,.59c0,.34-.12.8-.22,1.25s-.21.89-.31,1.22c0,.17-.1.31-.13.41l-.06.15a4,4,0,0,1,0-.59,5.67,5.67,0,0,1,.14-1.28,7,7,0,0,1,.39-1.22,4.64,4.64,0,0,1,.27-.53"/><path id="Fill-15" class="cls-2" d="M58.19,235.88a3.49,3.49,0,0,0-.56.29,3.71,3.71,0,0,0-.53.35,4.69,4.69,0,0,0-.52.48c-.17.18-.31.38-.45.56s-.24.38-.32.55-.17.31-.22.41l-.08.17s0-.07,0-.19a2,2,0,0,1,.07-.47,3.49,3.49,0,0,1,.24-.65,3.2,3.2,0,0,1,.46-.65,2.77,2.77,0,0,1,1.25-.78,2,2,0,0,1,.65-.07"/></g><g id="Group"><path id="Combined-Shape-4" data-name="Combined-Shape" class="cls-4" d="M173.31,243.89a5.08,5.08,0,0,1,4.1,1.84,7.31,7.31,0,0,1,1.54,4.82,7,7,0,0,1-1.64,4.83,5.35,5.35,0,0,1-4.17,1.84,4.61,4.61,0,0,1-2-.43,4,4,0,0,1-1.23-.79l0,0-.35-.43h0a9.57,9.57,0,0,1,0,1v5.36h-3.13V247.43a.48.48,0,0,0-.51-.55h-2.22a.7.7,0,0,0-.71.42v0l-4.55,11.51a5.16,5.16,0,0,1-1.86,2.48,4.65,4.65,0,0,1-2.71.84,4.52,4.52,0,0,1-1.68-.32,4.11,4.11,0,0,1-1.12-.63l0,0-.37-.33,1.22-2.24a2.33,2.33,0,0,0,1.81.87,2.19,2.19,0,0,0,2.06-1.56l0-.06.42-1-5.62-12.71H153a1.74,1.74,0,0,1,1,.28,1.88,1.88,0,0,1,.6.86l0,.06,3,7.55,2.52-7.34.07-.21a1.62,1.62,0,0,1,1.63-1.2h5.82c1,0,1.57.4,1.58,1.19v.54h0l.13-.22a3.47,3.47,0,0,1,.44-.48,4.35,4.35,0,0,1,.75-.61,4.7,4.7,0,0,1,1.15-.49A5.19,5.19,0,0,1,173.31,243.89Zm-58.55,0a6.94,6.94,0,0,1,4.94,1.88,6.71,6.71,0,0,1,0,9.56,7.41,7.41,0,0,1-9.89,0,6.71,6.71,0,0,1,0-9.56A6.9,6.9,0,0,1,114.76,243.89Zm29.49,0a5.2,5.2,0,0,1,4.12,1.7,6.38,6.38,0,0,1,1.49,4.24v.1l-.08,1.17H141a3.68,3.68,0,0,0,1.24,2.52,3.87,3.87,0,0,0,2.56.9,4.77,4.77,0,0,0,1.79-.36,5.43,5.43,0,0,0,1.28-.68l0,0,.44-.35,1.32,2.19-.22.22a6.61,6.61,0,0,1-.66.46,8.3,8.3,0,0,1-1.06.57,7.64,7.64,0,0,1-1.4.46,6.88,6.88,0,0,1-1.75.22,6.53,6.53,0,0,1-6.81-6.67,6.65,6.65,0,0,1,1.79-4.8A6.15,6.15,0,0,1,144.25,243.89Zm43.08,0a6.94,6.94,0,0,1,4.94,1.88,6.69,6.69,0,0,1,0,9.56,7.41,7.41,0,0,1-9.89,0,6.71,6.71,0,0,1,0-9.56A6.91,6.91,0,0,1,187.33,243.89ZM200,240.71v3.47h2.88v2.53H200v5.14a2.08,2.08,0,0,0,.78,1.88,3.12,3.12,0,0,0,1.65.52h.07l.58-.05V257a5.43,5.43,0,0,1-1,.07,8.22,8.22,0,0,1-1.24-.09,5.84,5.84,0,0,1-1.37-.38,4.38,4.38,0,0,1-1.33-.79,3.66,3.66,0,0,1-.94-1.4,5.28,5.28,0,0,1-.39-2v-5.64h-1.64v-2.53h1.72v-3.47ZM91.37,239.29h1.57a1.69,1.69,0,0,1,1.29.41,1.72,1.72,0,0,1,.4,1.22v5.88h7.77V241a1.48,1.48,0,0,1,1.64-1.69h1.61V257H102.4v-7.44H94.63V257H91.37V239.29h0Zm39.9,4.6q4.42,0,4.43,4.84h0v8.19h-1.47a1.45,1.45,0,0,1-1.69-1.7h0v-5.84a3.55,3.55,0,0,0-.43-1.94,1.73,1.73,0,0,0-1.56-.66,3.38,3.38,0,0,0-2.14.71,3.65,3.65,0,0,0-1.26,1.89,5.53,5.53,0,0,0-.25,1.7h0v5.84h-3.13V244.18h1.37c1.11,0,1.66.48,1.66,1.43h0V246l0,.55h0a5.19,5.19,0,0,1,1.64-1.85A4.78,4.78,0,0,1,131.27,243.89Zm41.34,2.72a2.93,2.93,0,0,0-2.26,1,4.35,4.35,0,0,0-.92,3,4.73,4.73,0,0,0,.82,2.76,2.68,2.68,0,0,0,2.31,1.16,2.91,2.91,0,0,0,2.29-1.07,4.24,4.24,0,0,0,.92-2.88,4.55,4.55,0,0,0-.87-2.9A2.77,2.77,0,0,0,172.61,246.61Zm-57.85,0a3.61,3.61,0,0,0-2.66,1.12,4.28,4.28,0,0,0,0,5.71,3.77,3.77,0,0,0,5.34,0,4.24,4.24,0,0,0,0-5.71A3.65,3.65,0,0,0,114.76,246.58Zm72.57,0a3.61,3.61,0,0,0-2.66,1.12,4.28,4.28,0,0,0,0,5.71,3.77,3.77,0,0,0,5.34,0,4.24,4.24,0,0,0,0-5.71A3.65,3.65,0,0,0,187.33,246.58Zm-43.08-.25a3,3,0,0,0-2,.69,3.33,3.33,0,0,0-1.06,1.8l0,.08h5.49a2.65,2.65,0,0,0-.71-1.84A2.18,2.18,0,0,0,144.25,246.33Z"/></g><path d="M19.37,240.17h2.24v5.34a9.05,9.05,0,0,1-.05,1h.05a4.12,4.12,0,0,1,3.74-2c3.15,0,5.14,2.5,5.14,6.13s-2.25,6.13-5.32,6.13a4.22,4.22,0,0,1-3.68-2h0s0,.37,0,.87v.86H19.37Zm5.47,14.68c1.85,0,3.38-1.53,3.38-4.19s-1.36-4.18-3.31-4.18c-1.75,0-3.37,1.22-3.37,4.21C21.54,252.77,22.62,254.85,24.84,254.85Z"/><path d="M31.92,258.92a2.59,2.59,0,0,0,1.36.48,2.37,2.37,0,0,0,2.1-1.71l.58-1.34-4.9-11.56h2.52l2.94,7.65c.23.61.44,1.41.44,1.41h0s.19-.78.4-1.38l2.84-7.68h2.43l-5.48,13.8a4,4,0,0,1-3.79,2.75,4.13,4.13,0,0,1-2.27-.71Z"/><circle cx="110" cy="110" r="110"/><path class="cls-5" d="M50.84,113.86c0-13.44,7-21.93,19.61-21.93,8.48,0,14.32,4.08,16.8,11l-9.6,4.16a7,7,0,0,0-7.2-5.76c-4.81,0-7.29,3.44-7.29,8.72v7.84c0,5.29,2.48,8.65,7.29,8.65s6.64-2.88,7.84-6.25l9.2,4c-2.8,8-8.8,11.6-17,11.6C57.8,135.87,50.84,127.31,50.84,113.86Z"/><path class="cls-5" d="M118.91,127.87h-.4c-1.45,4.24-4.89,8-11.77,8-8.56,0-13.12-6-13.12-16.57V92.89h11.84v25.37c0,5.13,1.68,8,6,8,3.68,0,7.45-2.08,7.45-6.09V92.89h11.84v42H118.91Z"/><circle class="cls-5" cx="37.14" cy="128.56" r="7.08"/><path class="cls-5" d="M185.36,102.1V92.89H177V81.53H165.3V92.89h-6v9.21h5.92V105h0v17.71c0,8,4.32,12.24,12.48,12.24h7v-9.2H177V102.1Z"/><rect class="cls-5" x="140" y="75.69" width="11.84" height="59.22"/></g></g></svg>