<?xml version="1.0" encoding="UTF-8"?>
<svg width="400px" height="400px" viewBox="0 0 400 400" version="1.1" xmlns="http://www.w3.org/2000/svg" xmlns:xlink="http://www.w3.org/1999/xlink" xmlns:sketch="http://www.bohemiancoding.com/sketch/ns">
    <!-- Generator: Sketch 3.4 (15575) - http://www.bohemiancoding.com/sketch -->
    <title>DAZN_LogoUnBoxed_Tarmac_RGB</title>
    <desc>Created with Sketch.</desc>
    <defs>
        <path id="path-1" d="M0.06,0.04 L400,0.04 L400,400 L0.06,400 L0.06,0.04 Z"></path>
    </defs>
    <g id="Page-1" stroke="none" stroke-width="1" fill="none" fill-rule="evenodd" sketch:type="MSPage">
        <g id="DAZN_LogoUnBoxed_Tarmac_RGB" sketch:type="MSLayerGroup">
            <mask id="mask-2" sketch:name="Clip 2" fill="white">
                <use xlink:href="#path-1"></use>
            </mask>
            <g id="Clip-2"></g>
            <path d="M246.234,138.183 L259.093,94.91 L272.27,138.183 L246.234,138.183 L246.234,138.183 Z M310.366,175.984 L276.612,73.85 C275.86,71.598 275.004,70.119 274.043,69.425 C273.075,68.732 271.518,68.379 269.38,68.379 L250.734,68.379 C248.589,68.379 247.013,68.758 245.992,69.504 C244.973,70.25 244.142,71.703 243.5,73.85 L209.427,175.984 C208.995,176.521 208.786,177.581 208.786,179.191 C208.786,181.665 210.285,182.895 213.286,182.895 L227.268,182.895 C228.557,182.895 229.597,182.842 230.4,182.738 C231.205,182.633 231.847,182.358 232.331,181.926 C232.814,181.507 233.239,180.853 233.619,180.002 C233.992,179.138 234.391,178.013 234.822,176.625 L240.126,158.772 L278.543,158.772 L284.004,176.298 C284.435,177.803 284.86,178.982 285.292,179.845 C285.717,180.696 286.201,181.363 286.737,181.848 C287.273,182.332 287.914,182.633 288.666,182.738 C289.411,182.842 290.38,182.895 291.557,182.895 L306.508,182.895 C309.503,182.895 311.007,181.665 311.007,179.191 C311.007,178.445 310.981,177.934 310.928,177.673 C310.869,177.398 310.686,176.835 310.366,175.984 L310.366,175.984 Z M293.793,217.104 L283.021,217.104 C280.235,217.104 278.384,217.509 277.476,218.308 C276.566,219.119 276.115,220.755 276.115,223.216 L276.115,283.845 L244.292,223.059 C243.004,220.481 241.741,218.844 240.512,218.151 C239.276,217.457 237.111,217.104 234.004,217.104 L224.037,217.104 C221.251,217.104 219.4,217.509 218.491,218.308 C217.582,219.119 217.124,220.755 217.124,223.216 L217.124,325.507 C217.124,327.982 217.55,329.605 218.412,330.416 C219.269,331.214 221.088,331.62 223.874,331.62 L234.809,331.62 C237.588,331.62 239.438,331.214 240.348,330.416 C241.257,329.605 241.714,327.982 241.714,325.507 L241.714,264.708 L273.538,325.664 C274.826,328.243 276.082,329.879 277.318,330.573 C278.549,331.279 280.719,331.62 283.825,331.62 L293.793,331.62 C296.579,331.62 298.423,331.214 299.339,330.416 C300.247,329.605 300.706,327.982 300.706,325.507 L300.706,223.216 C300.706,220.755 300.247,219.119 299.339,218.308 C298.423,217.509 296.579,217.104 293.793,217.104 L293.793,217.104 Z M347.177,207.418 L374.927,235.168 L374.927,374.927 L25.073,374.927 L25.073,235.145 L52.796,207.421 C56.895,203.322 56.895,196.677 52.796,192.578 L25.073,164.855 L25.073,25.073 L374.927,25.073 L374.928,164.824 L347.177,192.575 C343.078,196.674 343.078,203.319 347.177,207.418 L347.177,207.418 Z M400,0 L0,0 L0,176.889 L23.111,200 L0,223.111 L0,400 L400,400 L400,223.111 L376.89,200 L400,176.889 L400,0 L400,0 Z M177.838,307.811 L132.655,307.811 L180.235,240.912 C180.983,239.839 181.468,238.976 181.685,238.334 C181.902,237.693 182.007,236.946 182.007,236.083 L182.007,223.216 C182.007,220.755 181.547,219.119 180.635,218.308 C179.723,217.509 177.865,217.104 175.07,217.104 L106.372,217.104 C103.897,217.104 102.289,217.562 101.535,218.465 C100.781,219.381 100.406,221.278 100.406,224.185 L100.406,233.831 C100.406,236.724 100.781,238.635 101.535,239.538 C102.289,240.454 103.897,240.912 106.372,240.912 L148.78,240.912 L101.851,307.811 C100.663,309.317 100.072,310.821 100.072,312.314 L100.072,325.507 C100.072,327.982 100.532,329.605 101.443,330.416 C102.356,331.214 104.213,331.62 107.009,331.62 L177.838,331.62 C180.312,331.62 181.927,331.162 182.682,330.259 C183.43,329.343 183.81,327.444 183.81,324.539 L183.81,314.893 C183.81,311.999 183.43,310.102 182.682,309.186 C181.927,308.27 180.312,307.811 177.838,307.811 L177.838,307.811 Z M156.807,137.214 C156.807,141.612 156.513,145.29 155.924,148.235 C155.335,151.18 154.374,153.575 153.033,155.395 C151.693,157.214 149.926,158.497 147.729,159.256 C145.532,160.002 142.825,160.382 139.613,160.382 L126.435,160.382 L126.435,90.892 L139.613,90.892 C145.722,90.892 150.11,92.698 152.791,96.284 C155.466,99.871 156.807,105.8 156.807,114.059 L156.807,137.214 L156.807,137.214 Z M179.795,90.734 C176.041,83.117 170.927,77.488 164.446,73.85 C157.958,70.198 149.79,68.379 139.933,68.379 L106.985,68.379 C104.199,68.379 102.348,68.784 101.438,69.583 C100.53,70.394 100.072,72.03 100.072,74.491 L100.072,176.782 C100.072,179.256 100.53,180.879 101.438,181.691 C102.348,182.489 104.199,182.895 106.985,182.895 L143.949,182.895 C161.417,182.895 173.366,175.447 179.795,160.539 C181.292,157.11 182.339,153.654 182.927,150.159 C183.517,146.677 183.81,142.253 183.81,136.9 L183.81,115.185 C183.81,109.072 183.517,104.243 182.927,100.709 C182.339,97.161 181.292,93.85 179.795,90.734 L179.795,90.734 Z" id="Fill-1" fill="#0A1215" sketch:type="MSShapeGroup" mask="url(#mask-2)"></path>
        </g>
    </g>
</svg>