<svg xmlns="http://www.w3.org/2000/svg" viewBox="0 0 2927.16 2250"><defs><style>.cls-1{fill:#29293d;}</style></defs><title>Asset 1</title><g id="Layer_2" data-name="Layer 2"><g id="Layer_1-2" data-name="Layer 1"><path class="cls-1" d="M824.45,311.62c-25-62.81-60.47-117.94-105.4-163.87S619.33,65.23,556.39,39.17c-62.75-26-132-39.17-206-39.17H0V1034.08H350.39c73.95,0,143.25-13.18,206-39.17,63-26.07,117.67-62.61,162.66-108.6s80.39-101,105.4-163.86c24.95-62.62,37.6-131.74,37.6-205.41S849.4,374.25,824.45,311.62ZM586.76,622.68A263.52,263.52,0,0,1,536,708.4c-21.6,24.19-48.14,43.67-78.89,57.93h0c-30.34,14.07-65.34,21.21-104,21.21H254.59v-541h98.48c38.66,0,73.66,7.14,104,21.21C488,282,514.58,301.4,536.21,325.28S575,378,586.7,410.56c12,33.26,18.06,69.08,18.06,106.48S598.71,589.91,586.76,622.68Z"/><polygon class="cls-1" points="563.54 1215.92 818.13 1215.92 818.13 2250 563.54 2250 563.54 1845.47 255.03 1845.47 255.03 2250 0.44 2250 0.44 1215.92 255.03 1215.92 255.03 1598.94 563.54 1598.94 563.54 1215.92"/><path class="cls-1" d="M2845.39,678.74C2791,542.09,2713.85,422.17,2616.14,322.28c-97.88-100-216.92-179.45-353.72-236.1C2125.93,29.65,1975.18,1,1814.35,1H803A471.81,471.81,0,0,1,909,82c44.93,45.93,80.4,101.07,105.41,163.88,24.95,62.63,37.6,131.75,37.6,205.42l-.07-.05c.26,8.35.38,1798.74.38,1798.74h762.07c160.83,0,311.58-28.66,448.07-85.19,136.84-56.69,255.84-136.13,353.75-236.18,97.68-99.78,174.79-219.69,229.22-356.34,54.26-136.13,81.77-286.44,81.77-446.8S2899.65,814.83,2845.39,678.74Zm-517,676.51c-25.65,70.33-62.79,133-110.48,186.44-46.86,52.57-104.58,95-171.53,126-66,30.64-142.19,46.14-226.23,46.14H1606V537.18h214.19c84.08,0,160.19,15.54,226.23,46.14,67.2,31.12,125.07,73.22,172.08,125.11,47.3,52.17,84.24,114.57,109.81,185.48,26.08,72.43,39.33,150.32,39.33,231.58S2354.43,1283.94,2328.42,1355.25Z"/></g></g></svg>