<?xml version="1.0" encoding="UTF-8"?>
<svg width="462px" height="60px" viewBox="0 0 462 60" version="1.1" xmlns="http://www.w3.org/2000/svg" xmlns:xlink="http://www.w3.org/1999/xlink">
    <!-- Generator: Sketch 55.2 (78181) - https://sketchapp.com -->
    <title>durchblicker</title>
    <desc>Created with Sketch.</desc>
    <defs>
        <polygon id="path-1" points="0.618 0.014 339.52 0.014 339.52 46.94 0.618 46.94"></polygon>
    </defs>
    <g id="durchblicker" stroke="none" stroke-width="1" fill="none" fill-rule="evenodd">
        <polygon id="Fill-1" fill="#FFFFFE" points="282.205 11.92 297.532 11.92 297.532 0.664 282.205 0.664"></polygon>
        <polygon id="Fill-2" fill="#FFFFFE" points="282.205 59.021 297.532 59.021 297.532 15.124 282.205 15.124"></polygon>
        <path d="M24.168,27.715 C19.336,27.715 15.405,31.647 15.405,36.478 C15.405,41.511 19.285,45.165 24.634,45.165 C29.199,45.165 32.776,41.418 32.776,36.636 C32.776,31.551 29.075,27.715 24.168,27.715 Z M21.916,59.406 C16.494,59.406 11.752,57.625 7.822,54.112 C2.707,49.578 0,43.505 0,36.559 C0,30.172 2.475,24.41 7.158,19.897 C11.285,15.852 16.472,13.708 22.149,13.708 C26.176,13.708 29.579,14.752 32.31,16.82 L32.31,0.814 L47.715,0.814 L47.715,59.017 L32.699,59.017 L32.699,56.297 C29.621,58.455 26.24,59.406 21.916,59.406 L21.916,59.406 Z" id="Fill-3" fill="#FFFFFE"></path>
        <path d="M24.634,46.731 C29.916,46.731 34.343,42.382 34.343,36.635 C34.343,30.654 29.916,26.148 24.168,26.148 C18.342,26.148 13.838,30.886 13.838,36.478 C13.838,42.304 18.342,46.731 24.634,46.731 Z M34.266,52.944 C30.615,56.518 26.887,57.838 21.916,57.838 C16.866,57.838 12.517,56.207 8.867,52.944 C4.052,48.674 1.567,43.082 1.567,36.558 C1.567,30.577 3.896,25.216 8.245,21.024 C12.129,17.218 16.866,15.274 22.149,15.274 C27.197,15.274 31.08,16.983 33.877,20.559 L33.877,2.381 L46.148,2.381 L46.148,57.45 L34.266,57.45 L34.266,52.944 L34.266,52.944 Z" id="Fill-4" fill="#236AA5"></path>
        <path d="M67.015,59.722 C57.234,59.722 51.157,53.377 51.157,43.165 L51.157,14.104 L66.641,14.104 L66.641,38.272 C66.641,44.213 67.943,45.172 71.055,45.172 C73.517,45.172 76.79,44.457 76.79,38.272 L76.79,14.104 L91.96,14.104 L91.96,58.945 L77.41,58.945 L77.41,56.128 C74.72,58.516 71.24,59.722 67.015,59.722" id="Fill-5" fill="#FFFFFE"></path>
        <path d="M90.393,15.671 L90.393,57.378 L78.977,57.378 L78.977,51.785 C76.337,56.134 72.376,58.155 67.015,58.155 C58.394,58.155 52.724,52.716 52.724,43.164 L52.724,15.671 L65.075,15.671 L65.075,38.272 C65.075,44.098 66.318,46.739 71.056,46.739 C75.871,46.739 78.357,43.864 78.357,38.272 L78.357,15.671 L90.393,15.671" id="Fill-6" fill="#236AA5"></path>
        <path d="M95.51,59.021 L95.51,14.18 L110.294,14.18 L110.294,16.649 C112.561,14.593 115.543,13.557 119.212,13.557 L120.779,13.557 L120.779,28.048 L118.864,28.031 C112.455,28.031 111.072,29.587 111.072,36.794 L111.072,59.021 L95.51,59.021" id="Fill-7" fill="#FFFFFE"></path>
        <path d="M108.727,15.747 L108.727,21.416 C110.747,17.221 114.242,15.123 119.212,15.123 L119.212,26.465 C111.213,26.385 109.504,29.025 109.504,36.793 L109.504,57.453 L97.076,57.453 L97.076,15.747 L108.727,15.747" id="Fill-8" fill="#236AA5"></path>
        <path d="M194.966,59.021 L194.966,34.853 C194.966,28.912 193.666,27.953 190.555,27.953 C188.059,27.953 184.74,28.668 184.74,34.853 L184.74,59.021 L169.571,59.021 L169.571,0.664 L184.432,0.664 L184.432,16.759 C187.069,14.529 190.47,13.403 194.592,13.403 C204.325,13.403 210.373,19.748 210.373,29.961 L210.373,59.021 L194.966,59.021" id="Fill-9" fill="#FFFFFE"></path>
        <path d="M171.137,57.453 L171.137,2.229 L182.865,2.229 L182.865,20.95 C185.428,16.909 189.311,14.969 194.592,14.969 C203.214,14.969 208.806,20.407 208.806,29.96 L208.806,57.453 L196.532,57.453 L196.532,34.852 C196.532,29.025 195.289,26.385 190.554,26.385 C185.737,26.385 183.173,29.26 183.173,34.852 L183.173,57.453 L171.137,57.453" id="Fill-10" fill="#236AA5"></path>
        <path d="M237.203,27.715 C232.34,27.715 228.674,31.551 228.674,36.636 C228.674,41.418 232.251,45.165 236.816,45.165 C242.163,45.165 246.045,41.511 246.045,36.478 C246.045,31.647 242.078,27.715 237.203,27.715 Z M239.533,59.406 C235.21,59.406 231.828,58.455 228.751,56.297 L228.751,59.017 L213.734,59.017 L213.734,0.814 L229.217,0.814 L229.217,16.791 C231.914,14.743 235.291,13.708 239.301,13.708 C244.976,13.708 250.163,15.852 254.299,19.905 C258.974,24.409 261.449,30.17 261.449,36.559 C261.449,43.505 258.742,49.578 253.622,54.116 C249.697,57.625 244.956,59.406 239.533,59.406 L239.533,59.406 Z" id="Fill-11" fill="#FFFFFE"></path>
        <path d="M236.816,46.731 C243.107,46.731 247.612,42.304 247.612,36.478 C247.612,30.886 243.029,26.148 237.203,26.148 C231.457,26.148 227.107,30.654 227.107,36.635 C227.107,42.382 231.534,46.731 236.816,46.731 Z M227.185,57.45 L215.301,57.45 L215.301,2.381 L227.65,2.381 L227.65,20.559 C230.214,17.218 234.02,15.274 239.301,15.274 C244.583,15.274 249.32,17.218 253.203,21.024 C257.554,25.216 259.883,30.577 259.883,36.558 C259.883,43.082 257.398,48.674 252.583,52.944 C248.932,56.207 244.583,57.838 239.534,57.838 C234.563,57.838 230.835,56.518 227.185,52.944 L227.185,57.45 L227.185,57.45 Z" id="Fill-12" fill="#E3672A"></path>
        <polygon id="Fill-13" fill="#FFFFFE" points="263.279 59.021 278.606 59.021 278.606 0.664 263.279 0.664"></polygon>
        <polygon id="Fill-14" fill="#E3672A" points="264.846 57.452 277.04 57.452 277.04 2.229 264.846 2.229"></polygon>
        <path d="M283.772,57.453 L295.966,57.453 L295.966,16.731 L283.772,16.731 L283.772,57.453 Z M283.772,10.36 L295.966,10.36 L295.966,2.229 L283.772,2.229 L283.772,10.36 Z" id="Fill-15" fill="#E3672A"></path>
        <polyline id="Fill-16" fill="#FFFFFE" points="371.79 59.021 362.993 44.034 362.993 59.021 347.898 59.021 347.898 0.664 362.993 0.664 362.993 27.015 373.174 14.18 392.094 14.18 374.116 34.451 390.357 59.021 371.79 59.021"></polyline>
        <polyline id="Fill-17" fill="#E3672A" points="361.426 2.229 361.426 31.512 373.93 15.747 388.61 15.747 372.144 34.309 387.444 57.453 372.687 57.453 361.426 38.27 361.426 57.453 349.465 57.453 349.465 2.229 361.426 2.229"></polyline>
        <path d="M417.474,30.561 C415.949,28.284 413.446,27.097 410.116,27.097 L410.111,27.097 C406.727,27.097 404.081,28.385 402.77,30.561 L417.474,30.561 Z M410.119,59.93 C403.324,59.93 397.798,57.587 393.223,52.767 C388.929,48.22 386.662,42.505 386.662,36.24 C386.662,30.065 389.087,24.24 393.488,19.84 C397.989,15.341 403.839,12.863 409.964,12.863 C416.74,12.863 422.578,15.193 426.841,19.601 C431.744,24.669 434.177,31.418 433.883,40.267 L433.834,41.781 L403.111,41.781 C404.384,44.24 406.78,46.006 410.502,46.006 C412.661,46.006 414.304,45.407 415.838,44.062 L416.282,43.673 L432.748,43.646 L431.796,45.905 C427.536,55.079 420.041,59.929 410.119,59.93 L410.119,59.93 Z" id="Fill-18" fill="#FFFFFE"></path>
        <path d="M419.974,32.128 C418.5,27.858 415.009,25.5289997 410.116,25.5289997 C404.994,25.528 401.346,28.168 400.492,32.128 L419.974,32.128 Z M430.376,45.245 C426.34,53.935 419.434,58.362 410.119,58.363 C403.754,58.363 398.631,56.188 394.36,51.688 C390.325,47.415 388.229,42.135 388.229,36.239 C388.229,30.418 390.481,25.062 394.595,20.947 C398.785,16.76 404.296,14.429 409.964,14.429 C423.622,14.428 432.86,23.912 432.317,40.213 L400.879,40.213 C401.968,44.637 405.15,47.575 410.507,47.573 C412.989,47.573 415.009,46.875 416.871,45.24 L430.376,45.245 L430.376,45.245 Z" id="Fill-19" fill="#E3672A"></path>
        <path d="M435.818,59.021 L435.818,14.18 L450.602,14.18 L450.602,16.648 C452.868,14.593 455.851,13.557 459.52,13.557 L461.087,13.557 L461.087,28.048 L459.174,28.031 C452.761,28.031 451.379,29.587 451.379,36.794 L451.379,59.021 L435.818,59.021" id="Fill-20" fill="#FFFFFE"></path>
        <g id="Group-26" transform="translate(120.000000, 13.000000)">
            <mask id="mask-2" fill="white">
                <use xlink:href="#path-1"></use>
            </mask>
            <g id="Clip-22"></g>
            <path d="M329.036,2.747 L329.036,8.416 C331.055,4.221 334.55,2.123 339.52,2.123 L339.52,13.465 C331.521,13.385 329.812,16.025 329.812,23.793 L329.812,44.453 L317.385,44.453 L317.385,2.747 L329.036,2.747" id="Fill-21" fill="#E3672A" mask="url(#mask-2)"></path>
            <path d="M24.185,47.001 C10.97,47.001 0.618,36.648 0.618,23.432 C0.618,10.301 10.839,0.014 23.888,0.014 C35.371,0.014 44.957,7.627 47.199,18.526 L47.587,20.41 L32.23,20.41 L31.806,19.513 C30.228,16.184 27.854,14.632 24.333,14.632 C24.108,14.623 23.964,14.618 23.821,14.618 C19.36,14.618 16.122,18.356 16.122,23.508 C16.122,28.735 19.498,32.385 24.333,32.385 C27.772,32.385 30.157,30.908 31.837,27.735 L32.279,26.903 L47.721,26.903 L47.263,28.832 C44.716,39.529 35.226,47.001 24.185,47.001" id="Fill-23" fill="#FFFFFE" mask="url(#mask-2)"></path>
            <path d="M45.739,28.47 C43.516,37.803 35.295,45.433 24.185,45.433 C11.739,45.433 2.185,35.655 2.185,23.432 C2.185,11.36 11.593,1.582 23.888,1.582 C34.777,1.582 43.592,8.766 45.665,18.842 L33.222,18.842 C31.888,16.027 29.444,13.065 24.333,13.065 C18.482,12.768 14.554,17.582 14.554,23.508 C14.554,29.506 18.482,33.953 24.333,33.953 C29.444,33.953 31.888,30.988 33.222,28.47 L45.739,28.47" id="Fill-24" fill="#236AA5" mask="url(#mask-2)"></path>
            <path d="M202.932,47.001 C189.717,47.001 179.364,36.648 179.364,23.432 C179.364,10.301 189.585,0.014 202.634,0.014 C214.118,0.014 223.704,7.627 225.946,18.526 L226.333,20.41 L210.976,20.41 L210.552,19.513 C208.974,16.184 206.599,14.632 203.08,14.632 C202.855,14.623 202.712,14.618 202.568,14.618 C198.106,14.618 194.869,18.356 194.869,23.508 C194.869,28.735 198.245,32.385 203.08,32.385 C206.519,32.385 208.904,30.908 210.584,27.735 L211.024,26.903 L226.468,26.903 L226.009,28.832 C223.463,39.529 213.973,47.001 202.932,47.001" id="Fill-25" fill="#FFFFFE" mask="url(#mask-2)"></path>
        </g>
        <path d="M344.485,41.47 C342.262,50.803 334.042,58.433 322.932,58.433 C310.486,58.433 300.931,48.655 300.931,36.432 C300.931,24.36 310.34,14.582 322.634,14.582 C333.523,14.582 342.339,21.766 344.412,31.842 L331.968,31.842 C330.634,29.027 328.191,26.065 323.08,26.065 C317.229,25.768 313.301,30.582 313.301,36.508 C313.301,42.506 317.229,46.953 323.08,46.953 C328.191,46.953 330.634,43.988 331.968,41.47 L344.485,41.47" id="Fill-27" fill="#E3672A"></path>
    </g>
</svg>