<?xml version="1.0" encoding="UTF-8"?>
<svg width="137px" height="40px" viewBox="0 0 137 40" version="1.1" xmlns="http://www.w3.org/2000/svg" xmlns:xlink="http://www.w3.org/1999/xlink" xmlns:sketch="http://www.bohemiancoding.com/sketch/ns">
    <!-- Generator: Sketch 3.4 (15575) - http://www.bohemiancoding.com/sketch -->
    <title>Esri_UK_Emblem_tag_1C</title>
    <desc>Created with Sketch.</desc>
    <defs></defs>
    <g id="Page-1" stroke="none" stroke-width="1" fill="none" fill-rule="evenodd" sketch:type="MSPage">
        <g id="Esri_UK_Emblem_tag_1C" sketch:type="MSLayerGroup" fill="#1A1918">
            <path d="M30.833,21.757 L30.611,22.622 C30.455,23.211 29.933,24.603 29.66,25.165 C29.764,24.406 29.855,22.437 29.829,22.042 C30.012,22.097 30.403,21.874 30.468,21.651 C30.533,21.428 29.823,21.085 29.823,21.085 C29.836,20.187 29.759,19.069 29.626,17.995 C29.789,17.733 29.954,17.478 30.123,17.246 C30.096,16.632 30.015,16.034 29.911,15.444 C30.053,15.491 30.185,15.529 30.28,15.53 C30.604,15.535 30.603,15.313 30.499,15.189 C30.433,15.108 30.124,14.916 29.764,14.709 C29.225,12.404 28.116,10.321 26.582,8.622 C27.193,8.852 27.972,9.171 28.59,9.507 C29.06,10.097 30.403,11.423 31.12,15.136 C31.766,18.479 31.053,21.02 30.833,21.757 L30.833,21.757 Z M28.295,20.468 C28.52,20.003 28.767,19.507 29.034,19.014 C29.104,19.641 29.153,20.252 29.184,20.803 C28.909,20.682 28.606,20.573 28.295,20.468 L28.295,20.468 Z M29.105,26.093 C28.968,26.383 28.616,26.882 28.381,27.117 C28.024,26.972 27.487,26.822 26.926,26.688 C27.016,26.581 27.113,26.479 27.2,26.369 C27.507,24.314 26.813,23.656 27.682,21.776 C27.742,21.645 27.809,21.501 27.878,21.351 C28.356,21.487 28.807,21.635 29.197,21.793 C29.247,22.498 29.242,24.915 29.105,26.093 L29.105,26.093 Z M24.729,30.355 C24.756,29.889 24.775,29.3 24.79,28.757 C25.347,28.325 25.873,27.853 26.357,27.342 C26.983,27.414 27.609,27.519 27.99,27.615 C27.143,28.687 25.974,29.58 24.729,30.355 L24.729,30.355 Z M23.477,6.253 C23.168,6.056 22.783,6.129 22.943,6.474 C23.004,6.607 23.239,6.833 23.432,7.06 C22.303,6.748 19.304,6.512 17.875,6.643 C16.943,5.594 15.88,4.322 14.602,3.479 C20.321,3.123 25.459,5.489 27.729,8.268 C26.973,7.875 25.341,7.315 24.677,7.167 C24.32,6.802 23.868,6.503 23.477,6.253 L23.477,6.253 Z M23.855,30.827 C23.527,31.043 21.951,31.757 21.333,31.957 C20.386,30.919 19.316,29.543 18.541,28.294 C19.507,27.888 20.994,27.526 22.37,27.354 C22.495,27.747 22.655,28.16 22.878,28.606 C23.096,29.044 23.349,29.364 23.62,29.583 C23.718,29.522 23.808,29.451 23.904,29.388 C23.897,29.868 23.884,30.356 23.855,30.827 L23.855,30.827 Z M16.183,32.552 C16.183,32.552 14.348,31.338 13.885,30.87 C14.804,30.106 16.29,29.201 17.464,28.709 C17.923,29.43 19.439,31.577 20.047,32.269 C18.945,32.462 17.403,32.605 16.183,32.552 L16.183,32.552 Z M12.622,32.198 C12.799,31.966 12.978,31.678 13.2,31.482 C13.734,31.837 14.308,32.243 14.765,32.505 C14.06,32.426 13.234,32.408 12.622,32.198 L12.622,32.198 Z M11.49,31.84 C6.86,30.389 3.431,26.489 2.208,22.397 C1.496,20.018 1.238,17.384 1.462,14.991 C1.526,15.002 1.675,15.073 1.897,15.01 C2.051,14.905 2.602,14.518 2.993,14.177 C2.998,14.222 3.007,14.279 3.013,14.328 C2.75,15.323 2.588,16.359 2.555,17.428 C2.979,17.875 3.475,18.615 4.026,19.381 C3.671,19.644 2.991,20.115 2.831,20.229 C2.361,20.563 2.366,21.091 2.701,21.39 C2.885,21.555 3.264,21.487 3.401,21.379 C3.811,21.052 4.152,20.792 4.621,20.499 C4.794,20.948 4.955,21.353 5.114,21.74 C4.913,21.956 4.77,22.239 4.722,22.654 C4.568,23.995 5.842,25.047 6.917,25.354 C6.957,25.366 6.986,25.37 7.024,25.381 C7.081,25.467 7.133,25.549 7.193,25.636 C6.636,26.069 6.255,26.511 5.994,26.852 C5.843,27.05 5.672,27.344 5.811,27.403 C5.951,27.461 6.422,27.403 6.633,27.364 C7.167,27.261 7.578,26.671 7.947,26.454 C8.39,27.064 9.11,27.85 9.859,28.604 C9.892,28.741 9.922,28.885 9.96,29.007 C10.103,29.468 10.295,29.925 10.526,30.375 C11.066,30.626 11.627,30.835 12.202,31.016 C11.948,31.278 11.579,31.708 11.49,31.84 L11.49,31.84 Z M2.721,10.837 C2.721,10.837 2.791,12.05 2.85,12.934 C2.85,12.934 1.956,13.949 1.501,14.755 C1.682,13.103 2.07,12.252 2.721,10.837 L2.721,10.837 Z M3.701,9.193 C5.203,7.09 7.243,5.043 9.104,4.021 C9.086,4.478 9.202,5.813 9.354,7.102 C8.702,7.167 8.057,7.248 7.417,7.343 C5.915,8.619 4.7,10.215 3.854,12.021 C3.72,10.815 3.65,9.809 3.701,9.193 L3.701,9.193 Z M9.891,11.233 C9.912,11.204 9.935,11.18 9.956,11.151 C10.223,12.504 10.543,13.623 10.969,15.176 C9.365,15.883 6.528,17.633 5.276,18.577 C5.049,18.003 4.813,17.188 4.602,16.35 C4.887,15.507 5.469,14.916 6.291,14.834 C7.695,14.693 8.9,12.604 9.891,11.233 L9.891,11.233 Z M20.22,9.982 C20.209,9.998 20.188,10.011 20.175,10.028 C19.708,9.206 19.194,8.435 18.6,7.612 C19.752,7.542 21.17,7.603 22.46,7.736 C21.3,8.151 20.788,9.17 20.22,9.982 L20.22,9.982 Z M14.117,26.728 C14.453,25.853 14.713,25.205 14.809,24.566 C15.46,25.662 16.237,26.853 16.839,27.786 C15.902,28.241 14.812,28.941 13.782,29.715 C13.853,28.528 13.877,27.352 14.117,26.728 L14.117,26.728 Z M13.239,21.547 C13.159,21.585 13.073,21.632 12.99,21.673 C11.729,21.321 10.948,21.126 9.265,20.78 C8.126,20.548 8.084,20.608 6.803,20.981 C6.621,21.034 6.445,21.082 6.275,21.132 C6.104,20.696 5.936,20.244 5.765,19.757 C7.409,18.492 9.065,17.43 11.282,16.342 C11.853,18.049 12.671,20.328 13.239,21.547 L13.239,21.547 Z M12.287,15.898 C13.569,15.29 14.917,14.79 16.36,14.426 C16.35,14.806 16.308,15.168 16.151,15.459 C15.927,15.878 16.03,17.093 16.304,17.49 C17.168,18.747 18.602,18.049 19.682,18.501 C20.176,18.708 20.506,19.052 20.784,19.461 C18.526,19.603 16.311,20.13 14.256,21.075 C13.2,18.833 12.287,15.898 12.287,15.898 L12.287,15.898 Z M22.13,26.355 C21.725,26.398 21.321,26.45 20.967,26.505 C20.087,26.642 18.952,26.937 17.896,27.331 C17.289,26.366 15.665,24.023 14.843,22.255 C16.494,21.443 18.799,20.763 21.451,20.602 C21.668,20.979 21.91,21.356 22.242,21.696 C23.107,22.582 21.736,23.85 22.13,26.355 L22.13,26.355 Z M14.567,8.186 C15.438,7.996 16.333,7.839 17.269,7.764 C17.999,8.637 18.658,9.564 19.269,10.671 C18.348,11.116 17.12,11.458 16.621,12.172 C16.413,12.469 16.362,12.873 16.355,13.31 C14.722,13.694 13.284,14.202 11.919,14.781 C11.401,13.257 10.946,11.739 10.633,10.385 C12.116,8.97 13.852,8.74 14.567,8.186 L14.567,8.186 Z M17.151,2.868 C15.759,2.826 14.941,3.005 14.118,3.165 C13.871,3.102 13.408,3.169 13.382,3.706 C13.382,3.994 13.474,4.218 13.656,4.349 C13.839,4.48 15.365,5.607 16.486,6.8 C15.949,6.859 15.364,6.958 14.766,7.082 C14.097,5.635 11.945,6.95 10.517,7.007 C10.349,7.014 10.188,7.036 10.023,7.048 C9.867,5.84 9.754,4.588 9.782,3.706 C11.634,2.658 15.215,1.884 17.648,1.846 L18.074,1.835 C18.432,1.832 18.46,1.548 18.124,1.502 C15.102,1.089 12.484,1.7 9.796,2.813 C6.998,3.992 3.438,6.706 1.266,11.827 C0.759,13.255 -1.272,20.059 2.336,25.9 C5.265,30.64 9.036,32.895 13.649,33.54 C18.253,34.181 20.751,33.625 23.663,32.332 C30.472,29.309 35.672,17.963 30.471,9.737 C28.418,5.941 23.039,2.611 17.151,2.868 L17.151,2.868 Z M77.468,12.08 L77.396,12.08 L77.396,9.261 L72.942,9.261 L72.942,27.079 L77.396,27.079 L77.396,17.537 C77.396,16.573 77.988,13.046 82.185,13.046 C82.83,13.046 83.474,13.174 84.15,13.336 L84.324,9.073 C83.81,8.927 83.293,8.817 82.742,8.817 C80.401,8.817 78.434,10.041 77.468,12.08 L77.468,12.08 Z M61.276,14.273 C61.276,12.935 62.688,12.379 63.877,12.379 C65.389,12.379 66.5,13.005 67.353,14.183 L70.186,11.353 C68.719,9.522 66.287,8.817 63.986,8.817 C60.386,8.817 56.821,10.596 56.821,14.57 C56.821,21.364 66.436,18.467 66.436,22.141 C66.436,23.552 64.766,24.182 63.467,24.182 C61.578,24.182 60.393,23.26 59.244,22.003 L56.367,24.879 C58.174,26.837 60.51,27.525 63.207,27.525 C66.844,27.525 70.893,26.04 70.893,21.807 C70.893,14.865 61.276,17.464 61.276,14.273 L61.276,14.273 Z M41.477,16.387 C41.812,13.825 43.446,12.155 46.08,12.155 C48.864,12.155 50.572,13.79 50.611,16.387 L41.477,16.387 L41.477,16.387 Z M46.709,8.817 C41.329,8.817 37.024,12.564 37.024,18.17 C37.024,23.774 41.329,27.525 46.709,27.525 C49.164,27.525 51.475,26.762 53.404,24.882 L50.594,22.071 C49.545,23.174 48.199,23.961 46.268,23.961 C43.779,23.961 41.775,22.362 41.477,19.729 L55.063,19.729 L55.063,18.505 C55.063,12.304 51.687,8.817 46.709,8.817 L46.709,8.817 Z M86.582,27.079 L91.035,27.079 L91.035,9.262 L86.582,9.262 L86.582,27.079 Z M88.771,0.276 C87.078,0.276 85.85,1.62 85.85,3.123 C85.85,4.626 87.078,5.972 88.771,5.972 C90.464,5.972 91.771,4.746 91.771,3.123 C91.771,1.502 90.464,0.276 88.771,0.276 L88.771,0.276 Z" id="Fill-1" sketch:type="MSShapeGroup"></path>
            <path d="M92.963,9.461 L92.562,9.461 L92.562,9.258 L93.596,9.258 L93.596,9.461 L93.195,9.461 L93.195,10.566 L92.963,10.566 L92.963,9.461" id="Fill-2" sketch:type="MSShapeGroup"></path>
            <path d="M93.743,9.258 L94.107,9.258 L94.447,10.187 L94.452,10.187 L94.789,9.258 L95.154,9.258 L95.154,10.566 L94.924,10.566 L94.924,9.515 L94.92,9.515 L94.522,10.566 L94.36,10.566 L93.969,9.515 L93.965,9.515 L93.965,10.566 L93.743,10.566 L93.743,9.258" id="Fill-3" sketch:type="MSShapeGroup"></path>
            <path d="M39.65,34.75 L38.135,34.75 L38.278,33.715 L42.479,33.715 L42.336,34.75 L40.821,34.75 L40.221,39.025 L39.051,39.025 L39.65,34.75" id="Fill-4" sketch:type="MSShapeGroup"></path>
            <path d="M46.154,39.025 L47.325,39.025 L48.067,33.715 L46.897,33.715 L46.62,35.695 L44.347,35.695 L44.624,33.715 L43.454,33.715 L42.711,39.025 L43.882,39.025 L44.204,36.73 L46.478,36.73 L46.154,39.025" id="Fill-5" sketch:type="MSShapeGroup"></path>
            <path d="M52.564,37.945 L49.992,37.945 L50.142,36.865 L52.445,36.865 L52.595,35.785 L50.292,35.785 L50.435,34.796 L52.872,34.796 L53.022,33.715 L49.414,33.715 L48.672,39.025 L52.415,39.025 L52.564,37.945" id="Fill-6" sketch:type="MSShapeGroup"></path>
            <path d="M59.296,36.824 C59.248,36.662 59.175,36.526 59.075,36.419 C58.975,36.311 58.856,36.222 58.719,36.153 C58.581,36.083 58.439,36.023 58.295,35.972 C58.149,35.923 58.006,35.878 57.863,35.838 C57.721,35.798 57.596,35.752 57.488,35.699 C57.381,35.646 57.298,35.582 57.241,35.504 C57.184,35.427 57.162,35.328 57.177,35.208 C57.192,35.107 57.23,35.023 57.29,34.953 C57.35,34.883 57.421,34.827 57.503,34.784 C57.586,34.741 57.675,34.71 57.77,34.69 C57.864,34.671 57.955,34.66 58.04,34.66 C58.185,34.66 58.335,34.689 58.489,34.746 C58.645,34.803 58.763,34.892 58.842,35.012 L59.765,34.135 C59.57,33.935 59.339,33.793 59.071,33.708 C58.804,33.623 58.52,33.58 58.22,33.58 C57.96,33.58 57.702,33.616 57.447,33.688 C57.192,33.761 56.96,33.87 56.749,34.015 C56.54,34.16 56.363,34.341 56.221,34.555 C56.078,34.77 55.986,35.02 55.947,35.305 C55.907,35.6 55.936,35.838 56.033,36.018 C56.131,36.198 56.265,36.343 56.435,36.453 C56.604,36.563 56.792,36.65 56.997,36.716 C57.202,36.78 57.393,36.845 57.567,36.91 C57.742,36.975 57.886,37.054 57.998,37.147 C58.111,37.239 58.154,37.365 58.13,37.525 C58.114,37.621 58.078,37.703 58.021,37.773 C57.964,37.843 57.893,37.901 57.808,37.945 C57.722,37.991 57.63,38.024 57.529,38.047 C57.43,38.069 57.332,38.081 57.237,38.081 C57.042,38.081 56.86,38.037 56.693,37.949 C56.525,37.862 56.392,37.738 56.292,37.578 L55.324,38.493 C55.55,38.728 55.802,38.898 56.082,39.003 C56.362,39.108 56.675,39.161 57.02,39.161 C57.295,39.161 57.561,39.126 57.818,39.055 C58.076,38.986 58.309,38.879 58.516,38.733 C58.724,38.589 58.898,38.406 59.041,38.185 C59.184,37.965 59.274,37.708 59.314,37.413 C59.35,37.183 59.344,36.987 59.296,36.824" id="Fill-7" sketch:type="MSShapeGroup"></path>
            <path d="M63.399,37.93 C63.2,38.031 62.979,38.081 62.739,38.081 C62.529,38.081 62.338,38.038 62.166,37.953 C61.993,37.868 61.851,37.75 61.738,37.596 C61.626,37.444 61.546,37.264 61.498,37.056 C61.45,36.849 61.444,36.621 61.479,36.371 C61.515,36.126 61.586,35.897 61.693,35.688 C61.801,35.477 61.934,35.297 62.091,35.144 C62.248,34.991 62.427,34.873 62.627,34.788 C62.827,34.703 63.037,34.66 63.257,34.66 C63.478,34.66 63.665,34.698 63.819,34.772 C63.975,34.847 64.103,34.956 64.202,35.095 L65.207,34.36 C65.117,34.215 65.006,34.093 64.874,33.992 C64.741,33.892 64.6,33.812 64.45,33.753 C64.3,33.692 64.146,33.649 63.988,33.621 C63.831,33.593 63.678,33.58 63.527,33.58 C63.112,33.58 62.72,33.645 62.35,33.775 C61.979,33.905 61.65,34.092 61.363,34.334 C61.075,34.576 60.836,34.87 60.644,35.216 C60.451,35.56 60.324,35.945 60.265,36.371 C60.204,36.796 60.222,37.18 60.316,37.525 C60.412,37.871 60.569,38.165 60.789,38.407 C61.01,38.649 61.286,38.836 61.618,38.966 C61.951,39.095 62.325,39.161 62.739,39.161 C63.104,39.161 63.47,39.086 63.835,38.935 C64.2,38.786 64.518,38.552 64.787,38.238 L63.917,37.51 C63.772,37.69 63.6,37.831 63.399,37.93" id="Fill-8" sketch:type="MSShapeGroup"></path>
            <path d="M67.439,33.715 L66.27,33.715 L65.527,39.025 L66.697,39.025 L67.439,33.715" id="Fill-9" sketch:type="MSShapeGroup"></path>
            <path d="M71.922,37.945 L69.35,37.945 L69.499,36.865 L71.802,36.865 L71.952,35.785 L69.649,35.785 L69.792,34.796 L72.23,34.796 L72.38,33.715 L68.771,33.715 L68.029,39.025 L71.772,39.025 L71.922,37.945" id="Fill-10" sketch:type="MSShapeGroup"></path>
            <path d="M77.965,39.025 L78.708,33.715 L77.537,33.715 L77.02,37.405 L77.005,37.405 L75.265,33.715 L73.675,33.715 L72.932,39.025 L74.102,39.025 L74.627,35.245 L74.642,35.245 L76.435,39.025 L77.965,39.025" id="Fill-11" sketch:type="MSShapeGroup"></path>
            <path d="M80.778,35.688 C80.886,35.477 81.019,35.297 81.176,35.144 C81.333,34.991 81.513,34.873 81.712,34.788 C81.912,34.703 82.122,34.66 82.342,34.66 C82.563,34.66 82.75,34.698 82.905,34.772 C83.06,34.847 83.187,34.956 83.287,35.095 L84.293,34.36 C84.202,34.215 84.092,34.093 83.959,33.992 C83.826,33.892 83.685,33.812 83.535,33.753 C83.385,33.692 83.231,33.649 83.073,33.621 C82.916,33.593 82.763,33.58 82.612,33.58 C82.197,33.58 81.805,33.645 81.435,33.775 C81.064,33.905 80.736,34.092 80.448,34.334 C80.16,34.576 79.921,34.87 79.729,35.216 C79.536,35.56 79.409,35.945 79.35,36.371 C79.289,36.796 79.307,37.18 79.402,37.525 C79.497,37.871 79.654,38.165 79.875,38.407 C80.095,38.649 80.371,38.836 80.703,38.966 C81.036,39.095 81.41,39.161 81.825,39.161 C82.189,39.161 82.555,39.086 82.92,38.935 C83.285,38.786 83.603,38.552 83.873,38.238 L83.003,37.51 C82.857,37.69 82.685,37.831 82.484,37.93 C82.285,38.031 82.064,38.081 81.825,38.081 C81.615,38.081 81.424,38.038 81.251,37.953 C81.078,37.868 80.936,37.75 80.823,37.596 C80.711,37.444 80.631,37.264 80.583,37.056 C80.536,36.849 80.529,36.621 80.564,36.371 C80.6,36.126 80.671,35.897 80.778,35.688" id="Fill-12" sketch:type="MSShapeGroup"></path>
            <path d="M88.873,34.796 L89.022,33.715 L85.415,33.715 L84.672,39.025 L88.415,39.025 L88.565,37.945 L85.992,37.945 L86.143,36.865 L88.445,36.865 L88.595,35.785 L86.292,35.785 L86.435,34.796 L88.873,34.796" id="Fill-13" sketch:type="MSShapeGroup"></path>
            <path d="M96.231,36.37 C96.196,36.62 96.125,36.849 96.018,37.056 C95.91,37.264 95.773,37.444 95.608,37.596 C95.443,37.75 95.254,37.868 95.038,37.953 C94.823,38.038 94.591,38.081 94.341,38.081 C94.091,38.081 93.871,38.038 93.681,37.953 C93.491,37.868 93.334,37.75 93.212,37.596 C93.089,37.444 93.003,37.264 92.953,37.056 C92.903,36.849 92.895,36.62 92.931,36.37 C92.966,36.126 93.037,35.897 93.145,35.688 C93.252,35.477 93.389,35.297 93.554,35.143 C93.719,34.991 93.908,34.873 94.123,34.788 C94.338,34.703 94.571,34.66 94.821,34.66 C95.071,34.66 95.291,34.703 95.481,34.788 C95.671,34.873 95.828,34.991 95.954,35.143 C96.078,35.297 96.165,35.477 96.213,35.688 C96.26,35.897 96.267,36.126 96.231,36.37 L96.231,36.37 Z M97.394,35.216 C97.299,34.87 97.142,34.576 96.921,34.334 C96.701,34.092 96.426,33.905 96.096,33.775 C95.767,33.645 95.394,33.58 94.978,33.58 C94.563,33.58 94.171,33.645 93.801,33.775 C93.431,33.905 93.102,34.092 92.814,34.334 C92.527,34.576 92.287,34.87 92.095,35.216 C91.901,35.56 91.775,35.945 91.716,36.37 C91.655,36.796 91.673,37.18 91.769,37.525 C91.863,37.871 92.02,38.165 92.24,38.407 C92.461,38.649 92.737,38.836 93.069,38.966 C93.402,39.095 93.775,39.161 94.19,39.161 C94.605,39.161 94.997,39.095 95.365,38.966 C95.732,38.836 96.061,38.649 96.352,38.407 C96.642,38.165 96.881,37.871 97.071,37.525 C97.262,37.18 97.387,36.796 97.446,36.37 C97.506,35.945 97.488,35.56 97.394,35.216 L97.394,35.216 Z" id="Fill-14" sketch:type="MSShapeGroup"></path>
            <path d="M98.141,39.025 L99.311,39.025 L99.596,36.956 L101.809,36.956 L101.966,35.876 L99.754,35.876 L99.903,34.796 L102.297,34.796 L102.446,33.715 L98.884,33.715 L98.141,39.025" id="Fill-15" sketch:type="MSShapeGroup"></path>
            <path d="M109.839,37.211 L109.824,37.211 L109.209,33.715 L108.121,33.715 L106.531,37.121 L106.517,37.121 L106.148,33.715 L104.873,33.715 L105.706,39.025 L106.711,39.025 L108.392,35.35 L108.406,35.35 L109.066,39.025 L110.109,39.025 L112.404,33.715 L111.219,33.715 L109.839,37.211" id="Fill-16" sketch:type="MSShapeGroup"></path>
            <path d="M116.568,35.695 L114.296,35.695 L114.573,33.715 L113.403,33.715 L112.66,39.025 L113.831,39.025 L114.153,36.73 L116.426,36.73 L116.103,39.025 L117.273,39.025 L118.017,33.715 L116.846,33.715 L116.568,35.695" id="Fill-17" sketch:type="MSShapeGroup"></path>
            <path d="M118.621,39.025 L122.363,39.025 L122.514,37.945 L119.94,37.945 L120.091,36.865 L122.394,36.865 L122.544,35.785 L120.241,35.785 L120.384,34.796 L122.821,34.796 L122.972,33.715 L119.363,33.715 L118.621,39.025" id="Fill-18" sketch:type="MSShapeGroup"></path>
            <path d="M126.741,35.658 C126.666,35.738 126.579,35.797 126.478,35.834 C126.379,35.872 126.27,35.894 126.152,35.901 C126.035,35.909 125.924,35.913 125.818,35.913 L125.129,35.913 L125.294,34.705 L126.059,34.705 C126.164,34.705 126.27,34.713 126.378,34.727 C126.485,34.743 126.579,34.771 126.658,34.814 C126.738,34.856 126.801,34.918 126.847,34.998 C126.892,35.078 126.903,35.185 126.884,35.32 C126.864,35.466 126.816,35.578 126.741,35.658 L126.741,35.658 Z M128.099,35.328 C128.144,35.017 128.127,34.758 128.047,34.551 C127.967,34.343 127.844,34.178 127.679,34.056 C127.514,33.933 127.313,33.846 127.079,33.794 C126.844,33.741 126.592,33.715 126.321,33.715 L124.266,33.715 L123.523,39.025 L124.693,39.025 L124.986,36.903 L125.563,36.903 L126.381,39.025 L127.784,39.025 L126.749,36.783 C127.134,36.713 127.441,36.547 127.672,36.284 C127.901,36.021 128.044,35.703 128.099,35.328 L128.099,35.328 Z" id="Fill-19" sketch:type="MSShapeGroup"></path>
            <path d="M128.65,39.025 L132.394,39.025 L132.544,37.945 L129.971,37.945 L130.121,36.865 L132.424,36.865 L132.574,35.785 L130.271,35.785 L130.414,34.796 L132.852,34.796 L133.002,33.715 L129.394,33.715 L128.65,39.025" id="Fill-20" sketch:type="MSShapeGroup"></path>
            <path d="M134.7,33.925 L134.493,35.094 L134.253,35.094 L134.459,33.925 L134.049,33.925 L134.086,33.715 L135.142,33.715 L135.105,33.925 L134.7,33.925" id="Fill-21" sketch:type="MSShapeGroup"></path>
            <path d="M136.296,35.094 L136.495,33.981 L136.489,33.981 L135.868,35.094 L135.7,35.094 L135.476,33.981 L135.473,33.981 L135.275,35.094 L135.047,35.094 L135.291,33.715 L135.665,33.715 L135.852,34.703 L135.856,34.703 L136.395,33.715 L136.775,33.715 L136.534,35.094 L136.296,35.094" id="Fill-22" sketch:type="MSShapeGroup"></path>
            <path d="M107.272,9.983 L107.272,20.399 C107.272,22.511 108.328,25.248 111.545,25.248 C114.761,25.248 115.816,22.511 115.816,20.399 L115.816,9.983 L118.121,9.983 L118.121,20.76 C118.121,24.696 115.265,27.408 111.545,27.408 C107.824,27.408 104.968,24.696 104.968,20.76 L104.968,9.983 L107.272,9.983" id="Fill-23" sketch:type="MSShapeGroup"></path>
            <path d="M122.061,9.983 L124.364,9.983 L124.364,17.327 L124.557,17.327 L132.069,9.983 L135.285,9.983 L127.076,17.831 L135.837,26.976 L132.478,26.976 L124.557,18.48 L124.364,18.48 L124.364,26.976 L122.061,26.976 L122.061,9.983" id="Fill-24" sketch:type="MSShapeGroup"></path>
        </g>
    </g>
</svg>