<?xml version="1.0" encoding="UTF-8"?>
<svg width="1247px" height="150px" viewBox="0 0 1247 150" version="1.1" xmlns="http://www.w3.org/2000/svg" xmlns:xlink="http://www.w3.org/1999/xlink">
    <!-- Generator: Sketch 61 (89581) - https://sketch.com -->
    <title>Group 8</title>
    <desc>Created with Sketch.</desc>
    <defs>
        <linearGradient x1="-55.4507111%" y1="50%" x2="74.4226365%" y2="50%" id="linearGradient-1">
            <stop stop-color="#FF00AC" stop-opacity="0" offset="0%"></stop>
            <stop stop-color="#FF0074" offset="100%"></stop>
        </linearGradient>
    </defs>
    <g id="Page-1" stroke="none" stroke-width="1" fill="none" fill-rule="evenodd">
        <g id="Artboard" transform="translate(-731.000000, -575.000000)" fill-rule="nonzero">
            <g id="Group-8" transform="translate(731.000000, 575.000000)">
                <g id="Group-6-Copy" transform="translate(411.250000, 0.000000)" fill="#4AAFE2">
                    <path d="M143.625,105.1875 C140.749986,111.812533 136.968773,117.874973 132.28125,123.375 C127.593727,128.875028 122.28128,133.59373 116.34375,137.53125 C110.40622,141.46877 103.937535,144.531239 96.9375,146.71875 C89.937465,148.906261 82.6250381,150 75,150 C64.6249481,150 54.8750456,148.03127 45.75,144.09375 C36.6249544,140.15623 28.6875338,134.812534 21.9375,128.0625 C15.1874663,121.312466 9.84376969,113.375046 5.90625,104.25 C1.96873031,95.1249544 0,85.3750519 0,75 C0,64.6249481 1.96873031,54.8750456 5.90625,45.75 C9.84376969,36.6249544 15.1874663,28.6875337 21.9375,21.9375 C28.6875338,15.1874662 36.6249544,9.84376969 45.75,5.90625 C54.8750456,1.96873031 64.6249481,0 75,0 C82.6250381,0 89.937465,1.09373906 96.9375,3.28125 C103.937535,5.46876094 110.40622,8.53123031 116.34375,12.46875 C122.28128,16.4062697 127.593727,21.1249725 132.28125,26.625 C136.968773,32.1250275 140.749986,38.1874669 143.625,44.8125 L108.1875,44.8125 C104.062479,40.3124775 99.1562784,36.7187634 93.46875,34.03125 C87.7812216,31.3437366 81.6250331,30 75,30 C68.7499687,30 62.9062772,31.1874881 57.46875,33.5625 C52.0312228,35.9375119 47.31252,39.1562297 43.3125,43.21875 C39.31248,47.2812703 36.1250119,52.0624725 33.75,57.5625 C31.3749881,63.0625275 30.1875,68.8749694 30.1875,75 C30.1875,81.2500312 31.3749881,87.0937228 33.75,92.53125 C36.1250119,97.9687772 39.31248,102.68748 43.3125,106.6875 C47.31252,110.68752 52.0312228,113.874988 57.46875,116.25 C62.9062772,118.625012 68.7499687,119.8125 75,119.8125 C81.6250331,119.8125 87.7812216,118.500013 93.46875,115.875 C99.1562784,113.249987 104.062479,109.687523 108.1875,105.1875 L143.625,105.1875 Z" id="Path"></path>
                    <path d="M222.6875,0 C233.062552,0 242.812454,1.96873031 251.9375,5.90625 C261.062546,9.84376969 268.999966,15.1874662 275.75,21.9375 C282.500034,28.6875337 287.84373,36.6249544 291.78125,45.75 C295.71877,54.8750456 297.6875,64.6249481 297.6875,75 C297.6875,85.3750519 295.71877,95.1249544 291.78125,104.25 C287.84373,113.375046 282.500034,121.312466 275.75,128.0625 C268.999966,134.812534 261.062546,140.15623 251.9375,144.09375 C242.812454,148.03127 233.062552,150 222.6875,150 C212.312448,150 202.562546,148.03127 193.4375,144.09375 C184.312454,140.15623 176.375034,134.812534 169.625,128.0625 C162.874966,121.312466 157.53127,113.375046 153.59375,104.25 C149.65623,95.1249544 147.6875,85.3750519 147.6875,75 C147.6875,64.6249481 149.65623,54.8750456 153.59375,45.75 C157.53127,36.6249544 162.874966,28.6875337 169.625,21.9375 C176.375034,15.1874662 184.312454,9.84376969 193.4375,5.90625 C202.562546,1.96873031 212.312448,0 222.6875,0 Z M222.6875,30 C216.437469,30 210.593777,31.1874881 205.15625,33.5625 C199.718723,35.9375119 194.96877,39.1562297 190.90625,43.21875 C186.84373,47.2812703 183.625012,52.0624725 181.25,57.5625 C178.874988,63.0625275 177.6875,68.8749694 177.6875,75 C177.6875,81.2500312 178.874988,87.0937228 181.25,92.53125 C183.625012,97.9687772 186.84373,102.71873 190.90625,106.78125 C194.96877,110.84377 199.718723,114.062488 205.15625,116.4375 C210.593777,118.812512 216.437469,120 222.6875,120 C228.812531,120 234.624973,118.812512 240.125,116.4375 C245.625027,114.062488 250.40623,110.84377 254.46875,106.78125 C258.53127,102.71873 261.749988,97.9687772 264.125,92.53125 C266.500012,87.0937228 267.6875,81.2500312 267.6875,75 C267.6875,68.8749694 266.500012,63.0625275 264.125,57.5625 C261.749988,52.0624725 258.53127,47.2812703 254.46875,43.21875 C250.40623,39.1562297 245.625027,35.9375119 240.125,33.5625 C234.624973,31.1874881 228.812531,30 222.6875,30 Z" id="Combined-Shape"></path>
                    <polygon id="Path" points="427.0625 104.4375 427.0625 0 457.0625 0 457.0625 150 427.0625 150 337.0625 45.9375 337.0625 150 307.0625 150 307.0625 0 337.0625 0"></polygon>
                </g>
                <g id="Group-7" transform="translate(838.437500, 0.000000)">
                    <polygon id="Path" fill="url(#linearGradient-1)" points="119.375 90 30 90 30 150 0 150 0 0 150 0 133.75 30 30 30 30 60 135 60"></polygon>
                    <path d="M176.125,0 L250.1875,150 L216.625,150 L201.8125,120 L148.375,120 L133.5625,150 L100.1875,150 L174.25,0 L176.125,0 Z M175.1875,66 L163.1875,90 L187,90 L175.1875,66 Z" id="Combined-Shape" fill="#FF0074"></path>
                    <path d="M362.6875,0 C368.81253,0 374.624972,1.18748813 380.125,3.5625 C385.625027,5.93751188 390.40623,9.15622969 394.46875,13.21875 C398.53127,17.2812703 401.749988,22.0624725 404.125,27.5625 C406.500012,33.0625275 407.6875,38.8749694 407.6875,45 C407.6875,50.8750294 406.65626,56.3437247 404.59375,61.40625 C402.53124,66.4687753 399.687518,70.99998 396.0625,75 C399.687518,79.00002 402.53124,83.5624744 404.59375,88.6875 C406.65626,93.8125256 407.6875,99.2499713 407.6875,105 C407.6875,111.250031 406.500012,117.093723 404.125,122.53125 C401.749988,127.968777 398.53127,132.71873 394.46875,136.78125 C390.40623,140.84377 385.625027,144.062488 380.125,146.4375 C374.624972,148.812512 368.81253,150 362.6875,150 L257.6875,150 L257.6875,0 L362.6875,0 Z M363.25,90 L287.6875,90 L287.6875,120 L362.6875,120 C366.81252,120 370.343735,118.531265 373.28125,115.59375 C376.218765,112.656235 377.6875,109.125021 377.6875,105 C377.6875,100.99998 376.281264,97.5625144 373.46875,94.6875 C370.656236,91.8124856 367.25002,90.2500013 363.25,90 Z M362.6875,30 L287.6875,30 L287.6875,60 L363.25,60 C367.25002,59.8749994 370.656236,58.3437647 373.46875,55.40625 C376.281264,52.4687353 377.6875,49.00002 377.6875,45 C377.6875,40.8749794 376.218765,37.3437647 373.28125,34.40625 C370.343735,31.4687353 366.81252,30 362.6875,30 Z" id="Combined-Shape" fill="#FF0074"></path>
                </g>
                <g id="Group-7" fill="#002E64">
                    <polygon id="Path" points="119.6875 90 30.3125 90 30.3125 150 0.3125 150 0.3125 0 150.3125 0 134.0625 30 30.3125 30 30.3125 60 135.3125 60"></polygon>
                    <path d="M176.125,0 L250.1875,150 L216.625,150 L201.8125,120 L148.375,120 L133.5625,150 L100.1875,150 L174.25,0 L176.125,0 Z M175.1875,66 L163.1875,90 L187,90 L175.1875,66 Z" id="Combined-Shape"></path>
                    <path d="M362.0625,0 C368.18753,0 373.999972,1.18748813 379.5,3.5625 C385.000027,5.93751188 389.78123,9.15622969 393.84375,13.21875 C397.90627,17.2812703 401.124988,22.0624725 403.5,27.5625 C405.875012,33.0625275 407.0625,38.8749694 407.0625,45 C407.0625,50.8750294 406.03126,56.3437247 403.96875,61.40625 C401.90624,66.4687753 399.062518,70.99998 395.4375,75 C399.062518,79.00002 401.90624,83.5624744 403.96875,88.6875 C406.03126,93.8125256 407.0625,99.2499713 407.0625,105 C407.0625,111.250031 405.875012,117.093723 403.5,122.53125 C401.124988,127.968777 397.90627,132.71873 393.84375,136.78125 C389.78123,140.84377 385.000027,144.062488 379.5,146.4375 C373.999972,148.812512 368.18753,150 362.0625,150 L257.0625,150 L257.0625,0 L362.0625,0 Z M362.625,90 L287.0625,90 L287.0625,120 L362.0625,120 C366.18752,120 369.718735,118.531265 372.65625,115.59375 C375.593765,112.656235 377.0625,109.125021 377.0625,105 C377.0625,100.99998 375.656264,97.5625144 372.84375,94.6875 C370.031236,91.8124856 366.62502,90.2500013 362.625,90 Z M362.0625,30 L287.0625,30 L287.0625,60 L362.625,60 C366.62502,59.8749994 370.031236,58.3437647 372.84375,55.40625 C375.656264,52.4687353 377.0625,49.00002 377.0625,45 C377.0625,40.8749794 375.593765,37.3437647 372.65625,34.40625 C369.718735,31.4687353 366.18752,30 362.0625,30 Z" id="Combined-Shape"></path>
                </g>
            </g>
        </g>
    </g>
</svg>