<svg xmlns="http://www.w3.org/2000/svg" viewBox="0 0 251.19 67.85"><defs><style>.cls-1{fill:#4c53a3;}.cls-2{fill:#231f20;}</style></defs><title>Asset 1</title><g id="Layer_2" data-name="Layer 2"><g id="Layer_1-2" data-name="Layer 1"><path class="cls-1" d="M45,34.57a.37.37,0,0,1-.15-.31A.39.39,0,0,1,45,34C47.46,31.87,61.42,20,64,17.69a.39.39,0,0,0,.13-.35.4.4,0,0,0-.21-.31l-14-8A.43.43,0,0,0,49.67,9a.48.48,0,0,0-.28.1l-8.39,7a.42.42,0,0,1-.28.1.39.39,0,0,1-.18,0,.41.41,0,0,1-.25-.37V.21A.19.19,0,0,0,40.18,0a.19.19,0,0,0-.1,0A.2.2,0,0,0,40,0l-16,9.14a.43.43,0,0,0-.21.36v6.29a.4.4,0,0,1-.25.38.37.37,0,0,1-.18,0,.48.48,0,0,1-.28-.1L14.72,9.2a.42.42,0,0,0-.28-.1.54.54,0,0,0-.22.05l-14,8a.45.45,0,0,0-.21.31.45.45,0,0,0,.13.35C2.68,20.14,16.55,31.88,19,34a.41.41,0,0,1,.14.31.4.4,0,0,1-.14.31C16.59,36.6,3.17,47.9.59,50.15a.39.39,0,0,0-.13.35.38.38,0,0,0,.21.31l14.14,8.07a.43.43,0,0,0,.22.06.48.48,0,0,0,.28-.1L23,52.39a.42.42,0,0,1,.28-.1.37.37,0,0,1,.18,0,.39.39,0,0,1,.25.37V67.44a.44.44,0,0,0,.22.36.54.54,0,0,0,.21,0,.43.43,0,0,0,.22-.06l15.72-9a.41.41,0,0,0,.21-.36V52.7a.4.4,0,0,1,.25-.37.39.39,0,0,1,.18,0,.42.42,0,0,1,.28.1L48.94,59a.44.44,0,0,0,.29.11.39.39,0,0,0,.21-.06l14.1-8a.43.43,0,0,0,.21-.31.43.43,0,0,0-.14-.35C61.05,48.1,47.43,36.62,45,34.57Z"/><path class="cls-2" d="M136.93,62.51c5.34,0,9-2.08,11.45-5.17a.2.2,0,0,1,.21-.08.21.21,0,0,1,.16.17l.79,3.93a.21.21,0,0,0,.21.17H161a.18.18,0,0,0,.15-.07.23.23,0,0,0,.06-.16L160.53,51h0V24.51a.22.22,0,0,0-.21-.21h-12.5a.21.21,0,0,0-.21.21v24a.28.28,0,0,1,0,.12,6.72,6.72,0,0,1-5.37,2.82c-3.51,0-3.94-2.52-3.94-4.28V24.51a.21.21,0,0,0-.21-.21h-12.5a.21.21,0,0,0-.21.21V49.24C125.34,55.91,128.15,62.51,136.93,62.51Z"/><rect class="cls-2" x="108.44" y="5.34" width="12.92" height="56.19" rx="0.21"/><path class="cls-2" d="M164.59,61.53h12.5a.21.21,0,0,0,.21-.21V39.13a.24.24,0,0,1,0-.14,7.57,7.57,0,0,1,4-2,.2.2,0,0,0,.16-.17,18.09,18.09,0,0,1,5.39-10.51.18.18,0,0,0,.07-.15V23.57a.21.21,0,0,0-.18-.21,6.33,6.33,0,0,0-.87,0,11.71,11.71,0,0,0-9.48,4.75.21.21,0,0,1-.21.07A.19.19,0,0,1,176,28l-.66-3.5a.2.2,0,0,0-.2-.18H163.9a.24.24,0,0,0-.16.07.18.18,0,0,0-.05.16l.69,10.3V61.32A.21.21,0,0,0,164.59,61.53Z"/><path class="cls-2" d="M228.52,47.47H251a.22.22,0,0,0,.21-.21V41.85c0-10.89-5.62-18.54-17.63-18.54S215.37,31,215.37,41.85V44c0,10.88,5.9,18.54,18.61,18.54,10.82,0,17.21-5.2,17.21-12.64v-.07a.21.21,0,0,0-.21-.21H239.24a.21.21,0,0,0-.21.19c-.15,1.67-2.27,3-5,3-3.17,0-5.26-1.08-5.73-5.11a.18.18,0,0,1,.05-.16A.18.18,0,0,1,228.52,47.47Zm-.21-9.36c.4-3.76,2-5.11,5-5.11s4.57,1.35,5,5.11a.2.2,0,0,1-.05.16.24.24,0,0,1-.16.07h-9.51a.24.24,0,0,1-.16-.07A.33.33,0,0,1,228.31,38.11Z"/><path class="cls-2" d="M183.07,44c0,10.88,5.45,18.54,18.17,18.54,7.29,0,12.14-1.92,15.13-5.5a.2.2,0,0,0,0-.24,23.21,23.21,0,0,1-2.85-7,.2.2,0,0,0-.2-.16h-6.4a.21.21,0,0,0-.21.19c-.14,1.67-2.13,3-5.15,3S196.5,51.73,196,47.7a.23.23,0,0,1,.06-.16.18.18,0,0,1,.15-.07h16.69a.24.24,0,0,0,.16-.07.22.22,0,0,0,0-.17,28.71,28.71,0,0,1-.2-3.27V41.85a25.13,25.13,0,0,1,2.76-11.59.22.22,0,0,0,0-.21c-2.8-4.43-7.9-6.74-15-6.74-10.91,0-17.61,7.65-17.61,18.54ZM201,33c3,0,4.57,1.35,5,5.11a.2.2,0,0,1-.05.16.24.24,0,0,1-.16.07h-9.51a.24.24,0,0,1-.16-.07.2.2,0,0,1-.05-.16C196.4,34.35,198,33,201,33Z"/><path class="cls-2" d="M73.79,61.53H86.71a.21.21,0,0,0,.21-.21V39.54a.21.21,0,0,1,.21-.21h14.2a.21.21,0,0,0,.21-.21V28a.21.21,0,0,0-.21-.21H87.13a.21.21,0,0,1-.21-.22V18.47a.21.21,0,0,1,.21-.21h17.71a.21.21,0,0,0,.21-.21V7a.21.21,0,0,0-.21-.21h-31a.22.22,0,0,0-.22.21V61.32A.21.21,0,0,0,73.79,61.53Z"/></g></g></svg>