<svg fill="none" height="59" viewBox="0 0 160 59" width="160" xmlns="http://www.w3.org/2000/svg" xmlns:xlink="http://www.w3.org/1999/xlink"><clipPath id="a"><path d="m0 0h160v59h-160z"/></clipPath><g clip-path="url(#a)"><g fill="#131e21"><path d="m78.1178 50.4866c-1.3323 0-2.5953-.173-3.7892-.519-1.1765-.3634-2.1368-.8479-2.8808-1.4534-.398-.2942-.5969-.7094-.5969-1.2458 0-.3633.1038-.6748.3114-.9343.2249-.2769.4845-.4153.7786-.4153.3114 0 .6661.1211 1.0641.3634.744.5363 1.5226.9256 2.3358 1.1679.8132.2422 1.7129.3633 2.6991.3633 1.2631 0 2.232-.2163 2.9068-.6488.6748-.4499 1.0122-1.0987 1.0122-1.9465 0-.6575-.3201-1.1593-.9603-1.5053-.6229-.3634-1.6696-.7094-3.1403-1.0381-1.5226-.3288-2.7597-.7094-3.7114-1.142-.9516-.4325-1.6696-.9862-2.1541-1.661s-.7267-1.5312-.7267-2.5694c0-1.0727.3028-2.033.9084-2.8808s1.4447-1.5053 2.5175-1.9725c1.09-.4844 2.3098-.7267 3.6594-.7267 2.4742 0 4.4899.6575 6.0471 1.9725.2249.1903.3807.3806.4672.571.1038.173.1557.3979.1557.6748 0 .3633-.1125.6834-.3374.9602-.2076.2596-.4585.3893-.7527.3893-.173 0-.3373-.0259-.4931-.0778-.1384-.0519-.3287-.1471-.5709-.2855-.7094-.5191-1.4015-.8997-2.0763-1.142-.6575-.2595-1.4707-.3893-2.4396-.3893-1.1766 0-2.1109.2423-2.803.7267-.6748.4672-1.0122 1.1247-1.0122 1.9725 0 .7094.3028 1.2544.9084 1.6351.6056.3806 1.6351.7353 3.0885 1.064 1.5399.3461 2.7856.7354 3.7372 1.1679.969.4153 1.7043.9517 2.2061 1.6091.519.6575.7786 1.4794.7786 2.4656 0 1.0728-.3028 2.0244-.9084 2.8549-.5883.8132-1.4274 1.4534-2.5175 1.9205-1.0727.4499-2.3098.6748-3.7113.6748z"/><path d="m90.308 50.4087c-.4672 0-.8565-.1298-1.1679-.3893-.2942-.2769-.4412-.6662-.4412-1.1679v-10.018c0-.5018.147-.8824.4412-1.142.3114-.2595.7007-.3893 1.1679-.3893.4671 0 .8564.1298 1.1679.3893.3114.2596.4671.6402.4671 1.142v10.018c0 .5017-.1557.891-.4671 1.1679-.3115.2595-.7008.3893-1.1679.3893zm0-15.4163c-.5883 0-1.0555-.1558-1.4015-.4672-.3461-.3287-.5191-.7526-.5191-1.2717s.173-.9343.5191-1.2458c.346-.3114.8132-.4671 1.4015-.4671.5709 0 1.0295.1557 1.3755.4671.3633.3115.545.7267.545 1.2458s-.173.943-.5191 1.2717c-.346.3114-.8132.4672-1.4014.4672z"/><path d="m106.682 37.3023c.485 0 .874.1384 1.168.4153.294.2768.441.6488.441 1.116v10.2515c0 1.9898-.553 3.4951-1.661 4.5159-1.107 1.0209-2.742 1.5313-4.905 1.5313-1.8859 0-3.4604-.3547-4.7235-1.0641-.6402-.3807-.9603-.8392-.9603-1.3755 0-.3807.0865-.6835.2596-.9084.1903-.2249.4325-.3374.7267-.3374.1557 0 .346.0346.5709.1038.225.0865.4585.1817.7008.2855.6228.2595 1.1765.4585 1.661.5969.5018.1384 1.0728.2076 1.7128.2076 2.267 0 3.4-1.1073 3.4-3.322v-1.661c-.381.7094-.934 1.2631-1.661 1.661-.727.3807-1.557.571-2.492.571-1.1069 0-2.0931-.2595-2.9582-.7786-.8478-.5364-1.514-1.2804-1.9984-2.232-.4845-.9516-.7267-2.0503-.7267-3.2961 0-1.2457.2336-2.3444.7007-3.296.4845-.969 1.1593-1.713 2.0244-2.232.8651-.5364 1.8513-.8046 2.9582-.8046.935 0 1.765.199 2.492.5969.727.3807 1.28.9257 1.661 1.6351v-.6748c0-.4498.147-.8132.441-1.09.294-.2769.684-.4153 1.168-.4153zm-4.905 10.0699c1.038 0 1.843-.3374 2.414-1.0122.588-.6748.882-1.6004.882-2.777 0-1.1938-.294-2.1281-.882-2.8029-.571-.6748-1.376-1.0122-2.414-1.0122-1.021 0-1.8255.3374-2.4137 1.0122-.5883.6748-.8825 1.6091-.8825 2.8029 0 1.1766.2942 2.1022.8825 2.777.5882.6748 1.3927 1.0122 2.4137 1.0122z"/><path d="m119.671 37.2504c1.523 0 2.656.4326 3.4 1.2977s1.116 2.1714 1.116 3.9189v6.3846c0 .4844-.147.8651-.441 1.1419-.277.2768-.667.4153-1.168.4153-.502 0-.9-.1385-1.194-.4153s-.441-.6575-.441-1.1419v-6.2029c0-.9862-.191-1.7043-.571-2.1541-.364-.4499-.943-.6748-1.739-.6748-.935 0-1.687.2941-2.258.8824-.554.5883-.831 1.3755-.831 2.3618v5.7876c0 .4844-.147.8651-.441 1.1419s-.692.4153-1.194.4153c-.501 0-.899-.1385-1.194-.4153-.276-.2768-.415-.6575-.415-1.1419v-10.044c0-.4498.147-.8132.441-1.09.295-.2769.692-.4153 1.194-.4153.45 0 .813.1384 1.09.4153.294.2595.441.6056.441 1.0381v.7007c.433-.7093 1.013-1.2544 1.739-1.635.727-.3807 1.549-.571 2.466-.571z"/><path d="m133.633 37.2504c1.765 0 3.071.4412 3.919 1.3236.865.8651 1.297 2.1888 1.297 3.9709v6.3326c0 .4672-.138.8392-.415 1.116-.277.2595-.657.3893-1.142.3893-.45 0-.822-.1384-1.116-.4152-.277-.2769-.415-.6402-.415-1.0901v-.571c-.294.6748-.761 1.2025-1.401 1.5832-.623.3806-1.35.571-2.181.571-.847 0-1.617-.1731-2.309-.5191-.693-.346-1.238-.8219-1.635-1.4274-.398-.6056-.597-1.2804-.597-2.0244 0-.9343.233-1.6697.7-2.206.485-.5364 1.263-.9257 2.336-1.1679 1.073-.2423 2.552-.3634 4.438-.3634h.649v-.5969c0-.8478-.182-1.462-.545-1.8427-.363-.3979-.952-.5969-1.765-.5969-.502 0-1.012.0778-1.531.2336-.519.1384-1.133.346-1.843.6228-.45.225-.778.3374-.986.3374-.311 0-.571-.1124-.779-.3374-.19-.2249-.285-.519-.285-.8824 0-.2941.069-.545.208-.7526.155-.225.406-.4326.752-.6229.606-.3287 1.324-.5883 2.154-.7786.848-.1903 1.679-.2855 2.492-.2855zm-.805 10.8745c.865 0 1.566-.2855 2.102-.8565.554-.5883.831-1.3409.831-2.2579v-.5451h-.467c-1.159 0-2.059.0519-2.699.1558-.64.1038-1.099.2855-1.376.545s-.415.6142-.415 1.0641c0 .5536.19 1.0122.571 1.3755.398.346.882.5191 1.453.5191z"/><path d="m144.404 50.4088c-.467 0-.856-.1298-1.167-.3893-.295-.2769-.442-.6662-.442-1.1679v-15.4942c0-.5018.147-.8824.442-1.1419.311-.2596.7-.3893 1.167-.3893.468 0 .857.1297 1.168.3893.312.2595.468.6401.468 1.1419v15.4942c0 .5017-.156.891-.468 1.1679-.311.2595-.7.3893-1.168.3893z"/><path d="m154.628 50.4607c-1.886 0-3.409-.372-4.568-1.116-.554-.3288-.831-.7959-.831-1.4015 0-.3461.096-.6229.286-.8305.19-.2249.424-.3374.701-.3374.294 0 .7.1384 1.219.4152.554.2596 1.056.4586 1.506.597.467.1384 1.055.2076 1.765.2076.726 0 1.289-.1211 1.686-.3633.416-.2423.623-.5797.623-1.0122 0-.2942-.086-.5277-.259-.7008-.156-.173-.45-.3287-.883-.4671-.415-.1558-1.055-.3288-1.92-.5191-1.54-.3114-2.647-.7526-3.322-1.3236-.658-.571-.986-1.3582-.986-2.3618 0-.7613.225-1.4447.674-2.0503.45-.6229 1.065-1.0987 1.843-1.4274.796-.3461 1.696-.5191 2.699-.5191.727 0 1.428.0952 2.102.2855.675.173 1.281.4326 1.817.7786.554.346.831.8046.831 1.3755 0 .3461-.095.6402-.286.8824-.19.225-.424.3374-.701.3374-.19 0-.38-.0346-.571-.1038-.173-.0865-.397-.2076-.674-.3633-.502-.2596-.935-.4499-1.298-.571-.363-.1384-.813-.2076-1.35-.2076-.64 0-1.15.1297-1.531.3893-.363.2595-.545.6142-.545 1.0641 0 .4325.191.7613.571.9862.381.2249 1.116.4498 2.206.6748 1.159.2422 2.068.519 2.725.8305.658.3114 1.125.7007 1.402 1.1679.294.4671.441 1.0641.441 1.7908 0 1.1765-.493 2.1195-1.479 2.8289-.969.7094-2.267 1.0641-3.893 1.0641z"/><path d="m85.7221 17.3626c.398 0 .7181.1211.9603.3633.2422.2249.3634.5277.3634.9084v5.58c0 .7959-.1039 1.3582-.3115 1.6869-.2076.3288-.6315.597-1.2717.8046-.6921.2422-1.4966.4325-2.4137.571-.917.1384-1.7994.2076-2.6472.2076-1.8859 0-3.521-.372-4.9052-1.116s-2.4483-1.8168-3.1922-3.2182c-.7267-1.4188-1.0901-3.1058-1.0901-5.0609 0-1.9206.3634-3.5816 1.0901-4.9831.7439-1.4188 1.7907-2.5002 3.1403-3.24416 1.3496-.7613 2.9414-1.14195 4.7754-1.14195 2.4396 0 4.438.65749 5.9952 1.97251.2077.1903.3547.3806.4413.5709.1038.1904.1557.4153.1557.6748 0 .3807-.1038.7008-.3115.9603-.2076.2595-.4585.3893-.7526.3893-.1903 0-.3634-.026-.5191-.0779-.1557-.0692-.3374-.173-.545-.3114-.7613-.5364-1.4707-.9084-2.1282-1.116-.6575-.2249-1.4015-.3374-2.232-.3374-1.8859 0-3.3133.5623-4.2823 1.687-.9516 1.1073-1.4274 2.7597-1.4274 4.9571 0 4.4985 1.9725 6.7478 5.9174 6.7478 1.1765 0 2.3531-.1643 3.5296-.4931v-4.5937h-2.9327c-.4153 0-.744-.1038-.9862-.3115-.225-.2076-.3374-.5017-.3374-.8824 0-.3806.1124-.6748.3374-.8824.2422-.2076.5709-.3114.9862-.3114z"/><path d="m97.6191 14.3001c.4499-.0346.8046.0605 1.0641.2855.2595.2249.3893.5623.3893 1.0121 0 .4672-.1125.8132-.3374 1.0382-.2249.2249-.6315.372-1.2198.4412l-.7786.0778c-1.0208.1039-1.7735.4499-2.2579 1.0382-.4672.5883-.7008 1.3236-.7008 2.206v5.4502c0 .5018-.1557.8911-.4672 1.1679-.3114.2595-.7007.3893-1.1679.3893-.4671 0-.8564-.1298-1.1678-.3893-.2942-.2768-.4413-.6661-.4413-1.1679v-10.0439c0-.4845.1471-.8565.4413-1.116.3114-.2596.692-.3893 1.1419-.3893s.8132.1297 1.09.3893c.2769.2422.4153.5969.4153 1.0641v1.0381c.3287-.7613.8132-1.3496 1.4534-1.7648.6575-.4153 1.3842-.6489 2.1801-.7008z"/><path d="m106.003 27.4584c-1.297 0-2.439-.2682-3.426-.8045-.969-.5364-1.721-1.3063-2.258-2.3099-.5359-1.0035-.8041-2.1714-.8041-3.5037s.2682-2.4915.8041-3.4777c.537-1.0036 1.289-1.7735 2.258-2.3099.987-.5363 2.129-.8045 3.426-.8045 1.298 0 2.431.2682 3.4.8045.986.5364 1.739 1.3063 2.258 2.3099.536.9862.805 2.1454.805 3.4777s-.269 2.5002-.805 3.5037c-.519 1.0036-1.272 1.7735-2.258 2.3099-.969.5363-2.102.8045-3.4.8045zm-.026-2.5175c1.056 0 1.86-.346 2.414-1.0381s.83-1.7129.83-3.0625c0-1.3323-.276-2.3444-.83-3.0365-.554-.7094-1.35-1.0641-2.388-1.0641s-1.842.3547-2.413 1.0641c-.554.6921-.831 1.7042-.831 3.0365 0 1.3496.277 2.3704.831 3.0625.553.6921 1.349 1.0381 2.387 1.0381z"/><path d="m131.837 15.2602c.121-.3114.294-.545.519-.7007.242-.1557.502-.2336.778-.2336.398 0 .753.1384 1.065.4153.328.2595.493.5883.493.9862 0 .2249-.044.4239-.13.5969l-4.282 10.044c-.139.3287-.355.5796-.649.7526-.277.1731-.589.2596-.935.2596-.328 0-.64-.0865-.934-.2596-.277-.173-.484-.4239-.623-.7526l-3.088-7.4227-2.985 7.4227c-.138.3287-.355.5796-.649.7526-.277.1731-.588.2596-.934.2596-.329 0-.64-.0865-.934-.2596-.294-.173-.511-.4239-.649-.7526l-4.257-10.044c-.086-.2249-.129-.4152-.129-.5709 0-.398.173-.7354.519-1.0122.346-.2942.726-.4412 1.142-.4412.294 0 .562.0778.804.2336.243.1557.424.3893.545.7007l3.063 7.9158 3.14-7.8379c.139-.3288.338-.571.597-.7267.26-.1731.545-.2596.857-.2596.311 0 .596.0865.856.2596.26.1557.459.3979.597.7267l3.166 7.8638z"/><path d="m144.35 24.9929c.865.0519 1.298.4412 1.298 1.1679 0 .4152-.173.7353-.519.9602-.329.2077-.805.2942-1.428.2596l-.701-.0519c-2.906-.2077-4.36-1.7649-4.36-4.6716v-5.6579h-1.297c-.468 0-.831-.1038-1.091-.3114-.242-.2076-.363-.5104-.363-.9084 0-.3979.121-.7007.363-.9084.26-.2076.623-.3114 1.091-.3114h1.297v-2.3877c0-.4672.147-.8392.441-1.116.295-.2768.692-.4152 1.194-.4152.485 0 .874.1384 1.168.4152s.441.6488.441 1.116v2.3877h2.206c.468 0 .822.1038 1.064.3114.26.2077.39.5105.39.9084 0 .398-.13.7008-.39.9084-.242.2076-.596.3114-1.064.3114h-2.206v5.8914c0 1.2804.589 1.9638 1.765 2.0503z"/><path d="m155.28 14.2483c2.976 0 4.464 1.7388 4.464 5.2166v6.3845c0 .4845-.147.8651-.441 1.142-.277.2768-.666.4152-1.168.4152s-.9-.1384-1.194-.4152c-.294-.2769-.441-.6575-.441-1.142v-6.3845c0-.917-.191-1.5832-.571-1.9984-.364-.4326-.943-.6488-1.739-.6488-.934 0-1.687.2941-2.258.8824-.554.5882-.831 1.3755-.831 2.3617v5.7876c0 .4845-.147.8651-.441 1.142-.294.2768-.692.4152-1.194.4152-.501 0-.899-.1384-1.193-.4152-.277-.2769-.416-.6575-.416-1.142v-15.5201c0-.4499.147-.81324.442-1.09008.311-.27683.709-.41525 1.193-.41525.485 0 .874.12976 1.168.3893.294.25953.441.61423.441 1.06413v6.0471c.433-.6747 1.004-1.1852 1.713-1.5312.727-.3634 1.549-.545 2.466-.545z"/></g><path clip-rule="evenodd" d="m27.7766 3.31801c-4.6122.28418-8.8975 1.76328-12.5547 4.13122-.7574.49045-1.7691.27399-2.2595-.48348-.4905-.75747-.274-1.76911.4835-2.25956 4.5986-2.97753 10.0822-4.70619 15.9646-4.70619 16.2429 0 29.4104 13.1675 29.4104 29.4105 0 16.2429-13.1675 29.4104-29.4104 29.4104-16.243 0-29.4105-13.1675-29.4105-29.4104 0-6.4645 2.08753-12.4461 5.62485-17.3013.53137-.7294 1.55339-.8898 2.28273-.3585.72934.5314.88983 1.5534.35846 2.2828-3.14379 4.315-4.99821 9.627-4.99821 15.377 0 6.6311 2.46888 12.6856 6.53757 17.2943l19.968-19.968h-7.9384c-.9023 0-1.6339-.7315-1.6339-1.6339s.7316-1.6339 1.6339-1.6339h11.2889c1.2305 0 2.2281.9975 2.2281 2.2281v11.2888c0 .9024-.7315 1.6339-1.6339 1.6339s-1.634-.7315-1.634-1.6339v-7.9384l-19.968 19.968c4.6088 4.0687 10.6633 6.5376 17.2944 6.5376 6.8768 0 13.1335-2.6553 17.8008-6.9965l-5.5049-5.5049c-3.136 2.831-7.2552 4.6056-11.809 4.7416-2.5781.077-5.0524-.3794-7.3138-1.271-.8395-.331-1.2517-1.2798-.9207-2.1193.3309-.8395 1.2798-1.2518 2.1193-.9208 1.8568.7321 3.8906 1.1082 6.0177 1.0447 8.3837-.2503 14.9771-7.2496 14.7268-15.6333s-7.2496-14.9772-15.6334-14.7268c-8.3837.2503-14.9771 7.2496-14.7268 15.6333.0544 1.8215.4265 3.555 1.0604 5.1514.3329.8387-.077 1.7886-.9157 2.1215-.8387.333-1.7886-.0769-2.1216-.9156-.772-1.9446-1.2236-4.0529-1.2895-6.2598-.2939-9.8454 7.179-18.1196 16.8765-18.939zm3.2678.00005v7.65044c8.8538.8068 15.9734 7.8982 16.6966 16.8823h7.7664c-.775-13.1713-11.3016-23.72112-24.463-24.53274zm24.4538 27.80064h-7.7802c-.3392 3.5644-1.6973 6.845-3.7867 9.5366l5.5306 5.5305c3.4604-4.1318 5.6675-9.3492 6.0363-15.0671z" fill="#2563eb" fill-rule="evenodd"/><path d="m27.7766 58.7761c-14.9421-.8182-26.913826-12.7899-27.7319844-27.732-.04933633-.9011.6869134-1.6339 1.5892944-1.6339.90239 0 1.62859.7326 1.68411 1.6333.36921 5.9896 2.75525 11.4338 6.48738 15.6613l19.968-19.968h-7.9384c-.9023 0-1.6339-.7315-1.6339-1.6339s.7316-1.6339 1.6339-1.6339h11.2889c1.2305 0 2.2281.9975 2.2281 2.2281v11.2888c0 .9024-.7315 1.6339-1.6339 1.6339s-1.634-.7315-1.634-1.6339v-7.9384l-19.968 19.968c4.2275 3.7321 9.6715 6.118 15.6611 6.4872.9007.0555 1.6333.7817 1.6333 1.6841s-.7328 1.6386-1.6339 1.5893z" fill="#2563eb"/></g></svg>