<svg viewBox="0 0 754 1113" xmlns="http://www.w3.org/2000/svg" fill-rule="evenodd" clip-rule="evenodd" stroke-linejoin="round" stroke-miterlimit="2"><g fill="#31bff9" fill-rule="nonzero"><path d="M706.6 261.9l-4.2-31.3-99.8-35.5-29.5 23.7-16.1-28-104-5.8-21 27.8-44-27.8-74.4 30.4-96.4-30.4-46.5 36.3-6.7-10.1-106.5 17.7-10.2 31.3L0 261.9 66 1031l311.1 81.2 309.2-82.9L754 262h-47.3zM630 982.6l-248.8 62V916.9H214.7V814.6h111.6v-294H214.7V418.1h166.5v-96h305.1L630 982.6z"/><path d="M538.5 918H215V815.7h111.8V520.7H215V418.2h323.7l-.7 104.8H431v290.8h107.6v104.3zm-310-13.5H525v-77H417.4v-318h107l.5-77.7H228.5v75.4h111.8V829H228.5v75.4z"/><path d="M540.2 919.7h-327V814h111.9V522.4H213.2V416.5h327l-.6 108.2h-107v287.5h107.6v107.5zm-323.6-3.3h320.2V815.5H429.2V521.3h107L537 420H216.6v99.2h111.8v298.1H216.6v99.2zm310-10.2H226.9v-78.8h111.8V509H226.8V430h299.8l-.5 81h-107v314.6h107.6v80.5zm-296.4-3.4h293v-73.7H415.8V507.8h107l.5-74.3h-293v72H342v325.3H230.2v72z"/></g><path d="M7.6 116.6c.2-14.7.7-25.4 1.1-32.2 0-21.2.3-42.7 1-64.4-.4-4.3-.4-7.4-.4-9.4V8.2C9 6.1 9 4.2 9 2.8c0-.9.5-1.7 1.4-2.5a552 552 0 0 0 46 .7v115.6H7.6zM120 114c-8.3 0-16-1.4-22.6-4.2-6.6-3-12.2-6.8-16.4-12-4.3-4.9-7.6-10.8-9.9-17.6-2.1-6.6-3.2-14-3.2-22v-1l.1-2.7.3-2.8c0-.3 0-1.2.2-2.3.1-1.2.3-2.2.5-2.6.1-.6.1-1.4.4-2.5l.5-2.6 1-2.5c.2-1 .5-1.9.8-2.6a48.8 48.8 0 0 1 10-15.2c3.5-3.4 7.4-6.2 11.7-8.2a63.7 63.7 0 0 1 27-5.4c6.3 0 11.9.6 17 1.8 5 1.3 9.1 2.8 12.5 5 3.3 2 6.2 4.5 8.5 7.4a37.3 37.3 0 0 1 8 19.2v6.5c-.2.8-.5 1.3-1.2 1.7-.6.3-1.2.6-2 .6-.6.2-1.7.2-3 .2H128v-6.5a8 8 0 0 0-2.1-4.7 5.7 5.7 0 0 0-4.5-2.1c-1.6 0-3 .3-4 1a7.6 7.6 0 0 0-2.8 2.5c-.8 1.1-1.3 2.4-1.7 4a21 21 0 0 0-1 4.4l-.1 4.8c-.2 1.7-.2 3.2 0 4.6V69a29.8 29.8 0 0 0 1 8.2 9.7 9.7 0 0 0 2.5 4.7c1.3 1 2.8 1.7 4.7 1.7 1.8 0 3.2-.8 4.2-2.5.9-1.6 1.7-3.6 2.3-5.7.6-2.4 1.4-3.9 2.2-4.7h9c4.1.2 7 .2 9 .2 1.5 0 3.6 0 6.4-.2H165c1.6 0 2.5 1 2.7 3v3c-1.1 10-4.8 18-11.2 24.2a43 43 0 0 1-23.5 11.6v.5c-3.4.8-7.8 1-12.9 1zM176.5 17c0-3 .2-4.9.3-5.4.5-.7 1.2-1 2.3-1h1.7l1.7.1h3.9l23.2-.3c10.2-.3 18-.5 23-.5h20.2c1.4.2 2 .8 2 2v25.3c0 .3-.1.6-.3.8-.1.3-.1.4-.3.4l-1.5 1.3h-35V49h3.2c3 0 7.5 0 13.5-.4l13.8-.3c1.4 0 2.3.3 2.8 1 .6.4.7 1.2.7 2.3l-.1 1.2-.2 1.3V57l.2 2.8V62l.1 3.4c.2 1 .2 2 .2 2.7v2c-.2.7-.5 1-.6 1.3-.2.2-.3.3-.7.3v-.1c-2 0-5 0-9.7.3-4.5.3-8.2.4-10.8.4H218V82l3.5.2c2.4 0 5.6 0 10.1-.2l9.6-.3h9.6c2.6 0 4.3.3 5.1 1l.6.9v24.1c0 1.1-.3 1.9-.6 2.5-.5.5-1.2.8-2.3 1h-74.8l-2.3-2V16.8zM306.7 9.6c7 0 13.2.5 18.8 1.4 5.4 1 10.8 2.5 15.7 4.8 5.2 2.3 9.3 5.4 12.7 9.2 3.4 3.7 6 8.5 8 14.5 2.1 5.9 3 12.9 3 20.6 0 5.9-.6 11.1-2 16.1a46.6 46.6 0 0 1-23.7 29.3 60 60 0 0 1-21.3 5.8H266V11l1.7.1c2.2 0 5.4-.1 9.8-.6 4.5-.5 7.7-.8 9.9-.8h19.3zm1 78c2.6 0 5-.4 6.8-1.2 2-.8 3.5-2 4.8-3.5 1-1.6 2.1-3.3 3-5 .7-1.7 1.3-3.7 1.6-6 .3-2.4.6-4.4.6-6 .2-1.8.3-3.8.3-6.1v-5.4c-.1-.3-.3-2-.4-5.1-.3-3.1-.8-5.8-1.7-8-.8-1.5-1.7-2.7-2.7-4-1-1-2-2-2.9-2.6-1-.6-2.2-1-3.4-1.4-1.2-.3-2.5-.6-3.6-.6-.9-.2-2.3-.2-3.7-.2v1.6h-2.3v53.6h3.6zM376.8 113.5v-2.2l.2-7.6v-4c0-12.2.8-18.4 2.3-18.4h31c5 0 7.2.8 7.2 2.2.4 9.6.4 17 .4 22.1v2.6l.1 3.3c0 3-.5 4.3-1.5 4.3h-37.3l-2.4-2.3zM434.9 3.6c0-.5.3-1 .9-1.4a8 8 0 0 1 2.8-1 214.4 214.4 0 0 1 7.9-.9l4.2-.1h3.8l2.5.1h8.5l7-.1c3-.2 5.3-.2 6.6-.2 24 0 41.2 4 51.6 12.4l2.6 2.3c1 1 1.9 1.9 3 3.3a62.2 62.2 0 0 1 12.4 39.2c0 7.2-1 14.2-3 20.5a54.6 54.6 0 0 1-53 39h-2.4l-9.6-.1c-4.3-.2-7.6-.2-9.8-.2-12.7 0-24 .2-34.3.7a17 17 0 0 1-1.7-6.7V3.6zm44.4 86.8a27.7 27.7 0 0 0 14.2-3.7c1.7-1 3.1-2.5 4.4-4.3 1.4-1.7 2.3-3.4 3-5.3a43.7 43.7 0 0 0 2.7-12.8c.2-2 .2-4.5.2-7v-4.6c0-9.3-1.9-16.1-5.6-20.6-3.6-4.4-10-6.7-19.2-7l-2.5 4.5V39.2c-.6 33.7.3 50.8 2.8 51.2zM557.7 17c0-3 .2-4.9.3-5.4.5-.7 1.3-1 2.4-1h1.7l1.7.1h3.8l23.3-.3c10.2-.3 18-.5 23-.5h20.2c1.3.2 2 .8 2 2v25.3c0 .3-.2.6-.3.8-.2.3-.2.4-.4.4l-1.5 1.3h-35V49h3.3c3 0 7.4 0 13.4-.4l13.8-.3c1.4 0 2.3.3 2.8 1 .6.4.8 1.2.8 2.3l-.2 1.2-.1 1.3V57l.1 2.8V62l.2 3.4.1 2.7v2c-.1.7-.4 1-.6 1.3-.2.2-.3.3-.6.3v-.1c-2 0-5.1 0-9.8.3-4.5.3-8.2.4-10.8.4h-12V82l3.5.2c2.3 0 5.6 0 10-.2l9.6-.3h9.6c2.7 0 4.4.3 5.1 1l.7.9v24.1c0 1.1-.3 1.9-.7 2.5-.4.5-1.2.8-2.3 1h-74.7l-2.4-2V16.8zM697.4 48c.3-1.8 1.3-5.5 2.8-11 1.7-5.4 2.6-9.6 3-12.8v-5.3l.3-2.6.3-1.2c.1-.7.1-1.1.3-1.3l.6-1c.1-.4.5-.7.6-.8l1-.7c.4-.3.9-.4 1.3-.6l1.6-.1h34.3c.2 0 .5.3 1 .6.4.3.9.6 1.2 1l.6.5-25.4 91a22 22 0 0 1-2 5.5c-.7 1.4-1.8 2.1-2.8 2.1h-51.7c-.9-3.2-1.8-7-2.7-11.4l-3.3-13.2-2.8-11.4-18.4-62.4c0-1.3 1-2 2.5-2.3v-.3c3 0 7.7 0 13.8-.2l13.3-.2H679c.5 0 .7.2.8.2l.5.8c.1.4.5.7.8 1l10.6 62.7 6.7-18.2-1-8.4z" fill="#31bff9" fill-rule="nonzero"/></svg>