<svg xmlns="http://www.w3.org/2000/svg" viewBox="0 0 625.4 158.13"><defs><style>.cls-1{fill:#e42435;}.cls-2{fill:#414142;}</style></defs><title>Asset 10</title><g id="Layer_2" data-name="Layer 2"><g id="Layer_1-2" data-name="Layer 1"><path class="cls-1" d="M14.68,79.07a64.2,64.2,0,0,1,16.51-43l2-2.26V77.16h.05s-.05,1.8-.05,1.91a45.92,45.92,0,0,0,37,45l.43.08.27.35a12.45,12.45,0,1,0,.62-15.84l-.49.55-.7-.21a31.48,31.48,0,0,1-16.11-11,30.86,30.86,0,0,1-6.38-18.86c0-.27,0-72.65,0-72.65A79.06,79.06,0,0,0,93.48,156.81v-15a64.4,64.4,0,0,1-78.8-62.76Z"/><path class="cls-1" d="M79.07,0A80.17,80.17,0,0,0,64.68,1.32v15a64.36,64.36,0,0,1,62.26,105.77l-2,2.25V79.07A46,46,0,0,0,88.21,34.14l-.47-.1-.26-.4A12.45,12.45,0,1,0,86,49.29l.47-.48.66.17a31.22,31.22,0,0,1,23.12,30.09.76.76,0,0,1,0,.15v72.49A79.05,79.05,0,0,0,79.07,0Z"/><path class="cls-2" d="M198.2,18.39a8,8,0,0,1,5.86,2.44,8.27,8.27,0,0,1,0,11.71A8,8,0,0,1,198.2,35a7.88,7.88,0,0,1-5.8-2.44,8.27,8.27,0,0,1,0-11.71A7.88,7.88,0,0,1,198.2,18.39Zm-5,32.17h10.06V128.7H193.2Z"/><path class="cls-2" d="M224.16,50.56h10.05v14a42.11,42.11,0,0,1,13.36-12,32.79,32.79,0,0,1,15.94-4A27.69,27.69,0,0,1,279.06,53a26.45,26.45,0,0,1,10,12q3.24,7.55,3.23,23.48V128.7H282.26V91.43q0-13.5-1.12-18-1.74-7.75-6.7-11.67t-12.93-3.91a24.8,24.8,0,0,0-16.34,6,28.2,28.2,0,0,0-9.52,14.94q-1.44,5.82-1.44,21.26V128.7H224.16Z"/><path class="cls-2" d="M391.85,20.4V128.7h-9.91V115.27a42.91,42.91,0,0,1-14.18,11.56,39.61,39.61,0,0,1-45.53-8.15,40.32,40.32,0,0,1-11.75-29.26,39.59,39.59,0,0,1,11.85-28.87,38.64,38.64,0,0,1,28.51-12,36.88,36.88,0,0,1,17.42,4.1,39.61,39.61,0,0,1,13.68,12.28V20.4ZM351.67,58.25A30.3,30.3,0,0,0,324.88,74a31.65,31.65,0,0,0,0,31.56,30.82,30.82,0,0,0,11.37,11.73,29.72,29.72,0,0,0,15.32,4.2,31.45,31.45,0,0,0,15.64-4.16A29.24,29.24,0,0,0,378.61,106a32.21,32.21,0,0,0,4-16q0-13.56-8.93-22.67A29.62,29.62,0,0,0,351.67,58.25Z"/><path class="cls-2" d="M413.33,50.56h10.05V87.05q0,13.35,1.44,18.38a20.51,20.51,0,0,0,8.23,11.35,25,25,0,0,0,14.5,4.17,24.47,24.47,0,0,0,14.27-4.06,20.79,20.79,0,0,0,8.1-10.67q1.5-4.52,1.51-19.17V50.56H481.7V88.91q0,16.17-3.77,24.35a28.85,28.85,0,0,1-11.35,12.82q-7.57,4.63-19,4.63t-19.06-4.63a28.56,28.56,0,0,1-11.42-12.93q-3.78-8.3-3.77-25Z"/><path class="cls-2" d="M500.23,50.56h10.26V62a36.19,36.19,0,0,1,9.7-10.09,19.17,19.17,0,0,1,10.63-3.34,18.33,18.33,0,0,1,8.9,2.66l-5.24,8.48a14,14,0,0,0-5.31-1.37q-5,0-9.7,4.13t-7.11,12.82q-1.86,6.67-1.87,27V128.7H500.23Z"/><path class="cls-2" d="M584.68,48.55q18.06,0,29.93,13.07A40.65,40.65,0,0,1,625.4,89.85,40.68,40.68,0,0,1,614,118.47q-11.4,12.24-29.32,12.24t-29.39-12.24a40.68,40.68,0,0,1-11.4-28.62A40.57,40.57,0,0,1,554.68,61.7Q566.56,48.55,584.68,48.55Zm0,9.84a29,29,0,0,0-21.55,9.27,30.93,30.93,0,0,0-9,22.4,31.75,31.75,0,0,0,4.11,15.8,29,29,0,0,0,11.1,11.32,31.59,31.59,0,0,0,30.7,0,29.12,29.12,0,0,0,11.1-11.32,31.85,31.85,0,0,0,4.1-15.8,30.87,30.87,0,0,0-9-22.4A29,29,0,0,0,584.65,58.39Z"/></g></g></svg>