<svg xmlns="http://www.w3.org/2000/svg" viewBox="0 0 626.09 132.07"><defs><style>.cls-1{fill:#1b1b1a;}.cls-2{fill:#a560eb;}</style></defs><title>Asset 1</title><g id="Layer_2" data-name="Layer 2"><g id="Layer_1-2" data-name="Layer 1"><path class="cls-1" d="M202.5,100.94c0,21,14.62,31.13,32.85,31.13a50.35,50.35,0,0,0,14.26-1.67,1,1,0,0,0,.71-1V110.76a1,1,0,0,0-1.29-1,27.94,27.94,0,0,1-8.35,1.12c-10.14,0-14.62-5.13-14.62-15.63V63.78a1,1,0,0,1,1-1h17.72a1,1,0,0,0,.83-.44L259,43.7a1,1,0,0,0-.84-1.56H227.06a1,1,0,0,1-1-1v-25a1,1,0,0,0-1-1H203.5a1,1,0,0,0-1,1Z"/><path class="cls-1" d="M97.77,43.22V129a1,1,0,0,1-1,1H75.21a1,1,0,0,1-1-1V63.45a1,1,0,0,0-1-1h-22a1,1,0,0,1-1-1V43.22a1,1,0,0,1,1-1H96.77A1,1,0,0,1,97.77,43.22Z"/><path class="cls-1" d="M158.76,42.14c-11.18,0-20.12,4.82-24.6,11.7V43.22a1,1,0,0,0-1-1H111.6a1,1,0,0,0-1,1V129a1,1,0,0,0,1,1h21.56a1,1,0,0,0,1-1v-41c0-16.51,8.26-24.43,19.1-24.43,9.8,0,15.14,7.57,15.14,20V129a1,1,0,0,0,1,1H191a1,1,0,0,0,1-1V79.64C192,57.28,179.58,42.14,158.76,42.14Z"/><path class="cls-1" d="M300.83,42.14c-26.15,0-45.24,19.1-45.24,44.73,0,26.14,18.75,45.06,45.06,45.06,21.3,0,38-11.93,43.63-28.62a1,1,0,0,0-1-1.31H320.7a1,1,0,0,0-.88.55c-2.93,5.53-10,8.91-18,8.91-14.08,0-21.62-8.13-23.08-17.79a1,1,0,0,1,1-1.13h65a1,1,0,0,0,1-1C346.5,59.84,325.86,42.14,300.83,42.14Zm-20,34.92a1,1,0,0,1-.95-1.3c2.6-8.74,10-14.52,20.29-14.52,7.77,0,16.17,4,19.41,14.51a1,1,0,0,1-.95,1.31Z"/><path class="cls-1" d="M379.61,54.94V43.22a1,1,0,0,0-1-1H357.05a1,1,0,0,0-1,1V129a1,1,0,0,0,1,1h21.56a1,1,0,0,0,1-1V88.93c0-14.1,7.4-22.88,18.58-22.88a31.14,31.14,0,0,1,9.38,1.49,1,1,0,0,0,1.28-1V43.94a1,1,0,0,0-.74-1,27.73,27.73,0,0,0-7.17-.83C391.31,42.14,382.54,46.51,379.61,54.94Z"/><path class="cls-1" d="M467.27,42.14c-11.18,0-20.12,4.82-24.59,11.7V43.22a1,1,0,0,0-1-1H420.11a1,1,0,0,0-1,1V129a1,1,0,0,0,1,1h21.57a1,1,0,0,0,1-1v-41c0-16.51,8.25-24.43,19.09-24.43,9.8,0,15.14,7.57,15.14,20V129a1,1,0,0,0,1,1h21.56a1,1,0,0,0,1-1V79.64C500.47,57.28,488.09,42.14,467.27,42.14Z"/><rect class="cls-1" x="602.52" y="0.03" width="23.57" height="130.01" rx="1"/><path class="cls-1" d="M85.9,29.93a15.09,15.09,0,0,1-15-15A15.05,15.05,0,0,1,101,15,15,15,0,0,1,85.9,29.93Z"/><rect class="cls-2" y="92.84" width="37.2" height="37.2" rx="1"/><path class="cls-1" d="M510.76,106.28c0-19.16,17.33-22.55,33.32-25.82,16.65-3.41,24.07-4.83,24.07-12,0-6.16-6.87-9-14.95-9-8.51,0-14.22,3.11-16.4,9.78a1,1,0,0,1-.95.71H516a1,1,0,0,1-1-1.18c3-15.24,16.54-26.64,39.44-26.64,27.82,0,37.48,13.16,37.48,30v57a1,1,0,0,1-1,1H570.82a1,1,0,0,1-1-1V118.74c-5,8.66-13.58,13.19-28.07,13.19C526.09,131.93,510.76,124.6,510.76,106.28Zm58.37-10,0-7.69C563.84,92.1,557,93.46,548.66,95S535,98.41,535,104.62c0,5.31,3.92,8.34,13.16,8.36C560.59,113,569.11,106,569.13,96.32Z"/></g></g></svg>