<svg xmlns="http://www.w3.org/2000/svg" xmlns:xlink="http://www.w3.org/1999/xlink" width="3000" height="3000" viewBox="0 0 3000 3000">
  <defs>
    <linearGradient id="phoenix-meetup-logo-a" x1="67.028%" x2="67.028%" y1="84.714%" y2="0%">
      <stop offset="0%" stop-color="#313D3E"/>
      <stop offset="100%" stop-color="#425253"/>
    </linearGradient>
    <rect id="phoenix-meetup-logo-b" width="3000" height="2215"/>
    <linearGradient id="phoenix-meetup-logo-d" x1="50%" x2="50%" y1="0%" y2="100%">
      <stop offset="0%" stop-color="#3B494A"/>
      <stop offset="100%" stop-color="#364344"/>
    </linearGradient>
  </defs>
  <g fill="none" fill-rule="evenodd">
    <rect width="3000" height="2215" fill="url(#phoenix-meetup-logo-a)"/>
    <mask id="phoenix-meetup-logo-c" fill="#fff">
      <use xlink:href="#phoenix-meetup-logo-b"/>
    </mask>
    <use fill="url(#phoenix-meetup-logo-a)" xlink:href="#phoenix-meetup-logo-b"/>
    <g fill="#00CBB7" stroke="#00C7B7" stroke-linecap="round" stroke-linejoin="round" stroke-width="13" mask="url(#phoenix-meetup-logo-c)">
      <path d="M2611,1061.51962 L2561.14598,1096.33415 L2519.75225,1096.33415 L2511.84221,1117 L2453.27454,1130.05982 L2422.42367,1145.47661 L2422.42367,943.888818 C2461.12158,934.230629 2487.01748,916.68835 2500.11139,891.261982 C2519.75225,853.12243 2506.92897,679.977097 2467.06093,679.977097 C2427.19289,679.977097 2461.40228,824.737075 2422.42367,824.737075 C2422.42367,608.16458 2405.05194,499.878333 2370.30847,499.878333 C2318.19326,499.878333 2333.06309,750.607782 2331.90476,756.663533 C2330.74642,762.719283 2302.66125,774.592177 2302.66125,756.663533 C2307.25914,727.554511 2300.14312,713 2281.31318,713 C2262.48324,713 2253.37313,734.804003 2253.98286,778.412008 C2253.98286,861.462176 2273.546,914.71901 2312.67229,938.182511 L2312.67229,1145.47661 L2270.0853,1158.0548 L2224.05418,1158.0548 L2171.0919,1183.40037 L2138.30503,1196.99289 L2119.41971,1217.47242 C2093.33999,1228.93115 2080.30013,1234.66051 2080.30013,1234.66051 C2080.30013,1234.66051 2071.73388,1234.66051 2054.60138,1234.66051 L2042.96116,1260.97733 L2008.83515,1260.97733 C1983.10534,1287.27288 1965.39238,1300.42066 1955.69628,1300.42066 C1946.00019,1300.42066 1910.38624,1312.60864 1848.85444,1336.98459 C1827.98086,1349.28703 1814.18885,1355.43824 1807.47843,1355.43824 C1797.41281,1355.43824 1778.52779,1388.27907 1755.41152,1388.27907 C1740.00068,1388.27907 1717.16574,1388.27907 1686.90673,1388.27907 L1632.08044,1427 L1601.10362,1447.00014 L1516.38458,1427 L1447.54392,1399.93401 C1425.73179,1399.93401 1414.82573,1399.93401 1414.82573,1399.93401 C1414.82573,1399.93401 1395.86683,1373.20516 1383.01501,1364.3217 C1370.16318,1355.43824 1348.59468,1344.5 1348.59468,1344.5 C1348.59468,1344.5 1338.04833,1312.50235 1338.04833,1312.50235 C1338.04833,1312.50235 1314.5,1271.06257 1314.5,1271.06257 C1314.5,1271.06257 1296.84527,1264.09054 1261.53582,1250.14647 C1236.28999,1257.36704 1223.66708,1260.97733 1223.66708,1260.97733 C1223.66708,1260.97733 1192.06238,1250.14647 1192.06238,1250.14647 C1192.06238,1250.14647 1179.01271,1250.14647 1152.91337,1250.14647 L1120.46496,1260.97733 L1068.95955,1234.66051 C1048.94275,1237.76392 1034.93982,1242.92591 1026.95076,1250.14647 C1018.9617,1257.36704 1004.40611,1260.97733 983.283983,1260.97733 C971.36089,1281.41271 963.223035,1291.6304 958.87042,1291.6304 C952.341496,1291.6304 936.409156,1282.84014 921.835578,1291.6304 C912.11986,1297.49057 899.089809,1304.44789 882.745426,1312.50235 C850.409922,1323.46728 831.068415,1328.94975 824.720904,1328.94975 C818.373394,1328.94975 810.377793,1331.62803 800.7341,1336.98459 C786.597092,1343.36472 779.528588,1349.51594 779.528588,1355.43824 C779.528588,1361.36055 772.294939,1372.30749 757.827642,1388.27907 C727.362602,1392.90311 712.130082,1392.90311 712.130082,1388.27907 C712.130082,1383.65503 699.060789,1372.70809 672.922203,1355.43824 C642.290383,1377.33213 626.974473,1388.27907 626.974473,1388.27907 C626.974473,1388.27907 637.299232,1411.58895 609.92373,1399.93401 C591.673396,1392.16405 548.896556,1407.85276 481.593209,1447.00014 L393.127271,1467.82314 L329,1598.76879 L2612,1647.08 L2611,1061.51962 Z" transform="translate(389 787)"/>
    </g>
    <g transform="translate(0 802)">
      <rect width="3000" height="792" y="1412" fill="#FFF"/>
      <rect width="3000" height="446" fill="url(#phoenix-meetup-logo-d)"/>
      <g transform="translate(172 8)">
        <path fill="#FFF" d="M169.174431,6.51591958 L253.527116,6.51591958 L253.527116,300.258675 C253.527116,341.669258 241.554917,374.516645 217.61016,398.801823 C193.665403,423.087001 163.511358,435.229408 127.147122,435.229408 C87.8022097,435.229408 56.6546217,424.393157 33.7034231,402.720328 C10.7522245,381.0475 -0.325785298,349.119259 0.469061407,306.934647 L1.36325948,305.193089 L83.9275481,305.193089 C83.9275481,327.44644 87.9513992,343.700817 95.9992221,353.956709 C104.047045,364.212601 114.429574,369.34047 127.147122,369.34047 C138.672399,369.34047 148.558156,363.245078 156.804691,351.054112 C165.051226,338.863147 169.174431,321.931504 169.174431,300.258675 L169.174431,6.51591958 Z M488.161672,339.443727 L373.704319,339.443727 L350.455169,429.133956 L264.91022,429.133956 L387.11729,6.51591958 L475.344833,6.51591958 L597.253837,429.133956 L511.708888,429.133956 L488.161672,339.443727 Z M390.992148,272.974269 L470.873842,272.974269 L431.827193,123.490555 L430.038797,123.490555 L390.992148,272.974269 Z M720.113634,6.51591958 L797.908866,316.803475 L799.697262,316.803475 L878.386692,6.51591958 L988.969187,6.51591958 L988.969187,429.133956 L904.616502,429.133956 L904.616502,306.354128 L911.770087,142.067172 L909.981691,141.776912 L827.119336,429.133956 L770.784858,429.133956 L688.816701,144.098989 L687.028305,144.389249 L694.479956,306.354128 L694.479956,429.133956 L610.127271,429.133956 L610.127271,6.51591958 L720.113634,6.51591958 Z M1321.07133,327.833341 C1321.07133,301.322828 1311.08622,280.134086 1291.1157,264.26648 C1271.14517,248.398874 1236.52018,233.886037 1187.23969,220.727534 C1137.76048,207.762539 1101.54582,193.007821 1078.59462,176.462939 C1055.64342,159.918057 1044.168,135.778371 1044.168,104.043159 C1044.168,72.5014534 1057.68019,47.3458695 1084.70498,28.5756522 C1111.72976,9.80543499 1146.20572,0.420467139 1188.13389,0.420467139 C1230.45947,0.420467139 1265.03479,11.9339844 1291.86086,34.9613643 C1318.68694,57.9887442 1331.70236,87.5949315 1330.90751,123.780814 L1330.31138,125.522372 L1316.60034,125.522372 C1316.60034,93.9806668 1304.67782,67.8575604 1280.83242,47.1522692 C1256.98702,26.446978 1226.08782,16.0944877 1188.13389,16.0944877 C1148.78897,16.0944877 1117.64139,24.6570615 1094.69019,41.7824659 C1071.73899,58.9078703 1060.26356,79.4677225 1060.26356,103.462639 C1060.26356,127.457556 1069.7519,147.388519 1088.72887,163.256125 C1107.70583,179.123732 1142.03276,193.249559 1191.71068,205.634033 C1239.7989,218.018506 1276.11292,233.160232 1300.65381,251.059666 C1325.1947,268.9591 1337.46496,294.356565 1337.46496,327.252822 C1337.46496,360.729601 1323.456,387.094588 1295.43766,406.348574 C1267.41931,425.60256 1232.34722,435.229408 1190.22035,435.229408 C1146.70249,435.229408 1109.2459,425.312303 1077.84946,405.477795 C1046.45301,385.643287 1031.2518,354.440688 1032.24536,311.869061 L1032.84149,310.127503 L1046.25446,310.127503 C1046.25446,348.441967 1060.76019,376.258238 1089.7721,393.57715 C1118.784,410.896062 1152.26642,419.555388 1190.22035,419.555388 C1228.37299,419.555388 1259.71929,411.04119 1284.26018,394.012539 C1308.80107,376.983888 1321.07133,354.924376 1321.07133,327.833341 L1321.07133,327.833341 Z M1648.74435,65.4498837 C1648.74435,67.5643365 1647.93012,69.5025559 1646.30163,71.2645999 C1644.67314,73.026644 1642.77327,73.9076528 1640.60195,73.9076528 L1514.66602,73.9076528 L1514.66602,421.204797 C1514.66602,423.31925 1513.76131,425.169368 1511.95188,426.755208 C1510.14245,428.341048 1508.1521,429.133956 1505.98078,429.133956 C1503.80946,429.133956 1501.81911,428.429149 1500.00968,427.019513 C1498.20025,425.609878 1497.29554,423.671659 1497.29554,421.204797 L1497.29554,73.9076528 L1370.81679,73.9076528 C1368.64547,73.9076528 1366.74559,73.026644 1365.1171,71.2645999 C1363.48861,69.5025559 1362.67438,67.5643365 1362.67438,65.4498837 C1362.67438,63.3354308 1363.39814,61.3091105 1364.84569,59.3708621 C1366.29323,57.4326137 1368.28358,56.463504 1370.81679,56.463504 L1640.60195,56.463504 C1643.13515,56.463504 1645.1255,57.4326137 1646.57305,59.3708621 C1648.02059,61.3091105 1648.74435,63.3354308 1648.74435,65.4498837 L1648.74435,65.4498837 Z M1895.09923,302.871012 L1682.87622,302.871012 L1634.58952,429.133956 L1617.00363,429.133956 L1779.15155,6.51591958 L1798.8239,6.51591958 L1961.26989,429.133956 L1943.68399,429.133956 L1895.09923,302.871012 Z M1688.83754,287.196992 L1889.13791,287.196992 L1798.22777,49.1840867 L1789.88192,25.3827962 L1788.09353,25.3827962 L1780.04574,49.1840867 L1688.83754,287.196992 Z M2278.82339,299.678156 L2279.41952,301.419714 C2280.21437,344.76537 2266.75186,377.903015 2239.03158,400.833641 C2211.3113,423.764267 2174.79858,435.229408 2129.49231,435.229408 C2082.00022,435.229408 2043.94751,418.152637 2015.33303,383.998582 C1986.71855,349.844527 1972.41152,304.999861 1972.41152,249.463238 L1972.41152,186.186637 C1972.41152,130.843522 1986.71855,86.0472322 2015.33303,51.7964234 C2043.94751,17.5456147 2082.00022,0.420467139 2129.49231,0.420467139 C2174.79858,0.420467139 2211.3113,11.9339844 2239.03158,34.9613643 C2266.75186,57.9887442 2280.21437,90.8845078 2279.41952,133.649642 L2278.82339,135.3912 L2265.11236,135.3912 C2265.11236,97.2702431 2252.94145,67.8575604 2228.59927,47.1522692 C2204.25709,26.446978 2171.22177,16.0944877 2129.49231,16.0944877 C2087.16673,16.0944877 2053.08819,31.6715993 2027.25567,62.8262898 C2001.42315,93.9809803 1988.50709,134.90718 1988.50709,185.606118 L1988.50709,249.463238 C1988.50709,300.742698 2001.42315,341.910778 2027.25567,372.968715 C2053.08819,404.026652 2087.16673,419.555388 2129.49231,419.555388 C2171.22177,419.555388 2204.25709,409.589906 2228.59927,389.658645 C2252.94145,369.727383 2265.11236,339.734187 2265.11236,299.678156 L2278.82339,299.678156 Z M2428.56573,222.759351 L2362.097,222.759351 L2362.097,429.133956 L2346.00144,429.133956 L2346.00144,6.51591958 L2362.097,6.51591958 L2362.097,207.375591 L2433.03672,207.375591 L2617.24152,6.51591958 L2636.31775,6.51591958 L2636.91388,7.96721778 L2446.44969,217.244418 L2650.62491,427.392398 L2649.73072,429.133956 L2630.95256,429.133956 L2428.56573,222.759351 Z"/>
        <path fill="#00C7B7" d="M1646.03022,14.1746584 C1646.03022,16.2891112 1645.21599,18.1392297 1643.5875,19.7250694 C1641.95901,21.310909 1640.05913,22.1038169 1637.88781,22.1038169 L1370.81679,22.1038169 C1368.64547,22.1038169 1366.74559,21.310909 1365.1171,19.7250694 C1363.48861,18.1392297 1362.67438,16.2891112 1362.67438,14.1746584 C1362.67438,12.0602055 1363.48861,10.210087 1365.1171,8.6242474 C1366.74559,7.03840776 1368.64547,6.24549984 1370.81679,6.24549984 L1637.88781,6.24549984 C1640.05913,6.24549984 1641.95901,7.03840776 1643.5875,8.6242474 C1645.21599,10.210087 1646.03022,12.0602055 1646.03022,14.1746584 L1646.03022,14.1746584 Z"/>
      </g>
    </g>
    <path fill="#313D3E" fill-rule="nonzero" d="M819.982805,2438 C847.096274,2438 867.267739,2445.18659 880.497805,2459.56 C893.727871,2473.93341 900.342805,2495.00319 900.342805,2522.77 L900.342805,2567.36 C900.342805,2595.12681 893.727871,2616.19659 880.497805,2630.57 C867.267739,2644.94341 847.096274,2652.13 819.982805,2652.13 L794.502805,2652.13 L794.502805,2781 L740.602805,2781 L740.602805,2438 L819.982805,2438 Z M794.502805,2487 L794.502805,2603.13 L819.982805,2603.13 C828.476181,2603.13 835.009449,2600.84336 839.582805,2596.27 C844.156161,2591.69664 846.442805,2583.2034 846.442805,2570.79 L846.442805,2519.34 C846.442805,2506.9266 844.156161,2498.43336 839.582805,2493.86 C835.009449,2489.28664 828.476181,2487 819.982805,2487 L794.502805,2487 Z M1015.71058,2781 L961.810575,2781 L961.810575,2438 L1015.71058,2438 L1015.71058,2585 L1076.96058,2585 L1076.96058,2438 L1131.84058,2438 L1131.84058,2781 L1076.96058,2781 L1076.96058,2634 L1015.71058,2634 L1015.71058,2781 Z M1254.55835,2702.11 C1254.55835,2714.5234 1257.08999,2723.26164 1262.15335,2728.325 C1267.2167,2733.38836 1273.99497,2735.92 1282.48835,2735.92 C1290.98172,2735.92 1297.75999,2733.38836 1302.82335,2728.325 C1307.8867,2723.26164 1310.41835,2714.5234 1310.41835,2702.11 L1310.41835,2516.89 C1310.41835,2504.4766 1307.8867,2495.73836 1302.82335,2490.675 C1297.75999,2485.61164 1290.98172,2483.08 1282.48835,2483.08 C1273.99497,2483.08 1267.2167,2485.61164 1262.15335,2490.675 C1257.08999,2495.73836 1254.55835,2504.4766 1254.55835,2516.89 L1254.55835,2702.11 Z M1200.65835,2520.32 C1200.65835,2492.55319 1207.68161,2471.23841 1221.72835,2456.375 C1235.77508,2441.51159 1256.02821,2434.08 1282.48835,2434.08 C1308.94848,2434.08 1329.20161,2441.51159 1343.24835,2456.375 C1357.29508,2471.23841 1364.31835,2492.55319 1364.31835,2520.32 L1364.31835,2698.68 C1364.31835,2726.44681 1357.29508,2747.76159 1343.24835,2762.625 C1329.20161,2777.48841 1308.94848,2784.92 1282.48835,2784.92 C1256.02821,2784.92 1235.77508,2777.48841 1221.72835,2762.625 C1207.68161,2747.76159 1200.65835,2726.44681 1200.65835,2698.68 L1200.65835,2520.32 Z M1487.03612,2582.55 L1561.02612,2582.55 L1561.02612,2631.55 L1487.03612,2631.55 L1487.03612,2732 L1580.13612,2732 L1580.13612,2781 L1433.13612,2781 L1433.13612,2438 L1580.13612,2438 L1580.13612,2487 L1487.03612,2487 L1487.03612,2582.55 Z M1695.50389,2532.57 L1695.50389,2781 L1646.99389,2781 L1646.99389,2438 L1714.61389,2438 L1769.98388,2643.31 L1769.98388,2438 L1818.00389,2438 L1818.00389,2781 L1762.63389,2781 L1695.50389,2532.57 Z M1890.74166,2438 L1944.64166,2438 L1944.64166,2781 L1890.74166,2781 L1890.74166,2438 Z M2197.69943,2438 L2141.34943,2604.6 L2201.61943,2781 L2144.77943,2781 L2100.67943,2645.27 L2056.08943,2781 L2005.61943,2781 L2065.88943,2604.6 L2009.53943,2438 L2065.39943,2438 L2106.06943,2564.42 L2147.71943,2438 L2197.69943,2438 Z"/>
  </g>
</svg>
