<?xml version="1.0" encoding="utf-8"?>
<!-- Generator: Adobe Illustrator 24.0.1, SVG Export Plug-In . SVG Version: 6.00 Build 0)  -->
<svg version="1.1" xmlns="http://www.w3.org/2000/svg" xmlns:xlink="http://www.w3.org/1999/xlink" x="0px" y="0px"
	 viewBox="0 0 360 360" style="enable-background:new 0 0 360 360;" xml:space="preserve">
<style type="text/css">
	.st0{fill:url(#SVGID_1_);}
	.st1{fill:#121921;}
	.st2{fill:#FFFFFF;}
	.st3{fill:url(#SVGID_2_);}
	.st4{fill:url(#SVGID_3_);}
	.st5{fill:url(#SVGID_4_);}
	.st6{fill:url(#SVGID_5_);}
	.st7{fill:url(#SVGID_6_);}
	.st8{fill:url(#SVGID_7_);}
</style>
<g id="Layer_2">
	<linearGradient id="SVGID_1_" gradientUnits="userSpaceOnUse" x1="0" y1="-9.094947e-13" x2="360" y2="360">
		<stop  offset="0" style="stop-color:#FFE390"/>
		<stop  offset="1" style="stop-color:#FECE0D"/>
	</linearGradient>
	<rect class="st0" width="360" height="360"/>
	<rect x="9" y="9" class="st1" width="342" height="342"/>
	<g>
		<path class="st2" d="M326.86,33.98c-0.98-1.12-1.73-1.52-2.8-1.52c-1.92,0-3.41,1.57-3.41,3.55c0,1.95,1.53,3.53,3.43,3.53
			c1.07,0,1.83-0.42,2.83-1.53l1.75,1.63c-1.45,1.55-2.8,2.2-4.55,2.2c-3.3,0-5.95-2.62-5.95-5.83c0-3.23,2.65-5.85,5.95-5.85
			c1.73,0,3.06,0.63,4.5,2.17L326.86,33.98z"/>
		<linearGradient id="SVGID_2_" gradientUnits="userSpaceOnUse" x1="306" y1="36" x2="336.8488" y2="36">
			<stop  offset="0" style="stop-color:#FFFFFF;stop-opacity:0"/>
			<stop  offset="1" style="stop-color:#FFFFFF"/>
		</linearGradient>
		<path class="st3" d="M323.99,54c-0.12,0-0.24,0-0.35,0c-4.94-0.09-9.51-2.14-12.87-5.77c-6.35-6.85-6.35-17.59,0-24.45
			c3.36-3.63,7.93-5.68,12.87-5.77c4.95-0.09,9.58,1.78,13.07,5.27c0.19,0.19,0.19,0.5,0,0.69s-0.5,0.19-0.69,0
			c-3.3-3.3-7.69-5.08-12.37-4.98c-4.67,0.09-8.99,2.03-12.18,5.46c-6.01,6.48-6.01,16.64,0,23.12c3.18,3.43,7.51,5.37,12.18,5.46
			c4.67,0.09,9.06-1.68,12.37-4.98c0.19-0.19,0.5-0.19,0.69,0s0.19,0.5,0,0.69C333.3,52.14,328.79,54,323.99,54z"/>
		<linearGradient id="SVGID_3_" gradientUnits="userSpaceOnUse" x1="311.8223" y1="36" x2="332.7208" y2="36">
			<stop  offset="0" style="stop-color:#FFFFFF"/>
			<stop  offset="1" style="stop-color:#FFFFFF;stop-opacity:0"/>
		</linearGradient>
		<path class="st4" d="M323.97,48.16c-0.14,0-0.28,0-0.41-0.01c-3.41-0.12-6.52-1.6-8.77-4.19c-3.96-4.54-3.96-11.4,0-15.94
			c2.25-2.58,5.36-4.07,8.77-4.19c3.35-0.12,6.65,1.18,9.02,3.55c0.19,0.19,0.19,0.5,0,0.69s-0.5,0.19-0.69,0
			c-2.18-2.18-5.21-3.38-8.3-3.27c-3.13,0.11-6,1.48-8.07,3.85c-3.64,4.18-3.64,10.48,0,14.66c2.07,2.38,4.93,3.74,8.07,3.85
			c3.09,0.1,6.11-1.09,8.3-3.27c0.19-0.19,0.5-0.19,0.69,0s0.19,0.5,0,0.69C330.3,46.88,327.18,48.16,323.97,48.16z"/>
	</g>
</g>
<g id="Layer_1">
	<linearGradient id="SVGID_4_" gradientUnits="userSpaceOnUse" x1="89.2463" y1="103.8475" x2="270.766" y2="256.1606">
		<stop  offset="0" style="stop-color:#FFE390"/>
		<stop  offset="0.6147" style="stop-color:#FECE0D"/>
	</linearGradient>
	<path class="st5" d="M195.24,298.25c-1.85,0-3.47-1.37-3.71-3.26c-0.27-2.05,1.18-3.94,3.23-4.2c0.41-0.05,0.81-0.11,1.21-0.17
		c2.04-0.29,3.95,1.13,4.24,3.18c0.29,2.05-1.13,3.95-3.18,4.24c-0.43,0.06-0.87,0.12-1.3,0.18
		C195.57,298.24,195.4,298.25,195.24,298.25z M163.64,298.1c-0.18,0-0.36-0.01-0.53-0.04l-1.29-0.19c-2.05-0.31-3.45-2.22-3.14-4.27
		s2.23-3.45,4.27-3.14l1.22,0.18c2.05,0.29,3.48,2.19,3.18,4.24C167.08,296.75,165.48,298.1,163.64,298.1z M226.88,289.34
		c-1.44,0-2.81-0.83-3.43-2.23c-0.84-1.89,0.01-4.11,1.9-4.95c0.37-0.16,0.74-0.33,1.11-0.5c1.89-0.87,4.11-0.04,4.97,1.84
		c0.86,1.88,0.04,4.11-1.84,4.97c-0.4,0.18-0.79,0.36-1.19,0.54C227.91,289.24,227.39,289.34,226.88,289.34z M132.08,288.88
		c-0.52,0-1.05-0.11-1.55-0.34c-0.4-0.18-0.8-0.37-1.2-0.55c-1.87-0.88-2.68-3.12-1.79-4.99c0.88-1.87,3.12-2.67,4.99-1.79
		c0.37,0.17,0.74,0.35,1.11,0.52c1.88,0.86,2.72,3.08,1.86,4.97C134.87,288.06,133.51,288.88,132.08,288.88z M254.7,271.85
		c-1.06,0-2.12-0.45-2.86-1.32c-1.34-1.58-1.15-3.95,0.43-5.29c0.31-0.26,0.62-0.53,0.93-0.8c1.56-1.36,3.93-1.19,5.29,0.37
		c1.36,1.56,1.19,3.93-0.37,5.29c-0.33,0.29-0.66,0.57-1,0.85C256.42,271.56,255.56,271.85,254.7,271.85z M104.43,271.1
		c-0.87,0-1.74-0.3-2.45-0.92c-0.33-0.29-0.66-0.58-0.99-0.87c-1.55-1.38-1.69-3.75-0.31-5.29s3.75-1.69,5.29-0.31
		c0.3,0.27,0.61,0.54,0.92,0.81c1.56,1.36,1.73,3.72,0.38,5.29C106.52,270.66,105.48,271.1,104.43,271.1z M276.49,247.24
		c-0.71,0-1.43-0.2-2.06-0.62c-1.73-1.14-2.2-3.47-1.06-5.2c0.22-0.34,0.45-0.68,0.67-1.03c1.12-1.74,3.44-2.24,5.18-1.12
		c1.74,1.12,2.24,3.44,1.12,5.18c-0.24,0.37-0.48,0.74-0.72,1.1C278.91,246.65,277.71,247.24,276.49,247.24z M82.88,246.28
		c-1.23,0-2.44-0.61-3.16-1.72c-0.24-0.37-0.47-0.73-0.7-1.1c-1.1-1.75-0.57-4.07,1.18-5.17c1.76-1.1,4.07-0.57,5.17,1.18
		c0.22,0.35,0.43,0.69,0.66,1.03c1.12,1.74,0.62,4.06-1.12,5.18C84.28,246.09,83.58,246.28,82.88,246.28z M290.49,217.5
		c-0.36,0-0.73-0.05-1.1-0.16c-1.98-0.6-3.1-2.7-2.49-4.68c0.12-0.39,0.23-0.78,0.35-1.17c0.58-1.99,2.66-3.13,4.65-2.55
		c1.99,0.58,3.13,2.66,2.55,4.65c-0.12,0.42-0.25,0.84-0.38,1.26C293.59,216.46,292.1,217.5,290.49,217.5z M69.18,216.41
		c-1.62,0-3.11-1.06-3.59-2.69c-0.12-0.42-0.25-0.84-0.36-1.26c-0.56-1.99,0.6-4.07,2.59-4.63c1.99-0.56,4.06,0.6,4.63,2.59
		c0.11,0.39,0.22,0.78,0.34,1.18c0.59,1.99-0.55,4.07-2.53,4.66C69.89,216.36,69.53,216.41,69.18,216.41z M295.49,185.02
		c-0.01,0-0.03,0-0.04,0c-2.07-0.02-3.73-1.72-3.71-3.79c0-0.41,0.01-0.82,0.01-1.23v-0.25c0-2.07,1.68-3.75,3.75-3.75
		s3.75,1.68,3.75,3.75V180c0,0.44,0,0.88-0.01,1.31C299.22,183.37,297.55,185.02,295.49,185.02z M64.5,183.88
		c-2.07,0-3.75-1.68-3.75-3.75h3.75l-3.75-0.04l0-1.27c0.02-2.06,1.7-3.71,3.75-3.71c0.01,0,0.02,0,0.04,0
		c2.07,0.02,3.73,1.72,3.71,3.79L68.25,180l0,0.13C68.25,182.2,66.57,183.88,64.5,183.88z M291.13,152.19
		c-1.63,0-3.13-1.07-3.6-2.72l-0.34-1.19c-0.59-1.99,0.55-4.07,2.53-4.66c1.99-0.59,4.07,0.55,4.66,2.53l0.36,1.25
		c0.57,1.99-0.59,4.07-2.58,4.64C291.82,152.14,291.47,152.19,291.13,152.19z M69.11,151.34c-0.35,0-0.7-0.05-1.05-0.15
		c-1.99-0.58-3.13-2.66-2.55-4.65c0.12-0.42,0.25-0.84,0.37-1.25c0.6-1.98,2.69-3.1,4.67-2.51c1.98,0.6,3.1,2.69,2.51,4.67
		l-0.35,1.18C72.23,150.27,70.74,151.34,69.11,151.34z M277.74,122.18c-1.25,0-2.47-0.62-3.18-1.76c-0.21-0.34-0.43-0.68-0.65-1.02
		c-1.13-1.74-0.63-4.06,1.11-5.19c1.74-1.13,4.06-0.63,5.19,1.11c0.24,0.37,0.48,0.74,0.71,1.11c1.1,1.75,0.57,4.07-1.18,5.17
		C279.11,121.99,278.42,122.18,277.74,122.18z M82.74,121.43c-0.69,0-1.39-0.19-2.02-0.59c-1.74-1.12-2.25-3.44-1.14-5.18
		c0.24-0.37,0.48-0.74,0.72-1.11c1.14-1.73,3.46-2.21,5.2-1.07c1.73,1.14,2.21,3.47,1.07,5.2c-0.22,0.34-0.45,0.68-0.67,1.03
		C85.18,120.82,83.97,121.43,82.74,121.43z M256.43,97.15c-0.88,0-1.77-0.31-2.48-0.94l-0.93-0.81c-1.56-1.36-1.73-3.72-0.38-5.29
		c1.36-1.56,3.72-1.73,5.29-0.38l0.98,0.86c1.56,1.37,1.71,3.74,0.34,5.29C258.5,96.72,257.47,97.15,256.43,97.15z M104.25,96.56
		c-1.05,0-2.09-0.44-2.83-1.29c-1.36-1.56-1.19-3.93,0.37-5.29c0.33-0.29,0.66-0.57,0.99-0.86c1.58-1.34,3.95-1.15,5.29,0.43
		c1.34,1.58,1.15,3.95-0.43,5.29c-0.31,0.26-0.62,0.53-0.93,0.8C105.99,96.26,105.12,96.56,104.25,96.56z M228.95,79.11
		c-0.53,0-1.07-0.11-1.58-0.35l-1.12-0.52c-1.88-0.86-2.72-3.08-1.86-4.97c0.86-1.88,3.08-2.72,4.97-1.86l1.19,0.55
		c1.88,0.88,2.69,3.11,1.81,4.98C231.72,78.31,230.36,79.11,228.95,79.11z M131.86,78.73c-1.42,0-2.78-0.81-3.41-2.18
		c-0.87-1.88-0.04-4.11,1.84-4.97c0.4-0.18,0.79-0.36,1.19-0.54c1.89-0.85,4.11,0,4.95,1.9c0.84,1.89,0,4.11-1.9,4.95
		c-0.37,0.17-0.74,0.33-1.11,0.5C132.91,78.62,132.38,78.73,131.86,78.73z M197.5,69.57c-0.19,0-0.38-0.01-0.58-0.04
		c-0.4-0.06-0.8-0.12-1.2-0.18c-2.05-0.29-3.48-2.18-3.19-4.23c0.29-2.05,2.19-3.49,4.23-3.19c0.44,0.06,0.87,0.12,1.31,0.19
		c2.05,0.32,3.45,2.23,3.13,4.28C200.91,68.24,199.32,69.57,197.5,69.57z M163.37,69.44c-1.84,0-3.44-1.35-3.71-3.22
		c-0.29-2.05,1.13-3.95,3.18-4.24c0.43-0.06,0.87-0.12,1.3-0.18c2.05-0.27,3.94,1.18,4.2,3.23c0.27,2.05-1.18,3.94-3.23,4.2
		c-0.41,0.05-0.81,0.11-1.21,0.17C163.72,69.43,163.54,69.44,163.37,69.44z"/>
	<linearGradient id="SVGID_5_" gradientUnits="userSpaceOnUse" x1="73.7161" y1="90.8144" x2="286.2939" y2="269.1884">
		<stop  offset="0" style="stop-color:#FFE390"/>
		<stop  offset="0.6147" style="stop-color:#FECE0D"/>
	</linearGradient>
	<path class="st6" d="M193.1,318.38c-1.27,0-2.36-0.97-2.49-2.26c-0.13-1.37,0.87-2.6,2.24-2.73l1.22-0.12
		c1.39-0.15,2.6,0.86,2.75,2.23c0.14,1.37-0.85,2.6-2.23,2.75l-1.25,0.13C193.26,318.38,193.18,318.38,193.1,318.38z M165.82,318.27
		c-0.09,0-0.17,0-0.26-0.01c-0.42-0.04-0.84-0.09-1.27-0.14c-1.37-0.16-2.35-1.4-2.2-2.77s1.41-2.35,2.77-2.2
		c0.4,0.05,0.8,0.09,1.21,0.13c1.37,0.14,2.37,1.37,2.23,2.74C168.17,317.31,167.08,318.27,165.82,318.27z M221.06,312.72
		c-1.06,0-2.04-0.68-2.38-1.74c-0.42-1.31,0.31-2.72,1.63-3.14l1.17-0.37c1.32-0.43,2.72,0.29,3.15,1.61
		c0.43,1.31-0.29,2.72-1.61,3.15l-1.2,0.38C221.57,312.68,221.31,312.72,221.06,312.72z M137.9,312.39c-0.26,0-0.52-0.04-0.77-0.12
		l-1.2-0.39c-1.31-0.43-2.02-1.85-1.59-3.16c0.43-1.31,1.84-2.03,3.16-1.59l1.17,0.38c1.31,0.42,2.03,1.83,1.61,3.15
		C139.93,311.71,138.95,312.39,137.9,312.39z M247.22,301.33c-0.87,0-1.72-0.45-2.18-1.26c-0.68-1.2-0.26-2.73,0.94-3.41l1.06-0.6
		c1.19-0.69,2.72-0.29,3.42,0.91s0.29,2.72-0.91,3.42l-1.09,0.63C248.07,301.22,247.64,301.33,247.22,301.33z M111.82,300.78
		c-0.42,0-0.85-0.11-1.25-0.33c-0.37-0.21-0.74-0.43-1.1-0.64c-1.19-0.7-1.58-2.24-0.88-3.43c0.71-1.19,2.24-1.58,3.43-0.88
		c0.35,0.21,0.7,0.41,1.05,0.61c1.2,0.69,1.61,2.22,0.92,3.41C113.53,300.33,112.69,300.78,111.82,300.78z M270.44,284.75
		c-0.69,0-1.38-0.28-1.87-0.84c-0.92-1.03-0.82-2.61,0.21-3.53l0.91-0.81c1.03-0.92,2.6-0.84,3.53,0.18
		c0.92,1.03,0.84,2.61-0.18,3.53l-0.94,0.84C271.62,284.54,271.02,284.75,270.44,284.75z M88.74,284.01c-0.6,0-1.19-0.21-1.67-0.64
		l-0.93-0.85c-1.02-0.93-1.09-2.51-0.16-3.53s2.51-1.09,3.53-0.16l0.91,0.82c1.03,0.92,1.11,2.5,0.18,3.53
		C90.1,283.73,89.42,284.01,88.74,284.01z M289.72,263.72c-0.52,0-1.04-0.16-1.49-0.5c-1.11-0.83-1.33-2.39-0.51-3.5
		c0.24-0.32,0.48-0.65,0.72-0.98c0.81-1.11,2.37-1.36,3.49-0.55c1.12,0.81,1.36,2.38,0.55,3.49c-0.25,0.34-0.5,0.69-0.76,1.03
		C291.23,263.37,290.48,263.72,289.72,263.72z M69.63,262.82c-0.77,0-1.53-0.36-2.02-1.03l-0.74-1.02c-0.8-1.12-0.55-2.68,0.58-3.49
		c1.12-0.81,2.68-0.55,3.49,0.58l0.71,0.99c0.81,1.11,0.57,2.68-0.55,3.49C70.65,262.67,70.14,262.82,69.63,262.82z M304.23,239.15
		c-0.35,0-0.7-0.07-1.03-0.23c-1.26-0.57-1.81-2.05-1.24-3.31l0.51-1.12c0.56-1.26,2.04-1.82,3.3-1.26c1.26,0.56,1.82,2.04,1.26,3.3
		l-0.52,1.15C306.09,238.6,305.18,239.15,304.23,239.15z M55.32,238.15c-0.95,0-1.87-0.55-2.28-1.48c-0.17-0.38-0.34-0.77-0.51-1.15
		c-0.55-1.27,0.03-2.74,1.29-3.29c1.27-0.55,2.74,0.03,3.29,1.29c0.16,0.37,0.32,0.74,0.49,1.11c0.56,1.26,0,2.74-1.26,3.3
		C56.01,238.07,55.66,238.15,55.32,238.15z M313.29,212.09c-0.18,0-0.36-0.02-0.54-0.06c-1.35-0.3-2.2-1.63-1.9-2.98l0.26-1.19
		c0.28-1.35,1.61-2.22,2.96-1.93c1.35,0.28,2.21,1.61,1.93,2.96l-0.27,1.24C315.47,211.29,314.43,212.09,313.29,212.09z
		 M46.48,211.02c-1.15,0-2.19-0.8-2.44-1.98l-0.26-1.24c-0.28-1.35,0.6-2.67,1.95-2.95c1.34-0.27,2.67,0.6,2.95,1.95l0.25,1.2
		c0.29,1.35-0.57,2.68-1.92,2.97C46.83,211.01,46.66,211.02,46.48,211.02z M316.49,183.74c0,0-0.01,0-0.02,0
		c-1.38-0.01-2.49-1.14-2.48-2.52L314,180l0-0.31c0-1.38,1.12-2.5,2.5-2.5s2.5,1.12,2.5,2.5l0,0.28l-0.01,1.29
		C318.98,182.64,317.86,183.74,316.49,183.74z M43.5,182.65c-1.38,0-2.5-1.12-2.5-2.5l0-1.26c0.01-1.37,1.13-2.48,2.5-2.48
		c0,0,0.01,0,0.02,0c1.38,0.01,2.49,1.14,2.48,2.52l0,1.23C46,181.53,44.88,182.65,43.5,182.65z M313.74,155.04
		c-1.16,0-2.2-0.81-2.45-1.99l-0.25-1.2c-0.29-1.35,0.57-2.68,1.92-2.97c1.34-0.29,2.68,0.57,2.97,1.92l0.26,1.23
		c0.28,1.35-0.59,2.68-1.94,2.96C314.07,155.03,313.91,155.04,313.74,155.04z M46.42,154.28c-0.17,0-0.34-0.02-0.52-0.05
		c-1.35-0.28-2.21-1.61-1.93-2.96l0.27-1.24c0.3-1.35,1.63-2.21,2.98-1.9c1.35,0.3,2.2,1.63,1.9,2.98l-0.26,1.19
		C48.62,153.47,47.58,154.28,46.42,154.28z M305.12,127.85c-0.96,0-1.88-0.56-2.29-1.5l-0.49-1.11c-0.56-1.26,0-2.74,1.26-3.3
		c1.26-0.57,2.74,0,3.3,1.26l0.51,1.15c0.56,1.26-0.02,2.74-1.28,3.29C305.8,127.78,305.46,127.85,305.12,127.85z M55.2,127.13
		c-0.34,0-0.68-0.07-1.01-0.22c-1.26-0.56-1.83-2.04-1.27-3.3l0.52-1.16c0.57-1.26,2.05-1.82,3.31-1.24
		c1.26,0.57,1.81,2.05,1.24,3.31l-0.5,1.12C57.07,126.58,56.15,127.13,55.2,127.13z M291.01,103.06c-0.78,0-1.55-0.36-2.04-1.05
		c-0.24-0.33-0.47-0.66-0.71-0.99c-0.81-1.11-0.57-2.68,0.55-3.49c1.11-0.81,2.68-0.57,3.49,0.55c0.25,0.34,0.5,0.68,0.74,1.03
		c0.8,1.12,0.54,2.69-0.58,3.49C292.02,102.9,291.52,103.06,291.01,103.06z M69.45,102.41c-0.51,0-1.02-0.16-1.47-0.48
		c-1.12-0.81-1.36-2.38-0.55-3.49l0.75-1.02c0.82-1.11,2.39-1.34,3.5-0.52c1.11,0.82,1.34,2.39,0.52,3.5l-0.72,0.99
		C70.99,102.05,70.22,102.41,69.45,102.41z M272.07,81.72c-0.6,0-1.2-0.22-1.68-0.65l-0.91-0.82c-1.03-0.92-1.11-2.5-0.19-3.53
		c0.92-1.03,2.5-1.11,3.53-0.19l0.94,0.85c1.02,0.93,1.09,2.51,0.16,3.53C273.42,81.45,272.75,81.72,272.07,81.72z M88.53,81.18
		c-0.68,0-1.36-0.28-1.86-0.83c-0.92-1.03-0.84-2.61,0.18-3.53l0.93-0.83c1.03-0.92,2.61-0.83,3.53,0.2
		c0.92,1.03,0.83,2.61-0.2,3.53l-0.92,0.82C89.72,80.97,89.12,81.18,88.53,81.18z M249.12,64.77c-0.43,0-0.87-0.11-1.27-0.35
		l-1.06-0.62c-1.2-0.69-1.61-2.22-0.92-3.41c0.69-1.2,2.22-1.61,3.41-0.92l1.09,0.64c1.19,0.7,1.59,2.23,0.89,3.42
		C250.81,64.33,249.97,64.77,249.12,64.77z M111.57,64.37c-0.86,0-1.7-0.45-2.16-1.25c-0.69-1.2-0.29-2.72,0.91-3.42
		c0.37-0.21,0.73-0.42,1.1-0.63c1.2-0.68,2.73-0.25,3.41,0.95c0.68,1.2,0.25,2.73-0.95,3.41c-0.35,0.2-0.7,0.4-1.05,0.6
		C112.43,64.26,112,64.37,111.57,64.37z M223.14,52.96c-0.26,0-0.53-0.04-0.79-0.13c-0.39-0.13-0.77-0.26-1.16-0.38
		c-1.31-0.42-2.04-1.83-1.61-3.15c0.42-1.31,1.82-2.04,3.15-1.61c0.41,0.13,0.81,0.26,1.21,0.4c1.31,0.44,2.02,1.85,1.58,3.16
		C225.16,52.3,224.19,52.96,223.14,52.96z M137.61,52.71c-1.05,0-2.03-0.67-2.38-1.72c-0.43-1.31,0.28-2.72,1.6-3.15
		c0.4-0.13,0.81-0.26,1.21-0.39c1.32-0.41,2.72,0.32,3.13,1.63c0.42,1.32-0.32,2.72-1.63,3.14c-0.39,0.12-0.77,0.25-1.15,0.37
		C138.13,52.67,137.87,52.71,137.61,52.71z M195.27,46.84c-0.09,0-0.19,0-0.28-0.02l-1.21-0.13c-1.37-0.14-2.37-1.37-2.23-2.74
		c0.14-1.37,1.35-2.37,2.74-2.23l1.26,0.13c1.37,0.15,2.36,1.39,2.21,2.76C197.61,45.9,196.53,46.84,195.27,46.84z M165.51,46.76
		c-1.26,0-2.35-0.95-2.48-2.24c-0.14-1.37,0.85-2.6,2.22-2.75l1.26-0.13c1.39-0.13,2.6,0.87,2.73,2.25c0.13,1.37-0.87,2.6-2.24,2.73
		l-1.22,0.12C165.68,46.76,165.59,46.76,165.51,46.76z"/>
	<linearGradient id="SVGID_6_" gradientUnits="userSpaceOnUse" x1="57.9631" y1="77.5944" x2="302.0446" y2="282.4031">
		<stop  offset="0" style="stop-color:#FFE390"/>
		<stop  offset="0.6147" style="stop-color:#FECE0D"/>
	</linearGradient>
	<path class="st7" d="M191.86,338.93c-0.97,0-1.79-0.75-1.87-1.74c-0.08-1.03,0.7-1.93,1.73-2.01l1.22-0.1
		c1.03-0.07,1.94,0.68,2.02,1.71s-0.68,1.94-1.71,2.02l-1.25,0.1C191.95,338.93,191.9,338.93,191.86,338.93z M167.09,338.85
		c-0.05,0-0.1,0-0.15-0.01l-1.25-0.11c-1.03-0.09-1.79-1-1.7-2.03c0.09-1.03,1.02-1.79,2.03-1.7l1.22,0.1
		c1.03,0.08,1.8,0.99,1.72,2.02C168.88,338.11,168.06,338.85,167.09,338.85z M217.54,334.87c-0.84,0-1.61-0.57-1.82-1.43
		c-0.24-1.01,0.37-2.02,1.38-2.27l1.19-0.29c1.01-0.25,2.02,0.35,2.28,1.36s-0.35,2.02-1.36,2.28l-1.22,0.3
		C217.84,334.86,217.69,334.87,217.54,334.87z M141.43,334.62c-0.15,0-0.31-0.02-0.46-0.06l-1.21-0.31c-1-0.26-1.6-1.28-1.34-2.29
		c0.26-1,1.29-1.6,2.29-1.34l1.19,0.31c1,0.25,1.61,1.27,1.36,2.28C143.04,334.05,142.27,334.62,141.43,334.62z M242.21,326.61
		c-0.73,0-1.42-0.43-1.73-1.14c-0.41-0.95,0.04-2.05,0.99-2.46c0.37-0.16,0.74-0.32,1.11-0.48c0.95-0.42,2.06,0.01,2.47,0.96
		c0.42,0.95-0.01,2.05-0.96,2.47c-0.38,0.17-0.77,0.34-1.15,0.5C242.7,326.57,242.45,326.61,242.21,326.61z M116.81,326.19
		c-0.25,0-0.51-0.05-0.75-0.16l-1.15-0.51c-0.94-0.42-1.37-1.53-0.94-2.48s1.53-1.37,2.48-0.94l1.12,0.5
		c0.95,0.42,1.38,1.52,0.97,2.47C118.23,325.77,117.54,326.19,116.81,326.19z M265.15,314.4c-0.62,0-1.22-0.3-1.58-0.86
		c-0.56-0.87-0.31-2.03,0.56-2.59l1.03-0.67c0.86-0.56,2.03-0.32,2.6,0.54c0.57,0.87,0.32,2.03-0.54,2.6l-1.05,0.68
		C265.85,314.3,265.49,314.4,265.15,314.4z M93.93,313.8c-0.35,0-0.71-0.1-1.03-0.31l-1.04-0.69c-0.86-0.57-1.1-1.73-0.53-2.6
		c0.57-0.86,1.73-1.1,2.6-0.53l1.03,0.68c0.87,0.57,1.11,1.73,0.54,2.6C95.14,313.5,94.54,313.8,93.93,313.8z M285.77,298.57
		c-0.51,0-1.02-0.21-1.39-0.61c-0.7-0.77-0.64-1.95,0.13-2.65l0.91-0.83c0.76-0.7,1.95-0.65,2.65,0.11c0.7,0.76,0.65,1.95-0.11,2.65
		l-0.92,0.84C286.67,298.41,286.22,298.57,285.77,298.57z M73.41,297.82c-0.45,0-0.91-0.16-1.27-0.49l-0.92-0.85
		c-0.76-0.71-0.8-1.89-0.09-2.65c0.71-0.76,1.89-0.8,2.65-0.09l0.9,0.83c0.76,0.7,0.81,1.89,0.11,2.65
		C74.42,297.62,73.91,297.82,73.41,297.82z M303.54,279.58c-0.41,0-0.82-0.13-1.16-0.41c-0.81-0.64-0.95-1.82-0.3-2.63l0.76-0.96
		c0.64-0.82,1.81-0.96,2.63-0.33c0.82,0.64,0.96,1.82,0.33,2.63l-0.78,0.99C304.64,279.34,304.09,279.58,303.54,279.58z
		 M55.78,278.71c-0.56,0-1.11-0.25-1.48-0.72l-0.77-0.99c-0.63-0.82-0.47-2,0.35-2.63c0.82-0.63,2-0.47,2.63,0.35l0.75,0.97
		c0.64,0.82,0.49,1.99-0.33,2.63C56.58,278.58,56.18,278.71,55.78,278.71z M317.96,257.92c-0.31,0-0.62-0.07-0.9-0.23
		c-0.91-0.5-1.24-1.64-0.74-2.55l0.59-1.08c0.49-0.91,1.63-1.25,2.54-0.75s1.25,1.63,0.75,2.54l-0.6,1.1
		C319.26,257.57,318.62,257.92,317.96,257.92z M41.52,256.97c-0.67,0-1.31-0.36-1.65-0.98l-0.59-1.1c-0.49-0.91-0.14-2.05,0.77-2.54
		c0.91-0.49,2.05-0.14,2.54,0.77l0.58,1.08c0.49,0.91,0.16,2.05-0.75,2.54C42.13,256.89,41.82,256.97,41.52,256.97z M328.61,234.18
		c-0.21,0-0.42-0.03-0.62-0.11c-0.98-0.34-1.49-1.42-1.14-2.39c0.14-0.38,0.27-0.77,0.4-1.16c0.34-0.98,1.4-1.5,2.38-1.17
		c0.98,0.34,1.5,1.4,1.17,2.38c-0.14,0.4-0.28,0.8-0.42,1.19C330.1,233.7,329.38,234.18,328.61,234.18z M31.04,233.17
		c-0.78,0-1.51-0.49-1.77-1.27l-0.4-1.19c-0.33-0.98,0.2-2.04,1.18-2.38c0.99-0.33,2.05,0.2,2.38,1.18l0.4,1.16
		c0.34,0.98-0.18,2.05-1.16,2.38C31.45,233.13,31.24,233.17,31.04,233.17z M335.17,209.01c-0.11,0-0.21-0.01-0.32-0.03
		c-1.02-0.18-1.7-1.15-1.53-2.17l0.2-1.21c0.17-1.02,1.13-1.71,2.16-1.55c1.02,0.17,1.71,1.13,1.55,2.16l-0.21,1.24
		C336.86,208.37,336.07,209.01,335.17,209.01z M24.65,207.96c-0.9,0-1.69-0.65-1.85-1.56l-0.2-1.24c-0.16-1.02,0.53-1.98,1.56-2.15
		c1.03-0.16,1.98,0.53,2.15,1.56l0.2,1.21c0.17,1.02-0.52,1.99-1.54,2.16C24.85,207.95,24.75,207.96,24.65,207.96z M337.5,183.12
		c0,0-0.01,0-0.01,0c-1.04-0.01-1.87-0.86-1.86-1.89l0-1.22l0-0.35c0-1.04,0.84-1.88,1.88-1.88s1.88,0.84,1.88,1.88l0,0.33l0,1.28
		C339.36,182.29,338.52,183.12,337.5,183.12z M22.5,182.04c-1.04,0-1.88-0.84-1.88-1.88l0-1.25c0.01-1.03,0.84-1.86,1.88-1.86
		c0,0,0.01,0,0.01,0c1.04,0.01,1.87,0.85,1.86,1.89l0,1.23C24.38,181.2,23.54,182.04,22.5,182.04z M335.52,156.83
		c-0.91,0-1.7-0.66-1.85-1.58l-0.2-1.21c-0.17-1.02,0.52-1.99,1.54-2.16c1.02-0.17,1.99,0.52,2.16,1.54l0.2,1.24
		c0.16,1.02-0.53,1.98-1.56,2.15C335.71,156.82,335.62,156.83,335.52,156.83z M24.6,156.12c-0.1,0-0.2-0.01-0.31-0.02
		c-1.02-0.17-1.71-1.13-1.55-2.16l0.21-1.24c0.18-1.02,1.14-1.71,2.17-1.53c1.02,0.18,1.7,1.15,1.53,2.17l-0.2,1.21
		C26.29,155.47,25.5,156.12,24.6,156.12z M329.3,131.58c-0.78,0-1.51-0.49-1.78-1.28c-0.13-0.39-0.26-0.77-0.39-1.16
		c-0.34-0.98,0.18-2.05,1.16-2.39c0.97-0.34,2.05,0.18,2.39,1.16c0.14,0.4,0.27,0.79,0.41,1.19c0.33,0.98-0.2,2.04-1.18,2.37
		C329.7,131.55,329.5,131.58,329.3,131.58z M30.93,130.9c-0.2,0-0.41-0.03-0.61-0.1c-0.98-0.34-1.5-1.4-1.17-2.38l0.41-1.19
		c0.34-0.98,1.41-1.49,2.39-1.15c0.98,0.34,1.49,1.41,1.15,2.39l-0.4,1.16C32.44,130.41,31.71,130.9,30.93,130.9z M318.99,107.72
		c-0.67,0-1.31-0.36-1.65-0.99l-0.58-1.08c-0.5-0.91-0.16-2.05,0.75-2.54s2.05-0.16,2.54,0.75l0.59,1.1
		c0.49,0.91,0.15,2.05-0.76,2.54C319.59,107.65,319.29,107.72,318.99,107.72z M41.37,107.06c-0.3,0-0.61-0.07-0.89-0.22
		c-0.91-0.49-1.25-1.63-0.76-2.54l0.6-1.1c0.5-0.91,1.64-1.24,2.55-0.74c0.91,0.5,1.24,1.64,0.74,2.55l-0.59,1.08
		C42.68,106.71,42.03,107.06,41.37,107.06z M304.88,85.89c-0.56,0-1.12-0.25-1.49-0.73l-0.75-0.97c-0.64-0.82-0.49-1.99,0.32-2.63
		c0.82-0.64,1.99-0.49,2.63,0.32l0.77,0.99c0.63,0.82,0.48,2-0.34,2.63C305.69,85.76,305.28,85.89,304.88,85.89z M55.59,85.28
		c-0.4,0-0.81-0.13-1.15-0.39c-0.82-0.63-0.97-1.81-0.33-2.63c0.26-0.33,0.52-0.66,0.78-0.99c0.64-0.81,1.82-0.95,2.63-0.31
		c0.81,0.64,0.95,1.82,0.31,2.63l-0.75,0.96C56.7,85.03,56.15,85.28,55.59,85.28z M287.38,66.66c-0.46,0-0.92-0.17-1.28-0.51
		l-0.9-0.83c-0.76-0.7-0.81-1.89-0.11-2.65c0.7-0.76,1.89-0.81,2.65-0.11l0.92,0.85c0.76,0.71,0.8,1.89,0.09,2.65
		C288.38,66.46,287.88,66.66,287.38,66.66z M73.19,66.13c-0.5,0-1.01-0.2-1.38-0.6c-0.7-0.76-0.66-1.95,0.1-2.65l0.93-0.85
		c0.77-0.69,1.95-0.64,2.65,0.13c0.7,0.77,0.64,1.95-0.13,2.65l-0.9,0.83C74.1,65.96,73.64,66.13,73.19,66.13z M266.96,50.54
		c-0.36,0-0.72-0.1-1.03-0.31l-1.03-0.68c-0.87-0.57-1.11-1.73-0.54-2.6c0.57-0.87,1.73-1.11,2.6-0.54L268,47.1
		c0.86,0.57,1.1,1.74,0.53,2.6C268.17,50.25,267.57,50.54,266.96,50.54z M93.68,50.12c-0.61,0-1.21-0.3-1.57-0.84
		c-0.57-0.86-0.33-2.03,0.54-2.6l1.05-0.68c0.87-0.56,2.03-0.31,2.59,0.56c0.56,0.87,0.31,2.03-0.56,2.59l-1.02,0.67
		C94.39,50.02,94.03,50.12,93.68,50.12z M244.17,38c-0.26,0-0.52-0.05-0.76-0.16l-1.12-0.5c-0.95-0.42-1.38-1.52-0.97-2.47
		c0.42-0.95,1.52-1.38,2.47-0.97l1.15,0.51c0.94,0.42,1.37,1.53,0.95,2.48C245.57,37.58,244.89,38,244.17,38z M116.51,37.7
		c-0.72,0-1.41-0.42-1.72-1.12c-0.42-0.95,0.01-2.05,0.96-2.47l1.15-0.5c0.95-0.41,2.05,0.03,2.46,0.98
		c0.41,0.95-0.03,2.05-0.98,2.46l-1.12,0.49C117.02,37.64,116.76,37.7,116.51,37.7z M219.61,29.4c-0.16,0-0.31-0.02-0.47-0.06
		l-1.19-0.3c-1-0.25-1.61-1.27-1.36-2.27c0.25-1,1.27-1.61,2.28-1.36l1.22,0.31c1,0.26,1.61,1.28,1.35,2.29
		C221.2,28.84,220.44,29.4,219.61,29.4z M141.09,29.22c-0.84,0-1.6-0.56-1.82-1.41c-0.26-1,0.35-2.02,1.35-2.28l1.22-0.3
		c1.01-0.25,2.02,0.37,2.27,1.38c0.25,1.01-0.37,2.02-1.38,2.27l-1.19,0.3C141.4,29.2,141.24,29.22,141.09,29.22z M193.98,24.99
		c-0.05,0-0.11,0-0.17-0.01l-1.22-0.1c-1.03-0.08-1.8-0.99-1.72-2.02c0.08-1.03,1.01-1.81,2.02-1.72l1.25,0.1
		c1.03,0.09,1.79,1,1.7,2.03C195.76,24.25,194.94,24.99,193.98,24.99z M166.73,24.93c-0.96,0-1.78-0.74-1.87-1.72
		c-0.09-1.03,0.68-1.94,1.71-2.02l1.25-0.1c1.04-0.07,1.93,0.7,2.01,1.73c0.08,1.03-0.7,1.93-1.73,2.01l-1.22,0.1
		C166.84,24.92,166.79,24.93,166.73,24.93z"/>
	<radialGradient id="SVGID_7_" cx="180" cy="180" r="105.625" gradientUnits="userSpaceOnUse">
		<stop  offset="0.2536" style="stop-color:#FECE0D;stop-opacity:0"/>
		<stop  offset="1" style="stop-color:#FECE0D"/>
	</radialGradient>
	<path class="st8" d="M257.23,251.97c0.43-0.46,0.86-0.93,1.29-1.4c0.14-0.16,0.28-0.32,0.42-0.48c0.42-0.47,0.83-0.94,1.24-1.41
		c0.14-0.17,0.28-0.34,0.43-0.5c0.4-0.47,0.79-0.94,1.18-1.42c0.15-0.18,0.29-0.36,0.44-0.54c0.38-0.47,0.76-0.94,1.13-1.42
		c0.15-0.19,0.29-0.38,0.44-0.58c0.36-0.47,0.73-0.95,1.08-1.43c0.15-0.2,0.3-0.41,0.45-0.61c0.34-0.47,0.69-0.94,1.03-1.42
		c0.15-0.22,0.31-0.44,0.46-0.66c0.33-0.47,0.65-0.94,0.97-1.41c0.15-0.23,0.3-0.46,0.46-0.69c0.31-0.47,0.62-0.94,0.93-1.42
		c0.15-0.24,0.3-0.48,0.45-0.72c0.3-0.47,0.59-0.94,0.88-1.42c0.15-0.25,0.3-0.51,0.45-0.77c0.28-0.47,0.55-0.94,0.83-1.41
		c0.15-0.27,0.3-0.54,0.46-0.81c0.26-0.47,0.52-0.93,0.77-1.4c0.15-0.28,0.3-0.57,0.45-0.85c0.25-0.46,0.49-0.93,0.73-1.4
		c0.15-0.3,0.3-0.59,0.44-0.89c0.23-0.46,0.46-0.92,0.68-1.39c0.15-0.31,0.29-0.62,0.43-0.93c0.21-0.46,0.43-0.92,0.64-1.38
		c0.14-0.32,0.28-0.64,0.42-0.96c0.2-0.46,0.4-0.92,0.6-1.38c0.14-0.33,0.27-0.66,0.41-0.99c0.19-0.46,0.38-0.92,0.56-1.38
		c0.13-0.34,0.26-0.69,0.39-1.03c0.17-0.45,0.35-0.91,0.51-1.36c0.13-0.36,0.25-0.71,0.38-1.07c0.16-0.45,0.32-0.9,0.47-1.35
		c0.12-0.37,0.24-0.74,0.36-1.11c0.15-0.45,0.29-0.89,0.43-1.34c0.12-0.38,0.23-0.77,0.34-1.15c0.13-0.44,0.27-0.88,0.39-1.33
		c0.11-0.39,0.21-0.79,0.32-1.19c0.12-0.44,0.24-0.88,0.35-1.32c0.1-0.4,0.2-0.81,0.3-1.22c0.11-0.44,0.22-0.87,0.32-1.31
		c0.1-0.41,0.18-0.83,0.27-1.25c0.09-0.43,0.19-0.87,0.28-1.3c0.09-0.42,0.16-0.85,0.25-1.28c0.08-0.43,0.17-0.86,0.25-1.29
		c0.08-0.44,0.15-0.88,0.22-1.32c0.07-0.43,0.15-0.85,0.21-1.28c0.07-0.46,0.13-0.92,0.19-1.38c0.06-0.41,0.12-0.82,0.17-1.24
		c0.06-0.47,0.11-0.94,0.16-1.41c0.05-0.41,0.1-0.82,0.14-1.23c0.05-0.48,0.09-0.97,0.13-1.46c0.03-0.4,0.08-0.8,0.11-1.2
		c0.04-0.53,0.07-1.05,0.1-1.58c0.02-0.36,0.05-0.73,0.07-1.09c0.03-0.57,0.05-1.13,0.06-1.7c0.01-0.33,0.03-0.66,0.04-0.99
		c0.02-0.9,0.03-1.8,0.03-2.71c0-0.12,0-0.24,0-0.35c0-0.08,0-0.15,0-0.23c0-0.36-0.01-0.72-0.02-1.07
		c-0.14-8.99-1.41-17.7-3.66-26.02c0,0,0,0,0,0c-0.22-0.82-0.46-1.65-0.7-2.46c0-0.01-0.01-0.02-0.01-0.03
		c-0.24-0.81-0.49-1.61-0.75-2.41c-0.01-0.02-0.01-0.04-0.02-0.05c-0.26-0.79-0.52-1.58-0.8-2.36c-0.01-0.03-0.02-0.05-0.03-0.08
		c-0.27-0.77-0.55-1.54-0.84-2.3c-0.01-0.04-0.03-0.08-0.04-0.12c-0.29-0.75-0.58-1.49-0.88-2.24c-0.02-0.05-0.04-0.1-0.06-0.15
		c-0.3-0.73-0.6-1.45-0.92-2.17c-0.03-0.06-0.05-0.13-0.08-0.19c-0.31-0.71-0.63-1.41-0.95-2.1c-0.04-0.08-0.07-0.15-0.11-0.23
		c-0.32-0.68-0.64-1.36-0.98-2.03c-0.04-0.09-0.09-0.18-0.13-0.27c-0.33-0.66-0.66-1.31-1-1.96c-0.05-0.1-0.11-0.21-0.16-0.31
		c-0.33-0.63-0.67-1.26-1.02-1.88c-0.07-0.12-0.13-0.24-0.2-0.36c-0.34-0.6-0.68-1.2-1.03-1.8c-0.08-0.14-0.16-0.28-0.24-0.42
		c-0.34-0.57-0.69-1.14-1.04-1.71c-0.1-0.16-0.19-0.31-0.29-0.47c-0.34-0.55-0.69-1.09-1.04-1.63c-0.11-0.17-0.22-0.34-0.33-0.51
		c-0.34-0.52-0.69-1.04-1.04-1.55c-0.13-0.19-0.25-0.37-0.38-0.56c-0.34-0.49-0.69-0.98-1.04-1.46c-0.15-0.2-0.29-0.41-0.44-0.61
		c-0.34-0.46-0.68-0.92-1.02-1.38c-0.17-0.22-0.33-0.44-0.5-0.66c-0.33-0.44-0.67-0.87-1.01-1.3c-0.18-0.23-0.37-0.47-0.55-0.7
		c-0.33-0.41-0.66-0.82-1-1.22c-0.21-0.25-0.41-0.5-0.62-0.74c-0.32-0.38-0.65-0.76-0.97-1.13c-0.23-0.26-0.46-0.53-0.69-0.79
		c-0.31-0.35-0.63-0.7-0.95-1.05c-0.25-0.28-0.5-0.55-0.76-0.83c-0.3-0.33-0.61-0.65-0.92-0.97c-0.28-0.29-0.56-0.58-0.84-0.87
		c-0.29-0.3-0.59-0.6-0.88-0.89c-0.3-0.3-0.61-0.61-0.92-0.91c-0.28-0.27-0.56-0.54-0.85-0.81c-0.33-0.31-0.66-0.63-0.99-0.94
		c-0.27-0.25-0.54-0.5-0.81-0.75c-0.35-0.32-0.71-0.64-1.07-0.96c-0.26-0.23-0.51-0.45-0.77-0.68c-0.38-0.33-0.76-0.66-1.15-0.99
		c-0.24-0.2-0.48-0.41-0.73-0.61c-0.41-0.34-0.82-0.68-1.23-1.01c-0.23-0.18-0.45-0.36-0.68-0.54c-0.44-0.35-0.88-0.69-1.32-1.03
		c-0.21-0.16-0.42-0.32-0.63-0.48c-0.47-0.35-0.93-0.7-1.41-1.05c-0.19-0.14-0.39-0.28-0.58-0.42c-0.49-0.35-0.99-0.71-1.49-1.05
		c-0.18-0.12-0.36-0.25-0.54-0.37c-0.52-0.36-1.04-0.71-1.57-1.05c-0.16-0.11-0.33-0.21-0.49-0.32c-0.55-0.36-1.1-0.71-1.65-1.06
		c-0.15-0.09-0.29-0.18-0.44-0.27c-0.58-0.36-1.16-0.71-1.74-1.05c-0.13-0.08-0.26-0.15-0.39-0.23c-0.6-0.35-1.21-0.7-1.82-1.04
		c-0.11-0.06-0.23-0.13-0.34-0.19c-0.63-0.35-1.26-0.69-1.9-1.03c-0.1-0.05-0.2-0.1-0.29-0.15c-0.66-0.34-1.31-0.68-1.98-1.01
		c-0.09-0.04-0.17-0.08-0.26-0.13c-0.68-0.34-1.36-0.66-2.05-0.98c-0.07-0.03-0.14-0.07-0.21-0.1c-0.7-0.33-1.41-0.65-2.12-0.96
		c-0.06-0.03-0.12-0.05-0.18-0.08c-0.72-0.32-1.45-0.62-2.18-0.92c-0.05-0.02-0.09-0.04-0.14-0.06c-0.75-0.3-1.5-0.6-2.25-0.89
		c-0.03-0.01-0.07-0.03-0.1-0.04c-0.77-0.29-1.54-0.57-2.31-0.85c-0.02-0.01-0.04-0.02-0.07-0.02c-0.79-0.28-1.58-0.55-2.37-0.8
		c-0.01,0-0.03-0.01-0.04-0.01c-0.8-0.26-1.61-0.51-2.42-0.76c0,0-0.01,0-0.02,0c-9.05-2.7-18.61-4.22-28.5-4.37
		c-0.36-0.01-0.71-0.02-1.07-0.02c-0.08,0-0.15,0-0.23,0c-0.12,0-0.24,0-0.35,0c-0.91,0-1.81,0.01-2.71,0.03
		c-0.33,0.01-0.66,0.03-0.99,0.04c-0.57,0.02-1.14,0.04-1.7,0.07c-0.36,0.02-0.73,0.05-1.09,0.07c-0.53,0.03-1.06,0.06-1.58,0.1
		c-0.4,0.03-0.8,0.07-1.2,0.11c-0.49,0.04-0.97,0.08-1.46,0.13c-0.41,0.04-0.82,0.09-1.23,0.14c-0.47,0.05-0.94,0.1-1.41,0.16
		c-0.41,0.05-0.82,0.11-1.24,0.17c-0.46,0.06-0.92,0.12-1.38,0.19c-0.43,0.07-0.85,0.14-1.28,0.21c-0.44,0.07-0.88,0.14-1.32,0.22
		c-0.43,0.08-0.86,0.16-1.29,0.25c-0.43,0.08-0.86,0.16-1.28,0.25c-0.43,0.09-0.86,0.19-1.3,0.28c-0.42,0.09-0.84,0.18-1.25,0.27
		c-0.44,0.1-0.87,0.21-1.31,0.32c-0.41,0.1-0.82,0.19-1.22,0.3c-0.44,0.11-0.87,0.23-1.31,0.35c-0.4,0.11-0.8,0.21-1.19,0.32
		c-0.44,0.13-0.88,0.26-1.32,0.39c-0.39,0.11-0.77,0.23-1.16,0.35c-0.45,0.14-0.89,0.29-1.34,0.43c-0.37,0.12-0.75,0.24-1.12,0.36
		c-0.45,0.15-0.9,0.31-1.35,0.47c-0.36,0.13-0.72,0.25-1.08,0.38c-0.45,0.17-0.9,0.34-1.36,0.51c-0.35,0.13-0.7,0.26-1.04,0.4
		c-0.46,0.18-0.91,0.37-1.37,0.56c-0.33,0.14-0.67,0.27-1,0.41c-0.46,0.19-0.92,0.4-1.37,0.6c-0.32,0.14-0.65,0.28-0.97,0.42
		c-0.46,0.21-0.92,0.42-1.37,0.64c-0.31,0.15-0.62,0.29-0.94,0.44c-0.46,0.22-0.92,0.45-1.38,0.68c-0.3,0.15-0.6,0.3-0.9,0.45
		c-0.46,0.24-0.92,0.48-1.39,0.72c-0.29,0.15-0.58,0.3-0.86,0.46c-0.46,0.25-0.93,0.51-1.39,0.77c-0.28,0.15-0.55,0.31-0.83,0.46
		c-0.47,0.27-0.93,0.54-1.39,0.81c-0.26,0.16-0.53,0.31-0.79,0.47c-0.47,0.28-0.94,0.57-1.4,0.86c-0.25,0.15-0.5,0.31-0.74,0.46
		c-0.47,0.3-0.94,0.61-1.41,0.92c-0.23,0.15-0.47,0.31-0.7,0.46c-0.47,0.32-0.94,0.64-1.41,0.97c-0.22,0.15-0.45,0.31-0.67,0.46
		c-0.47,0.33-0.94,0.67-1.41,1.01c-0.21,0.15-0.42,0.31-0.63,0.46c-0.47,0.35-0.94,0.71-1.41,1.07c-0.2,0.15-0.39,0.3-0.59,0.45
		c-0.47,0.37-0.94,0.75-1.41,1.12c-0.18,0.15-0.37,0.3-0.55,0.44c-0.47,0.39-0.94,0.78-1.41,1.18c-0.17,0.15-0.35,0.29-0.52,0.44
		c-0.47,0.4-0.94,0.81-1.4,1.23c-0.16,0.14-0.32,0.29-0.48,0.43c-0.47,0.42-0.93,0.85-1.39,1.28c-0.15,0.14-0.3,0.28-0.45,0.42
		c-0.47,0.44-0.93,0.89-1.39,1.34c-0.14,0.14-0.28,0.27-0.42,0.41c-0.46,0.46-0.92,0.92-1.38,1.39c-0.13,0.13-0.26,0.26-0.39,0.4
		c-0.46,0.48-0.91,0.96-1.36,1.44c-0.12,0.13-0.24,0.25-0.35,0.38c-0.46,0.49-0.9,0.99-1.35,1.5c-0.11,0.12-0.22,0.24-0.33,0.37
		c-0.45,0.51-0.9,1.03-1.34,1.56c-0.1,0.11-0.2,0.23-0.29,0.34c-0.45,0.53-0.89,1.07-1.32,1.61c-0.09,0.11-0.18,0.22-0.26,0.33
		c-0.44,0.55-0.87,1.11-1.3,1.67c-0.08,0.1-0.16,0.21-0.24,0.31c-0.43,0.57-0.86,1.14-1.28,1.72c-0.07,0.1-0.15,0.2-0.22,0.3
		c-0.42,0.58-0.84,1.17-1.25,1.77c-0.07,0.09-0.13,0.19-0.2,0.28c-0.42,0.6-0.82,1.21-1.23,1.83c-0.06,0.09-0.11,0.17-0.17,0.26
		c-0.41,0.62-0.81,1.25-1.2,1.88c-0.05,0.08-0.1,0.16-0.15,0.24c-0.4,0.64-0.78,1.28-1.17,1.93c-0.04,0.08-0.09,0.15-0.14,0.23
		c-0.39,0.66-0.76,1.31-1.13,1.98c-0.04,0.07-0.08,0.14-0.12,0.21c-0.37,0.67-0.74,1.35-1.1,2.03c-0.03,0.06-0.07,0.12-0.1,0.18
		c-0.36,0.69-0.72,1.38-1.06,2.08c-0.03,0.06-0.06,0.12-0.09,0.17c-0.35,0.7-0.69,1.41-1.02,2.13c-0.02,0.05-0.05,0.1-0.07,0.15
		c-0.34,0.72-0.66,1.45-0.98,2.18c-0.02,0.04-0.04,0.09-0.06,0.13c-0.32,0.74-0.63,1.48-0.94,2.22c-0.02,0.04-0.03,0.08-0.05,0.12
		c-0.31,0.75-0.6,1.51-0.89,2.27c-0.01,0.03-0.03,0.07-0.04,0.1c-0.29,0.77-0.57,1.54-0.85,2.31c-0.01,0.03-0.02,0.06-0.03,0.09
		c-0.27,0.78-0.54,1.56-0.8,2.35c-0.01,0.03-0.02,0.05-0.03,0.08c-0.26,0.79-0.5,1.58-0.74,2.38c-0.01,0.02-0.01,0.04-0.02,0.07
		c-0.24,0.8-0.47,1.61-0.69,2.42c0,0.02-0.01,0.04-0.01,0.05c-0.22,0.81-0.43,1.63-0.63,2.45c0,0.02-0.01,0.03-0.01,0.05
		c-0.2,0.83-0.4,1.66-0.58,2.49c0,0.01,0,0.02-0.01,0.03c-0.18,0.84-0.36,1.68-0.52,2.53l0,0.02c-0.16,0.85-0.32,1.7-0.46,2.56
		c0,0,0,0.01,0,0.01c-0.14,0.86-0.28,1.72-0.4,2.58c0,0,0,0.01,0,0.01c-0.12,0.86-0.24,1.73-0.34,2.6c0,0,0,0,0,0.01
		c-0.1,0.87-0.19,1.75-0.27,2.63c0,0,0,0,0,0.01c-0.08,0.88-0.15,1.76-0.21,2.65c0,0,0,0,0,0c-0.06,0.89-0.11,1.77-0.14,2.67v0
		c-0.04,0.89-0.06,1.79-0.08,2.68c0,0,0,0,0,0c-0.01,0.36-0.02,0.73-0.02,1.09c0,0.08,0,0.15,0,0.23c0,0.12,0,0.24,0,0.35
		c0,58.24,47.38,105.62,105.62,105.62c0.12,0,0.24,0,0.35,0c0.08,0,0.15,0,0.23,0c0.36,0,0.73-0.01,1.09-0.02
		c4.49-0.07,8.91-0.42,13.25-1.04l0,0c0.87-0.12,1.73-0.26,2.59-0.4l0,0c0.86-0.14,1.71-0.3,2.57-0.46c0,0,0,0,0.01,0
		c0.85-0.16,1.69-0.34,2.53-0.52c0.01,0,0.02,0,0.02,0c0.84-0.18,1.67-0.38,2.5-0.58c0.01,0,0.02,0,0.03-0.01
		c0.83-0.2,1.65-0.42,2.47-0.64c0.01,0,0.03-0.01,0.04-0.01c0.81-0.22,1.62-0.45,2.43-0.69c0.02-0.01,0.04-0.01,0.06-0.02
		c0.8-0.24,1.6-0.49,2.39-0.75c0.02-0.01,0.05-0.01,0.07-0.02c0.79-0.26,1.58-0.52,2.36-0.8c0.03-0.01,0.05-0.02,0.08-0.03
		c0.78-0.27,1.55-0.56,2.32-0.85c0.03-0.01,0.06-0.02,0.09-0.04c0.76-0.29,1.52-0.59,2.28-0.9c0.04-0.01,0.07-0.03,0.11-0.04
		c0.75-0.31,1.49-0.62,2.23-0.94c0.04-0.02,0.08-0.04,0.12-0.05c0.73-0.32,1.46-0.65,2.19-0.99c0.05-0.02,0.09-0.04,0.14-0.07
		c0.72-0.34,1.43-0.68,2.14-1.03c0.05-0.03,0.11-0.05,0.16-0.08c0.7-0.35,1.4-0.71,2.09-1.07c0.06-0.03,0.11-0.06,0.17-0.09
		c0.69-0.36,1.37-0.73,2.04-1.11c0.07-0.04,0.13-0.07,0.2-0.11c0.67-0.37,1.33-0.75,1.99-1.14c0.07-0.04,0.14-0.08,0.21-0.13
		c0.65-0.39,1.3-0.78,1.94-1.18c0.08-0.05,0.15-0.1,0.23-0.14c0.63-0.4,1.27-0.8,1.89-1.21c0.08-0.05,0.17-0.11,0.25-0.16
		c0.62-0.41,1.23-0.82,1.84-1.23c0.09-0.06,0.18-0.13,0.27-0.19c0.6-0.41,1.19-0.83,1.78-1.26c0.09-0.07,0.19-0.14,0.28-0.21
		c0.58-0.42,1.16-0.85,1.73-1.29c0.1-0.08,0.2-0.15,0.3-0.23c0.56-0.43,1.12-0.87,1.68-1.31c0.11-0.09,0.21-0.17,0.32-0.26
		c0.54-0.44,1.09-0.88,1.62-1.33c0.11-0.09,0.22-0.19,0.34-0.29c0.53-0.44,1.05-0.89,1.56-1.35c0.12-0.1,0.24-0.21,0.36-0.32
		c0.51-0.45,1.01-0.9,1.51-1.36c0.12-0.11,0.25-0.23,0.37-0.35c0.49-0.45,0.97-0.91,1.45-1.37c0.13-0.12,0.25-0.25,0.38-0.37
		c0.47-0.46,0.94-0.92,1.4-1.39c0.13-0.14,0.27-0.27,0.4-0.41c0.45-0.46,0.9-0.92,1.34-1.39
		C256.96,252.27,257.1,252.12,257.23,251.97z M277.61,216.97c-0.24,0.63-0.5,1.25-0.75,1.87c-0.25,0.63-0.5,1.27-0.77,1.89
		c-0.26,0.62-0.54,1.23-0.82,1.84c-0.28,0.62-0.55,1.24-0.84,1.85c-0.29,0.61-0.59,1.2-0.89,1.8c-0.3,0.61-0.59,1.21-0.91,1.81
		c-0.31,0.59-0.63,1.18-0.95,1.76c-0.32,0.59-0.64,1.19-0.97,1.77c-0.33,0.58-0.68,1.15-1.02,1.72c-0.34,0.58-0.68,1.16-1.04,1.73
		c-0.35,0.57-0.72,1.12-1.09,1.68c-0.36,0.56-0.72,1.13-1.1,1.68c-0.37,0.55-0.76,1.09-1.15,1.64c-0.38,0.55-0.76,1.09-1.16,1.63
		c-0.39,0.54-0.8,1.06-1.21,1.59c-0.41,0.53-0.81,1.07-1.22,1.59c-0.41,0.52-0.84,1.03-1.27,1.54c-0.42,0.51-0.84,1.03-1.28,1.54
		c-0.43,0.51-0.88,1-1.33,1.5c-0.44,0.5-0.88,1-1.33,1.49c-0.45,0.49-0.92,0.96-1.38,1.44c-0.46,0.48-0.92,0.96-1.39,1.43
		c-0.47,0.47-0.96,0.93-1.44,1.39c-0.48,0.46-0.95,0.93-1.44,1.38c-0.49,0.45-0.99,0.89-1.49,1.34c-0.5,0.44-0.99,0.89-1.49,1.32
		c-0.51,0.44-1.03,0.86-1.55,1.28c-0.51,0.42-1.02,0.85-1.53,1.26c-0.53,0.42-1.07,0.82-1.6,1.23c-0.52,0.4-1.04,0.81-1.58,1.2
		c-0.54,0.4-1.09,0.78-1.64,1.17c-0.54,0.38-1.08,0.77-1.63,1.14c-0.56,0.38-1.12,0.74-1.69,1.1c-0.56,0.36-1.11,0.73-1.68,1.08
		c-0.57,0.36-1.16,0.7-1.74,1.04c-0.57,0.34-1.14,0.69-1.71,1.01c-0.59,0.33-1.18,0.65-1.78,0.98c-0.59,0.32-1.17,0.64-1.76,0.95
		c-0.6,0.31-1.21,0.61-1.81,0.91c-0.6,0.3-1.19,0.6-1.8,0.89c-0.61,0.29-1.24,0.56-1.86,0.84c-0.61,0.27-1.22,0.55-1.83,0.82
		c-0.63,0.27-1.26,0.52-1.9,0.77c-0.62,0.25-1.24,0.51-1.87,0.74c-0.64,0.24-1.29,0.47-1.93,0.7c-0.49,0.18-0.98,0.36-1.48,0.52
		c14.33-6.02,27.01-15.78,37.09-28.19c12.41-10.08,22.17-22.76,28.19-37.09c-0.17,0.5-0.35,0.99-0.53,1.49
		C278.07,215.69,277.85,216.33,277.61,216.97z M143.03,277.61c-0.63-0.24-1.24-0.49-1.87-0.74c-0.63-0.25-1.27-0.5-1.9-0.77
		c-0.62-0.26-1.22-0.54-1.83-0.82c-0.62-0.28-1.24-0.55-1.86-0.84c-0.61-0.29-1.2-0.59-1.8-0.89c-0.6-0.3-1.21-0.59-1.81-0.91
		c-0.59-0.31-1.17-0.63-1.76-0.95c-0.59-0.32-1.19-0.64-1.78-0.98c-0.58-0.33-1.14-0.67-1.71-1.01c-0.58-0.35-1.16-0.69-1.74-1.04
		c-0.56-0.35-1.12-0.72-1.68-1.08c-0.56-0.37-1.13-0.73-1.69-1.1c-0.55-0.37-1.09-0.76-1.63-1.14c-0.55-0.39-1.1-0.77-1.64-1.17
		c-0.53-0.39-1.05-0.8-1.58-1.2c-0.54-0.41-1.07-0.81-1.6-1.23c-0.52-0.41-1.02-0.84-1.53-1.26c-0.52-0.43-1.04-0.85-1.55-1.28
		c-0.5-0.43-1-0.88-1.49-1.32c-0.5-0.44-1-0.88-1.49-1.34c-0.49-0.45-0.96-0.92-1.44-1.38c-0.48-0.46-0.97-0.92-1.44-1.39
		c-0.47-0.47-0.93-0.95-1.39-1.43c-0.46-0.48-0.93-0.96-1.38-1.44c-0.45-0.49-0.89-0.99-1.33-1.49c-0.44-0.5-0.89-0.99-1.33-1.5
		c-0.43-0.51-0.85-1.02-1.28-1.54c-0.42-0.51-0.85-1.02-1.27-1.54c-0.42-0.52-0.82-1.06-1.22-1.59c-0.4-0.53-0.81-1.05-1.21-1.59
		c-0.4-0.54-0.77-1.09-1.16-1.63c-0.38-0.55-0.77-1.09-1.15-1.64c-0.37-0.55-0.73-1.12-1.1-1.68c-0.36-0.56-0.73-1.12-1.09-1.68
		c-0.35-0.57-0.69-1.15-1.04-1.73c-0.34-0.57-0.69-1.14-1.02-1.72c-0.33-0.58-0.65-1.18-0.97-1.77c-0.32-0.59-0.65-1.17-0.95-1.76
		c-0.31-0.6-0.61-1.21-0.91-1.81c-0.3-0.6-0.6-1.19-0.89-1.8c-0.29-0.61-0.56-1.23-0.84-1.85c-0.27-0.61-0.56-1.22-0.82-1.84
		c-0.27-0.62-0.51-1.26-0.77-1.89c-0.25-0.62-0.51-1.24-0.75-1.87c-0.24-0.64-0.47-1.28-0.7-1.93c-0.18-0.5-0.36-0.99-0.53-1.49
		c6.02,14.33,15.78,27.01,28.19,37.09c10.08,12.41,22.76,22.17,37.09,28.19c-0.5-0.17-0.99-0.35-1.48-0.52
		C144.32,278.07,143.67,277.85,143.03,277.61z M81.7,144.96c0.23-0.64,0.45-1.29,0.7-1.93c0.24-0.63,0.5-1.25,0.75-1.87
		c0.25-0.63,0.5-1.27,0.77-1.89c0.26-0.62,0.54-1.23,0.82-1.84c0.28-0.62,0.55-1.24,0.84-1.85c0.29-0.61,0.59-1.2,0.89-1.8
		c0.3-0.61,0.59-1.21,0.91-1.81c0.31-0.59,0.63-1.18,0.95-1.76c0.32-0.59,0.64-1.19,0.97-1.77c0.33-0.58,0.68-1.15,1.02-1.72
		c0.34-0.58,0.68-1.16,1.04-1.73c0.35-0.57,0.72-1.12,1.09-1.68c0.36-0.56,0.72-1.13,1.1-1.68c0.37-0.55,0.76-1.09,1.15-1.64
		c0.38-0.55,0.76-1.09,1.16-1.63c0.39-0.54,0.8-1.06,1.21-1.59c0.41-0.53,0.81-1.07,1.22-1.59c0.41-0.52,0.84-1.03,1.27-1.54
		c0.42-0.51,0.84-1.03,1.28-1.54c0.43-0.51,0.88-1,1.33-1.5c0.44-0.5,0.88-1,1.33-1.49c0.45-0.49,0.92-0.96,1.38-1.44
		c0.46-0.48,0.92-0.96,1.39-1.43c0.47-0.47,0.96-0.93,1.44-1.39c0.48-0.46,0.95-0.93,1.44-1.38c0.49-0.45,0.99-0.89,1.49-1.34
		c0.5-0.44,0.99-0.89,1.49-1.32c0.51-0.44,1.03-0.86,1.55-1.28c0.51-0.42,1.02-0.85,1.53-1.26c0.53-0.42,1.07-0.82,1.6-1.23
		c0.52-0.4,1.04-0.81,1.58-1.2c0.54-0.4,1.09-0.78,1.64-1.17c0.54-0.38,1.08-0.77,1.63-1.14c0.56-0.38,1.12-0.74,1.69-1.1
		c0.56-0.36,1.11-0.73,1.68-1.08c0.57-0.36,1.16-0.7,1.74-1.04c0.57-0.34,1.14-0.69,1.71-1.01c0.59-0.33,1.18-0.65,1.78-0.98
		c0.59-0.32,1.17-0.64,1.76-0.95c0.6-0.31,1.21-0.61,1.81-0.91c0.6-0.3,1.19-0.6,1.8-0.89c0.61-0.29,1.24-0.56,1.86-0.84
		c0.61-0.27,1.22-0.55,1.83-0.82c0.63-0.27,1.26-0.52,1.9-0.77c0.62-0.25,1.24-0.51,1.87-0.74c0.64-0.24,1.29-0.47,1.93-0.7
		c0.49-0.18,0.98-0.36,1.48-0.52c-14.33,6.02-27.01,15.78-37.09,28.19c-12.41,10.08-22.17,22.76-28.19,37.09
		C81.34,145.95,81.52,145.45,81.7,144.96z M215.04,81.69c0.65,0.23,1.29,0.46,1.93,0.7c0.63,0.24,1.24,0.49,1.87,0.74
		c0.63,0.25,1.27,0.5,1.9,0.77c0.62,0.26,1.22,0.54,1.83,0.82c0.62,0.28,1.24,0.55,1.86,0.84c0.61,0.29,1.2,0.59,1.8,0.89
		c0.6,0.3,1.21,0.59,1.81,0.91c0.59,0.31,1.17,0.63,1.76,0.95c0.59,0.32,1.19,0.64,1.78,0.98c0.58,0.33,1.14,0.67,1.71,1.01
		c0.58,0.35,1.16,0.69,1.74,1.04c0.56,0.35,1.12,0.72,1.68,1.08c0.56,0.37,1.13,0.73,1.69,1.1c0.55,0.37,1.09,0.76,1.63,1.14
		c0.55,0.39,1.1,0.77,1.64,1.17c0.53,0.39,1.05,0.8,1.58,1.2c0.54,0.41,1.07,0.81,1.6,1.23c0.52,0.41,1.02,0.84,1.53,1.26
		c0.52,0.43,1.04,0.85,1.55,1.28c0.5,0.43,1,0.88,1.49,1.32c0.5,0.44,1,0.88,1.49,1.34c0.49,0.45,0.96,0.92,1.44,1.38
		c0.48,0.46,0.97,0.92,1.44,1.39c0.47,0.47,0.93,0.95,1.39,1.43c0.46,0.48,0.93,0.96,1.38,1.44c0.45,0.49,0.89,0.99,1.33,1.49
		c0.44,0.5,0.89,0.99,1.33,1.5c0.43,0.51,0.85,1.02,1.28,1.54c0.42,0.51,0.85,1.02,1.27,1.54c0.42,0.52,0.82,1.06,1.22,1.59
		c0.4,0.53,0.81,1.05,1.21,1.59c0.4,0.54,0.77,1.09,1.16,1.63c0.38,0.55,0.77,1.09,1.15,1.64c0.37,0.55,0.73,1.12,1.1,1.68
		c0.36,0.56,0.73,1.12,1.09,1.68c0.35,0.57,0.69,1.15,1.04,1.73c0.34,0.57,0.69,1.14,1.02,1.72c0.33,0.58,0.65,1.18,0.97,1.77
		c0.32,0.59,0.65,1.17,0.95,1.76c0.31,0.6,0.61,1.21,0.91,1.81c0.3,0.6,0.6,1.19,0.89,1.8c0.29,0.61,0.56,1.23,0.84,1.85
		c0.27,0.61,0.56,1.22,0.82,1.84c0.27,0.62,0.51,1.26,0.77,1.89c0.25,0.62,0.51,1.24,0.75,1.87c0.24,0.64,0.47,1.28,0.7,1.93
		c0.18,0.5,0.36,0.99,0.53,1.49c-6.02-14.33-15.78-27.01-28.19-37.09c-10.08-12.41-22.76-22.17-37.09-28.19
		C214.05,81.34,214.54,81.52,215.04,81.69z M86.13,180c0-1.38,0.03-2.76,0.08-4.12c2.65-0.51,5.76-1.01,9.31-1.48
		c-0.08,1.86-0.13,3.73-0.13,5.61c0,1.88,0.05,3.75,0.13,5.61c-3.55-0.47-6.66-0.97-9.31-1.48C86.15,182.76,86.13,181.38,86.13,180z
		 M219.82,266.76c3.31-3.53,6.4-7.51,9.25-11.85c5.06-2.14,9.87-4.59,14.4-7.33c-3.38,4.97-7.14,9.54-11.2,13.64
		C228.28,263.31,224.12,265.15,219.82,266.76z M207.26,270.61c2.63-3.14,5.11-6.72,7.42-10.68c4.25-1.19,8.37-2.58,12.36-4.17
		c-3.04,4.44-6.33,8.45-9.86,11.97C213.94,268.83,210.63,269.79,207.26,270.61z M144.57,268.29c-3.58-3.49-6.93-7.49-10.01-11.92
		c3.48,1.34,7.07,2.52,10.75,3.55c2.31,3.97,4.8,7.55,7.44,10.69C149.97,269.93,147.25,269.16,144.57,268.29z M127.7,261.21
		c-4.05-4.1-7.78-8.66-11.16-13.62c5.01,3.03,10.35,5.71,16,8c2.91,4.35,6.07,8.31,9.45,11.83
		C137.03,265.66,132.25,263.59,127.7,261.21z M92.59,218.02c3.52,3.37,7.48,6.54,11.83,9.45c2.28,5.64,4.97,10.99,8,16
		c-4.96-3.38-9.52-7.11-13.62-11.16C96.41,227.75,94.34,222.97,92.59,218.02z M96.62,180c0-1.94,0.06-3.86,0.14-5.77
		c4.43-0.57,9.5-1.1,15.12-1.58c-0.11,2.43-0.18,4.88-0.18,7.36s0.07,4.92,0.18,7.36c-5.63-0.48-10.69-1.01-15.12-1.58
		C96.68,183.86,96.62,181.94,96.62,180z M98.78,127.72c4.11-4.06,8.67-7.82,13.64-11.2c-2.74,4.53-5.19,9.35-7.33,14.4
		c-4.34,2.85-8.32,5.94-11.85,9.25C94.85,135.88,96.69,131.72,98.78,127.72z M141.98,92.59c-3.38,3.52-6.54,7.48-9.45,11.83
		c-5.64,2.28-10.99,4.97-16,8c3.38-4.96,7.11-9.52,11.16-13.62C132.25,96.41,137.03,94.34,141.98,92.59z M152.74,89.39
		c-2.63,3.14-5.12,6.72-7.44,10.69c-3.68,1.03-7.27,2.21-10.75,3.55c3.09-4.43,6.44-8.43,10.01-11.92
		C147.25,90.84,149.97,90.07,152.74,89.39z M217.17,92.28c3.53,3.52,6.82,7.53,9.86,11.97c-3.98-1.59-8.11-2.99-12.36-4.17
		c-2.31-3.97-4.79-7.55-7.42-10.68C210.63,90.21,213.94,91.17,217.17,92.28z M232.28,98.78c4.06,4.11,7.82,8.67,11.2,13.64
		c-4.53-2.74-9.35-5.19-14.4-7.33c-2.85-4.34-5.94-8.32-9.25-11.85C224.12,94.85,228.28,96.69,232.28,98.78z M266.76,140.18
		c-3.53-3.31-7.51-6.4-11.85-9.25c-2.14-5.06-4.59-9.87-7.33-14.4c4.97,3.38,9.54,7.14,13.64,11.2
		C263.31,131.72,265.15,135.88,266.76,140.18z M273.87,180c0,1.38-0.03,2.76-0.08,4.12c-2.65,0.51-5.76,1.01-9.31,1.48
		c0.08-1.86,0.13-3.73,0.13-5.61c0-1.88-0.05-3.75-0.13-5.61c3.55,0.47,6.66,0.97,9.31,1.48C273.85,177.24,273.87,178.62,273.87,180
		z M268.29,215.43c-3.49,3.58-7.49,6.93-11.92,10.01c1.34-3.48,2.52-7.07,3.55-10.75c3.97-2.31,7.55-4.8,10.69-7.44
		C269.93,210.03,269.16,212.75,268.29,215.43z M272.22,205.87c4.17-3.75,7.47-7.78,9.75-12.01c-2.34,6.94-6.35,13.48-11.7,19.45
		C271,210.87,271.65,208.39,272.22,205.87z M119.08,223.37c4.27,1.52,8.77,2.88,13.47,4.08c1.19,4.7,2.56,9.2,4.08,13.47
		c-4.5-1.34-8.82-2.88-12.95-4.6C121.96,232.19,120.42,227.87,119.08,223.37z M122.07,235.63c-6.01-2.61-11.57-5.61-16.61-8.94
		c-1.45-3.6-2.74-7.31-3.85-11.14c4.83,2.69,10.2,5.14,16.02,7.29C118.92,227.27,120.41,231.54,122.07,235.63z M112.96,180
		c0-2.51,0.07-5,0.19-7.46c4.32-0.36,8.97-0.69,13.9-0.98c-0.11,2.79-0.17,5.6-0.17,8.44s0.06,5.65,0.17,8.44
		c-4.94-0.29-9.58-0.62-13.9-0.98C113.03,185,112.96,182.51,112.96,180z M124.29,122.27c4.09-1.68,8.37-3.18,12.82-4.48
		c-1.71,4.65-3.23,9.58-4.55,14.76c-4.71,1.2-9.2,2.57-13.47,4.09C120.57,131.62,122.32,126.82,124.29,122.27z M117.64,137.15
		c-5.82,2.15-11.19,4.59-16.02,7.28c1.27-4.38,2.77-8.63,4.48-12.72c5.03-3.27,10.58-6.21,16.56-8.77
		C120.76,127.46,119.07,132.2,117.64,137.15z M263.38,180c0,1.94-0.06,3.86-0.14,5.77c-4.12,0.53-8.79,1.03-13.95,1.48
		c0.11-2.4,0.17-4.82,0.17-7.26c0-2.44-0.07-4.86-0.17-7.26c5.16,0.45,9.83,0.95,13.95,1.48C263.32,176.14,263.38,178.06,263.38,180
		z M128.12,180c0-2.87,0.07-5.7,0.18-8.51c6.14-0.35,12.72-0.64,19.69-0.87c-0.08,3.09-0.13,6.22-0.13,9.38
		c0,3.16,0.04,6.29,0.13,9.38c-6.97-0.22-13.55-0.52-19.69-0.87C128.19,185.7,128.12,182.87,128.12,180z M248.21,180
		c0,2.48-0.07,4.93-0.18,7.36c-4.65,0.4-9.69,0.76-15.07,1.08c0.11-2.79,0.18-5.6,0.18-8.44s-0.06-5.65-0.18-8.44
		c5.39,0.32,10.42,0.68,15.07,1.07C248.13,175.07,248.21,177.52,248.21,180z M149.12,180c0-3.17,0.04-6.31,0.13-9.42
		c6.26-0.19,12.83-0.33,19.67-0.4c-0.03,3.28-0.05,6.55-0.05,9.82s0.02,6.54,0.05,9.82c-6.84-0.07-13.41-0.21-19.67-0.4
		C149.17,186.31,149.12,183.17,149.12,180z M231.88,180c0,2.87-0.07,5.7-0.18,8.51c-6.14,0.35-12.72,0.64-19.69,0.87
		c0.08-3.09,0.13-6.22,0.13-9.38c0-3.16-0.04-6.29-0.13-9.38c6.97,0.22,13.55,0.52,19.69,0.87
		C231.81,174.3,231.88,177.13,231.88,180z M180,189.88c-3.33,0-6.61-0.02-9.83-0.05c-0.03-3.22-0.05-6.5-0.05-9.83
		s0.02-6.61,0.05-9.83c3.22-0.03,6.5-0.05,9.83-0.05c3.33,0,6.61,0.02,9.83,0.05c0.03,3.22,0.05,6.5,0.05,9.83
		c0,3.33-0.02,6.61-0.05,9.83C186.61,189.86,183.33,189.88,180,189.88z M189.82,191.08c-0.07,6.84-0.21,13.41-0.4,19.67
		c-3.1,0.08-6.24,0.13-9.42,0.13s-6.31-0.04-9.42-0.13c-0.19-6.26-0.33-12.83-0.4-19.67c3.28,0.03,6.55,0.05,9.82,0.05
		S186.54,191.11,189.82,191.08z M170.18,168.92c0.07-6.84,0.21-13.41,0.4-19.67c3.1-0.08,6.24-0.13,9.42-0.13s6.31,0.04,9.42,0.13
		c0.19,6.26,0.33,12.83,0.4,19.67c-3.28-0.03-6.55-0.05-9.82-0.05S173.46,168.89,170.18,168.92z M191.08,170.18
		c6.84,0.07,13.41,0.21,19.67,0.4c0.08,3.1,0.13,6.24,0.13,9.42s-0.04,6.31-0.13,9.42c-6.26,0.19-12.83,0.33-19.67,0.4
		c0.03-3.28,0.05-6.55,0.05-9.82S191.11,173.46,191.08,170.18z M211.96,169.38c-0.2-6.48-0.58-12.79-1.12-18.88
		c6.73,0.62,13.17,1.43,19.25,2.42c0.75,5.6,1.28,11.39,1.56,17.32C225.34,169.88,218.73,169.6,211.96,169.38z M210.71,169.34
		c-6.45-0.2-13.04-0.33-19.65-0.41c-0.07-6.61-0.21-13.2-0.41-19.65c6.51,0.2,12.85,0.57,18.95,1.1
		C210.14,156.49,210.52,162.83,210.71,169.34z M190.62,148.04c-0.22-6.77-0.5-13.38-0.86-19.69c5.93,0.27,11.71,0.81,17.32,1.56
		c0.99,6.07,1.8,12.52,2.42,19.25C203.41,148.62,197.1,148.24,190.62,148.04z M189.38,148c-3.09-0.08-6.22-0.13-9.38-0.13
		s-6.29,0.04-9.38,0.13c0.22-6.97,0.52-13.55,0.87-19.69c2.81-0.11,5.64-0.18,8.51-0.18s5.7,0.07,8.51,0.18
		C188.86,134.45,189.16,141.03,189.38,148z M169.38,148.04c-6.48,0.2-12.79,0.58-18.88,1.12c0.62-6.73,1.43-13.17,2.42-19.25
		c5.6-0.75,11.39-1.28,17.32-1.56C169.88,134.66,169.6,141.27,169.38,148.04z M169.34,149.29c-0.2,6.45-0.33,13.04-0.41,19.65
		c-6.61,0.07-13.2,0.21-19.65,0.41c0.2-6.51,0.57-12.85,1.1-18.95C156.49,149.86,162.83,149.48,169.34,149.29z M168.93,191.07
		c0.07,6.61,0.21,13.2,0.41,19.65c-6.51-0.2-12.85-0.57-18.95-1.1c-0.53-6.1-0.91-12.44-1.1-18.95
		C155.74,190.86,162.33,190.99,168.93,191.07z M169.38,211.96c0.22,6.77,0.5,13.38,0.86,19.69c-5.93-0.27-11.71-0.81-17.32-1.56
		c-0.99-6.07-1.8-12.52-2.42-19.25C156.59,211.38,162.9,211.76,169.38,211.96z M170.62,212c3.09,0.08,6.22,0.13,9.38,0.13
		s6.29-0.04,9.38-0.13c-0.22,6.97-0.52,13.55-0.87,19.69c-2.81,0.11-5.64,0.18-8.51,0.18s-5.7-0.07-8.51-0.18
		C171.14,225.55,170.84,218.97,170.62,212z M190.62,211.96c6.48-0.2,12.79-0.58,18.88-1.12c-0.62,6.73-1.43,13.17-2.42,19.25
		c-5.6,0.75-11.39,1.28-17.32,1.56C190.12,225.34,190.4,218.73,190.62,211.96z M190.66,210.71c0.2-6.45,0.33-13.04,0.41-19.65
		c6.61-0.07,13.2-0.21,19.65-0.41c-0.2,6.51-0.57,12.85-1.1,18.95C203.51,210.14,197.17,210.52,190.66,210.71z M211.96,190.62
		c6.77-0.22,13.38-0.5,19.69-0.86c-0.27,5.93-0.81,11.71-1.56,17.32c-6.07,0.99-12.52,1.8-19.25,2.42
		C211.38,203.41,211.76,197.1,211.96,190.62z M232.9,189.69c5.27-0.31,10.32-0.66,15.07-1.06c-0.28,5.17-0.79,10.23-1.54,15.16
		c-4.69,1.15-9.72,2.18-15.05,3.07C232.12,201.31,232.63,195.57,232.9,189.69z M232.9,170.31c-0.27-5.88-0.78-11.61-1.52-17.17
		c5.32,0.89,10.36,1.92,15.05,3.07c0.75,4.93,1.26,9.99,1.54,15.16C243.22,170.97,238.17,170.61,232.9,170.31z M231.21,151.92
		c-0.87-6.26-2.02-12.28-3.43-18.02c5.22,1.34,10.19,2.89,14.85,4.63c1.49,5.28,2.69,10.78,3.6,16.47
		C241.54,153.85,236.51,152.82,231.21,151.92z M229.93,151.7c-6.07-1-12.49-1.81-19.2-2.44c-0.62-6.71-1.44-13.13-2.44-19.2
		c6.31,0.88,12.38,2.05,18.15,3.48C227.88,139.32,229.05,145.39,229.93,151.7z M208.08,128.79c-0.9-5.3-1.93-10.33-3.08-15.02
		c5.68,0.91,11.19,2.11,16.47,3.6c1.74,4.66,3.29,9.63,4.63,14.85C220.36,130.81,214.34,129.66,208.08,128.79z M206.87,128.62
		c-5.56-0.74-11.3-1.25-17.17-1.52c-0.31-5.27-0.66-10.32-1.06-15.07c5.17,0.28,10.23,0.79,15.16,1.54
		C204.94,118.26,205.97,123.29,206.87,128.62z M188.44,127.05c-2.79-0.11-5.6-0.18-8.44-0.18s-5.65,0.06-8.44,0.18
		c0.32-5.39,0.68-10.42,1.07-15.07c2.44-0.11,4.89-0.18,7.36-0.18s4.93,0.07,7.36,0.18C187.76,116.63,188.12,121.67,188.44,127.05z
		 M170.31,127.1c-5.88,0.27-11.61,0.78-17.17,1.52c0.89-5.32,1.92-10.36,3.07-15.05c4.93-0.75,9.99-1.26,15.16-1.54
		C170.97,116.78,170.61,121.83,170.31,127.1z M151.92,128.79c-6.26,0.87-12.28,2.02-18.02,3.43c1.34-5.22,2.89-10.19,4.63-14.85
		c5.28-1.49,10.78-2.69,16.47-3.6C153.85,118.46,152.82,123.49,151.92,128.79z M151.7,130.07c-1,6.07-1.81,12.49-2.44,19.2
		c-6.71,0.62-13.13,1.44-19.2,2.44c0.88-6.31,2.05-12.38,3.48-18.15C139.32,132.12,145.39,130.95,151.7,130.07z M149.16,150.5
		c-0.54,6.09-0.92,12.39-1.12,18.88c-6.77,0.22-13.38,0.5-19.69,0.86c0.27-5.93,0.81-11.71,1.56-17.32
		C135.98,151.93,142.43,151.12,149.16,150.5z M148.04,190.62c0.2,6.48,0.58,12.79,1.12,18.88c-6.73-0.62-13.17-1.43-19.25-2.42
		c-0.75-5.6-1.28-11.39-1.56-17.32C134.66,190.12,141.27,190.4,148.04,190.62z M149.27,210.73c0.62,6.71,1.44,13.13,2.44,19.2
		c-6.31-0.88-12.38-2.05-18.15-3.48c-1.43-5.77-2.6-11.84-3.48-18.15C136.14,209.29,142.56,210.11,149.27,210.73z M151.92,231.21
		c0.82,4.85,1.75,9.47,2.79,13.81c-5.75-0.93-11.32-2.17-16.65-3.7c-1.55-4.28-2.94-8.8-4.16-13.54
		C139.64,229.19,145.66,230.34,151.92,231.21z M153.13,231.38c5.56,0.74,11.3,1.25,17.17,1.52c0.28,4.85,0.6,9.5,0.96,13.9
		c-5.24-0.28-10.37-0.82-15.36-1.59C154.88,240.87,153.95,236.25,153.13,231.38z M171.56,232.95c2.79,0.11,5.6,0.17,8.44,0.17
		s5.65-0.06,8.44-0.17c-0.29,4.94-0.62,9.58-0.98,13.9c-2.47,0.11-4.95,0.19-7.46,0.19s-5-0.07-7.46-0.19
		C172.18,242.53,171.85,237.89,171.56,232.95z M189.69,232.9c5.88-0.27,11.61-0.78,17.17-1.52c-0.82,4.87-1.75,9.49-2.78,13.83
		c-4.99,0.77-10.12,1.31-15.36,1.59C189.09,242.4,189.41,237.74,189.69,232.9z M208.08,231.21c6.25-0.87,12.28-2.02,18.02-3.42
		c-1.22,4.73-2.61,9.26-4.16,13.54c-5.33,1.52-10.9,2.76-16.65,3.7C206.33,240.67,207.26,236.06,208.08,231.21z M208.3,229.93
		c1-6.07,1.81-12.49,2.44-19.2c6.71-0.62,13.13-1.44,19.2-2.44c-0.88,6.31-2.05,12.38-3.48,18.15
		C220.68,227.88,214.61,229.05,208.3,229.93z M231.21,208.08c5.3-0.9,10.33-1.93,15.02-3.08c-0.91,5.68-2.11,11.19-3.6,16.47
		c-4.66,1.74-9.63,3.29-14.85,4.63C229.19,220.36,230.34,214.34,231.21,208.08z M247.55,204.68c5.19-1.32,9.95-2.79,14.23-4.38
		c-0.74,4.67-1.72,9.23-2.94,13.65c-4.45,2.55-9.4,4.88-14.76,6.96C245.5,215.7,246.67,210.27,247.55,204.68z M247.73,203.47
		c0.72-4.87,1.24-9.85,1.5-14.95c5.05-0.44,9.73-0.94,13.94-1.48c-0.22,4.09-0.62,8.11-1.21,12.05
		C257.71,200.69,252.94,202.15,247.73,203.47z M249.23,171.48c-0.27-5.09-0.78-10.08-1.5-14.95c5.21,1.32,9.98,2.79,14.23,4.38
		c0.58,3.94,0.99,7.97,1.21,12.05C258.96,172.41,254.28,171.92,249.23,171.48z M247.55,155.32c-0.88-5.6-2.04-11.02-3.48-16.23
		c5.36,2.08,10.31,4.41,14.76,6.96c1.22,4.42,2.2,8.98,2.94,13.65C257.49,158.11,252.74,156.64,247.55,155.32z M243.67,137.65
		c-1.4-4.9-3.04-9.6-4.9-14.07c5.42,2.4,10.48,5.12,15.1,8.12c1.72,4.09,3.22,8.34,4.5,12.73
		C253.92,141.95,248.99,139.68,243.67,137.65z M242.21,137.1c-4.65-1.71-9.58-3.23-14.76-4.55c-1.32-5.18-2.84-10.11-4.55-14.76
		c4.96,1.46,9.73,3.15,14.24,5.07C239.06,127.37,240.75,132.13,242.21,137.1z M222.35,116.33c-2.03-5.31-4.29-10.24-6.78-14.7
		c4.39,1.28,8.64,2.78,12.73,4.5c3,4.62,5.72,9.68,8.12,15.1C231.94,119.37,227.24,117.73,222.35,116.33z M220.91,115.93
		c-5.21-1.43-10.63-2.6-16.23-3.48c-1.32-5.19-2.79-9.95-4.38-14.23c4.67,0.74,9.23,1.72,13.65,2.94
		C216.5,105.62,218.83,110.57,220.91,115.93z M203.47,112.27c-4.87-0.72-9.85-1.24-14.95-1.5c-0.44-5.05-0.94-9.73-1.48-13.94
		c4.09,0.22,8.11,0.62,12.05,1.21C200.69,102.29,202.15,107.06,203.47,112.27z M187.26,110.72c-2.4-0.11-4.81-0.17-7.26-0.17
		c-2.44,0-4.86,0.07-7.26,0.17c0.45-5.16,0.95-9.83,1.48-13.95c1.91-0.08,3.83-0.14,5.77-0.14s3.86,0.06,5.77,0.14
		C186.3,100.89,186.8,105.56,187.26,110.72z M171.48,110.77c-5.09,0.27-10.08,0.78-14.95,1.5c1.32-5.21,2.79-9.98,4.38-14.23
		c3.94-0.59,7.97-0.99,12.05-1.21C172.41,101.04,171.92,105.72,171.48,110.77z M155.32,112.45c-5.6,0.88-11.02,2.04-16.23,3.48
		c2.08-5.36,4.41-10.31,6.96-14.76c4.42-1.22,8.98-2.2,13.65-2.94C158.11,102.51,156.64,107.26,155.32,112.45z M137.65,116.33
		c-4.39,1.26-8.61,2.71-12.66,4.33c2.46-5.48,5.26-10.57,8.34-15.22c3.59-1.44,7.31-2.71,11.12-3.82
		C141.96,106.08,139.68,111.01,137.65,116.33z M132.21,133.9c-1.41,5.73-2.55,11.76-3.42,18.02c-4.85,0.82-9.47,1.75-13.81,2.79
		c0.93-5.75,2.17-11.32,3.7-16.65C122.96,136.51,127.48,135.12,132.21,133.9z M128.62,153.13c-0.74,5.56-1.25,11.3-1.52,17.17
		c-4.85,0.28-9.5,0.6-13.9,0.96c0.28-5.24,0.82-10.37,1.59-15.36C119.13,154.88,123.75,153.95,128.62,153.13z M127.1,189.69
		c0.27,5.88,0.78,11.61,1.52,17.17c-4.87-0.82-9.49-1.75-13.83-2.78c-0.77-4.99-1.31-10.12-1.59-15.36
		C117.6,189.09,122.26,189.41,127.1,189.69z M128.79,208.08c0.87,6.25,2.02,12.28,3.42,18.02c-4.73-1.22-9.26-2.61-13.54-4.16
		c-1.52-5.33-2.76-10.9-3.7-16.65C119.33,206.33,123.94,207.26,128.79,208.08z M137.16,242.37c2.15,5.82,4.59,11.19,7.29,16.02
		c-3.82-1.11-7.53-2.4-11.14-3.85c-3.34-5.04-6.33-10.6-8.94-16.61C128.46,239.59,132.73,241.08,137.16,242.37z M138.58,242.76
		c5.28,1.47,10.77,2.67,16.44,3.57c1.39,5.66,2.96,10.83,4.67,15.44c-4.67-0.74-9.23-1.73-13.66-2.95
		C143.29,254.01,140.79,248.63,138.58,242.76z M156.23,246.52c4.93,0.74,9.98,1.27,15.15,1.54c0.47,5.5,0.99,10.57,1.58,15.11
		c-4.08-0.22-8.11-0.61-12.05-1.2C159.19,257.39,157.62,252.21,156.23,246.52z M172.64,248.11c2.43,0.11,4.88,0.18,7.36,0.18
		s4.92-0.07,7.36-0.18c-0.48,5.63-1.01,10.69-1.58,15.12c-1.91,0.08-3.83,0.14-5.77,0.14c-1.94,0-3.86-0.06-5.77-0.14
		C173.66,258.8,173.12,253.74,172.64,248.11z M188.62,248.06c5.16-0.27,10.22-0.8,15.15-1.54c-1.4,5.69-2.97,10.87-4.68,15.45
		c-3.94,0.58-7.97,0.98-12.05,1.2C187.63,258.63,188.16,253.55,188.62,248.06z M204.97,246.33c5.67-0.9,11.17-2.1,16.44-3.57
		c-2.2,5.87-4.7,11.25-7.46,16.06c-4.43,1.22-8.98,2.21-13.66,2.95C202.01,257.16,203.58,251.99,204.97,246.33z M222.85,242.36
		c4.95-1.44,9.69-3.12,14.2-5.02c-2.56,5.97-5.49,11.52-8.77,16.56c-4.09,1.71-8.34,3.21-12.72,4.48
		C218.26,253.55,220.7,248.19,222.85,242.36z M223.36,240.92c1.52-4.27,2.9-8.77,4.09-13.47c5.18-1.32,10.11-2.84,14.76-4.55
		c-1.3,4.45-2.8,8.73-4.48,12.82C233.18,237.68,228.38,239.43,223.36,240.92z M243.67,222.35c5.32-2.03,10.24-4.3,14.71-6.79
		c-1.11,3.81-2.38,7.53-3.82,11.12c-4.65,3.08-9.74,5.88-15.22,8.34C240.96,230.96,242.42,226.74,243.67,222.35z M260.38,213.03
		c1.14-4.3,2.05-8.72,2.74-13.24c3.64-1.41,6.9-2.91,9.73-4.5c-0.45,3.38-1.02,6.71-1.76,9.97
		C267.99,208.02,264.4,210.62,260.38,213.03z M263.3,198.58c0.55-3.84,0.93-7.74,1.13-11.71c3.47-0.47,6.59-0.98,9.31-1.53
		c-0.13,2.92-0.37,5.8-0.72,8.65C270.23,195.61,266.97,197.14,263.3,198.58z M264.43,173.13c-0.21-3.97-0.59-7.87-1.13-11.71
		c3.67,1.44,6.93,2.97,9.72,4.59c0.34,2.85,0.59,5.73,0.72,8.65C271.02,174.11,267.9,173.6,264.43,173.13z M263.12,160.2
		c-0.69-4.52-1.6-8.94-2.74-13.24c4.02,2.41,7.61,5.01,10.71,7.76c0.73,3.27,1.31,6.6,1.76,9.97
		C270.02,163.12,266.76,161.61,263.12,160.2z M259.92,145.32c-1.19-4.25-2.58-8.37-4.17-12.36c4.44,3.04,8.45,6.33,11.97,9.86
		c1.11,3.23,2.06,6.54,2.89,9.92C267.47,150.11,263.89,147.63,259.92,145.32z M253.04,129.72c-4.61-2.88-9.62-5.49-14.97-7.79
		c-2.3-5.34-4.91-10.36-7.79-14.97c5.23,2.31,10.19,4.97,14.82,7.93C248.07,119.53,250.73,124.48,253.04,129.72z M213.03,99.62
		c-4.3-1.14-8.72-2.05-13.24-2.74c-1.41-3.64-2.91-6.9-4.5-9.73c3.38,0.45,6.71,1.02,9.97,1.76
		C208.02,92.01,210.62,95.6,213.03,99.62z M198.58,96.7c-3.84-0.55-7.74-0.93-11.71-1.13c-0.47-3.47-0.98-6.59-1.53-9.31
		c2.92,0.13,5.8,0.37,8.65,0.72C195.61,89.77,197.14,93.03,198.58,96.7z M185.61,95.51c-1.86-0.08-3.73-0.13-5.61-0.13
		c-1.88,0-3.75,0.05-5.61,0.13c0.47-3.55,0.97-6.66,1.48-9.31c1.37-0.05,2.74-0.08,4.12-0.08c1.38,0,2.76,0.03,4.12,0.08
		C184.64,88.85,185.14,91.96,185.61,95.51z M173.13,95.57c-3.97,0.21-7.87,0.59-11.71,1.13c1.44-3.67,2.97-6.93,4.59-9.72
		c2.85-0.34,5.73-0.59,8.65-0.72C174.11,88.98,173.6,92.1,173.13,95.57z M160.2,96.88c-4.52,0.69-8.94,1.6-13.24,2.74
		c2.41-4.02,5.01-7.61,7.76-10.71c3.27-0.73,6.6-1.31,9.97-1.76C163.12,89.98,161.61,93.24,160.2,96.88z M131.32,106.28
		c-2.94,4.62-5.61,9.65-7.97,15.03c-5.88,2.45-11.36,5.26-16.37,8.39c2.31-5.23,4.96-10.19,7.93-14.83
		C120.01,111.62,125.51,108.74,131.32,106.28z M92.28,142.83c3.52-3.53,7.53-6.82,11.97-9.86c-1.59,3.98-2.99,8.11-4.17,12.36
		c-3.97,2.31-7.55,4.79-10.68,7.42C90.21,149.37,91.17,146.06,92.28,142.83z M99.62,146.97c-1.14,4.3-2.05,8.72-2.74,13.24
		c-3.64,1.41-6.9,2.91-9.73,4.5c0.45-3.38,1.02-6.71,1.76-9.97C92.01,151.98,95.6,149.38,99.62,146.97z M101.17,146.04
		c4.81-2.76,10.2-5.26,16.06-7.46c-1.47,5.28-2.67,10.77-3.57,16.44c-5.66,1.39-10.83,2.96-15.44,4.67
		C98.97,155.03,99.95,150.47,101.17,146.04z M113.48,156.23c-0.74,4.93-1.27,9.98-1.54,15.15c-5.5,0.47-10.57,0.99-15.11,1.59
		c0.22-4.08,0.61-8.11,1.2-12.05C102.61,159.19,107.79,157.62,113.48,156.23z M111.94,188.62c0.27,5.16,0.8,10.22,1.54,15.15
		c-5.69-1.4-10.87-2.97-15.45-4.68c-0.58-3.94-0.98-7.97-1.2-12.05C101.37,187.63,106.45,188.16,111.94,188.62z M113.67,204.97
		c0.9,5.67,2.1,11.17,3.57,16.44c-5.87-2.2-11.25-4.7-16.06-7.46c-1.22-4.43-2.21-8.98-2.95-13.66
		C102.84,202.01,108.01,203.58,113.67,204.97z M99.62,213.03c-4.02-2.41-7.61-5.01-10.71-7.76c-0.73-3.27-1.31-6.6-1.76-9.97
		c2.83,1.58,6.09,3.09,9.73,4.5C97.57,204.31,98.48,208.74,99.62,213.03z M100.08,214.69c1.03,3.68,2.21,7.27,3.55,10.75
		c-4.43-3.09-8.43-6.44-11.92-10.01c-0.87-2.68-1.65-5.4-2.32-8.17C92.53,209.89,96.11,212.38,100.08,214.69z M89.73,213.31
		c-5.36-5.97-9.36-12.51-11.7-19.45c2.28,4.24,5.57,8.26,9.75,12.01C88.35,208.39,89,210.87,89.73,213.31z M106.27,228.67
		c5.03,3.2,10.55,6.08,16.47,8.59c2.5,5.93,5.38,11.44,8.59,16.47c-5.83-2.46-11.32-5.36-16.43-8.63
		C111.63,239.99,108.73,234.5,106.27,228.67z M146.97,260.38c4.3,1.14,8.72,2.05,13.24,2.74c1.41,3.64,2.91,6.9,4.5,9.73
		c-3.38-0.45-6.71-1.02-9.97-1.76C151.98,267.99,149.38,264.4,146.97,260.38z M161.42,263.3c3.84,0.55,7.74,0.93,11.71,1.13
		c0.47,3.47,0.98,6.59,1.53,9.31c-2.92-0.13-5.8-0.37-8.65-0.72C164.39,270.23,162.86,266.97,161.42,263.3z M174.39,264.49
		c1.86,0.08,3.73,0.13,5.61,0.13c1.88,0,3.75-0.05,5.61-0.13c-0.47,3.55-0.97,6.66-1.48,9.31c-1.37,0.05-2.74,0.08-4.12,0.08
		c-1.38,0-2.76-0.03-4.12-0.08C175.36,271.15,174.86,268.04,174.39,264.49z M186.87,264.43c3.97-0.21,7.87-0.59,11.71-1.13
		c-1.44,3.67-2.97,6.93-4.59,9.72c-2.85,0.34-5.73,0.59-8.65,0.72C185.89,271.02,186.4,267.9,186.87,264.43z M199.8,263.12
		c4.52-0.69,8.94-1.6,13.24-2.74c-2.41,4.02-5.01,7.61-7.76,10.71c-3.27,0.73-6.6,1.31-9.97,1.76
		C196.88,270.02,198.39,266.76,199.8,263.12z M230.3,253.02c3.13-5.01,5.95-10.49,8.39-16.37c5.38-2.35,10.41-5.03,15.03-7.97
		c-2.46,5.81-5.34,11.31-8.59,16.41C240.49,248.06,235.53,250.71,230.3,253.02z M255.58,227.47c4.35-2.91,8.31-6.07,11.83-9.45
		c-1.75,4.96-3.83,9.73-6.21,14.29c-4.1,4.05-8.66,7.78-13.62,11.16C250.61,238.46,253.3,233.11,255.58,227.47z M269.43,216.01
		c5.72-5.92,10.11-12.44,12.86-19.39c-3.06,12.05-9.4,23.16-18.22,32.72C266.12,225.06,267.92,220.61,269.43,216.01z M272.67,203.83
		c0.64-3.06,1.15-6.18,1.54-9.33c4.3-2.57,7.51-5.34,9.4-8.26C282.1,192.52,278.3,198.45,272.67,203.83z M274.38,193.17
		c0.3-2.67,0.51-5.37,0.62-8.09c4.29-0.93,7.44-1.95,9.15-3.08C283.29,185.97,279.87,189.75,274.38,193.17z M275.06,183.87
		c0.04-1.29,0.07-2.58,0.07-3.87s-0.03-2.59-0.07-3.87c5.92,1.23,9.19,2.53,9.31,3.8c0,0.05,0,0.11,0,0.16
		C284.21,181.35,280.94,182.65,275.06,183.87z M275,174.92c-0.12-2.73-0.32-5.42-0.62-8.09c5.49,3.43,8.91,7.2,9.77,11.17
		C282.44,176.87,279.29,175.85,275,174.92z M274.21,165.5c-0.39-3.16-0.9-6.27-1.54-9.33c5.63,5.38,9.42,11.31,10.95,17.59
		C281.72,170.85,278.51,168.08,274.21,165.5z M272.23,154.15c-0.71-3.13-1.55-6.21-2.51-9.23c6.39,6.95,10.93,14.7,13.13,22.96
		C280.58,163.01,276.96,158.4,272.23,154.15z M268.8,142.18c-1.37-3.94-2.94-7.77-4.71-11.48c7.95,8.63,13.89,18.51,17.21,29.21
		C278.43,153.58,274.18,147.62,268.8,142.18z M262.22,126.95c-2.36-4.5-5.02-8.78-7.93-12.83c11.38,10.38,20.1,23.13,25.16,37.34
		C275.42,142.49,269.55,134.23,262.22,126.95z M259.24,124.12c-4.04-3.67-8.47-7.05-13.24-10.12c-3.07-4.77-6.45-9.2-10.12-13.24
		c4.92,2.82,9.55,6,13.87,9.49C253.24,114.56,256.43,119.2,259.24,124.12z M233.05,97.78c-7.28-7.33-15.54-13.2-24.51-17.22
		c14.21,5.05,26.96,13.77,37.34,25.16C241.83,102.8,237.55,100.15,233.05,97.78z M229.3,95.91c-3.7-1.77-7.53-3.34-11.48-4.71
		c-5.44-5.38-11.4-9.63-17.74-12.5C210.79,82.02,220.67,87.96,229.3,95.91z M215.08,90.28c-3.02-0.96-6.09-1.8-9.23-2.51
		c-4.26-4.73-8.86-8.36-13.73-10.62C200.38,79.35,208.13,83.89,215.08,90.28z M203.83,87.33c-3.06-0.64-6.18-1.15-9.33-1.54
		c-2.57-4.3-5.34-7.51-8.26-9.4C192.52,77.9,198.45,81.7,203.83,87.33z M193.17,85.62c-2.67-0.3-5.37-0.51-8.09-0.63
		c-0.93-4.29-1.95-7.44-3.08-9.15C185.97,76.71,189.75,80.13,193.17,85.62z M183.87,84.94c-1.29-0.04-2.58-0.07-3.87-0.07
		s-2.59,0.03-3.87,0.07c1.22-5.89,2.52-9.15,3.78-9.31c0.05,0,0.11,0,0.16,0C181.34,75.75,182.64,79.02,183.87,84.94z M174.92,85
		c-2.73,0.12-5.42,0.32-8.09,0.63c3.43-5.49,7.2-8.91,11.17-9.77C176.87,77.56,175.85,80.71,174.92,85z M165.5,85.79
		c-3.16,0.39-6.27,0.9-9.33,1.54c5.38-5.63,11.31-9.42,17.59-10.95C170.85,78.28,168.08,81.49,165.5,85.79z M154.13,87.78
		c-2.52,0.57-5,1.22-7.44,1.96c5.97-5.36,12.51-9.36,19.45-11.7C161.9,80.31,157.87,83.61,154.13,87.78z M143.99,90.57
		c-4.6,1.51-9.05,3.31-13.33,5.35c9.56-8.82,20.67-15.15,32.72-18.22C156.43,80.46,149.91,84.85,143.99,90.57z M126.95,97.78
		c-4.5,2.36-8.78,5.02-12.83,7.93c10.38-11.38,23.13-20.1,37.34-25.16C142.49,84.58,134.23,90.45,126.95,97.78z M124.12,100.76
		c-3.67,4.04-7.05,8.47-10.12,13.24c-4.77,3.07-9.2,6.45-13.24,10.12c2.82-4.92,6-9.55,9.49-13.87
		C114.56,106.76,119.2,103.57,124.12,100.76z M97.78,126.95c-7.33,7.28-13.2,15.54-17.22,24.51c5.05-14.21,13.77-26.96,25.16-37.34
		C102.8,118.17,100.15,122.45,97.78,126.95z M95.91,130.7c-1.77,3.7-3.34,7.53-4.71,11.48c-5.38,5.44-9.63,11.4-12.5,17.74
		C82.02,149.21,87.96,139.33,95.91,130.7z M90.28,144.92c-0.96,3.02-1.8,6.09-2.51,9.23c-4.73,4.26-8.36,8.86-10.62,13.73
		C79.35,159.62,83.89,151.87,90.28,144.92z M87.33,156.17c-0.64,3.06-1.15,6.18-1.54,9.33c-4.3,2.57-7.51,5.34-9.4,8.26
		C77.9,167.48,81.7,161.55,87.33,156.17z M85.62,166.83c-0.3,2.67-0.51,5.37-0.62,8.09c-4.29,0.93-7.44,1.95-9.15,3.08
		C76.71,174.03,80.13,170.25,85.62,166.83z M86.98,166.01c2.79-1.62,6.05-3.15,9.72-4.59c-0.55,3.84-0.93,7.74-1.13,11.71
		c-3.47,0.47-6.59,0.98-9.31,1.53C86.39,171.74,86.64,168.86,86.98,166.01z M95.57,186.87c0.21,3.97,0.59,7.87,1.13,11.71
		c-3.67-1.44-6.93-2.97-9.72-4.59c-0.34-2.85-0.59-5.73-0.72-8.65C88.98,185.89,92.1,186.4,95.57,186.87z M85.62,193.17
		c-5.49-3.43-8.91-7.2-9.77-11.17c1.71,1.13,4.86,2.16,9.15,3.08C85.11,187.81,85.32,190.51,85.62,193.17z M85.79,194.5
		c0.39,3.16,0.9,6.27,1.54,9.33c-5.63-5.38-9.42-11.31-10.95-17.59C78.28,189.15,81.49,191.92,85.79,194.5z M90.57,216.01
		c1.51,4.6,3.31,9.05,5.35,13.33c-8.82-9.56-15.15-20.67-18.22-32.72C80.46,203.57,84.85,210.09,90.57,216.01z M97.78,233.05
		c2.36,4.5,5.02,8.78,7.93,12.83c-11.38-10.38-20.1-23.13-25.16-37.34C84.58,217.51,90.45,225.77,97.78,233.05z M100.76,235.88
		c4.04,3.67,8.47,7.05,13.24,10.12c3.07,4.77,6.45,9.2,10.12,13.24c-4.92-2.82-9.55-6-13.87-9.49
		C106.76,245.44,103.57,240.8,100.76,235.88z M126.95,262.22c7.28,7.33,15.54,13.2,24.51,17.22c-14.21-5.05-26.96-13.77-37.34-25.16
		C118.17,257.2,122.45,259.85,126.95,262.22z M130.66,264.07c4.28,2.05,8.73,3.85,13.33,5.35c5.92,5.72,12.44,10.11,19.39,12.86
		C151.33,279.23,140.22,272.89,130.66,264.07z M146.69,270.27c2.44,0.73,4.92,1.38,7.44,1.96c3.75,4.17,7.78,7.47,12.01,9.75
		C159.2,279.63,152.66,275.62,146.69,270.27z M156.17,272.67c3.06,0.64,6.18,1.15,9.33,1.54c2.57,4.3,5.34,7.51,8.26,9.4
		C167.48,282.1,161.55,278.3,156.17,272.67z M166.83,274.38c2.67,0.3,5.37,0.51,8.09,0.63c0.93,4.29,1.95,7.44,3.08,9.15
		C174.03,283.29,170.25,279.87,166.83,274.38z M176.13,275.06c1.29,0.04,2.58,0.07,3.87,0.07s2.59-0.03,3.87-0.07
		c-1.23,5.92-2.53,9.19-3.8,9.31c-0.05,0-0.11,0-0.16,0C178.65,284.21,177.35,280.94,176.13,275.06z M185.08,275
		c2.73-0.12,5.42-0.32,8.09-0.63c-3.43,5.49-7.2,8.91-11.17,9.77C183.13,282.44,184.15,279.29,185.08,275z M194.5,274.21
		c3.16-0.39,6.27-0.9,9.33-1.54c-5.38,5.63-11.31,9.42-17.59,10.95C189.15,281.72,191.92,278.51,194.5,274.21z M205.85,272.23
		c3.13-0.71,6.21-1.55,9.23-2.51c-6.95,6.39-14.7,10.93-22.96,13.13C196.99,280.58,201.6,276.96,205.85,272.23z M217.82,268.8
		c3.94-1.37,7.77-2.94,11.48-4.71c-8.63,7.95-18.51,13.89-29.21,17.21C206.42,278.43,212.38,274.18,217.82,268.8z M233.05,262.22
		c4.5-2.36,8.78-5.02,12.83-7.93c-10.38,11.38-23.13,20.1-37.34,25.16C217.51,275.42,225.77,269.55,233.05,262.22z M235.88,259.24
		c3.67-4.04,7.05-8.47,10.12-13.24c4.77-3.07,9.2-6.45,13.24-10.12c-2.82,4.92-6,9.55-9.49,13.87
		C245.44,253.24,240.8,256.43,235.88,259.24z M262.22,233.05c7.33-7.28,13.2-15.54,17.22-24.51c-5.05,14.21-13.77,26.96-25.16,37.34
		C257.2,241.83,259.85,237.55,262.22,233.05z M84.94,176.13c-0.04,1.29-0.07,2.58-0.07,3.87s0.03,2.59,0.07,3.87
		c-5.89-1.22-9.15-2.52-9.31-3.78c0-0.05,0-0.11,0-0.16C75.75,178.66,79.02,177.36,84.94,176.13z"/>
	<rect x="9" y="135" class="st1" width="342" height="90"/>
	<g>
		<path class="st2" d="M84.29,189.75c0.85,1.43,2.09,2.33,3.61,2.33c2.66,0,3.94-2.09,3.94-8.6v-19.8h5.51v19.8
			c0,9.69-3.47,13.39-9.12,13.39c-3.85,0-6.65-1.52-8.41-4.56L84.29,189.75z"/>
		<path class="st2" d="M122,171.56c-1.19-2.23-2.56-3.51-5.18-3.51c-2.66,0-3.89,1.52-3.89,4.27c0,3.13,1.71,4.37,5.27,5.37
			c5.6,1.57,8.17,4.13,8.17,9.78c0,4.89-2.94,9.4-9.31,9.4c-4.65,0-7.98-1.71-10.31-5.37l4.23-2.94c1.57,2.33,2.94,3.51,5.75,3.51
			c3.18,0,4.13-1.99,4.13-4.37c0-2.61-1.04-4.23-5.41-5.46c-5.18-1.47-8.03-4.37-8.03-9.93c0-4.94,2.85-9.07,9.26-9.07
			c4.27,0,7.41,1.71,9.4,5.37L122,171.56z"/>
		<path class="st2" d="M156.25,184.48v11.97h-5.51v-32.77h9.55c6.17,0,10.02,3.61,10.02,10.35c0,6.74-3.8,10.45-10.02,10.45H156.25z
			 M159.52,179.73c3.8,0,5.27-1.95,5.27-5.7c0-3.56-1.47-5.6-5.27-5.6h-3.28v11.3H159.52z"/>
		<path class="st2" d="M174.16,196.44l9.17-32.77h5.42l9.21,32.77h-5.84l-1.71-6.79h-8.79l-1.66,6.79H174.16z M182.85,184.9h6.36
			l-3.13-12.92L182.85,184.9z"/>
		<path class="st2" d="M220.32,196.44l-4.84-13.3h-4.13v13.3h-5.51v-32.77h9.55c6.17,0,10.02,3.28,10.02,9.78
			c0,4.51-1.71,7.41-4.65,8.74l5.56,14.25H220.32z M214.86,178.4c3.33,0,5.03-1.24,5.03-4.94c0-3.7-1.71-5.03-5.03-5.03h-3.51v9.97
			H214.86z"/>
		<path class="st2" d="M252.05,163.67v4.8h-7.36v27.97h-5.51v-27.97h-7.36v-4.8H252.05z"/>
		<path class="st2" d="M257.52,163.67h6.08l4.94,12.92l4.94-12.92h6.08l-8.26,19.09v13.68h-5.51v-13.68L257.52,163.67z"/>
	</g>
</g>
</svg>
