<svg id="Layer_1" data-name="Layer 1" xmlns="http://www.w3.org/2000/svg" viewBox="0 0 455.2 177.17"><defs><style>.cls-1{fill:#fef502;}.cls-1,.cls-2,.cls-4{fill-rule:evenodd;}.cls-2,.cls-3{fill:#2e2e2c;}.cls-4,.cls-5{fill:#e6cb00;}</style></defs><title>JSN_Logo_Blck</title><polygon class="cls-1" points="157.72 0 0 0 0 157.45 102.06 157.45 124.24 177.17 124.24 157.45 157.72 157.45 157.72 0"/><path class="cls-2" d="M192.52,356.16a5.58,5.58,0,0,1-5.23-3.68L182,353.76a11,11,0,0,0,21,0l-5.26-1.28a5.52,5.52,0,0,1-5.23,3.68Z" transform="translate(-133.34 -241.03)"/><path class="cls-3" d="M231.63,367.46l9-4.17a12.35,12.35,0,0,0,4.69,7.08,14.54,14.54,0,0,0,8.75,2.45,11.2,11.2,0,0,0,8-2.8,9.71,9.71,0,0,0,3-7.48c0-4.08-3.37-7.73-10.18-10.93-.94-.46-1.66-.83-2.17-1-7.66-3.74-12.78-7.11-15.32-10.16a16.57,16.57,0,0,1-3.83-11.07,17.82,17.82,0,0,1,5.77-13.76c3.86-3.51,8.89-5.28,15.15-5.28a25.67,25.67,0,0,1,12.86,3,15.52,15.52,0,0,1,7.18,8.53l-8.83,4.54a14.48,14.48,0,0,0-4.6-4.77,11.84,11.84,0,0,0-13,.83,8.07,8.07,0,0,0-2.69,6.36q0,6.29,11.78,11.67c.6.29,1.09.51,1.43.66q10.29,4.79,14.18,9.28a17.1,17.1,0,0,1,3.83,11.33q0,9.89-6.23,15.7t-16.81,5.79c-5.95,0-10.78-1.34-14.58-4.08a19,19,0,0,1-7.43-11.67Zm-39.39,15.18a30,30,0,0,0,30-29.91V312.21c-3.83-.29-7.66-.57-11.46-.77v13.13h0v28.17a18.46,18.46,0,0,1-26.59,16.58l-7.66,8.82a29.68,29.68,0,0,0,15.75,4.51Z" transform="translate(-133.34 -241.03)"/><path class="cls-4" d="M162.3,312.27v11.67h11.46v-1.06h0V311.47c-3.8.23-7.63.49-11.46.8Z" transform="translate(-133.34 -241.03)"/><path class="cls-4" d="M178,311.24v11.39c4.09-.2,8.15-.31,12.12-.34V310.87c-4.06.06-8.09.17-12.12.37Z" transform="translate(-133.34 -241.03)"/><path class="cls-4" d="M194.35,310.87v11.42c4,0,8.06.11,12.18.31V311.21c-4.06-.2-8.09-.31-12.18-.34Z" transform="translate(-133.34 -241.03)"/><rect class="cls-5" x="28.96" y="87.13" width="11.46" height="12.13"/><path class="cls-4" d="M173.77,352.74v-8.22H162.3v8.22a29.94,29.94,0,0,0,.51,5.59L174,355.62a19.28,19.28,0,0,1-.23-2.88Z" transform="translate(-133.34 -241.03)"/><path class="cls-4" d="M180.57,367a18.49,18.49,0,0,1-5.43-7.33l-11.21,2.83a30,30,0,0,0,9.12,13.16Z" transform="translate(-133.34 -241.03)"/><path class="cls-2" d="M312.62,382V311.55h11l33.45,48.55V311.55h11.21V382H357.55l-33.82-48.63V382Z" transform="translate(-133.34 -241.03)"/><path class="cls-3" d="M418.7,381.76H408.13v-7.48H408c-3.32,5.74-8.2,8.62-14.61,8.62-4.72,0-8.43-1.28-11.09-3.85a13.38,13.38,0,0,1-4-10.16q0-13.57,15.69-15.84l14.27-2c0-6.85-3.26-10.25-9.75-10.25a23.19,23.19,0,0,0-15.49,5.91v-9.53a33.7,33.7,0,0,1,17.52-4.48q18.22,0,18.24,17.89Zm-10.52-23.57-10.09,1.43a16.27,16.27,0,0,0-7.06,2.25c-1.6,1.14-2.37,3.05-2.37,5.85a6.5,6.5,0,0,0,2.17,5,8.54,8.54,0,0,0,5.86,1.94,10.75,10.75,0,0,0,8.23-3.51,12.27,12.27,0,0,0,3.26-8.76Z" transform="translate(-133.34 -241.03)"/><path class="cls-3" d="M456.5,381.28a19.35,19.35,0,0,1-8.4,1.57c-9.32,0-14-4.45-14-13.41V342.32h-8v-8.53h8v-11.1L445,319.6v14.18H456.5v8.53H445v24q0,4.24,1.54,6.08c1,1.23,2.74,1.83,5.17,1.83a7.47,7.47,0,0,0,4.77-1.6Z" transform="translate(-133.34 -241.03)"/><path class="cls-3" d="M473.22,323.71a6.65,6.65,0,0,1-4.57-1.71,5.66,5.66,0,0,1-1.89-4.42,5.8,5.8,0,0,1,1.89-4.45,6.57,6.57,0,0,1,4.57-1.77,6.75,6.75,0,0,1,4.69,1.77,5.83,5.83,0,0,1,1.92,4.45,5.72,5.72,0,0,1-1.92,4.34,6.64,6.64,0,0,1-4.69,1.8Zm5.4,58H467.73v-48h10.89Z" transform="translate(-133.34 -241.03)"/><path class="cls-3" d="M511.67,382.9q-11.11,0-17.75-6.74t-6.63-17.84q0-12.07,6.92-18.86t18.67-6.79q11.23,0,17.55,6.59c4.17,4.42,6.29,10.53,6.29,18.32s-2.26,13.78-6.78,18.41-10.61,6.91-18.27,6.91Zm.54-41.55a12.39,12.39,0,0,0-10.09,4.42c-2.46,3-3.72,7.08-3.72,12.3,0,5,1.26,9,3.74,11.87a12.69,12.69,0,0,0,10.06,4.34c4.29,0,7.58-1.43,9.86-4.25s3.46-6.91,3.46-12.16-1.14-9.36-3.46-12.24-5.57-4.28-9.86-4.28Z" transform="translate(-133.34 -241.03)"/><path class="cls-3" d="M588.54,381.76H577.65v-27q0-13.44-9.52-13.44A10.39,10.39,0,0,0,559.9,345a13.78,13.78,0,0,0-3.23,9.39v27.34H545.72v-48h10.95v8h.2c3.57-6.05,8.8-9.08,15.58-9.08,5.23,0,9.21,1.68,11.95,5.08s4.15,8.28,4.15,14.7Z" transform="translate(-133.34 -241.03)"/><path class="cls-2" d="M185.14,334a4.71,4.71,0,1,0,4.72,4.71,4.72,4.72,0,0,0-4.72-4.71Z" transform="translate(-133.34 -241.03)"/><path class="cls-2" d="M199.32,334a4.71,4.71,0,1,0,4.72,4.71,4.72,4.72,0,0,0-4.72-4.71Z" transform="translate(-133.34 -241.03)"/></svg>