<svg fill="none" height="38" viewBox="0 0 160 38" width="160" xmlns="http://www.w3.org/2000/svg" xmlns:xlink="http://www.w3.org/1999/xlink"><clipPath id="a"><path d="m0 0h37.4931v38.3452h-37.4931z" transform="matrix(0 1 -1 0 38.3452 .506836)"/></clipPath><g clip-path="url(#a)"><path d="m17.5326 33.063-8.58583 4.937-8.520772-4.937v-9.874l8.520772-4.937 8.58583 4.937z" fill="#1e82df"/><path d="m28.1299 15.3179-8.5858 4.937-8.5858-4.937v-9.87404l8.5858-4.937024 8.5858 4.937024z" fill="#f9a80c"/><path d="m37.9191 33.063-8.5858 4.937-8.5208-4.937v-9.874l8.5208-4.937 8.5858 4.937z" fill="#ee3635"/></g><g fill="#333"><path d="m46.6705 10.4906v17.8945c0 .23.1534.3834.3834.3834h3.0676c.2301 0 .3835-.1534.3835-.3834v-17.8945c0-.2301-.1534-.3834-.3835-.3834h-3.0676c-.23 0-.3834.1533-.3834.3834z"/><path d="m54.2526 14.0439c1.1504 0 2.0451-.9202 2.0451-2.045 0-1.1504-.8947-2.07068-2.0451-2.07068-1.1503 0-2.045.92028-2.045 2.07068 0 1.1248.8947 2.045 2.045 2.045zm-1.9172 2.582v11.7592c0 .23.1534.3834.3834.3834h3.0677c.23 0 .3834-.1534.3834-.3834v-11.7592c0-.2301-.1534-.3835-.3834-.3835h-3.0677c-.23 0-.3834.1534-.3834.3835z"/><path d="m66.9403 16.5492-2.812 7.7201-2.8119-7.7201c-.0767-.2045-.2557-.3068-.4602-.3068h-3.0932c-.2812 0-.409.1534-.3067.4346l4.7037 11.7848c.0766.2045.2556.3067.4601.3067h3.0165c.2045 0 .3834-.1022.4601-.3067l4.7037-11.7848c.1023-.2812-.0255-.4346-.3067-.4346h-3.0932c-.2045 0-.3835.1023-.4602.3068z"/><path d="m73.9895 14.0439c1.1503 0 2.045-.9202 2.045-2.045 0-1.1504-.8947-2.07068-2.045-2.07068-1.1504 0-2.0451.92028-2.0451 2.07068 0 1.1248.8947 2.045 2.0451 2.045zm-1.9173 2.582v11.7592c0 .23.1534.3834.3835.3834h3.0676c.23 0 .3834-.1534.3834-.3834v-11.7592c0-.2301-.1534-.3835-.3834-.3835h-3.0676c-.2301 0-.3835.1534-.3835.3835z"/><path d="m85.4757 15.9612c-1.7895 0-3.0677.9459-3.8601 2.2496l-.1023-1.5849c-.0255-.2301-.1534-.3835-.3834-.3835h-2.9654c-.2301 0-.3835.1534-.3835.3835v11.7592c0 .23.1534.3834.3835.3834h3.0676c.2301 0 .3835-.1534.3835-.3834v-6.5699c0-.6135.7158-2.3007 2.4285-2.3007 1.0225 0 2.1473.588 2.1473 2.6075v6.2631c0 .23.1534.3834.3835.3834h3.0676c.2301 0 .3835-.1534.3835-.3834v-7.03c0-3.3488-2.0196-5.3939-4.5503-5.3939z"/><path d="m104.231 16.2424h-2.786c-.23 0-.358.1534-.384.3835l-.076.9969c-.895-.9969-2.0967-1.6616-3.5794-1.6616-3.4766 0-6.033 2.9142-6.033 6.442s2.5564 6.442 6.033 6.442c1.585 0 2.8124-.6902 3.6814-1.6872v1.1759c0 1.9173-2.122 2.3774-3.4513 2.3774-1.4827 0-2.6842-.2812-3.8601-.9714-.2301-.1278-.3579-.0511-.5113.1534l-.9969 1.7895c-.1023.2045-.0767.3834.1022.5112 1.3293.9714 3.3744 1.6361 5.5729 1.6361 2.8635 0 6.6725-1.1504 6.6725-5.1638v-12.0404c0-.2301-.154-.3835-.384-.3835zm-6.3397 9.1006c-1.636 0-2.8375-1.3293-2.8375-2.9654 0-1.6105 1.2015-2.9398 2.8375-2.9398 1.6105 0 2.8117 1.406 2.8117 2.9398 0 1.5339-1.2012 2.9654-2.8117 2.9654z"/><path d="m114.415 19.489c0-1.1759 1.099-1.6105 1.994-1.6105 1.099 0 1.84.4346 2.837 1.227.205.179.409.2301.563.0256l.588-.7414c.127-.1789.179-.3578.025-.5368-1.048-1.227-2.684-1.8917-4.09-1.8917-2.25 0-4.116 1.406-4.116 3.5278 0 4.1924 6.647 3.1698 6.647 5.9051 0 1.0737-.972 1.6361-2.275 1.6361-1.432 0-2.659-.8436-3.4-1.4571-.23-.179-.384-.2301-.563-.0256l-.664.8947c-.128.1534-.128.3068.025.4857.895 1.0482 2.557 2.0963 4.678 2.0963 2.199 0 4.448-1.3805 4.448-3.6045 0-4.4736-6.697-3.3233-6.697-5.9307z"/><path d="m128.838 15.9868c-1.892 0-3.349.8691-4.295 2.1984l-.102-1.5593c-.025-.2301-.153-.3835-.383-.3835h-1.355c-.23 0-.384.1534-.384.3835v16.6162c0 .2301.154.3835.384.3835h1.534c.23 0 .383-.1534.383-.3835v-6.3142c.946 1.2015 2.352 2.0196 4.218 2.0196 3.553 0 6.11-2.8887 6.11-6.4165 0-3.6556-2.557-6.5442-6.11-6.5442zm-.23 10.8645c-2.377 0-4.09-1.8917-4.09-4.3458 0-2.4286 1.713-4.4225 4.09-4.4225s4.141 1.8661 4.141 4.4225c0 2.4541-1.764 4.3458-4.141 4.3458z"/><path d="m141.992 15.9868c-3.63 0-6.187 2.8631-6.187 6.4675 0 3.6045 2.633 6.4932 6.391 6.4932 1.866 0 3.502-.6902 4.678-1.9173.205-.2045.179-.3834 0-.588l-.664-.6135c-.205-.1789-.358-.1278-.537.0256-.844.6646-1.815 1.0992-3.221 1.0992-2.48 0-4.065-1.4827-4.397-3.6044h9.049c.665 0 .767-.4346.767-1.3293 0-3.1699-2.275-6.033-5.879-6.033zm0 2.0195c2.147 0 3.706 1.5594 3.86 3.6811h-7.797c.255-2.1729 1.789-3.6811 3.937-3.6811z"/><path d="m155.065 26.8513c-2.428 0-4.141-1.9173-4.141-4.3458 0-2.5053 1.713-4.4225 4.141-4.4225 1.739 0 2.557.818 3.298 1.4827.205.1789.384.1789.563 0l.869-.8181c.153-.1534.179-.3579.025-.5368-1.176-1.3549-2.812-2.224-4.78-2.224-3.605 0-6.314 2.8886-6.314 6.5187 0 3.5533 2.709 6.442 6.314 6.442 2.019 0 3.681-.8692 4.857-2.2241.153-.1789.128-.3834-.026-.5368l-.869-.818c-.179-.179-.358-.2045-.562 0-.716.6902-1.585 1.4827-3.375 1.4827z"/></g></svg>