<svg
  fill="none"
  height="44"
  viewBox="0 0 190 44"
  width="190"
  xmlns="http://www.w3.org/2000/svg"
  xmlns:xlink="http://www.w3.org/1999/xlink"
>
  <clipPath id="a">
    <path
      d="m45 .000002h44v45h-44z"
      transform="matrix(0 1 -1 0 45.000002 -44.999998)"
    />
  </clipPath>
  <g clip-path="url(#a)">
    <path
      d="m20.5754 38.2062-10.0758 5.7938-9.999578-5.7938.000001-11.5877 9.999577-5.7938 10.0758 5.7938z"
      fill="#00b9f1"
    />
    <path
      d="m33.0119 17.3815-10.0759 5.7938-10.0758-5.7938v-11.58767l10.0758-5.79382853 10.0759 5.79383853z"
      fill="#fe4a49"
    />
    <path
      d="m44.5 38.2062-10.0759 5.7938-9.9995-5.7938v-11.5877l9.9995-5.7938 10.0759 5.7938z"
      fill="#f9c00c"
    />
  </g>
  <path
    d="m54.77 11.7165v21c0 .27.18.45.45.45h3.6c.27 0 .45-.18.45-.45v-21c0-.27-.18-.45-.45-.45h-3.6c-.27 0-.45.18-.45.45zm8.898 4.17c1.35 0 2.4-1.08 2.4-2.4 0-1.35-1.05-2.43-2.4-2.43s-2.4 1.08-2.4 2.43c0 1.32 1.05 2.4 2.4 2.4zm-2.25 3.03v13.8c0 .27.18.45.45.45h3.6c.27 0 .45-.18.45-.45v-13.8c0-.27-.18-.45-.45-.45h-3.6c-.27 0-.45.18-.45.45zm17.1397-.09-3.3 9.06-3.3-9.06c-.09-.24-.3-.36-.54-.36h-3.63c-.33 0-.48.18-.36.51l5.52 13.83c.09.24.3.36.54.36h3.54c.24 0 .45-.12.54-.36l5.52-13.83c.12-.33-.03-.51-.36-.51h-3.63c-.24 0-.45.12-.54.36zm8.2725-2.94c1.35 0 2.4-1.08 2.4-2.4 0-1.35-1.05-2.43-2.4-2.43s-2.4 1.08-2.4 2.43c0 1.32 1.05 2.4 2.4 2.4zm-2.25 3.03v13.8c0 .27.18.45.45.45h3.6c.27 0 .45-.18.45-.45v-13.8c0-.27-.18-.45-.45-.45h-3.6c-.27 0-.45.18-.45.45zm15.7298-.78c-2.1002 0-3.6002 1.11-4.5302 2.64l-.12-1.86c-.03-.27-.18-.45-.45-.45h-3.48c-.27 0-.45.18-.45.45v13.8c0 .27.18.45.45.45h3.6c.27 0 .45-.18.45-.45v-7.71c0-.72.84-2.7 2.85-2.7 1.2 0 2.5202.69 2.5202 3.06v7.35c0 .27.18.45.45.45h3.6c.27 0 .45-.18.45-.45v-8.25c0-3.93-2.37-6.33-5.34-6.33zm22.01.33h-3.27c-.27 0-.42.18-.45.45l-.09 1.17c-1.05-1.17-2.46-1.95-4.2-1.95-4.08 0-7.08 3.42-7.08 7.56s3 7.56 7.08 7.56c1.86 0 3.3-.81 4.32-1.98v1.38c0 2.25-2.49 2.79-4.05 2.79-1.74 0-3.15-.33-4.53-1.14-.27-.15-.42-.06-.6.18l-1.17 2.1c-.12.24-.09.45.12.6 1.56 1.14 3.96 1.92 6.54 1.92 3.36 0 7.83-1.35 7.83-6.06v-14.13c0-.27-.18-.45-.45-.45zm-7.44 10.68c-1.92 0-3.33-1.56-3.33-3.48 0-1.89 1.41-3.45 3.33-3.45 1.89 0 3.3 1.65 3.3 3.45s-1.41 3.48-3.3 3.48zm19.391-6.87c0-1.38 1.29-1.89 2.34-1.89 1.29 0 2.16.51 3.33 1.44.24.21.48.27.66.03l.69-.87c.15-.21.21-.42.03-.63-1.23-1.44-3.15-2.22-4.8-2.22-2.64 0-4.83 1.65-4.83 4.14 0 4.92 7.8 3.72 7.8 6.93 0 1.26-1.14 1.92-2.67 1.92-1.68 0-3.12-.99-3.99-1.71-.27-.21-.45-.27-.66-.03l-.78 1.05c-.15.18-.15.36.03.57 1.05 1.23 3 2.46 5.49 2.46 2.58 0 5.22-1.62 5.22-4.23 0-5.25-7.86-3.9-7.86-6.96zm16.927-4.11c-2.22 0-3.93 1.02-5.04 2.58l-.12-1.83c-.03-.27-.18-.45-.45-.45h-1.59c-.27 0-.45.18-.45.45v19.5c0 .27.18.45.45.45h1.8c.27 0 .45-.18.45-.45v-7.41c1.11 1.41 2.76 2.37 4.95 2.37 4.17 0 7.17-3.39 7.17-7.53 0-4.29-3-7.68-7.17-7.68zm-.27 12.75c-2.79 0-4.8-2.22-4.8-5.1 0-2.85 2.01-5.19 4.8-5.19s4.86 2.19 4.86 5.19c0 2.88-2.07 5.1-4.86 5.1zm15.706-12.75c-4.26 0-7.26 3.36-7.26 7.59s3.09 7.62 7.5 7.62c2.19 0 4.11-.81 5.49-2.25.24-.24.21-.45 0-.69l-.78-.72c-.24-.21-.42-.15-.63.03-.99.78-2.13 1.29-3.78 1.29-2.91 0-4.77-1.74-5.16-4.23h10.62c.78 0 .9-.51.9-1.56 0-3.72-2.67-7.08-6.9-7.08zm0 2.37c2.52 0 4.35 1.83 4.53 4.32h-9.15c.3-2.55 2.1-4.32 4.62-4.32zm15.343 10.38c-2.85 0-4.86-2.25-4.86-5.1 0-2.94 2.01-5.19 4.86-5.19 2.04 0 3 .96 3.87 1.74.24.21.45.21.66 0l1.02-.96c.18-.18.21-.42.03-.63-1.38-1.59-3.3-2.61-5.61-2.61-4.23 0-7.41 3.39-7.41 7.65 0 4.17 3.18 7.56 7.41 7.56 2.37 0 4.32-1.02 5.7-2.61.18-.21.15-.45-.03-.63l-1.02-.96c-.21-.21-.42-.24-.66 0-.84.81-1.86 1.74-3.96 1.74z"
    fill="#000"
  />
</svg>
