<?xml version="1.0" encoding="UTF-8"?>
<svg id="Layer_2" data-name="Layer 2" xmlns="http://www.w3.org/2000/svg" viewBox="0 0 410 410">
  <defs>
    <style>
      .cls-1 {
        fill: #716f35;
      }

      .cls-2 {
        fill: #fff;
        stroke: #a66940;
        stroke-miterlimit: 10;
        stroke-width: 10px;
      }
    </style>
  </defs>
  <g id="Layer_1-2" data-name="Layer 1">
    <path class="cls-2" d="M5,205C5,94.54,94.54,5,205,5s200,91.75,200,200-89.54,200-200,200S5,315.46,5,205Z"/>
    <path class="cls-1" d="M111.4,138.2c0-11.44,9.36-20.8,20.8-20.8,5.82,0,11.02,2.29,14.77,6.03l58.03,58.03,58.03-58.03c3.74-3.74,9.15-6.03,14.77-6.03,11.44,0,20.8,9.36,20.8,20.8v124.8c0,11.44-9.36,20.8-20.8,20.8s-20.8-9.36-20.8-20.8v-74.46l-37.23,37.23c-3.74,3.74-8.94,6.03-14.77,6.03s-11.02-2.29-14.77-6.03l-37.23-37.23v74.46c0,11.44-9.36,20.8-20.8,20.8s-20.8-9.36-20.8-20.8v-124.8ZM132.2,150.68c6.86,0,12.48-5.62,12.48-12.48s-5.62-12.48-12.48-12.48-12.48,5.62-12.48,12.48,5.62,12.48,12.48,12.48ZM144.68,246.36v-66.14l-24.96-24.96v91.1c3.54-2.5,7.9-4.16,12.48-4.16s9.15,1.66,12.48,4.16ZM132.2,275.48c6.86,0,12.48-5.62,12.48-12.48s-5.62-12.48-12.48-12.48-12.48,5.62-12.48,12.48,5.62,12.48,12.48,12.48ZM135.32,158.8l9.36,9.36v-13.31c-2.7,2.08-5.82,3.54-9.36,3.95ZM190.23,196.23l8.94-8.94-46.17-46.17v35.36l31.41,31.41c.83-4.37,2.91-8.53,5.82-11.65ZM205,223.48c6.86,0,12.48-5.62,12.48-12.48s-5.62-12.48-12.48-12.48-12.48,5.62-12.48,12.48,5.62,12.48,12.48,12.48ZM225.59,207.88l31.41-31.41v-35.36l-46.17,46.17,8.94,8.94c3.12,3.12,5.2,7.28,5.82,11.65ZM277.79,150.68c6.86,0,12.48-5.62,12.48-12.48s-5.62-12.48-12.48-12.48-12.48,5.62-12.48,12.48,5.62,12.48,12.48,12.48ZM265.31,154.84v13.31l9.36-9.36c-3.33-.42-6.66-1.87-9.36-3.95ZM290.27,246.36v-91.1l-24.96,24.96v66.14c3.54-2.5,7.9-4.16,12.48-4.16s9.15,1.66,12.48,4.16ZM277.79,275.48c6.86,0,12.48-5.62,12.48-12.48s-5.62-12.48-12.48-12.48-12.48,5.62-12.48,12.48,5.62,12.48,12.48,12.48Z"/>
  </g>
</svg>