<svg xmlns="http://www.w3.org/2000/svg" width="1454" height="1205"><defs><clipPath id="A"><path d="M0 0h1454v1205H0z"/></clipPath></defs><g clip-path="url(#A)"><path d="M791.8 1176.6H824l.2-64.7H863v-29.7h-39V921.3l-30.8 47.8v115.5h-75q-7.9 0-8.6-3.8 0-2 2.3-4.7l97.6-154.8h-33.1L684 1069.5q-7.3 12.4-7.3 19.7 0 10.6 7.7 16.7 7.7 6 20.9 6h86.5v64.7zm92.4 0H915l.2-79q0-26.1 6.9-38.8 7.9-17.9 23.3-24.2 15.4-6.3 38-6.3v-28.8q-23.3 0-39.8 7.3-16.5 7.2-29.9 25.3v-29.4h-29.5v173.9zm285.4-73.8l-25.1-7.3q-4.3 18.4-13.8 31.1-18 25.4-47.4 25.4-16.1 0-31.2-8.3-15-8.3-24.4-23.2-9.4-14.8-9.4-33.4 0-17 8.1-31.5 7.7-14.4 21.2-22.6 13.5-8.2 29.1-8.2 13.4 0 24.3 5.2 10.9 5.1 17.6 15l-83.3 56.4 12.6 22 110-72.7q-7.8-15-20-26.8-12.2-11.8-27.6-18.6-15.2-6.7-32-6.7-24.7 0-45.5 12-20.8 12-32.7 32.8-11.9 20.7-11.9 45.8 0 19.7 7.9 36.5 7.9 16.9 21.4 29.1 13.5 12.3 30.5 18.7 16.9 6.8 34.2 6.8 16.7 0 32.2-6.3 15.6-6.4 28-18.7 9.5-9 15.5-21 6.1-12 11.7-31.5zm165.1-1.4v75.2h30.4v-79.7q0-25.1-11.1-47.8-11.1-22.7-31.5-36.5-20.2-14-45.6-14-24.2 0-44.8 12.4-20.4 12.3-32.4 33.6-12 21.3-12 46.2 0 24.5 11.6 45.1 11.7 20.6 31.8 32.5 20.2 11.9 44.3 11.9 12.9 0 22.6-3.1 9.6-3.1 24.1-11.4v-33.3q-19.6 16.5-44.5 16.5-26.3 0-42.6-18.6-15.1-16.1-15.1-40.1 0-15.6 7.1-29.7 7.1-14.2 20.1-22.8 12.9-8.7 29.8-8.7 18.6 0 31.8 10.3 13.1 10.2 19.5 26.9 6.5 16.6 6.5 35.1zm93.6-180.1v255.3H1397V921.3h31.3zm-926.2 77.1v107c0 18.4-7 28.6-24.2 28.6-17.3 0-25.7-10.2-25.7-28.6v-107h-49.1v118.8c0 43.2 32.2 63.8 67.4 63.8 22 0 41.1-8.8 54.6-30.1 16.5 21.3 35.6 30.1 57.6 30.1 35.2 0 67.5-20.6 67.5-63.8V998.4H601v107c0 18.4-8.4 28.6-25.6 28.6-17.3 0-24.2-10.2-24.2-28.6v-107h-49.1zM69.9 1176.6v-107.1c0-18.3 9.5-28.6 26.8-28.6 17.2 0 26.7 10.3 26.7 28.6v107.1h46.9v-123.2c0-38.9-30-59.4-73.6-59.4-43.7 0-73.7 20.5-73.7 59.4v123.2h46.9zm216.3-135.7c26 0 43.2 16.9 43.2 46.6s-17.2 46.5-43.2 46.5c-26.1 0-43.3-16.8-43.3-46.5s17.2-46.6 43.3-46.6zm0-46.9c-55.4 0-90.2 42.5-90.2 93.5 0 50.9 34.8 93.5 90.2 93.5 55.3 0 90.1-42.6 90.1-93.5 0-51-34.8-93.5-90.1-93.5z" fill="#39ace2"/><path d="M533.1 208.2c-11.9 2.4-24.5 4-36.4 4-12.6 0-24.5-.8-36.3-4 2.3 8 7.1 14.3 13.4 19 13.3 10.3 31.8 10.3 45.1 0 6.8-4.4 11.9-11.1 14.2-19zm171.6-60.8c-16.6 3.9-33.2 5.5-49.8 5.5s-33.2-1.6-49.8-5.5c3.1 10.2 10.2 19.7 18.9 26.1 18.2 13.4 43.5 13.4 62.5 0 8.7-6.4 15-15.9 18.2-26.1zm143.9 29.2c-29.7 6.3-60.4 6.3-90.1 0 3.1 9.5 8.7 17.4 16.6 23.7 16.6 12.7 39.5 12.7 56.1 0 8.7-6.3 14.3-14.2 17.4-23.7zM982.3 213c-25.3 5.5-51.4 5.5-76 0 2.4 7.9 8 15 14.3 19.8a40.22 40.22 0 0 0 47.4 0c6.4-4.8 11.1-11.9 14.3-19.8zm118.6 224.6c0 207.9-168.5 376.4-376.4 376.4-60.1 0-117.1-14.3-166.9-39.6l-13.4 4.8c-49.1 17.4-90.2 27.7-117.1 30.8 15.9-38.7 19.8-81.4 11.1-122.5l-1.6-8.7c-55.3-65.7-88.5-149.5-88.5-241.2 0-40.6 6.6-81 19.7-119.4h61.7c8.7-31.7 35.6-54.6 67.2-54.6 26.1 0 49.1 15.8 60.9 38.8 8.7-49.1 48.3-86.2 94.9-86.2 37.2 0 69.6 22.9 85.4 56.9 15.8-19.8 39.6-32.4 65.6-32.4 37.2 0 68.8 25.3 81.5 60.9 13.4-19.8 34.8-32.5 59.3-32.5 30.1 0 56.2 19.8 68 49.1h69.6c11.9 37.1 19 77.5 19 119.4zM997.3 200.3c0 29.3-23.7 53-53 53s-53-23.7-53-53c0-14 5.6-27.5 15.5-37.4 10-10 23.5-15.5 37.5-15.5 29.3-.8 53 23.7 53 52.9zM866 161.6a61.99 61.99 0 0 1-18.2 44.3 62.24 62.24 0 0 1-44.3 18.2c-16.6.1-32.5-6.5-44.2-18.2a61.99 61.99 0 0 1-18.2-44.3c.1-34.5 28-62.4 62.4-62.5 34.5.1 62.4 28 62.5 62.5zm-141.5-30.8c.1 18.4-7.2 36.2-20.3 49.3s-30.8 20.3-49.3 20.2c-18.5.1-36.3-7.1-49.3-20.2-13.1-13.1-20.4-30.9-20.3-49.3-.1-18.5 7.2-36.3 20.3-49.4 13-13 30.8-20.3 49.3-20.2 38.7 0 69.6 31.6 69.6 69.6zm-177.2 65.6c0 27.7-22.9 50.6-50.6 50.6-27.6 0-50.6-22.9-50.6-50.6s23-50.6 50.6-50.6c27.7 0 50.6 22.9 50.6 50.6zm345.6-136C839.9 36.7 782.2 24 724.5 24c-227.8.8-412.8 185-412.8 412.8 0 93.3 31.6 184.2 90.1 257.8 7.9 39.5 2.4 80.6-15.8 116.2-36.4 70.4 113.9 23 169.2 3.2 208 93.3 452.4 0 545.7-208s0-452.3-208-545.6z" fill="#39aae1"/></g></svg>