<svg xmlns="http://www.w3.org/2000/svg" viewBox="0 0 329.53 239.04"><defs><style>.cls-1{fill:#333;}.cls-2{fill:#48c4e5;}.cls-3{fill:#96d8e9;}</style></defs><title>Nrwl_ColorVertical</title><g id="Layer_2" data-name="Layer 2"><g id="Color_on_white_vertical" data-name="Color on white vertical"><g id="LOGO"><path class="cls-1" d="M85.88,150.21V239h-21L25,191.71V239H0V150.21H21l39.84,47.33V150.21Z"/><path class="cls-1" d="M131,171.47a37.4,37.4,0,0,1,13.74-2.35v21.7a52,52,0,0,0-5.55-.38q-7.86,0-12.31,4.19t-4.45,12.81V239H97.9V170.26h23.34v8.25A22.74,22.74,0,0,1,131,171.47Z"/><path class="cls-1" d="M258.47,170.26,238.59,239H214.86l-8.15-31.52L198.05,239H174.32l-19.88-68.78h23.21L187,205l9.82-34.73h20.89l9.44,35.11,9.82-35.11Z"/><polygon class="cls-1" points="292.17 148 292.17 134.04 267.62 134.04 267.62 142.14 292.17 148"/><path class="cls-1" d="M292.17,211.32V153.46l-24.55-2v62.74c0,21.54,13.91,24.28,27,24.28,4,0,7.38-.37,7.38-.37V219.41s-1.42.13-3,.13C293.45,219.54,292.17,217.42,292.17,211.32Z"/><g id="whale"><g id="bdy"><path id="bdy-2" data-name="bdy" class="cls-2" d="M98.08,79a78.6,78.6,0,0,0,56.39,75.54,105.11,105.11,0,0,0,28.68,4A104.47,104.47,0,0,0,224.53,150c5.29-2.47,6.22-6.38,6.22-8.93s-2.28-4.23-3.13-5.36a3.33,3.33,0,0,1-.76-1.61h0c-1.38-19.68-18-35.22-38.39-35.22H186c-18.05,0-32.68-14.39-32.68-32.15a31.81,31.81,0,0,1,9.34-22.5,43,43,0,0,1,72.16,18.26,21.4,21.4,0,0,1-12.75,7.38A21.05,21.05,0,0,0,204.8,87.19c8.23,0,13.7,11,29,11a13.91,13.91,0,0,0,12.85-8.48,13.9,13.9,0,0,0,12.85,8.48c15.28,0,20.75-11,29-11a21.05,21.05,0,0,0-17.27-17.28c-6.57-1.06-13.23-5.86-15.48-12.1h0C246.3,24.47,215.23,0,178.36,0,134,0,98.08,35.37,98.08,79Zm82.73,57.08c.5-2,2.13-1.15,4.28-.63s4,.5,3.51,2.5a3.92,3.92,0,0,1-4.8,2.7A3.84,3.84,0,0,1,180.81,136.08Z"/><path id="tusk" class="cls-2" d="M225.49,144.91a4.16,4.16,0,0,1,4.19-4.13,2.43,2.43,0,0,1,.38,0h0a7.44,7.44,0,0,1,.87.16l98.6,17.32L229.05,149h0A4.14,4.14,0,0,1,225.49,144.91Z"/><g id="right_fin" data-name="right fin"><path class="cls-2" d="M171.51,95.6a13.08,13.08,0,0,1,11.66-10.14v.07a11.58,11.58,0,0,0,4.47,9.13,11.58,11.58,0,0,1,4.11,4.4v4.19H171.51Z"/></g></g><g id="highlights"><path class="cls-3" d="M116.09,129.2a78.34,78.34,0,0,1-18-50.2c0-37,25.8-68,60.64-76.62C132.65,9.64,103.5,33.06,103.5,74c0,51.85,43.84,61.89,64.23,71.21,12.39,5.66,16.85,10.41,18.45,13.27-1,0-2,0-3,0a105.11,105.11,0,0,1-28.68-4c-9.57-2.85-20.5-9.15-28.12-15.06,1.07.16-5.4-3.57-11.75-12.14"/><ellipse class="cls-3" cx="132.43" cy="84.28" rx="2.73" ry="3.85" transform="translate(-16.15 33.65) rotate(-13.66)"/><ellipse class="cls-3" cx="143.34" cy="99.8" rx="3.55" ry="5.07" transform="translate(-30.38 117.88) rotate(-40.79)"/><ellipse class="cls-3" cx="142.13" cy="65.26" rx="3.85" ry="2.73" transform="translate(66.36 202.08) rotate(-85.69)"/><ellipse class="cls-3" cx="132.73" cy="70.26" rx="1.37" ry="1.92" transform="translate(-2.98 5.94) rotate(-2.54)"/><path id="left_fin" data-name="left fin" class="cls-3" d="M151.5,145.48a40.6,40.6,0,0,1-21.06,9.88c-1.13.17-2.27.29-3.43.37a42.51,42.51,0,0,1-6.59-.09v0a48.28,48.28,0,0,0-8-.13,47.51,47.51,0,0,0-13.26,2.79h0a15.92,15.92,0,0,1-1-4.71,16.34,16.34,0,0,1,24.34-15h0a17.08,17.08,0,0,0,9.13,2,16.42,16.42,0,0,0,8.12-2.76s1.86-1.62,6.29,1.19C152.5,143.11,151.5,145.48,151.5,145.48Z"/></g></g></g></g></g></svg>