<svg width="635" height="326" viewBox="0 0 635 326" fill="none" xmlns="http://www.w3.org/2000/svg">
<path d="M598.622 185.91C598.622 175.382 606.026 168.006 616.766 168.006C627.506 168.006 634.91 175.382 634.91 185.91C634.91 196.611 627.506 203.987 616.766 203.987C606.026 203.987 598.622 196.611 598.622 185.91Z" fill="black"/>
<path d="M474.744 325.577C453.541 325.577 440.889 313.04 440.889 292.054V276.712C440.889 275.708 441.689 274.912 442.697 274.912H467.305C468.313 274.912 469.113 275.708 469.113 276.712V293.128C469.113 297.075 472.033 299.188 474.778 299.188C478.115 299.188 480.444 296.694 480.444 293.128V278.236C480.444 266.185 476.516 262.999 467.896 256.107C466.888 255.276 465.776 254.41 464.629 253.44C443.357 235.917 441.132 228.021 441.132 214.169V199.07C441.132 178.568 454.341 165.339 474.778 165.339C495.355 165.339 508.633 178.603 508.633 199.07V214.204C508.633 215.208 507.834 216.004 506.826 216.004H482.008C481 216.004 480.201 215.208 480.201 214.204V197.754C480.201 194.256 477.907 191.693 474.778 191.693C471.72 191.693 469.356 194.36 469.356 197.754V209.459C469.356 218.602 469.808 220.472 485.414 232.8C505.122 248.246 508.876 258.289 508.876 271.414V292.054C508.842 313.04 496.085 325.577 474.744 325.577ZM35.3299 325.161C14.3011 325.161 0.18927 311.759 0.18927 291.846V274.981C0.18927 273.977 0.98871 273.18 1.9967 273.18H27.0226C28.0306 273.18 28.8301 273.977 28.8301 274.981V292.262C28.8301 295.967 31.7845 298.945 35.3646 298.945H35.5732C39.3271 298.842 42.0382 296.002 42.0382 292.262V169.218C42.0382 168.214 42.8376 167.417 43.8456 167.417H68.8716C69.8796 167.417 70.679 168.214 70.679 169.218V291.846C70.7138 311.447 56.1501 325.161 35.3299 325.161ZM562.717 323.464C561.709 323.464 560.909 322.668 560.909 321.663V259.189H547.458V321.663C547.458 322.668 546.659 323.464 545.651 323.464H520.868C519.86 323.464 519.06 322.668 519.06 321.663V169.218C519.06 168.214 519.86 167.417 520.868 167.417H545.685C546.693 167.417 547.493 168.214 547.493 169.218V231.692H560.944V169.218C560.944 168.214 561.744 167.417 562.752 167.417H587.569C588.577 167.417 589.376 168.214 589.376 169.218V321.663C589.376 322.668 588.577 323.464 587.569 323.464H562.717ZM404.011 323.464C403.003 323.464 402.203 322.668 402.203 321.663V169.218C402.203 168.214 403.003 167.417 404.011 167.417H428.828C429.836 167.417 430.635 168.214 430.635 169.218V321.663C430.635 322.668 429.836 323.464 428.828 323.464H404.011ZM342.489 323.464C341.481 323.464 340.681 322.668 340.681 321.663V169.218C340.681 168.214 341.481 167.417 342.489 167.417H391.254C392.262 167.417 393.062 168.214 393.062 169.218V191.832C393.062 192.836 392.262 193.633 391.254 193.633H369.148V237.683H387.014C388.022 237.683 388.821 238.48 388.821 239.484V262.098C388.821 263.102 388.022 263.899 387.014 263.899H369.148V321.698C369.148 322.702 368.349 323.499 367.341 323.499H342.489V323.464ZM284.616 323.464C283.608 323.464 282.809 322.668 282.809 321.663V275.05L260.39 169.599C260.285 169.079 260.424 168.525 260.737 168.11C261.085 167.694 261.606 167.452 262.127 167.452H287.362C288.266 167.452 289.065 168.144 289.169 169.045L295.634 225.251H299.215L305.714 169.01C305.819 168.11 306.583 167.417 307.522 167.417H331.887C332.443 167.417 332.93 167.66 333.278 168.075C333.625 168.491 333.764 169.045 333.625 169.564L311.206 275.016V321.629C311.206 322.633 310.407 323.43 309.399 323.43H284.616V323.464ZM213.257 323.464C212.249 323.464 211.45 322.668 211.45 321.663V169.218C211.45 168.214 212.249 167.417 213.257 167.417H238.075C239.083 167.417 239.882 168.214 239.882 169.218V297.249H265.847C266.855 297.249 267.654 298.045 267.654 299.049V321.663C267.654 322.668 266.855 323.464 265.847 323.464H213.257ZM147.669 323.464C146.661 323.464 145.861 322.668 145.861 321.663V169.218C145.861 168.214 146.661 167.417 147.669 167.417H172.486C173.494 167.417 174.293 168.214 174.293 169.218V297.249H200.258C201.266 297.249 202.065 298.045 202.065 299.049V321.663C202.065 322.668 201.266 323.464 200.258 323.464H147.669ZM82.9487 323.464C81.9407 323.464 81.1412 322.668 81.1412 321.663V169.218C81.1412 168.214 81.9407 167.417 82.9487 167.417H134.252C135.26 167.417 136.059 168.214 136.059 169.218V191.832C136.059 192.836 135.26 193.633 134.252 193.633H109.573V229.164H127.856C128.864 229.164 129.664 229.961 129.664 230.965V253.579C129.664 254.583 128.864 255.38 127.856 255.38H109.573V297.283H134.252C135.26 297.283 136.059 298.08 136.059 299.084V321.698C136.059 322.702 135.26 323.499 134.252 323.499H82.9487V323.464ZM491.219 160.595C469.113 160.595 448.71 152.353 433.798 137.427C418.852 122.466 410.684 102.103 410.789 80.0434C410.893 58.8839 419.374 38.9018 434.737 23.7335C450.065 8.59975 470.19 0.28833 491.393 0.28833C491.879 0.28833 492.401 0.28833 492.887 0.28833C511.97 0.634639 529.488 7.04136 543.53 18.7812C557.399 30.3826 566.61 46.0704 570.12 64.1824C570.259 64.875 569.947 65.3945 569.738 65.6023C569.39 66.0178 568.869 66.2602 568.348 66.2602H542.905C542.07 66.2602 541.375 65.7062 541.167 64.9096C535.64 42.8151 518.087 28.1316 495.355 26.6078C494.174 26.5386 492.992 26.5039 491.845 26.5039C478.15 26.5039 465.185 31.9064 455.314 41.6723C445.512 51.4382 439.881 64.4594 439.464 78.3465C438.977 94.6923 444.226 109.341 454.202 119.592C463.621 129.254 476.412 134.379 491.219 134.379C511.101 134.379 527.541 124.925 536.37 108.441L537.795 105.809H494.799C493.791 105.809 492.992 105.012 492.992 104.008V81.4632C492.992 80.4589 493.791 79.6624 494.799 79.6624H570.885C571.302 79.6624 571.65 80.0087 571.65 80.3897C571.65 102.38 563.447 122.639 548.535 137.531C533.624 152.422 513.256 160.595 491.219 160.595ZM80.6199 160.595C58.5831 160.595 38.2148 152.422 23.3035 137.565C8.39222 122.709 0.18927 102.415 0.18927 80.4589C0.18927 58.5029 8.39222 38.2092 23.3035 23.3525C38.2496 8.49586 58.5831 0.28833 80.6199 0.28833C102.657 0.28833 123.025 8.46123 137.936 23.3179C152.848 38.1746 161.05 58.4683 161.05 80.4243C161.05 102.38 152.848 122.674 137.936 137.531C123.025 152.387 102.657 160.595 80.6199 160.595ZM80.6199 26.5039C50.1369 26.5039 28.8301 48.7024 28.8301 80.4589C28.8301 112.215 50.1369 134.414 80.6199 134.414C111.103 134.414 132.41 112.215 132.41 80.4589C132.41 48.7024 111.138 26.5039 80.6199 26.5039ZM581.764 158.482C580.756 158.482 579.957 157.686 579.957 156.682V4.23625C579.957 3.23196 580.756 2.43545 581.764 2.43545H633.068C634.076 2.43545 634.875 3.23196 634.875 4.23625V26.8503C634.875 27.8545 634.076 28.6511 633.068 28.6511H608.389V64.1824H626.672C627.68 64.1824 628.479 64.9789 628.479 65.9832V88.5972C628.479 89.6015 627.68 90.398 626.672 90.398H608.389V132.301H633.068C634.076 132.301 634.875 133.098 634.875 134.102V156.716C634.875 157.721 634.076 158.517 633.068 158.517H581.764V158.482ZM380.931 158.482C380.132 158.482 379.402 157.928 379.193 157.166L357.504 81.2208L353.959 81.7056V156.647C353.959 157.651 353.159 158.448 352.151 158.448H331.609C330.601 158.448 329.802 157.651 329.802 156.647V4.23625C329.802 3.23196 330.601 2.43545 331.609 2.43545H351.352C352.151 2.43545 352.881 2.95491 353.09 3.75142L374.779 79.2468L378.324 78.762V4.23625C378.324 3.23196 379.124 2.43545 380.132 2.43545H400.674C401.682 2.43545 402.481 3.23196 402.481 4.23625V156.682C402.481 157.686 401.682 158.482 400.674 158.482H380.931ZM294.244 158.482C293.306 158.482 292.506 157.755 292.437 156.786L291.255 136.977H276.309L275.127 156.786C275.058 157.721 274.293 158.482 273.32 158.482H248.12C247.598 158.482 247.112 158.275 246.764 157.859C246.417 157.478 246.278 156.959 246.312 156.439L265.499 3.99384C265.603 3.09343 266.368 2.43545 267.272 2.43545H301.543C302.447 2.43545 303.212 3.12807 303.316 3.99384L322.503 156.439C322.572 156.959 322.398 157.443 322.051 157.859C321.703 158.24 321.216 158.482 320.695 158.482H294.244ZM277.803 109.48H289.795L285.589 48.8409H281.974L277.803 109.48ZM213.64 158.482C212.736 158.482 211.971 157.824 211.867 156.959L204.394 105.913H197.825V156.682C197.825 157.686 197.025 158.482 196.017 158.482H171.2C170.192 158.482 169.392 157.686 169.392 156.682V4.23625C169.392 3.23196 170.192 2.43545 171.2 2.43545H201.996C225.353 2.43545 239.291 16.4956 239.291 40.01V68.3035C239.291 79.0737 236.545 87.7661 231.158 94.1728L230.636 94.7962L241.168 156.335C241.273 156.855 241.133 157.374 240.786 157.79C240.438 158.205 239.952 158.413 239.396 158.413H213.64V158.482ZM197.825 79.6971H201.961C209.156 79.6971 210.616 75.5067 210.616 68.7537V39.5944C210.616 33.0146 209.156 28.6511 201.961 28.6511H197.825V79.6971Z" fill="#FF4E23"/>
</svg>
