<svg xmlns="http://www.w3.org/2000/svg" version="1" viewBox="0 0 1418 400">
  <path fill="#e34b26" d="M7 9c0 1 28.2 316.7 29.9 334.8.4 5.1 1 9.4 1.2 9.6.8.7 137.1 37.6 138.9 37.6 1 0 25.6-6.5 54.7-14.4 70.4-19.2 81.5-22.4 82.3-23.3.4-.5 7.3-76.6 15.4-169.3 8.1-92.7 14.9-170.2 15.2-172.3l.6-3.7H176.1C65.7 8 7 8.3 7 9zm272.3 106.2c-1.7 20-5.7 64.4-8.8 98.8-3.1 34.4-5.9 66.2-6.2 70.7-.3 4.5-.9 8.7-1.3 9.3-.4.7-20.1 6.6-43.6 13.1L176.5 319 133 306.9c-23.9-6.6-43.5-12.1-43.6-12.2-.1-.1-1.4-13.7-2.8-30.2-1.5-16.5-2.9-31.7-3.2-33.8l-.6-3.7h21.6c19.9 0 21.6.1 21.6 1.7 0 3.5 3 32.6 3.4 33 .7.7 44.1 12.3 46 12.3 1.1 0 12.2-2.8 24.7-6.1l22.8-6.2.6-4.1c.3-2.2 1.2-11.8 2-21.1.8-9.4 2.2-24.2 3-33 6.4-67.6 7.5-79.9 7.5-81.3 0-.9-16.9-1.2-81-1.2H74.1l-.5-3.3c-.3-1.7-1-8.8-1.6-15.7-.6-6.9-1.3-14.9-1.6-17.8l-.6-5.2h212.8l-3.3 36.2z"/>
  <g fill="#e34b26">
    <path d="M404.4 14.5c-10.5 1.9-14 3.3-16.9 6.6-3.3 4-4.2 7.6-2.3 9.6 1.4 1.3 2.2 1.3 7.7-.3 3.4-.9 6.4-1.4 6.7-1.1.3.3-3.5 12.9-8.4 27.9C380 90.7 374 110.8 373.3 117c-.5 4-.2 5.1 1.7 7 2.8 2.8 7.3 2.4 15.2-1.2 11.2-5.2 13.9-9.4 20.2-31.3 5.9-20.3 16.8-53.9 17.8-55 1.4-1.5 7.6 6.1 8.9 10.9 1.6 5.8.6 15.7-2.1 20.8-2.9 5.6-5.3 8.2-12 12.8-3 2.1-6.3 4.7-7.3 5.8-4.6 5.1 1.8 8.5 11.7 6.3 12.8-2.9 23.4-10.9 30.6-23.1 13-22.2 9-42.3-10.2-51.8-10.4-5.1-27.6-6.6-43.4-3.7zM521 13.9c-11.7 3.6-19.1 12.1-30.5 34.9-17.4 35-23.2 65.3-14.2 74.9 1.1 1.3 2.9 2.3 3.9 2.3 4.6 0 12.8-5.8 24.9-17.6 6.9-6.8 12.8-12.4 13-12.4.3 0 .3 2.9.1 6.4-.8 12.8 5.1 23.6 13.1 23.6 4.4 0 12.2-2.9 15.8-6l2.9-2.5-2.5-9.3c-2.9-10.8-3.1-17.7-.9-29.3 1.7-8.9 1.3-13.2-1.3-16.1-4.5-5-17.1 1.2-33 16.6-4 3.8-7.5 6.7-7.8 6.4-.8-.8 2.2-16.5 5-26.3 5.7-19.6 14.8-38.7 17.7-36.9 2.9 1.8-2.4 24-8.7 36.5-4.5 8.8-1.5 10.3 8.1 4.1 14.2-9.2 23-25.8 19.4-36.6-3.3-10.1-14.6-15.8-25-12.7zM824 16c-3.3 3.5-7 13.7-7 19.2 0 4.6 3.5 8.8 7.5 8.8 9.8 0 18.1-24.9 10.1-30.2-2.7-1.9-7.8-.8-10.6 2.2zM600.6 45.1c-9.7 2.3-18.9 8-27.6 16.8-12.5 12.5-17.9 25-16.7 38.1 1.1 12.8 9.3 20.8 24.9 24.5 11.9 2.8 22.1 1.4 34-4.6 16.5-8.3 26.2-25.5 24.4-43.2-1-9.9-7.5-19.6-14.2-21.3-5.3-1.3-17.3 2.6-21.9 7.2-1.5 1.6-1.4 2 2.8 6.3 8.6 8.8 11.4 18.7 8.3 29.2-4.9 17.2-23 18.4-28.5 2-2.4-7.2-.8-19.3 3.7-29.1 3.9-8.2 13.4-17.4 20.2-19.4 2.9-.9 6.3-1.6 7.5-1.6 1.2 0 3-.6 4.1-1.4 1.6-1.2 1.7-1.7.6-2.8-1.6-1.6-16-2.1-21.6-.7zM686.3 47.8c-16.1 5.7-29.4 20.5-35.9 39.8-5.1 15.3-4.3 24.8 3 32 6.5 6.6 14.4 7.9 25.8 4.4 9.9-3 27.6-14.6 31.5-20.7 1.6-2.5 1.6-2.6-.6-4.4-3.4-2.7-5.5-2.4-11.9 2-12 8.1-18.2 9.9-21.5 6.3-2.3-2.5-2.1-2.9 1.1-2.4 7.8 1.1 24.6-12.8 31-25.6 3.2-6.6 3.7-8.5 3.7-14.6 0-7.9-1.9-12.3-6.7-15.9-3.9-2.9-12.8-3.3-19.5-.9zm5.5 14.9c.8 10-5.5 27.6-12.3 34.6-5.2 5.3-5.9 4.9-5.2-3.1 1.1-13.2 11.9-37.3 16.1-35.9.6.2 1.2 2.2 1.4 4.4zM741.4 49.9c-5.7 3.5-10.3 11.9-15.7 28.6-4.8 15-8 30.7-7.5 37.3.7 8.7 6.2 14.1 13 12.8 3.1-.6 5-2.4 13.2-12.4 5.3-6.4 12.4-14.7 15.8-18.5l6.3-6.7v9.7c0 8.5.4 10.5 2.7 15.5 4.4 9.5 10.7 11.8 20.2 7.5 3.1-1.4 5.9-3.2 6.1-4 .3-.7-.1-4.2-1-7.8-1.8-7.8-1.9-17.5-.3-33.4 1.1-11.3 1-12.4-.8-16-1.4-2.9-2.8-4.2-5.1-4.9-7.7-2.1-14.8 2.2-27.9 17.3-4.3 4.9-7.9 8.9-8.1 8.8-.1-.1.7-3.8 1.7-8.2 1.1-4.4 1.9-11.3 2-15.3 0-6.4-.3-7.6-2.5-9.7-3-3.1-7.7-3.3-12.1-.6zM820.8 50c-8.4 6.6-18.7 40.1-17.6 57.6 1 14.9 11.3 23.2 18.8 15.2 2.6-2.8 9.2-23.2 11.9-36.3 2.9-14.8 3.5-22.6 2.1-28.4-2.1-8.7-9.5-12.7-15.2-8.1zM905.1 50.2c-2.3 1.3-7.1 5.2-10.6 8.7l-6.4 6.4-5.1-4.7c-7.8-7.3-14.7-10.1-24.7-10.1-6.3 0-8.6.4-9.8 1.6-1.5 1.5-1.1 2.2 5.7 9 5.4 5.5 8.5 9.7 11.9 16.4 2.6 5 4.4 9.6 4.2 10.3-.3.7-5.3 5.4-11.2 10.4-10.6 9-14.1 13.3-14.1 17.5 0 3.6 2.2 7.3 5.1 8.9 6.2 3.2 11.4 1.1 23.4-9.4l8-7.1 2 3.6c6.1 10.9 11.1 15 19.2 15.9 9.5 1.2 20.3-4.4 19-9.7-.4-1.3-5.1-9.6-10.6-18.4-7.3-11.7-9.7-16.3-9.1-17.5.5-.9 4.6-6.3 9.1-12.1C918.6 60.4 922 54.8 922 52c0-1.5-6.2-4-9.8-4-1.6 0-4.8 1-7.1 2.2z"/>
  </g>
  <g fill="#151515">
    <path d="M841 140.5c-16.6 3.8-29.6 14.1-33.9 27.1-1.9 5.6-2.4 9.7-2.9 22.4-.4 13.6-.2 16.6 1.7 24 2.5 10.1 6.8 17.6 13.7 23.9 2.8 2.5 12.7 9.8 22 16.1 27.3 18.5 28.7 20.3 28.8 38.8.1 12-1.1 15.8-5.7 18-3.7 1.8-7.2.8-9.4-2.5-1.5-2.3-1.9-5.6-2.1-20.5l-.4-17.8h-48.1l.6 17.7c.8 24.5 3.3 33.1 12.3 41.8 10 9.6 23.3 14.4 41.5 15.2 20.2.9 36.5-3.7 47.7-13.3 10.4-8.9 12.7-16.5 12.7-41.9-.1-38.3-5.3-46.4-47.2-72.8-17.9-11.4-19.9-14.3-19.7-29.3.1-11.4 3.5-16.4 10-14.8 3.8 1 4.6 3.7 5.2 17.6l.5 12.8H916v-9.3c0-12.6-1.7-25.1-4.2-30.9-3.8-8.9-15.7-17.4-30-21.5-7.8-2.1-32.6-2.7-40.8-.8zM374.8 220.8c-.3 73.4-.4 77.9-2.1 80.6-2.4 3.6-7.9 5.9-13.4 5.4l-4.3-.3v34.7l23.3-.4c20.9-.4 23.7-.7 28.8-2.6 7-2.8 12.4-7.9 15.8-15.1l2.6-5.6.3-87.3.3-87.2h-51l-.3 77.8zM1148 156v13h51v-26h-51v13zM1348 170v13h-11v26h10.9l.3 56.3.3 56.3 2.6 4.9c2.8 5.5 9 10.8 14.7 12.6 2.1.6 13.2 1.4 25.5 1.6l21.7.5v-26l-6.5-.7c-3.9-.4-7-1.3-7.7-2.3-1-1.2-1.4-12.9-1.6-52.4l-.3-50.8h14.1v-26h-14v-26h-49v13zM482.5 177c-14.9 3-30.1 13.4-34.7 23.8-3.2 7-4.8 17-4.8 29.4V242h47l.1-13.3c0-17.1.7-20.7 4.1-22.6 2.1-1.2 3.1-1.3 5.2-.3 3.9 1.8 4.9 5.4 5 19.1v12.4l-3.3 2.8c-1.8 1.5-10.6 5.8-19.5 9.4-8.8 3.7-19 8.3-22.6 10.2-14.5 7.8-15.5 10.4-15.5 39.3 0 20.1.2 21.9 2.3 27.2 4.2 10.5 14.5 16.7 29.2 17.5 7.1.4 9.5.1 14.2-1.6 5.5-2.1 12.6-8.2 15.5-13.3 1.1-2 1.2-1.5 1.3 4.9v7.3h48v-53.8c0-79.5-.8-86-12-97.2-6.8-6.8-13.7-10.3-24.2-12.4-8.2-1.7-28.2-2-35.3-.6zm22 127.8c-.8 8.4-2.9 10.9-8.5 9.7-4.5-1-5.3-3.6-5.4-16.5-.1-18 .5-20.1 7.7-27.4l6.2-6.1.3 16.5c.2 9.1 0 19.8-.3 23.8zM717.5 177c-14.9 3-30.1 13.4-34.7 23.8-3.2 7-4.8 17-4.8 29.4V242h47l.1-13.3c0-17.1.7-20.7 4.1-22.6 2.1-1.2 3.1-1.3 5.2-.3 3.9 1.8 4.9 5.4 5 19.1v12.4l-3.3 2.8c-1.8 1.5-10.6 5.8-19.5 9.4-8.8 3.7-19 8.3-22.6 10.2-14.5 7.8-15.5 10.4-15.5 39.3 0 20.1.2 21.9 2.3 27.2 4.2 10.5 14.5 16.7 29.2 17.5 7.1.4 9.5.1 14.2-1.6 5.5-2.1 12.6-8.2 15.5-13.3 1.1-2 1.2-1.5 1.3 4.9v7.3h48v-53.8c0-79.5-.8-86-12-97.2-6.8-6.8-13.7-10.3-24.2-12.4-8.2-1.7-28.2-2-35.3-.6zm22 127.8c-.8 8.4-2.9 10.9-8.5 9.7-4.5-1-5.3-3.6-5.4-16.5-.1-18 .5-20.1 7.7-27.4l6.2-6.1.3 16.5c.2 9.1 0 19.8-.3 23.8zM970.2 178c-14.1 3.7-26.3 12.2-31.6 22-4.8 8.7-5.5 16.6-5.6 57 0 41.4.9 50.9 5.8 61.3 7.7 16.6 21.5 24.4 44.8 25.4 21.7 1 34.9-3.3 45.7-14.6 10.7-11.2 14.7-23.8 14.7-46.9V274h-43.7l-.6 16.2c-.3 9-1 17.7-1.7 19.5-1.5 4.3-6.2 6.2-9.9 4.2-5.6-3.1-5.6-3.3-5.6-54.4 0-25.9.3-48.2.8-49.7.9-3.5 4-5.1 7.8-4.3 4.3 1 5 3.8 5.7 20.2l.5 14.3h46.7v-5.3c0-15.2-3.6-30.3-9.1-38.4-11.2-16.3-40.5-24.6-64.7-18.3zM1130 176.9c-7.7 2.4-14.7 8.1-20.1 16.4l-3.7 5.7.5-10 .6-10H1059v162h48.8l.5-45.8c.2-31.5.7-46.8 1.6-49.4 2.3-7.1 8.8-10.9 21.4-12.4l5.7-.7V176l-2.2.1c-1.3 0-3.4.4-4.8.8zM1285.3 177.8c-6.5 2.3-12.5 6.4-16.8 11.5l-3.4 3.9.6-7.1.6-7.1H1216v185h49v-36.9l4.5 4.8c2.5 2.7 7.3 6.4 10.8 8.2 5.9 3.2 6.7 3.4 16.2 3.4 8.4 0 10.9-.4 15.3-2.4 7.7-3.5 13.5-10.4 15.8-18.8 1.8-6.3 1.9-11.2 1.9-63.3 0-44.2-.3-57.6-1.4-61.8-1.6-6.6-8.3-14.3-15.5-17.9-6.9-3.5-19.7-4.2-27.3-1.5zm-7.2 29.1l2.4 1.9v102.4l-2.4 1.9c-4.5 3.7-10.6 1.6-11.8-4-1-4.7-1-95.8 0-99.4 1.3-4.6 7.7-6.1 11.8-2.8zM561 179.9c0 1.3 23.9 156.3 24.5 158.8l.5 2.3h64l.5-2.3c.5-2.3 22.5-157.5 22.5-158.9 0-.4-10-.8-22.3-.8h-22.2l-4.8 56.2c-2.6 31-4.8 56.9-4.7 57.7 0 .8-.2 1.2-.4 1-.2-.2-3.3-26.2-6.7-57.7l-6.4-57.2h-22.2c-12.3 0-22.3.4-22.3.9zM1148 260v81h51V179h-51v81z"/>
  </g>
</svg>