<?xml version="1.0" encoding="UTF-8"?>
<svg width="507px" height="507px" viewBox="0 0 507 507" version="1.1" xmlns="http://www.w3.org/2000/svg" xmlns:xlink="http://www.w3.org/1999/xlink">
    <!-- Generator: Sketch 51.1 (57501) - http://www.bohemiancoding.com/sketch -->
    <title>phx_ts_square</title>
    <desc>Created with Sketch.</desc>
    <defs>
        <polygon id="path-1" points="88.8321163 353.477492 93.8079025 350.391633 96.6423045 347.683359 100.358561 343.715343 103.192963 341.007069 104.263655 340.818277 104.767836 337.416637 104.390161 335.274738 100.611573 332.628266 97.021822 331.052743 93.6209083 330.54817 92.676722 325.193423 95.5111239 322.485149 97.4636709 321.036616 97.9678513 317.634976 100.424579 312.784803 99.418061 300.815568 99.7334041 296.342979 99.2933981 287.586592 99.7352471 277.570464 100.932445 271.838134 105.279388 258.92494 106.854261 255.334508 112.900739 252.059858 118.2542 251.115898 123.041149 246.959091 126.757406 242.991075 127.63926 241.731334 126.190894 239.778227 122.034631 234.989856 118.067205 231.272435 112.462576 224.530957 108.306313 219.742586 106.291435 214.576631 103.081201 196.370493 100.184468 192.464279 97.6654092 190.699964 96.9100601 186.416167 97.8560895 172.998399 100.250485 161.533738 100.31466 149.375712 99.3704736 144.020965 94.0188558 126.192411 91.1221225 122.286197 92.5081577 117.624816 94.4607047 116.176283 94.9648851 112.774643 96.9174321 111.32611 101.200201 110.570942 104.789952 112.146465 106.238318 114.099572 108.946214 116.934836 109.135052 118.005785 111.465273 118.699151 113.984332 120.463466 118.960118 117.377607 124.313579 116.433648 125.888452 112.843216 126.770307 111.583475 126.896812 106.039936 128.981394 42.7303214 194.418278 44.4429904 240.520372 42.939426 286.811303 42.5068109 332.031542 42.2629878 378.133636 40.7594234 413.339971 40.0728288 430.492831 456.661962 308.246932 458.340776 89.5874654 357.761289"></polygon>
    </defs>
    <g id="phx_ts_square" stroke="none" stroke-width="1" fill="none" fill-rule="evenodd">
        <mask id="mask-2" fill="white">
            <use xlink:href="#path-1"></use>
        </mask>
        <use id="path7624" stroke="#BFBFBF" fill="#FFFFFF" xlink:href="#path-1"></use>
        <text id="Phoenix" mask="url(#mask-2)" font-family="ProximaNova-Semibold, Proxima Nova" font-size="31" font-weight="500" letter-spacing="-0.741342366" fill="#006ECD">
            <tspan x="140" y="223">Phoenix</tspan>
        </text>
        <text id="TypeScript" mask="url(#mask-2)" font-family="ProximaNova-Regular, Proxima Nova" font-size="54.0000021" font-weight="normal" letter-spacing="-2.59005757" fill="#006ECD">
            <tspan x="160" y="274">Type</tspan>
            <tspan x="263.957774" y="274" font-family="ProximaNova-Light, Proxima Nova" font-weight="300">Script</tspan>
        </text>
        <text id="Meetup" mask="url(#mask-2)" font-family="ProximaNova-Semibold, Proxima Nova" font-size="22" font-weight="500" letter-spacing="-0.458333313" fill="#006ECD">
            <tspan x="320" y="306">Meetu</tspan>
            <tspan x="380.078333" y="306" letter-spacing="-0.437644631">p</tspan>
        </text>
        <g id="Page-1" mask="url(#mask-2)">
            <g transform="translate(-227.000000, -66.000000)">
                <polygon id="Fill-1" fill="#006ECD" points="812.376982 0.0009984375 488.622322 306.745959 958.503896 82.0600805 958.503896 0.0009984375"></polygon>
                <polygon id="Fill-2" fill="#006ECD" points="603.010526 0.0009984375 483.322345 300.415866 481.96696 309.928479 482.92796 309.466702 696.931428 0.0009984375"></polygon>
                <polygon id="Fill-3" fill="#006ECD" points="444.60353 0.0009984375 478.211073 310.971846 478.458187 311.603358 478.959904 311.363733 483.320597 300.415866 526.133771 0.0009984375"></polygon>
                <polygon id="Fill-4" fill="#004B8C" points="526.133272 0.0009984375 483.322594 300.415866 603.010776 0.0009984375"></polygon>
                <polygon id="Fill-5" fill="#004B8C" points="696.931927 0.0009984375 482.928459 309.466702 488.622072 306.745959 812.376732 0.0009984375"></polygon>
                <polygon id="Fill-6" fill="#004B8C" points="356.55671 0.0009984375 478.211822 310.971846 444.604279 0.0009984375"></polygon>
                <polygon id="Fill-7" fill="#006ECD" points="480.911358 317.880784 481.428051 319.201218 958.505893 319.425866 958.505893 196.338491"></polygon>
                <polygon id="Fill-8" fill="#004B8C" points="0 196.366198 468.406377 316.408338 472.310283 314.543756 0 73.393643"></polygon>
                <polygon id="Fill-9" fill="#004B8C" points="488.621324 306.744961 481.450017 313.539328 480.853448 317.732766 480.910859 317.880035 958.505394 196.340238 958.505394 82.0615781"></polygon>
                <polygon id="Fill-10" fill="#006ECD" points="0 319.426365 462.098722 319.426365 468.406377 316.408588 0 196.366447"></polygon>
                <polygon id="Fill-11" fill="#006ECD" points="255.28029 0.0009984375 476.123082 312.721608 478.287204 311.685729 478.209825 310.971846 356.557209 0.0009984375"></polygon>
                <polygon id="Fill-12" fill="#006ECD" points="0 0.0009984375 0 73.393643 472.310283 314.543756 474.065044 313.707565 116.513138 0.0009984375"></polygon>
                <polygon id="Fill-13" fill="#004B8C" points="116.512139 0.0009984375 474.064046 313.707565 476.120835 312.721608 255.280539 0.0009984375"></polygon>
                <polygon id="Fill-14" fill="#152740" points="0 638 958.503896 638 958.503896 318.427613 0 318.427613"></polygon>
                <polygon id="Fill-15" fill="#FFFFFF" points="482.899439 175 514.744732 273.009121 617.798878 273.009121 539.491106 333.581828 566.269309 431.588453 482.899439 374.510277 399.529569 431.588453 426.28281 329.880121 348 273.009121 451.054145 273.009121"></polygon>
            </g>
        </g>
        <g id="Group-2" mask="url(#mask-2)">
            <g transform="translate(209.000000, 202.000000)">
                <text id="PHX" font-family="ProximaNova-Semibold, Proxima Nova" font-size="23" font-weight="500">
                    <tspan x="24" y="23" fill="#006ECD">PHX</tspan>
                </text>
                <text id="TS" font-family="SanFranciscoDisplay-Regular, San Francisco Display" font-size="83" font-weight="normal">
                    <tspan x="0.304931641" y="85" fill="#006ECD">TS</tspan>
                </text>
            </g>
        </g>
    </g>
</svg>