<?xml version="1.0" encoding="utf-8"?>
<!-- Generator: Adobe Illustrator 27.0.0, SVG Export Plug-In . SVG Version: 6.00 Build 0)  -->
<svg version="1.1" id="Layer_1" xmlns="http://www.w3.org/2000/svg" xmlns:xlink="http://www.w3.org/1999/xlink" x="0px" y="0px"
	 viewBox="0 0 960 340" style="enable-background:new 0 0 960 340;" xml:space="preserve">
<style type="text/css">
	.st0{fill:#35B9E2;}
</style>
<g>
	<path class="st0" d="M465.24,190.52v-28.75c0-18.65,5.05-33.12,14.94-43.59c10.52-11.11,25.67-16.55,45.46-16.55h22.52
		c19.79,0,34.94,5.45,45.46,16.55c9.89,10.48,14.94,24.94,14.94,43.59v28.75c0,18.65-5.05,33.12-14.94,43.59
		c-10.52,11.11-25.67,16.55-45.46,16.55h-22.52c-19.79,0-34.94-5.45-45.46-16.55C470.29,223.64,465.24,209.17,465.24,190.52z
		 M568.36,189.13v-26.32c0-6.28-2.31-11.74-6.74-16.14c-4.42-4.4-9.68-6.71-15.99-6.71h-17.26c-6.32,0-11.79,2.31-16.2,6.71
		c-4.43,4.4-6.74,9.85-6.74,16.14v26.32c0,6.28,2.32,11.74,6.74,16.14c4.42,4.4,9.89,6.71,16.2,6.71h17.26
		c6.31,0,11.78-2.31,16.2-6.71C566.05,200.86,568.36,195.41,568.36,189.13z"/>
	<path class="st0" d="M786.26,190.52v-28.75c0-18.65,5.05-33.12,14.94-43.59c10.52-11.11,25.68-16.55,45.46-16.55h22.52
		c19.78,0,34.94,5.45,45.46,16.55c9.89,10.48,14.94,24.94,14.94,43.59v28.75c0,18.65-5.05,33.12-14.94,43.59
		c-10.52,11.11-25.67,16.55-45.46,16.55h-22.52c-19.78,0-34.94-5.45-45.46-16.55C791.31,223.64,786.26,209.17,786.26,190.52z
		 M889.38,189.13v-26.32c0-6.28-2.31-11.74-6.73-16.14c-4.42-4.4-9.68-6.71-15.99-6.71h-17.26c-6.31,0-11.78,2.31-16.2,6.71
		c-4.43,4.4-6.74,9.85-6.74,16.14v26.32c0,6.28,2.31,11.74,6.74,16.14c4.42,4.4,9.89,6.71,16.2,6.71h17.26
		c6.31,0,11.78-2.31,16.2-6.71C887.06,200.86,889.38,195.41,889.38,189.13z"/>
	<path class="st0" d="M230.21,47.16c0-11.08-8.98-20.06-20.06-20.06c-11.08,0-20.06,8.98-20.06,20.06c0,9.41,0,176.89,0,186.31
		c0,11.08,8.98,20.06,20.06,20.06c11.08,0,20.06-8.98,20.06-20.06C230.21,224.05,230.21,56.57,230.21,47.16z"/>
	<path class="st0" d="M486.74,58.63c-6.51,0-22.87,0-29.38,0c-10.68,0-19.35,8.66-19.35,19.35s8.66,19.35,19.35,19.35
		c6.51,0,22.87,0,29.38,0c10.68,0,19.35-8.66,19.35-19.35S497.42,58.63,486.74,58.63z"/>
	<path class="st0" d="M375.72,118.2c-10.52-11.12-25.66-16.58-45.44-16.58h-22.5c-19.78,0-34.92,5.45-45.44,16.58
		c-9.89,10.49-14.93,24.97-14.93,43.65v28.6c0,18.68,5.05,33.16,14.93,43.65c10.52,11.12,25.66,16.57,45.43,16.58
		c0.34,0,30.13,0,33.5,0c11.29,0,19.32-9.5,19.35-19.34c-0.04-11.57-9.26-19.25-19.35-19.32l-30.76-0.03
		c-6.31,0-11.78-2.31-16.2-6.72c-4.42-4.41-6.78-9.86-6.78-16.16v-26.2c0-6.29,2.36-11.75,6.78-16.16c4.42-4.41,9.88-6.72,16.2-6.72
		h17.38c6.31,0,11.55,2.31,15.96,6.72c4.42,4.41,6.74,9.86,6.74,16.16c0,0,0,20.18,0,39.06c12.46,3.95,21.5,15.6,21.5,29.37
		c0,8.12-3.16,15.48-8.29,20.98c2.14,0.78,4.45,1.23,6.86,1.23c11.08,0,20.06-8.98,20.06-20.06c0-1.83,0-71.62,0-71.62
		C390.72,143.17,385.61,128.69,375.72,118.2z"/>
	<path class="st0" d="M754.12,118.2c-10.52-11.12-25.67-16.58-45.46-16.58h-22.51c-19.79,0-34.94,5.45-45.46,16.58
		c-9.89,10.49-14.94,24.97-14.94,43.65v28.6c0,18.68,5.05,33.16,14.94,43.65c10.52,11.12,25.68,16.58,45.46,16.58
		c0,0,21.94,0,33.47,0c10.48,0,19.33-8.61,19.35-19.35c-0.01-10.28-8.24-19.35-19.35-19.35h-30.73c-6.32,0-11.79-2.31-16.2-6.72
		c-4.43-4.41-6.74-9.86-6.74-16.16v-26.2c0-6.29,2.32-11.75,6.74-16.16c4.42-4.41,9.89-6.72,16.2-6.72h17.26
		c6.31,0,11.57,2.31,15.99,6.72c4.42,4.41,6.8,9.86,6.8,16.16c0,0,0,18.91,0,39.06c12.46,3.95,21.5,15.6,21.5,29.37
		c0,15.08-10.84,27.61-25.15,30.27c-0.85,1.36-1.85,2.66-3,3.87c-4.42,4.41-10.16,6.71-16.2,6.71c-6.05,0-11.66,0-22.29,0
		s-19.27,8.76-19.27,19.35s8.65,19.35,19.27,19.35c13.84,0,24.81,0,24.81,0c19.79,0,34.94-5.45,45.46-16.58
		c9.89-10.49,15-24.97,15-43.65v-88.79C769.06,143.17,764.01,128.69,754.12,118.2z"/>
	<path class="st0" d="M157.98,118.2c-10.52-11.12-25.66-16.58-45.43-16.58H90.02c-19.77,0-34.92,5.45-45.43,16.58
		c-9.89,10.49-15.02,24.97-15.02,43.65c0,24.73,0,125.6,0,131.81c0,11.39,9.15,20.06,20.07,20.06c11.07,0,20.06-9.01,20.06-20.06
		c0-7.93,0-19.72,0-33.02c-12.46-3.95-21.5-15.55-21.5-29.32s9.04-25.37,21.5-29.32c0-21.99,0-38.81,0-38.81
		c0-6.29,2.44-11.75,6.86-16.16c4.42-4.41,9.88-6.72,16.19-6.72h17.28c6.31,0,11.57,2.31,15.98,6.72c4.42,4.41,6.73,9.86,6.73,16.16
		v25.91c0,6.29-2.31,11.75-6.52,16.16c-4.42,4.41-9.89,6.72-16.2,6.72c0,0-25.56,0-31.02,0c-10.66,0-19.32,8.88-19.35,19.35
		c0.02,9.8,8.15,19.35,19.35,19.35c8.76,0,33.54,0,33.54,0c19.77,0,34.92-5.23,45.43-16.36c9.89-10.49,14.93-24.97,14.93-43.65
		v-28.81C172.91,143.17,167.87,128.69,157.98,118.2z"/>
	<path class="st0" d="M426.55,77.97c0-13.77,9.04-25.42,21.5-29.37c0-0.59,0-1.09,0-1.44c0-11.08-8.98-20.06-20.06-20.06
		c-11.08,0-20.06,8.98-20.06,20.06c0,9.41,0,176.89,0,186.31c0,11.08,8.98,20.06,20.06,20.06c11.08,0,20.06-8.98,20.06-20.06
		c0-2.31,0-72.43,0-126.12C435.58,103.4,426.55,91.74,426.55,77.97z"/>
</g>
</svg>
