<svg xmlns="http://www.w3.org/2000/svg" width="164" height="71" viewBox="0 0 164 71">
  <g fill="none" fill-rule="evenodd">
    <g fill-rule="nonzero">
      <path fill="#1C8143" d="M34.5147483,43.1777778 C32.8613605,44.0755556 31.0395102,44.7377778 29.0503129,45.2111111 C27.0611156,45.6833333 24.9514286,45.8955556 22.7223673,45.8955556 C15.8912653,45.8955556 10.4268299,43.8155556 6.32794558,39.6533333 C2.22906122,35.4922222 0.167346939,29.9355556 0.167346939,22.9833333 C0.167346939,19.1766667 0.790993197,15.7944444 2.03717007,12.7922222 C3.28334694,9.78888889 5.15428571,7.23555556 7.64552381,5.10777778 C9.62452803,3.40690591 11.9218718,2.11279913 14.4052245,1.3 C16.9221224,0.448888889 19.7023129,0.0233333333 22.7223673,0.0233333333 C29.5300408,0.0233333333 34.9944762,2.10444444 39.1167891,6.29 C43.2402177,10.4744444 45.2773878,16.0322222 45.2773878,22.9833333 C45.2773878,25.8922222 44.9415782,28.5166667 44.2465306,30.8811111 C43.5806144,33.1837733 42.5006502,35.3469684 41.0591293,37.2655556 C42.3532789,38.3766667 43.7433741,39.2511111 45.2539592,39.9133333 C46.7634286,40.5755556 48.3933878,40.9777778 50.1427211,41.1666667 L46.8114014,48.9933333 C44.2945034,48.7566667 41.9929252,48.1422222 39.9323265,47.1488889 C37.8813729,46.1931556 36.0402526,44.8432279 34.5147483,43.1766667 L34.5147483,43.1777778 Z M22.7223673,36.7222222 C26.2701224,36.7222222 29.0257687,35.5155556 30.9915374,33.1033333 C32.9807347,30.6922222 33.963619,27.3344444 33.963619,23.0066667 C33.963619,18.68 32.9573061,15.2988889 30.9681088,12.8866667 C28.9777959,10.4277778 26.2221497,9.22222222 22.723483,9.22222222 C19.222585,9.22222222 16.4903673,10.4511111 14.4766259,12.9111111 C12.464,15.3455556 11.4565714,18.7277778 11.4565714,23.0066667 C11.4565714,27.2866667 12.464,30.6444444 14.4531973,33.08 C16.4423946,35.5155556 19.1991565,36.7211111 22.7223673,36.7211111 L22.7223673,36.7222222 Z"/>
      <path fill="#2B6CAD" d="M90.9619864,34.7822222 C88.8288707,38.5188889 86.1435102,41.3088889 82.9561088,43.1766667 C79.7441633,45.0444444 76.0290612,45.9666667 71.7628299,45.9666667 C65.051102,45.9666667 59.730585,43.8866667 55.7990476,39.7477778 C51.8440816,35.61 49.8548844,30.03 49.8548844,23.0066667 C49.8548844,16.1266667 51.9165986,10.57 56.0389116,6.36111111 C60.1612245,2.15222222 65.5776871,0.0477777778 72.289415,0.0477777778 C76.5087891,0.0477777778 80.1759184,0.992222222 83.2919184,2.88444444 C86.4079184,4.77666667 88.8288707,7.51888889 90.5547755,11.1133333 L81.9497959,15.3688889 C80.9423673,13.2655556 79.6247891,11.68 77.9702857,10.5933333 C76.316898,9.50555556 74.4002177,8.96222222 72.2180136,8.96222222 C68.8152925,8.96222222 66.129932,10.2144444 64.1407347,12.6977778 C62.1515374,15.18 61.1686531,18.6088889 61.1686531,22.9833333 C61.1686531,27.3811111 62.1504218,30.81 64.1161905,33.2455556 C66.0819592,35.6811111 68.8141769,36.8866667 72.3608163,36.8866667 C74.5909932,36.8866667 76.5087891,36.3666667 78.1387483,35.35 C79.7675918,34.31 81.1342585,32.7722222 82.2130884,30.6922222 L90.9619864,34.7822222 Z M110.591782,45.8955556 C105.247837,45.8955556 100.932517,44.3122222 97.6725986,41.1433333 C94.4126803,37.9744444 92.7838367,33.79 92.7838367,28.5633333 C92.7838367,23.3855556 94.4126803,19.1766667 97.6971429,15.9844444 C100.98049,12.7922222 105.271265,11.2077778 110.616327,11.2077778 C116.009361,11.2077778 120.346993,12.7922222 123.606912,15.9844444 C126.86683,19.1766667 128.496789,23.3622222 128.496789,28.5633333 C128.496789,33.7655556 126.843401,37.9511111 123.558939,41.1188889 C120.275592,44.3122222 115.961388,45.8966667 110.591782,45.8966667 L110.591782,45.8955556 Z M102.994231,28.5633333 C102.994231,31.5433333 103.689279,33.8844444 105.05483,35.6344444 C106.446041,37.3833333 108.290204,38.2588889 110.591782,38.2588889 C112.916789,38.2588889 114.763184,37.3833333 116.153279,35.6344444 C117.543374,33.8844444 118.238422,31.52 118.238422,28.5633333 C118.238422,25.6077778 117.543374,23.2433333 116.176707,21.47 C114.786612,19.72 112.941333,18.8455556 110.616327,18.8455556 C108.314748,18.8455556 106.492898,19.7444444 105.102803,21.5177778 C103.689279,23.2911111 102.994231,25.6555556 102.994231,28.5633333 Z M132.860082,44.8322222 L132.860082,12.2722222 L142.854041,12.2722222 L142.854041,15.2988889 C144.14819,14.0211111 145.587374,13.0766667 147.192789,12.4611111 C148.79932,11.8466667 150.620054,11.5155556 152.633796,11.5155556 C156.228408,11.5155556 158.913769,12.6266667 160.663102,14.8733333 C162.412435,17.1188889 163.299374,20.5477778 163.299374,25.1822222 L163.299374,44.8333333 L153.304299,44.8333333 L153.304299,25.6555556 C153.304299,23.4577778 152.920517,21.85 152.129524,20.8088889 C151.339646,19.7688889 150.092354,19.2722222 148.390993,19.2722222 C146.377252,19.2722222 144.963728,19.7455556 144.100218,20.7144444 C143.237823,21.6844444 142.830612,23.3155556 142.830612,25.6566667 L142.830612,44.8333333 L132.858966,44.8333333 L132.860082,44.8322222 Z"/>
      <path fill="#2366A9" d="M163.27483,24.2844444 C159.895537,24.4733333 156.564218,24.6388889 153.280871,24.8044444 C153.304299,25.0877778 153.304299,25.3711111 153.304299,25.6788889 L153.304299,44.8566667 L163.30049,44.8566667 L163.30049,25.2055556 C163.30049,24.8744444 163.275946,24.5666667 163.275946,24.2833333 L163.27483,24.2844444 Z" opacity=".1"/>
      <path fill="#2366A9" d="M132.858966,44.8322222 L142.855156,44.8322222 L142.855156,25.6544444 L142.855156,25.23 C139.474748,25.3477778 136.142313,25.4666667 132.858966,25.5611111 L132.858966,44.8322222 Z M118.021986,25.9155556 C118.16702,26.7433333 118.238422,27.6177778 118.238422,28.5877778 C118.238422,31.5433333 117.543374,33.8844444 116.152163,35.6577778 C114.763184,37.4077778 112.916789,38.2822222 110.591782,38.2822222 C108.29132,38.2822222 106.446041,37.4077778 105.05483,35.6577778 C103.664735,33.9077778 102.994231,31.5433333 102.994231,28.5877778 C102.994231,27.6655556 103.065633,26.8144444 103.209551,26.01 C99.7822857,26.01 96.378449,25.9866667 92.9511837,25.9633333 C92.8552381,26.8144444 92.7838367,27.6655556 92.7838367,28.5877778 C92.7838367,33.79 94.4126803,37.9988889 97.6725986,41.1666667 C100.932517,44.3355556 105.247837,45.92 110.591782,45.92 C115.936844,45.92 120.251048,44.3355556 123.558939,41.1433333 C126.843401,37.9511111 128.496789,33.79 128.496789,28.5877778 C128.496789,27.5944444 128.425388,26.6488889 128.304898,25.7266667 C124.82966,25.7977778 121.425823,25.8444444 118.021986,25.9155556 Z M78.1153197,35.35 C76.4842449,36.39 74.5675646,36.8866667 72.3373878,36.8866667 C68.8141769,36.8866667 66.0585306,35.6811111 64.0927619,33.2455556 C62.4862313,31.2355556 61.5524354,28.5633333 61.2645986,25.23 C57.484739,25.109965 53.7056098,24.9681107 49.9274014,24.8044444 C50.2386667,30.9755556 52.1810068,35.9644444 55.775619,39.7244444 C59.730585,43.8622222 65.051102,45.9433333 71.7382857,45.9433333 C76.0056327,45.9433333 79.7207347,45.0211111 82.9315646,43.1533333 C86.1446259,41.2855556 88.8043265,38.4955556 90.9374422,34.7588889 L82.1651156,30.6677778 C81.1108299,32.7722222 79.7441633,34.3333333 78.1153197,35.35 Z"/>
      <path fill="#FFF" d="M22.7223673,45.8955556 C24.9514286,45.8955556 27.0611156,45.66 29.0503129,45.21 C31.0395102,44.7377778 32.8613605,44.0755556 34.5147483,43.1766667 C36.0402526,44.8432279 37.8813729,46.1931556 39.9323265,47.1488889 C41.9929252,48.1188889 44.2945034,48.7333333 46.8114014,48.9933333 L50.1427211,41.1666667 C48.4168163,40.9777778 46.7868571,40.5755556 45.2528435,39.9133333 C43.7265102,39.2501948 42.3116879,38.3571586 41.0580136,37.2655556 C42.4971973,35.3733333 43.551483,33.2455556 44.2465306,30.8811111 C44.7976599,28.99 45.1089252,26.8855556 45.2282993,24.6144444 C41.4647197,24.4697009 37.7019608,24.3045132 33.9401905,24.1188889 C33.7728435,27.9022222 32.7888435,30.8811111 30.9915374,33.08 C29.0023401,35.4911111 26.2455782,36.6977778 22.7223673,36.6977778 C19.1991565,36.6977778 16.4423946,35.4922222 14.4531973,33.0566667 C12.464,30.6455556 11.4811156,27.3111111 11.4565714,23.0544444 C7.76601361,22.8655556 4.00293878,22.6766667 0.167346939,22.4877778 L0.167346939,22.9833333 C0.167346939,29.9355556 2.22906122,35.4922222 6.32794558,39.6533333 C10.4268299,43.8155556 15.8912653,45.8955556 22.7223673,45.8955556 Z" opacity=".1"/>
    </g>
    <path fill="#292952" fill-rule="nonzero" d="M97.311875,69.4205714 C96.693125,69.4205714 96.1745,69.1268571 95.909,68.624 L95.84375,68.624 L95.84375,69.344 L95,69.344 L95,63 L95.8775,63 L95.8775,65.5062857 L95.946125,65.5062857 C96.182375,65.0068571 96.704375,64.7062857 97.311875,64.7062857 C98.436875,64.7062857 99.14675,65.6102857 99.14675,67.0605714 C99.14675,68.5062857 98.4335,69.4205714 97.313,69.4205714 L97.311875,69.4205714 Z M97.059875,65.5142857 C96.32525,65.5142857 95.864,66.1085714 95.860625,67.0651429 C95.864,68.0205714 96.321875,68.6114286 97.059875,68.6114286 C97.802375,68.6114286 98.245625,68.0285714 98.245625,67.0605714 C98.245625,66.1005714 97.80125,65.5142857 97.059875,65.5142857 Z M100.639625,71 C101.54525,71 101.964875,70.6434286 102.344,69.5337143 L104,64.7805714 L103.07075,64.7805714 L101.9615,68.4057143 L101.89175,68.4057143 L100.778,64.7805714 L99.824,64.7805714 L101.4305,69.3611429 L101.36525,69.584 C101.2145,70.0445714 100.97825,70.2205714 100.562,70.2205714 C100.481,70.2205714 100.346,70.216 100.277375,70.2034286 L100.277375,70.9794286 C100.358375,70.9908571 100.5665,71 100.639625,71 Z"/>
    <g fill-rule="nonzero" transform="translate(110 55)">
      <polygon fill="#2B6CAD" points="3.366 14.501 0 14.501 0 .25 3.366 .25"/>
      <path fill="#2B6CAD" d="M5.52888889,14.5005714 L5.52888889,3.99428571 L8.60444444,3.99428571 L8.60444444,4.97028571 C8.98323393,4.57042277 9.44091061,4.25866571 9.94666667,4.056 C10.4411111,3.85714286 11.0022222,3.74971429 11.6211111,3.74971429 C12.7277778,3.74971429 13.5544444,4.10857143 14.0922222,4.83314286 C14.6311111,5.55771429 14.9033333,6.664 14.9033333,8.15885714 L14.9033333,14.4994286 L11.8277778,14.4994286 L11.8277778,8.31314286 C11.8277778,7.60457143 11.71,7.08571429 11.4666667,6.74971429 C11.2222222,6.41371429 10.84,6.25371429 10.3155556,6.25371429 C9.69666667,6.25371429 9.26111111,6.40571429 8.99555556,6.71885714 C8.73777778,7.032 8.60444444,7.55771429 8.60444444,8.31314286 L8.60444444,14.5017143 L5.52888889,14.5017143 L5.52888889,14.5005714 Z M17.1766667,14.5005714 L17.1766667,6.104 L15.6255556,6.104 L15.6255556,4.16685714 L17.1766667,4.16685714 C17.1544444,3.95085714 17.1466667,3.78971429 17.14,3.69714286 C17.14,3.59657143 17.1322222,3.512 17.1322222,3.42742857 C17.1322222,2.304 17.3955556,1.496 17.9155556,0.996571429 C18.4344444,0.504 19.2911111,0.250285714 20.4766667,0.250285714 C20.74,0.250285714 21.0033333,0.265142857 21.2744444,0.296 C21.5444444,0.326857143 21.8222222,0.380571429 22.1155556,0.458285714 L22.1155556,2.67428571 L21.6033333,2.67428571 C21.04,2.67428571 20.6744444,2.74285714 20.4911111,2.88914286 C20.3077778,3.03542857 20.22,3.32 20.22,3.75771429 L20.22,4.16685714 L22.1155556,4.16685714 L22.1155556,6.10514286 L20.2266667,6.10514286 L20.2266667,14.5005714 L17.1777778,14.5005714 L17.1766667,14.5005714 Z M27.6322222,15.2502857 C25.9766667,15.2502857 24.64,14.7245714 23.63,13.6742857 C22.62,12.6228571 22.1155556,11.2365714 22.1155556,9.50285714 C22.1155556,7.78742857 22.62,6.392 23.6377778,5.33371429 C24.6477778,4.28228571 25.9844444,3.74971429 27.6333333,3.74971429 C29.3044444,3.74971429 30.6477778,4.27542857 31.6577778,5.33371429 C32.6688889,6.392 33.1733333,7.77942857 33.1733333,9.504 C33.1733333,11.2205714 32.6611111,12.608 31.6433333,13.6662857 C30.6333333,14.7245714 29.2966667,15.2502857 27.6322222,15.2502857 Z M25.2788889,9.504 C25.2788889,10.4914286 25.4944444,11.2674286 25.9177778,11.8468571 C26.3488889,12.4274286 26.92,12.7177143 27.6333333,12.7177143 C28.3455556,12.7177143 28.9255556,12.4274286 29.3555556,11.848 C29.7866667,11.2674286 30.0022222,10.4834286 30.0022222,9.512 C30.0022222,8.52457143 29.7866667,7.74742857 29.3633333,7.16 C28.9322222,6.57942857 28.3611111,6.29028571 27.6411111,6.29028571 C26.9277778,6.29028571 26.3633333,6.58742857 25.9322222,7.176 C25.4944444,7.75542857 25.2788889,8.53942857 25.2788889,9.504 Z"/>
      <path fill="#228D45" d="M45.1966667,14.0994286 C44.6677638,14.3981334 44.1018434,14.6215112 43.5144444,14.7634286 C42.8762964,14.9183364 42.2223186,14.9935457 41.5666667,14.9874286 C39.4633333,14.9874286 37.7811111,14.3085714 36.5111111,12.9485714 C35.25,11.5885714 34.6155556,9.77257143 34.6155556,7.50171429 C34.6155556,6.25828571 34.8077778,5.15314286 35.1911111,4.17142857 C35.5651363,3.20558946 36.1569491,2.34499646 36.9177778,1.66057143 C37.5236631,1.10712446 38.2313258,0.684307993 38.9988889,0.417142857 C39.7733333,0.139428571 40.6288889,0 41.5588889,0 C43.6544444,0 45.3366667,0.68 46.6055556,2.04685714 C47.8744444,3.41485714 48.5022222,5.23085714 48.5022222,7.50171429 C48.5022222,8.45142857 48.3988889,9.30971429 48.1844444,10.0822857 C47.9806474,10.8320229 47.6484018,11.5383338 47.2033333,12.168 C47.6022222,12.5314286 48.03,12.8171429 48.4944444,13.0331429 C48.96,13.2502857 49.4611111,13.3805714 50,13.4422857 L48.9744444,16 C48.2386101,15.9343633 47.5207649,15.7302116 46.8566667,15.3977143 C46.2248281,15.0829249 45.6604613,14.6415337 45.1966667,14.0994286 Z M41.5588889,11.9908571 C42.6511111,11.9908571 43.4988889,11.5965714 44.1044444,10.808 C44.7166667,10.0194286 45.0188889,8.92228571 45.0188889,7.50971429 C45.0188889,6.096 44.71,4.99085714 44.0966667,4.20228571 C43.4855556,3.40685714 42.6355556,3.01371429 41.5522222,3.01371429 C40.4744444,3.01371429 39.6333333,3.41371429 39.0133333,4.21828571 C38.3933333,5.02171429 38.0911111,6.11885714 38.0911111,7.51657143 C38.0911111,8.91542857 38.4011111,10.0125714 39.0133333,10.808 C39.6333333,11.5965714 40.4811111,11.9908571 41.5577778,11.9908571 L41.5588889,11.9908571 Z"/>
    </g>
    <path fill="#338D56" d="M3.59472656,70 L1.0546875,70 L1.0546875,57.3173828 L3.26953125,57.3173828 L9.19335938,65.5791016 L9.26367188,65.5791016 L9.26367188,57.3173828 L11.8037109,57.3173828 L11.8037109,70 L9.60644531,70 L3.67382812,61.6943359 L3.59472656,61.6943359 L3.59472656,70 Z M22.0944475,67.8027344 L22.0944475,70 L13.6921038,70 L13.6921038,57.3173828 L22.0944475,57.3173828 L22.0944475,59.5058594 L16.3464006,59.5058594 L16.3464006,62.5644531 L21.7692522,62.5644531 L21.7692522,64.6035156 L16.3464006,64.6035156 L16.3464006,67.8027344 L22.0944475,67.8027344 Z M31.383231,61.3339844 L28.9750279,70 L26.470145,70 L23.1127232,57.3173828 L25.8636997,57.3173828 L27.8588169,66.5019531 L27.9291294,66.5019531 L30.3021763,57.3173828 L32.5433872,57.3173828 L34.9164341,66.5019531 L34.9867466,66.5019531 L36.9906529,57.3173828 L39.7416294,57.3173828 L36.3754185,70 L33.8705357,70 L31.4623325,61.3339844 L31.383231,61.3339844 Z M50.540876,70 L47.8865792,70 L47.8865792,65.2626953 L43.4744698,57.3173828 L46.3660713,57.3173828 L49.2049385,62.7314453 L49.266462,62.7314453 L52.1141182,57.3173828 L54.9617745,57.3173828 L50.540876,65.2626953 L50.540876,70 Z M61.0073939,57.0976562 C64.7603236,57.0976562 67.1245814,59.6201172 67.1245814,63.6630859 C67.1245814,67.6972656 64.7603236,70.2197266 61.0073939,70.2197266 C57.2456751,70.2197266 54.8902064,67.6972656 54.8902064,63.6630859 C54.8902064,59.6201172 57.2456751,57.0976562 61.0073939,57.0976562 Z M61.0073939,59.3125 C58.9331751,59.3125 57.5972376,61 57.5972376,63.6630859 C57.5972376,66.3173828 58.9243861,67.9960938 61.0073939,67.9960938 C63.0816126,67.9960938 64.4087611,66.3173828 64.4087611,63.6630859 C64.4087611,61 63.0816126,59.3125 61.0073939,59.3125 Z M71.2629742,59.3916016 L71.2629742,63.4345703 L73.5481305,63.4345703 C74.884068,63.4345703 75.6662945,62.6699219 75.6662945,61.4130859 C75.6662945,60.1826172 74.8401226,59.3916016 73.5217633,59.3916016 L71.2629742,59.3916016 Z M71.2629742,65.359375 L71.2629742,70 L68.6086773,70 L68.6086773,57.3173828 L73.8030133,57.3173828 C76.720982,57.3173828 78.3909039,58.8554688 78.3909039,61.3603516 C78.3909039,62.9863281 77.5471539,64.3925781 76.0881695,64.9638672 L78.7600445,70 L75.7541851,70 L73.3899273,65.359375 L71.2629742,65.359375 Z M82.564453,70 L79.9101561,70 L79.9101561,57.3173828 L82.564453,57.3173828 L82.564453,63.1005859 L82.6435545,63.1005859 L87.4072264,57.3173828 L90.3603514,57.3173828 L85.666992,62.9423828 L90.6855467,70 L87.5126952,70 L83.7509764,64.7001953 L82.564453,66.1240234 L82.564453,70 Z"/>
  </g>
</svg>
