<svg width="96" height="75" viewBox="0 0 96 75" version="1.1" xmlns="http://www.w3.org/2000/svg" xmlns:xlink="http://www.w3.org/1999/xlink">
<title>range</title>
<desc>Created using Figma</desc>
<g id="Canvas" transform="translate(-2508 7993)">
<clipPath id="clip-0" clip-rule="evenodd">
<path d="M 2508 -7993L 2604 -7993L 2604 -7918L 2508 -7918L 2508 -7993Z" fill="#FFFFFF"/>
</clipPath>
<g id="range" clip-path="url(#clip-0)">
<g id="RANGE">
<use xlink:href="#path0_fill" transform="translate(2511.18 -7935.05)" fill="#303E46"/>
<use xlink:href="#path1_fill" transform="translate(2511.18 -7935.05)" fill="#303E46"/>
<use xlink:href="#path2_fill" transform="translate(2511.18 -7935.05)" fill="#303E46"/>
<use xlink:href="#path3_fill" transform="translate(2511.18 -7935.05)" fill="#303E46"/>
<use xlink:href="#path4_fill" transform="translate(2511.18 -7935.05)" fill="#303E46"/>
</g>
<g id="Yellow">
<use xlink:href="#path5_fill" transform="translate(2512.39 -7978.59)" fill="#FFED27"/>
</g>
<g id="Magenta">
<use xlink:href="#path6_fill" transform="translate(2512.42 -7989.88)" fill="#FF257A"/>
</g>
<g id="Blue">
<use xlink:href="#path7_fill" transform="translate(2512.03 -7991.67)" fill="#00C9DD"/>
</g>
<g id="Overlap Gray">
<use xlink:href="#path8_fill" transform="translate(2512.03 -7987.38)" fill="#4A636F"/>
<use xlink:href="#path9_fill" transform="translate(2512.03 -7987.38)" fill="#4A636F"/>
<use xlink:href="#path10_fill" transform="translate(2512.03 -7987.38)" fill="#4A636F"/>
<use xlink:href="#path11_fill" transform="translate(2512.03 -7987.38)" fill="#4A636F"/>
</g>
<g id="Overlap Green">
<use xlink:href="#path12_fill" transform="translate(2553.03 -7974.46)" fill="#5BB25F"/>
<use xlink:href="#path13_fill" transform="translate(2553.03 -7974.46)" fill="#5BB25F"/>
</g>
</g>
</g>
<defs>
<path id="path0_fill" d="M 0 0.27404L 0 14.8614L 3.06113 14.8614L 3.06113 9.46492L 5.43037 9.46492L 8.5544 14.8614L 12.0139 14.8614L 8.51247 9.08548C 10.2317 8.45308 11.301 7.0618 11.301 4.86948C 11.301 1.81288 9.20437 0.27404 6.08033 0.27404L 0 0.27404ZM 3.04017 3.0566L 6.14323 3.0566C 7.46413 3.0566 8.38667 3.62576 8.38667 4.93272C 8.38667 6.26076 7.46413 6.851 6.14323 6.851L 3.04017 6.851L 3.04017 3.0566Z"/>
<path id="path1_fill" d="M 23.5351 0.27404L 18.2095 14.8614L 21.4384 14.8614L 22.3819 12.0999L 27.959 12.0999L 28.9235 14.8614L 32.1733 14.8614L 26.7849 0.27404L 23.5351 0.27404ZM 25.1495 3.98412L 27.0365 9.40168L 23.3044 9.40168L 25.1495 3.98412Z"/>
<path id="path2_fill" d="M 39.333 0.27404L 39.333 14.8614L 42.3941 14.8614L 42.3941 5.98672L 48.2228 14.8614L 51.0114 14.8614L 51.0114 0.27404L 47.9712 0.27404L 47.9712 9.21196L 42.3941 0.27404L 39.333 0.27404Z"/>
<path id="path3_fill" d="M 66.2129 6.82992L 66.2129 9.46492L 68.8337 9.46492C 68.6241 11.5308 67.3451 12.3107 65.7726 12.3107C 63.4872 12.3107 62.0615 10.7297 62.0615 7.56772C 62.0615 4.4268 63.4663 2.8458 65.7726 2.8458C 67.387 2.8458 68.3096 3.62576 69.0853 4.89056L 71.3078 3.22524C 70.3433 1.34912 68.5821 0 65.7936 0C 61.8728 0 59.0004 2.65608 59.0004 7.60988C 59.0004 12.5426 61.8518 15.1354 65.7726 15.1354C 69.6305 15.1354 71.811 12.5848 71.811 8.79036L 71.811 6.82992L 66.2129 6.82992Z"/>
<path id="path4_fill" d="M 79.874 0.27404L 79.874 14.8614L 89.5816 14.8614L 89.5816 12.0156L 82.9351 12.0156L 82.9351 8.79036L 87.5478 8.79036L 87.5478 6.04996L 82.9351 6.04996L 82.9351 3.11984L 89.4348 3.11984L 89.4348 0.27404L 79.874 0.27404Z"/>
<path id="path5_fill" d="M 42.4972 12.8493C 41.2887 14.1491 39.5059 15.4222 37.4394 15.9409C 35.5121 16.3592 33.7514 16.2864 32.5017 15.9641C 31.1896 15.5883 30.0929 14.9467 29.2873 14.4419L 29.0221 14.275C 28.3587 13.8558 27.8716 13.5483 27.2605 13.3773C 26.5227 13.1344 25.9178 13.0734 24.6874 13.3474C 22.6206 13.7691 19.4166 15.6726 15.896 18.4681C 12.4502 21.2008 9.10523 24.4458 6.6824 27.2552C 5.27057 28.8758 4.50287 30.2024 4.0052 31.2531C 2.70262 30.7938 0 29.3262 0 29.3262C 0 29.3262 1.66572 26.27 3.32952 24.3288C 5.88435 21.3732 9.52943 17.8387 13.1442 14.9649C 16.6842 12.1539 20.6111 9.62399 23.8045 8.97256C 25.6608 8.61688 27.3701 8.7525 28.5717 9.11234C 29.8214 9.52203 30.8543 10.1639 31.6357 10.6535L 31.7622 10.7329C 32.4742 11.1799 32.9697 11.491 33.6481 11.6515C 34.4283 11.8746 35.1182 11.9128 36.459 11.5871C 37.661 11.3618 38.3292 10.8214 39.2366 9.81943C 39.9316 9.07289 40.5586 8.16938 41.2458 7.17922L 41.2471 7.17747C 41.4812 6.84001 41.7226 6.49253 41.9757 6.13776C 44.0028 3.30086 46.8014 0 52.3658 0C 56.108 0 60.1633 2.2679 63.8645 5.08243C 67.6283 7.9502 71.5348 11.7919 74.966 15.5383C 78.3998 19.2903 81.4766 23.0612 83.6646 25.8573C 84.7628 27.2613 86.262 29.2572 86.262 29.2572L 82.5243 31.3318C 82.5243 31.3318 81.2862 29.6994 80.4708 28.6572C 78.311 25.8966 75.0486 22.2185 71.6993 18.5616C 68.3469 14.899 64.73 11.3317 61.1863 8.64279C 57.58 5.90057 54.5437 4.464 52.3658 4.464C 49.0503 4.464 47.4089 6.18514 45.5818 8.74224C 45.378 9.02715 45.1723 9.32192 44.9627 9.62226L 44.948 9.64342L 44.9463 9.64581C 44.2044 10.7095 43.415 11.8413 42.4972 12.8493Z"/>
<path id="path6_fill" d="M 3.39514 42.5142C 3.39514 42.5142 3.73565 42.6559 3.94402 42.6337L 4.06783 42.3787C 4.60549 41.2754 5.46106 39.7248 6.5012 37.8414C 8.5957 34.0464 11.6152 29.0795 15.5216 24.0677C 23.4029 13.9442 34.2652 4.464 47.0767 4.464C 59.7552 4.464 68.6422 13.7874 74.5203 23.8245C 77.4434 28.806 79.4866 33.7317 80.8452 37.5163C 81.5192 39.3914 82.0007 40.9275 82.3245 42.0273C 82.3883 42.2439 82.4948 42.6161 82.4948 42.6161L 86.5819 40.7601C 86.5819 40.7601 85.7251 37.9613 85.0212 36.0002C 83.6241 32.1123 81.4139 26.808 78.3463 21.5596C 72.2425 11.1366 62.1978 0 47.0767 0C 32.0885 0 20.0724 10.9798 12.0252 21.3163C 7.96747 26.5345 4.76032 31.7976 2.61909 35.6751C 1.54137 37.628 0.705259 39.2771 0.152427 40.4116C -0.0506396 40.8284 0.00779831 41.4159 0.00779831 41.4159L 3.39514 42.5142Z"/>
<path id="path7_fill" d="M 31.539 6.96495C 29.7085 5.17088 27.7533 4.24618 25.2035 4.50838C 22.4341 4.79313 19.6236 6.95702 16.8804 10.8379C 14.1389 14.6995 11.8678 19.6771 9.96702 24.7899C 8.06547 29.8955 6.63702 34.9221 5.66505 38.7359C 5.18135 40.6334 4.82027 42.1958 4.57601 43.3022C 4.47315 43.7675 4.07941 44.1038 4.07941 44.1038L 3.20555 43.9892C 3.20555 43.9892 1.01292 43.7505 0 43.259C 0.0554036 42.9978 0.160577 42.7004 0.241515 42.3344C 0.49059 41.2067 0.868058 39.574 1.36404 37.6277C 2.35167 33.7541 3.84829 28.4986 5.80838 23.2258C 7.76943 17.9602 10.2963 12.4631 13.2614 8.25196C 16.2243 4.06012 20.0281 0.553244 24.7519 0.067537C 28.9235 -0.361407 32.1176 1.29782 34.6385 3.76843C 37.005 6.11363 38.9494 9.33088 40.7197 12.3556L 41.0415 12.9061C 42.6887 15.7254 44.2315 18.366 46.0813 20.3487C 47.9462 22.3674 49.9029 23.4919 52.3576 23.4919C 56.7489 23.4919 59.6942 20.4951 63.1232 17.0058L 63.1743 16.9538C 63.425 16.6988 63.6782 16.4412 63.935 16.1821C 65.6686 14.4314 67.6882 12.5045 70.0846 11.6019C 72.7338 10.6041 75.5392 10.9438 78.5131 12.9619C 85.1635 17.4752 87.1253 25.9567 87.6396 32.6361C 87.8983 36.0404 87.5335 39.3737 87.3604 41.6352C 87.3078 42.3181 87.1922 43.4566 87.1922 43.4566L 82.8768 44.4126C 82.8768 44.4126 82.8816 44.3804 82.8842 44.3623C 82.9078 44.2042 82.9392 43.9836 82.9767 43.6863C 83.0543 43.0776 83.1492 42.2305 83.2309 41.1616C 83.3978 38.9929 83.5019 36.1302 83.2554 32.9771C 82.7599 26.5418 80.8796 19.9538 76.0289 16.6619C 74.0695 15.3321 72.7586 15.3617 71.6424 15.7822C 70.2732 16.2978 68.878 17.5175 67.0812 19.3318C 66.802 19.6138 66.5142 19.9105 66.2164 20.2173L 66.1955 20.2389L 66.1687 20.2666C 62.9864 23.5485 58.7128 27.9559 52.3576 27.9559C 48.2757 27.9559 45.222 25.9782 42.8281 23.3866C 40.5992 20.9536 38.7528 17.7981 37.0327 14.8579L 36.8932 14.6196C 35.133 11.6126 33.5239 8.8844 31.539 6.96495Z"/>
<path id="path8_fill" d="M 30.87 2.06637C 31.0959 2.25749 31.3192 2.46187 31.5408 2.67902C 32.3786 3.4892 33.1494 4.44344 33.893 5.5019C 35.2326 4.80055 36.6054 4.18736 38.01 3.67741C 37.1199 2.3563 36.1716 1.09905 35.1428 0C 33.6777 0.60011 32.2531 1.29425 30.87 2.06637Z"/>
<path id="path9_fill" d="M 8.85064 23.6483C 6.42974 27.1723 4.44557 30.5064 2.96846 33.1811C 1.89074 35.1341 1.05461 36.7832 0.501781 37.9177C 0.339424 38.2508 0.238205 38.4488 0.080955 38.7946C 0.0490538 38.8647 1.86953e-05 38.9746 1.86953e-05 38.9746C 1.86953e-05 38.9746 2.58087 40.1236 3.75977 40.1621C 3.94452 40.1681 4.13745 40.1599 4.3357 40.14C 4.39472 39.8571 4.47493 39.4815 4.57779 39.0163C 4.82205 37.9099 5.18314 36.3474 5.66683 34.45C 6.43791 31.4241 7.49638 27.6348 8.85064 23.6483Z"/>
<path id="path10_fill" d="M 69.851 7.40837C 68.4534 7.97923 67.1856 8.8921 66.0291 9.90126C 67.1068 10.916 68.1306 11.9993 69.1023 13.1336C 70.011 12.3554 70.8321 11.8021 71.6442 11.4963C 72.1505 11.3056 72.6966 11.1953 73.3253 11.2557C 72.2425 9.92409 71.0853 8.63241 69.851 7.40837Z"/>
<path id="path11_fill" d="M 83.1898 27.9055C 83.2103 28.1283 83.2401 28.4686 83.2572 28.6912C 83.5037 31.8443 83.3996 34.707 83.2327 36.8757C 83.151 37.9446 83.0561 38.7916 82.9785 39.4004C 82.941 39.6977 82.9096 39.9183 82.886 40.0764L 82.8786 40.1267C 83.0241 40.1455 83.1662 40.1577 83.3037 40.1621C 84.512 40.2006 86.0571 39.6603 87.1911 39.1727C 87.1198 38.9171 87.0329 38.6116 86.9312 38.2662C 86.5962 37.1282 86.0744 35.4674 85.3705 33.5063C 84.789 31.8884 84.056 29.9078 83.1898 27.9055Z"/>
<path id="path12_fill" d="M 3.00167 7.34252C 2.5953 6.97379 2.20651 6.58499 1.83362 6.18132C 1.19286 5.48185 0.583665 4.72269 0 3.92607C 0.201139 3.64332 0.404447 3.35063 0.613053 3.04993L 0.614258 3.04817C 0.848398 2.71071 1.08977 2.36323 1.34294 2.00846C 1.77701 1.40093 2.2465 0.772154 2.7709 0.159057C 3.50633 1.25538 4.26632 2.26409 5.08678 3.14344C 5.26551 3.33692 5.44497 3.52219 5.62588 3.69905C 5.40065 3.98961 5.17639 4.2948 4.94899 4.61294C 4.7452 4.89785 4.53949 5.19262 4.32991 5.49296L 4.31522 5.51412L 4.31353 5.51652C 3.89608 6.11502 3.46369 6.73508 3.00167 7.34252Z"/>
<path id="path13_fill" d="M 25.4707 2.75558C 25.3905 2.83829 25.3093 2.92184 25.2277 3.00615L 25.2219 3.01202L 25.2009 3.03361L 25.1742 3.06128C 24.3027 3.96013 23.3493 4.94338 22.2937 5.89739C 21.7127 5.41495 21.1322 4.95252 20.5535 4.5135C 19.9 4.01659 19.2653 3.56258 18.651 3.15219C 19.7422 2.21859 20.8135 1.13837 21.9326 0C 22.3696 0.308607 22.8032 0.627205 23.2317 0.953129C 23.9741 1.51879 24.7221 2.12235 25.4707 2.75558Z"/>
</defs>
</svg>