<svg width="121" height="166" viewBox="0 0 121 166" fill="none" xmlns="http://www.w3.org/2000/svg">
<path d="M91.6496 55.21C106.865 55.21 119.2 42.8754 119.2 27.66C119.2 12.4445 106.865 0.109985 91.6496 0.109985C76.4342 0.109985 64.0996 12.4445 64.0996 27.66C64.0996 42.8754 76.4342 55.21 91.6496 55.21Z" fill="#171D26"/>
<path d="M55.8398 0H0.739746V55.1H55.8398V0Z" fill="#EE9AB2"/>
<path d="M91.6496 66.86L106.03 92.32L120.41 117.77H91.6496H62.8896L77.2696 92.32L91.6496 66.86Z" fill="#FFC550"/>
<path d="M28.2897 118.17C43.5052 118.17 55.8398 105.835 55.8398 90.62C55.8398 75.4045 43.5052 63.0699 28.2897 63.0699C13.0743 63.0699 0.739746 75.4045 0.739746 90.62C0.739746 105.835 13.0743 118.17 28.2897 118.17Z" fill="#5263F3"/>
<path d="M9.07 149.26V152.8C8.61936 152.604 8.13135 152.508 7.64 152.52C5.41 152.52 3.79 154.27 3.79 156.99V164.9H0V149.26H3.78V151.58C4.12597 150.829 4.67583 150.19 5.36704 149.735C6.05825 149.281 6.86308 149.03 7.69 149.01C8.16153 149.007 8.62949 149.092 9.07 149.26V149.26Z" fill="#171D26"/>
<path d="M24.8598 157.77H12.4098C12.4884 158.909 12.997 159.975 13.8326 160.753C14.6681 161.531 15.7681 161.963 16.9098 161.96C17.7332 161.976 18.5458 161.771 19.2621 161.364C19.9784 160.958 20.5718 160.365 20.9798 159.65L24.1698 160.93C23.5048 162.249 22.4787 163.351 21.2109 164.109C19.9432 164.867 18.4862 165.249 17.0098 165.21C11.7898 165.21 8.59979 161.62 8.59979 157.08C8.58128 155.992 8.78496 154.912 9.19836 153.905C9.61176 152.898 10.2262 151.986 11.004 151.225C11.7819 150.464 12.7069 149.87 13.7223 149.479C14.7378 149.088 15.8224 148.908 16.9098 148.95C17.969 148.918 19.0235 149.103 20.0085 149.494C20.9935 149.885 21.8882 150.473 22.6375 151.222C23.3868 151.972 23.975 152.866 24.3657 153.851C24.7565 154.836 24.9416 155.891 24.9098 156.95L24.8598 157.77ZM12.7798 155.02H20.7798C20.5329 154.172 20.0126 153.43 19.2999 152.909C18.5872 152.389 17.7223 152.118 16.8398 152.14C15.9444 152.124 15.0676 152.396 14.3372 152.914C13.6068 153.432 13.0611 154.17 12.7798 155.02V155.02Z" fill="#171D26"/>
<path d="M25.4199 157.08C25.4219 155.986 25.6439 154.905 26.0727 153.899C26.5015 152.893 27.1283 151.984 27.9158 151.225C28.7033 150.466 29.6354 149.874 30.6566 149.483C31.6778 149.092 32.7672 148.911 33.8599 148.95C35.4743 148.906 37.0643 149.351 38.4208 150.227C39.7773 151.104 40.8368 152.37 41.4599 153.86L38.0899 155.27C37.6716 154.288 36.927 153.481 35.982 152.985C35.0371 152.489 33.9499 152.335 32.9043 152.549C31.8587 152.762 30.919 153.33 30.244 154.157C29.5691 154.983 29.2005 156.018 29.2005 157.085C29.2005 158.152 29.5691 159.187 30.244 160.013C30.919 160.84 31.8587 161.408 32.9043 161.621C33.9499 161.835 35.0371 161.681 35.982 161.185C36.927 160.689 37.6716 159.882 38.0899 158.9L41.4599 160.3C40.8368 161.79 39.7773 163.056 38.4208 163.933C37.0643 164.809 35.4743 165.254 33.8599 165.21C32.7672 165.249 31.6778 165.067 30.6566 164.677C29.6354 164.286 28.7033 163.693 27.9158 162.935C27.1283 162.176 26.5015 161.267 26.0727 160.261C25.6439 159.255 25.4219 158.173 25.4199 157.08V157.08Z" fill="#171D26"/>
<path d="M42.5898 141.48H46.3698V164.93H42.5898V141.48Z" fill="#171D26"/>
<path d="M64.6297 149.26V164.9H60.8397V163.03C60.1893 163.754 59.3866 164.325 58.4892 164.702C57.5918 165.079 56.6221 165.252 55.6497 165.21C53.5633 165.106 51.5965 164.205 50.1563 162.691C48.7162 161.178 47.9131 159.169 47.9131 157.08C47.9131 154.991 48.7162 152.982 50.1563 151.469C51.5965 149.955 53.5633 149.053 55.6497 148.95C56.6228 148.909 57.5928 149.085 58.4901 149.463C59.3874 149.842 60.1898 150.415 60.8397 151.14V149.26H64.6297ZM60.9697 157.08C60.9697 156.164 60.6982 155.269 60.1894 154.508C59.6807 153.746 58.9576 153.153 58.1115 152.802C57.2655 152.452 56.3346 152.36 55.4365 152.539C54.5383 152.718 53.7133 153.159 53.0658 153.806C52.4183 154.454 51.9773 155.279 51.7987 156.177C51.62 157.075 51.7117 158.006 52.0622 158.852C52.4126 159.698 53.006 160.421 53.7674 160.93C54.5288 161.438 55.424 161.71 56.3397 161.71C56.9489 161.714 57.5527 161.597 58.1163 161.366C58.6798 161.134 59.1918 160.793 59.6225 160.363C60.0532 159.932 60.3941 159.42 60.6254 158.856C60.8567 158.293 60.9737 157.689 60.9697 157.08V157.08Z" fill="#171D26"/>
<path d="M66.8498 143.39C66.8439 142.944 66.9707 142.506 67.2143 142.132C67.4579 141.758 67.8072 141.465 68.2178 141.29C68.6284 141.115 69.0817 141.066 69.5201 141.15C69.9585 141.233 70.3622 141.445 70.6799 141.758C70.9976 142.072 71.2149 142.473 71.3041 142.91C71.3934 143.347 71.3506 143.801 71.1813 144.214C71.0119 144.627 70.7235 144.98 70.3529 145.229C69.9823 145.477 69.5461 145.61 69.0998 145.61C68.509 145.607 67.9427 145.374 67.5222 144.959C67.1016 144.544 66.8603 143.981 66.8498 143.39ZM67.1898 149.26H70.9798V164.9H67.1898V149.26Z" fill="#171D26"/>
<path d="M95.9398 154.99V164.9H92.1498V155.27C92.1635 154.899 92.1013 154.53 91.967 154.184C91.8326 153.838 91.629 153.524 91.3686 153.26C91.1083 152.996 90.7966 152.788 90.4529 152.648C90.1091 152.509 89.7405 152.442 89.3698 152.45C88.9925 152.451 88.6194 152.528 88.2734 152.679C87.9274 152.829 87.6159 153.049 87.3582 153.325C87.1005 153.6 86.902 153.926 86.775 154.281C86.648 154.636 86.5952 155.014 86.6198 155.39V164.9H82.8298V155.27C82.8435 154.899 82.7813 154.53 82.6469 154.184C82.5126 153.838 82.309 153.524 82.0487 153.26C81.7883 152.996 81.4766 152.788 81.1329 152.648C80.7891 152.509 80.4206 152.442 80.0498 152.45C79.6721 152.449 79.2982 152.526 78.9516 152.676C78.6049 152.826 78.2928 153.046 78.0348 153.321C77.7768 153.597 77.5784 153.923 77.4519 154.279C77.3255 154.635 77.2737 155.013 77.2998 155.39V164.9H73.5098V149.26H77.2998V150.8C77.7477 150.232 78.3169 149.771 78.9656 149.451C79.6144 149.131 80.3264 148.96 81.0498 148.95C81.9312 148.971 82.7947 149.204 83.5674 149.628C84.3402 150.053 84.9995 150.657 85.4898 151.39C85.9981 150.631 86.6876 150.01 87.4959 149.584C88.3043 149.158 89.2061 148.94 90.1198 148.95C90.9021 148.952 91.6761 149.112 92.3956 149.419C93.1152 149.726 93.7657 150.174 94.3086 150.738C94.8514 151.301 95.2756 151.968 95.5558 152.698C95.836 153.429 95.9666 154.208 95.9398 154.99V154.99Z" fill="#171D26"/>
<path d="M113.62 149.26V164.9H111.05V162.65C110.324 163.487 109.421 164.152 108.405 164.595C107.389 165.038 106.287 165.248 105.18 165.21C103.094 165.106 101.127 164.205 99.6866 162.691C98.2465 161.178 97.4434 159.169 97.4434 157.08C97.4434 154.991 98.2465 152.982 99.6866 151.469C101.127 149.955 103.094 149.053 105.18 148.95C106.288 148.914 107.39 149.126 108.406 149.571C109.421 150.015 110.325 150.681 111.05 151.52V149.26H113.62ZM111.05 157.08C111.05 155.978 110.723 154.901 110.111 153.984C109.498 153.068 108.628 152.354 107.609 151.933C106.591 151.512 105.47 151.402 104.39 151.618C103.309 151.833 102.316 152.365 101.538 153.145C100.759 153.925 100.23 154.918 100.016 155.999C99.802 157.081 99.9138 158.201 100.337 159.218C100.76 160.236 101.475 161.105 102.393 161.716C103.31 162.327 104.388 162.652 105.49 162.65C106.222 162.653 106.947 162.51 107.623 162.231C108.3 161.952 108.914 161.542 109.431 161.024C109.948 160.506 110.357 159.891 110.635 159.214C110.913 158.537 111.054 157.812 111.05 157.08V157.08Z" fill="#171D26"/>
<path d="M116.17 142.88C116.164 142.533 116.261 142.191 116.45 141.9C116.639 141.608 116.91 141.379 117.229 141.242C117.548 141.105 117.901 141.066 118.242 141.13C118.584 141.194 118.898 141.358 119.146 141.602C119.394 141.845 119.564 142.157 119.634 142.497C119.704 142.838 119.671 143.191 119.539 143.513C119.408 143.834 119.183 144.109 118.895 144.303C118.607 144.497 118.267 144.6 117.92 144.6C117.461 144.6 117.02 144.42 116.693 144.098C116.365 143.776 116.178 143.339 116.17 142.88V142.88ZM116.64 149.26H119.2V164.9H116.64V149.26Z" fill="#171D26"/>
</svg>
