<svg class="header_logo__d4jIK" viewBox="0 0 549 84" fill="none" xmlns="http://www.w3.org/2000/svg"><g clip-path="url(#clip0_3208_7249)"><path d="M26.2109 38.0415C25.782 36.924 24.7098 36.8764 23.9711 36.4247C23.6411 36.2875 23.371 36.0374 23.2094 35.7192C23.0478 35.401 23.0053 35.0357 23.0895 34.6891C23.3635 32.8765 23.3635 31.0332 23.0895 29.2206C22.8512 24.7746 22.5415 20.3047 22.3032 15.8586C22.1603 12.7202 22.1841 13.0293 24.6859 12.1734C29.7849 10.4853 34.9554 9.03496 40.1021 7.4182L49.5376 4.75531C53.3976 3.51897 57.2576 2.37773 61.1175 0.998729C62.262 0.570085 63.5234 0.570085 64.6678 0.998729C68.7422 2.56793 72.8166 4.11336 76.9626 5.51614C81.1085 6.91891 85.7786 8.82098 89.9721 10.5804L90.5202 10.8419C91.7284 11.0844 92.7954 11.7845 93.4974 12.7953C94.1993 13.806 94.4816 15.0488 94.2849 16.2628C94.1192 18.1243 94.3298 20.0001 94.9044 21.7788C96.477 21.2795 97.9304 20.9229 99.3124 20.3523C100.541 19.84 101.915 19.7977 103.172 20.2334L121.352 26.2962C121.638 26.2962 121.9 26.5577 122.186 26.6766C122.874 26.8698 123.471 27.3016 123.868 27.8944C124.266 28.4871 124.438 29.2018 124.355 29.9101C124.355 34.0709 124.569 38.2317 124.355 42.3924C124.14 46.5532 124.688 50.6902 124.903 54.851C124.903 56.1349 125.022 56.2775 123.902 56.6817C120.638 57.823 117.421 59.0593 114.085 59.9865C106.27 62.1502 98.3831 64.0522 90.7108 66.7627C88.8046 67.4284 86.7793 67.7612 84.8493 68.3319C84.3796 68.5309 83.8638 68.5962 83.3592 68.5207C82.8545 68.4452 82.3806 68.2317 81.9901 67.9039C81.4247 67.4793 80.7981 67.1426 80.1316 66.9053C78.7972 66.4298 77.4629 66.0494 76.1286 65.5976C75.0326 66.8578 75.6997 68.2843 75.6997 69.6395C75.7243 69.9466 75.6433 70.2529 75.47 70.5079C75.2968 70.7629 75.0416 70.9514 74.7467 71.0423C73.317 71.5416 71.8636 71.9933 70.3863 72.3738C61.5464 74.7513 52.7066 76.9863 43.8906 79.3401C40.1735 80.3387 36.4803 81.4561 32.7633 82.526C32.0962 82.74 31.4052 82.954 30.7142 83.1204C28.9535 83.6174 27.0688 83.4217 25.4484 82.5736C19.0627 79.2687 12.3912 76.0828 5.81488 72.873C4.93034 72.3835 4.0057 71.9699 3.05094 71.6367C2.5539 71.5438 2.11054 71.2666 1.80996 70.8608C1.50939 70.455 1.37389 69.9507 1.4307 69.4493C1.24008 63.6718 0.954154 57.8943 0.715883 52.1168C0.715883 50.9042 0.57292 49.7392 0.715883 48.4553C0.715883 46.2203 1.04946 45.8162 3.09859 45.1504L9.1745 43.2246L23.7805 38.9212L26.2109 38.0415ZM80.5366 42.3211C80.299 42.1396 80.0184 42.0224 79.722 41.9807C79.4257 41.939 79.1236 41.9744 78.8449 42.0834C78.011 42.4162 77.2008 42.7966 76.4622 43.1533C76.2736 43.2276 76.1031 43.341 75.9618 43.4861C75.6044 43.7952 75.5806 45.0316 75.9618 45.1029C76.3313 45.142 76.7027 45.0494 77.0102 44.8414C78.2254 44.033 79.3929 43.1533 80.6558 42.2973V42.1309L80.5366 42.3211ZM30.2376 81.5037C31.1907 81.2421 32.0723 81.0519 32.9301 80.7904C36.7186 79.6729 40.4833 78.4128 44.2956 77.438C53.1117 75.0604 61.9515 72.8255 70.7914 70.5192C71.3632 70.3528 71.9351 70.1388 72.5307 69.9962C72.9056 69.9601 73.2525 69.7824 73.5005 69.4996C73.7486 69.2168 73.8789 68.8501 73.865 68.4745C73.865 67.8801 73.865 67.262 73.865 66.6676C73.865 60.0579 73.865 53.472 74.0557 46.8861C74.0557 42.9155 73.865 43.6763 70.982 44.5085C58.0677 48.1937 45.2725 52.0216 32.4059 55.8496C29.1893 56.8006 29.5943 56.3726 29.642 59.4873C29.642 66.3822 29.8802 73.2772 29.9994 80.1722C30.0563 80.6198 30.1358 81.0641 30.2376 81.5037ZM122.734 29.1969L121.4 29.4346L107.962 33.4052C101.052 35.4261 94.1181 37.3757 87.232 39.4918C83.11 40.7519 83.8009 40.3239 83.7056 44.0092C83.515 50.9042 83.5865 57.8229 83.5388 64.7179C83.4872 65.1277 83.5362 65.5439 83.6818 65.9305C83.8486 66.2396 84.2775 66.62 84.5634 66.5962C85.4684 66.4991 86.362 66.316 87.232 66.0494C90.0436 65.1459 92.8076 64.1235 95.643 63.3152C101.79 61.5558 107.962 59.939 114.109 58.1796C116.754 57.4188 119.303 56.444 121.924 55.588C122.274 55.5294 122.588 55.3387 122.801 55.0554C123.014 54.7722 123.11 54.418 123.068 54.0664C123.068 53.258 123.068 52.4258 123.068 51.6888C122.687 48.0562 122.591 44.3994 122.782 40.7519C122.782 38.0177 122.782 35.2597 122.782 32.5255C122.806 31.4793 122.758 30.4808 122.734 29.2206V29.1969ZM93.165 25.1074H92.9267C92.7361 21.6599 92.5455 18.2124 92.331 14.7649C92.3437 14.4651 92.2951 14.1657 92.1881 13.8852C92.0451 13.6712 91.7354 13.4097 91.5209 13.4335C91.0188 13.4688 90.5227 13.5646 90.0436 13.7188L51.8488 23.776C51.5491 23.8117 51.2758 23.9643 51.0883 24.2003C50.9009 24.4364 50.8145 24.7368 50.8481 25.0361C50.8481 25.3452 50.8481 25.6305 50.8481 25.9396C50.8481 31.4318 50.8481 36.9002 50.991 42.3924C50.991 44.0092 51.2055 45.626 51.3723 47.1476C51.3723 47.9798 51.825 48.2413 52.5875 48.0273L57.8294 46.4106C66.0498 43.819 74.5084 42.2736 82.5858 39.0163C82.9432 38.8736 83.3721 38.8498 83.7533 38.731L91.926 36.3534C92.9744 36.0205 93.165 35.7114 93.1888 34.5702C93.1888 31.3842 93.165 28.2458 93.165 25.1074ZM50.2762 22.2305C51.3961 21.9928 52.6589 21.8026 53.755 21.4935L85.7786 12.958C86.3504 12.7915 86.9461 12.6727 87.518 12.4825C87.6065 12.4404 87.6833 12.3771 87.7415 12.2983C87.7997 12.2195 87.8375 12.1276 87.8515 12.0307C87.8408 11.9389 87.8095 11.8506 87.76 11.7724C87.7105 11.6942 87.6441 11.6281 87.5656 11.579C87.2197 11.3667 86.8523 11.1914 86.4696 11.0559L78.6305 7.94127C74.3892 6.32451 70.1004 4.73153 65.8591 3.1861C64.3687 2.47486 62.6587 2.37249 61.0937 2.90079C58.711 3.80428 56.0662 4.42245 53.5644 5.27838L39.9114 9.51047C36.4327 10.6042 32.9301 11.6503 29.4513 12.7202C29.2505 12.7474 29.0565 12.8119 28.8795 12.9104C28.712 12.9933 28.5837 13.1384 28.5221 13.3146C28.5126 13.4069 28.5249 13.5001 28.558 13.5868C28.5911 13.6735 28.6441 13.7513 28.7127 13.8139C29.1459 14.0735 29.6002 14.2962 30.0709 14.4796C36.1706 16.9523 42.2862 19.4012 48.4177 21.8264C49.0246 22.0135 49.6463 22.1488 50.2762 22.2305ZM48.7513 49.121C48.4782 48.8069 48.1749 48.5202 47.8459 48.2651L30.1423 39.5393C29.8721 39.4053 29.5744 39.3355 29.2726 39.3355C28.9709 39.3355 28.6732 39.4053 28.403 39.5393C27.9264 39.7295 27.426 39.8246 26.9495 39.9673C20.3256 41.8535 13.7255 43.7477 7.1492 45.6497C6.91093 45.6497 6.57735 45.9588 6.55352 46.149C6.57402 46.2837 6.62558 46.4118 6.70414 46.5232C6.7827 46.6346 6.88612 46.7262 7.00623 46.791L27.2593 55.0412C27.8275 55.2547 28.4542 55.2547 29.0225 55.0412C30.7618 54.4943 32.5012 53.995 34.2644 53.472L48.7513 49.121ZM94.9997 35.3548L96.9058 34.8317L106.437 32.05L118.731 28.5311C118.994 28.5311 119.16 28.1507 119.375 27.9605C119.208 27.7703 119.041 27.485 118.827 27.4137C113.156 25.5354 107.485 23.6571 101.814 21.8264C101.34 21.6842 100.835 21.6842 100.361 21.8264C98.812 22.2781 97.2871 22.8249 95.7621 23.3718C95.4646 23.4535 95.2047 23.6355 95.0266 23.887C94.8484 24.1384 94.7631 24.4437 94.7852 24.7508C94.8567 28.1032 94.9282 31.5269 94.9997 35.3548ZM5.93401 70.6619C9.48425 73.0395 8.86475 72.6828 11.3428 70.6619C16.1082 66.5011 20.8736 62.2215 25.639 58.0132C25.9249 57.7516 26.1394 57.4188 26.4968 57.0146C25.2578 56.1824 24.2809 55.5642 22.9227 56.6817C17.6093 61.0565 12.2244 65.3599 6.8871 69.6871C6.55008 69.9926 6.23181 70.3182 5.93401 70.6619ZM10.9854 73.301C11.6525 73.7052 11.9861 73.943 12.3435 74.1094C14.0352 74.9653 14.0352 74.9415 15.4887 73.6814C18.2764 71.3276 21.088 68.7123 23.8282 66.2634C24.813 65.3757 25.8137 64.5198 26.8304 63.6956C27.1587 63.4562 27.4236 63.1405 27.6021 62.776C27.7806 62.4114 27.8674 62.0089 27.8549 61.6033C27.8549 60.7236 27.8549 59.8439 27.7358 58.9642C27.3546 58.9642 27.0925 58.9642 26.9733 58.9642C21.6361 63.5291 16.4179 68.2843 10.9854 73.301ZM22.1126 55.1363C21.8265 54.8164 21.4759 54.5604 21.0838 54.3852C20.6916 54.2099 20.2668 54.1193 19.8371 54.1193C19.4074 54.1193 18.9826 54.2099 18.5905 54.3852C18.1983 54.5604 17.8477 54.8164 17.5616 55.1363C15.6078 56.8481 13.3919 58.3222 11.3428 59.8914C9.29363 61.4607 6.81562 63.6243 4.48056 65.4074C3.96428 65.7223 3.5658 66.1975 3.34629 66.7602C3.12677 67.3228 3.09835 67.9418 3.26538 68.5221C3.26538 68.8074 3.40834 69.0927 3.47983 69.378C3.55131 69.6633 3.98019 69.378 4.09933 69.378L22.1126 55.1363ZM48.8704 24.3466C48.3991 24.5378 47.9447 24.7685 47.5123 25.0361C46.2256 25.8682 44.9866 26.7479 43.7238 27.5801C39.4111 30.4094 35.0745 33.215 30.7618 36.0681C29.4752 36.924 29.5467 37.1855 30.7618 37.8988C31.2925 38.2849 31.9462 38.4642 32.6001 38.4029C33.2539 38.3416 33.8628 38.0439 34.3121 37.5659C36.0991 36.0681 38.0053 34.7366 39.9353 33.4052C42.5086 31.622 45.0819 29.815 47.7506 28.1507C48.2423 27.8908 48.6373 27.4802 48.8775 26.9794C49.1177 26.4786 49.1904 25.9141 49.0849 25.3689C49.0406 25.023 48.9689 24.6812 48.8704 24.3466ZM46.8213 23.3005C46.635 23.0386 46.3975 22.8171 46.1231 22.6493C45.8486 22.4816 45.543 22.371 45.2246 22.3244C44.9062 22.2777 44.5816 22.2959 44.2704 22.3779C43.9592 22.4598 43.6679 22.6038 43.414 22.8012C42.318 23.5382 41.1743 24.2039 40.0544 24.9172C35.289 27.9288 30.6109 30.9721 26.0203 34.0471C25.7105 34.2373 25.3769 34.7128 25.4246 34.9744C25.4722 35.2359 25.9726 35.5212 26.3062 35.7114C26.6646 35.9015 27.0741 35.9739 27.4762 35.9184C27.8783 35.8629 28.2526 35.6824 28.5459 35.4023L45.6776 24.299C46.0778 23.9884 46.4596 23.655 46.8213 23.3005ZM42.2227 21.5886C40.2688 19.9481 39.84 19.853 38.2197 20.8753C34.3121 23.2529 30.4521 25.6305 26.5206 28.0081C25.9891 28.2655 25.5543 28.686 25.2799 29.208C25.0054 29.7301 24.9058 30.3261 24.9957 30.9087C24.9957 31.9311 25.4484 32.1688 26.3062 31.622L37.8385 24.2753C39.2681 23.3956 40.7454 22.5159 42.2227 21.5886ZM3.36069 63.9096C8.13066 60.547 12.7198 56.936 17.1089 53.0916C16.6782 52.584 16.0654 52.265 15.4018 52.2028C14.7382 52.1405 14.0766 52.3401 13.5587 52.7587C10.4929 55.0887 7.41129 57.4108 4.31377 59.725C3.96932 59.9314 3.67027 60.2051 3.43461 60.5298C3.19896 60.8545 3.03157 61.2235 2.94253 61.6144C2.85349 62.0053 2.84464 62.4102 2.9165 62.8046C2.98836 63.1991 3.13946 63.5749 3.36069 63.9096ZM24.9242 26.8668L36.8377 19.7341C36.9807 19.7341 37.0045 19.3774 37.1237 19.0921L35.5749 18.3075C35.0413 18.0217 34.4368 17.8944 33.8329 17.9407C33.2291 17.9871 32.6512 18.2051 32.1676 18.5691C30.2138 19.853 28.2123 21.0655 26.187 22.2068C25.6717 22.4173 25.2465 22.8013 24.9853 23.2921C24.7241 23.7829 24.6435 24.3495 24.7574 24.8934C24.7812 25.4165 24.8051 25.9158 24.9242 26.8668ZM27.7835 65.4788C23.5504 68.5043 19.6525 71.9714 16.1558 75.8213L17.1566 76.487C17.5699 76.7824 18.0823 76.9054 18.585 76.8299C19.0877 76.7545 19.5411 76.4864 19.849 76.0828C22.2317 73.7052 24.7812 71.5416 27.2831 69.3305C27.6029 69.0831 27.8478 68.7523 27.9908 68.3746C28.1338 67.9969 28.1692 67.5872 28.0932 67.1906C28.0217 66.8102 27.9264 66.3109 27.7835 65.4788ZM48.9896 29.5773C48.4754 29.7674 47.9807 30.0062 47.5123 30.2905C43.9382 32.6681 40.3642 35.2835 36.7901 37.8037C36.3772 38.092 35.9795 38.4015 35.5987 38.731C34.8601 39.3729 35.0269 39.7771 35.9561 40.2764C36.2684 40.442 36.6247 40.5059 36.9752 40.4589C37.3256 40.412 37.6525 40.2567 37.91 40.0149C41.3411 37.6373 44.7722 35.2597 48.2509 33.0485C48.5187 32.9169 48.741 32.7086 48.8896 32.4503C49.0381 32.192 49.1061 31.8953 49.0849 31.5982C49.061 30.9087 49.0134 30.4094 48.9896 29.5773ZM48.7751 34.594C45.4107 36.6818 42.1799 38.9767 39.1013 41.4652C41.1505 42.7966 41.1743 42.8442 42.5563 41.8694C44.3909 40.5855 46.1065 39.1827 47.965 37.9701C49.2517 37.138 49.2993 36.1394 48.7751 34.594ZM28.0932 71.6367C27.8073 71.6367 27.6643 71.494 27.6167 71.5178L21.1357 77.3667C21.118 77.408 21.1089 77.4525 21.1089 77.4975C21.1089 77.5424 21.118 77.5869 21.1357 77.6282C21.1357 77.8184 21.0166 78.08 21.1357 78.1988C21.4786 78.5482 21.921 78.7837 22.4029 78.873C22.8847 78.9624 23.3824 78.9013 23.8282 78.6981C25.0195 77.6282 26.2109 76.5583 27.3784 75.4408C27.7334 75.1019 27.9748 74.6618 28.0694 74.1807C28.1373 73.3343 28.1453 72.4842 28.0932 71.6367ZM2.9318 58.1083C3.13522 58.0987 3.33604 58.0587 3.52748 57.9894C6.21994 56.0635 8.93623 54.1377 11.6049 52.1881C11.9623 51.9503 12.6294 51.6175 12.1529 51.0468C11.8037 50.6953 11.3374 50.4838 10.8424 50.4524C10.3517 50.4884 9.88103 50.6614 9.48425 50.9517C7.53043 52.3545 5.60044 53.8286 3.64661 55.2314C3.41002 55.3731 3.20378 55.5601 3.03974 55.7815C2.87569 56.0029 2.75707 56.2545 2.69066 56.5217C2.62425 56.789 2.61137 57.0667 2.65275 57.339C2.69413 57.6112 2.78896 57.8727 2.9318 58.1083ZM81.9663 43.4861C79.8113 44.6756 77.8309 46.1557 76.081 47.8847C75.8935 48.114 75.7849 48.3974 75.7712 48.693C75.7712 49.2874 75.7712 50.0483 76.0095 50.4049C76.2477 50.7615 77.0579 50.2385 77.5106 49.9056C78.6305 49.0734 79.7027 48.1462 80.8464 47.314C81.2465 47.0714 81.5661 46.7165 81.7653 46.2936C81.9645 45.8708 82.0344 45.3987 81.9663 44.9365C81.9424 44.5323 81.9663 44.0568 81.9663 43.4861ZM76.1048 55.8496C76.3192 55.8496 76.5813 55.8496 76.7005 55.8496C78.1777 54.637 79.6788 53.472 81.0846 52.1405C81.4704 51.695 81.726 51.1521 81.8233 50.5713C81.8487 50.1757 81.792 49.779 81.6565 49.4063C81.2952 49.4369 80.9413 49.5252 80.6081 49.6678C79.4644 50.5238 78.416 51.4748 77.2485 52.2832C76.6346 52.6167 76.1733 53.1734 75.9603 53.8376C75.7472 54.5018 75.799 55.2224 76.1048 55.8496ZM31.286 17.095C29.8802 16.1439 28.7842 15.3831 27.3069 16.4292C26.5683 16.9285 25.7343 17.3327 24.9242 17.8082C24.6584 17.9615 24.4525 18.2 24.34 18.485C24.2275 18.7699 24.2151 19.0845 24.3047 19.3774C24.3047 19.8292 24.5191 20.3047 24.6859 20.9704C26.9675 19.8222 29.1722 18.5277 31.286 17.095ZM76.2477 60.9138C76.2477 60.9138 76.4622 60.9138 76.5337 60.9138C78.2016 59.4635 79.9171 58.0369 81.5374 56.5153C81.7995 56.2537 81.728 55.588 81.7518 55.0887C81.7509 54.9907 81.7267 54.8944 81.6811 54.8075C81.6355 54.7207 81.5699 54.646 81.4897 54.5894C81.4081 54.5694 81.3232 54.5675 81.2408 54.584C81.1584 54.6004 81.0807 54.6347 81.0132 54.6845L76.629 58.4173C76.3222 58.6824 76.0952 59.0272 75.9732 59.4134C75.8512 59.7996 75.839 60.212 75.938 60.6047C75.8904 60.6523 76.081 60.7712 76.2477 60.9138ZM43.2472 43.5337C44.3671 44.6749 45.2964 44.8889 46.3686 44.0092C46.9643 43.5099 47.6076 43.0106 48.2509 42.5351C49.3231 41.7743 49.347 40.7995 48.8228 39.4918C46.8841 40.7253 45.0221 42.0751 43.2472 43.5337ZM76.6052 63.4816C76.7404 63.6597 76.9102 63.8088 77.1045 63.92C77.2987 64.0313 77.5135 64.1023 77.7358 64.1289C77.9582 64.1556 78.1836 64.1372 78.3988 64.075C78.6139 64.0128 78.8142 63.908 78.9879 63.7669C79.6312 63.2676 80.2269 62.7208 80.8702 62.269C81.2568 61.9527 81.5338 61.523 81.6621 61.0408C81.7904 60.5586 81.7634 60.0484 81.585 59.5824C81.585 59.5824 81.0132 59.2971 81.0132 59.4397C79.3838 60.6197 77.8895 61.9752 76.5575 63.4816H76.6052ZM8.41203 49.6678C7.53043 48.7881 6.79179 48.4791 5.86253 49.1686C4.93328 49.8581 4.00402 50.4049 3.14625 51.1182C2.77736 51.4283 2.51149 51.8428 2.38378 52.307C2.35669 52.4509 2.36416 52.5992 2.40558 52.7397C2.44699 52.8802 2.52118 53.0089 2.62205 53.1153C2.74119 53.258 3.1939 53.2342 3.38452 53.1153C5.12389 52.0454 6.74414 50.8566 8.41203 49.6678ZM28.0932 77.6995C26.5444 77.9135 25.9249 79.0548 25.1625 80.0771C25.8771 80.8805 26.8768 81.375 27.9502 81.4561C28.2572 80.2272 28.3058 78.9482 28.0932 77.6995ZM49.5376 45.8875C49.4185 45.4833 49.3231 45.1029 49.204 44.7225C49.1677 44.6445 49.1098 44.5785 49.0372 44.5323C48.6044 44.6448 48.1879 44.8126 47.7982 45.0316C47.4646 45.2455 47.2264 45.626 47.6314 46.0064C47.8274 46.2205 48.0728 46.3837 48.3462 46.4819C48.6083 46.6008 48.9657 46.7196 49.1564 46.6008C49.347 46.4819 49.4185 46.149 49.5376 45.8875ZM24.3047 16.1677L26.4253 14.86C25.8058 14.5747 25.4484 14.3607 25.091 14.2419C24.3047 13.9566 24.0664 14.2419 24.0664 15.0978C24.1107 15.4613 24.1905 15.8197 24.3047 16.1677ZM4.5997 47.6707C3.96837 47.5034 3.32179 47.3998 2.6697 47.3616C2.21699 47.3616 2.02637 48.4077 2.33612 48.8832C2.64588 49.3588 3.02711 49.121 3.31304 48.8832C3.76886 48.5085 4.19873 48.1034 4.5997 47.6707ZM81.6803 64.8844C81.5818 64.6895 81.462 64.506 81.3229 64.3375C81.0592 64.4535 80.8044 64.5886 80.5605 64.7417C80.7511 64.9319 80.894 65.2172 81.0846 65.2648C81.2753 65.3123 81.4897 65.027 81.6803 64.8844Z"></path><path d="M28.7593 84.0002C27.5303 84.0226 26.3136 83.7537 25.2091 83.2156C20.2292 80.6953 15.1302 78.1989 10.198 75.7737L5.12282 73.3961C4.39285 73.0172 3.63635 72.6914 2.85925 72.4213C2.24808 72.2857 1.70658 71.9344 1.33444 71.432C0.962293 70.9296 0.784556 70.3099 0.833948 69.6871C0.690986 65.6452 0.524196 61.6271 0.333579 57.5852L0 51.4273C0 50.4287 0 49.4539 0 48.4553C0 46.0777 0.500369 45.3169 2.76394 44.5798C5.02752 43.8428 6.81455 43.2722 8.86368 42.654L18.3945 39.8484L23.4697 38.3506L25.2567 37.8037C25.0058 37.6276 24.7336 37.4838 24.4466 37.3758C24.1722 37.2859 23.9086 37.1663 23.6603 37.0191C23.2309 36.8072 22.885 36.458 22.6777 36.027C22.4705 35.5961 22.4137 35.1084 22.5166 34.6415C22.7838 33.2624 22.824 31.849 22.6357 30.457V29.3871L22.183 22.9676L21.7541 15.9537C21.6112 12.9818 21.7541 12.6251 24.0177 11.8881L24.6372 11.6741C27.9968 10.5566 31.4756 9.53427 34.8114 8.53568C36.5746 8.01261 38.314 7.51332 40.0533 6.96648L49.3459 4.06582C53.2059 2.82948 57.0659 1.68824 60.9259 0.309244C62.2012 -0.166558 63.6058 -0.166558 64.8812 0.309244C68.9556 1.85467 73.0539 3.42388 77.1521 4.80288C80.7262 6.01544 84.3002 7.48954 87.6599 8.89232L90.1855 9.93845H90.4476L90.6859 10.0573C92.0208 10.3392 93.1977 11.1184 93.9769 12.236C94.756 13.3537 95.0788 14.7257 94.8795 16.0726C94.731 17.6691 94.8682 19.2792 95.2845 20.8278L96.1661 20.5662C97.1907 20.2572 98.1676 19.9719 99.0969 19.5914C100.453 19.0222 101.971 18.9714 103.362 19.4488L121.518 25.7256L122.042 25.9634L122.376 26.106C123.171 26.3568 123.856 26.8702 124.32 27.5617C124.783 28.2531 124.997 29.0814 124.925 29.9102C124.925 31.6696 124.925 33.4052 124.925 35.1408C124.925 37.5184 124.925 39.896 124.925 42.4162C124.861 45.3283 124.964 48.2417 125.235 51.142C125.235 52.3783 125.402 53.5195 125.473 54.8034C125.545 56.0873 125.473 56.7293 124.068 57.181L122.185 57.8705C119.612 58.7978 116.92 59.7726 114.227 60.5096L108.652 62.0075C102.79 63.6005 96.738 65.2173 90.8765 67.2858C89.7379 67.6748 88.5761 67.9925 87.3978 68.2368L85.0151 68.855C84.4514 69.0755 83.8392 69.1433 83.2408 69.0514C82.6424 68.9596 82.079 68.7113 81.6078 68.3319C81.097 67.9408 80.5255 67.6356 79.9161 67.4284C78.9868 67.0955 78.0575 66.7865 77.1045 66.5011L76.342 66.2634C76.0518 66.9397 76.0014 67.6945 76.199 68.4032C76.2226 68.7991 76.2226 69.1961 76.199 69.592C76.2278 70.0225 76.1091 70.45 75.8623 70.8042C75.6155 71.1585 75.2553 71.4185 74.8409 71.5416C73.2445 72.0885 71.8148 72.5402 70.4329 72.8968L59.806 75.7737L44.0801 79.9107C41.5068 80.6002 38.8858 81.361 36.3601 82.1219L32.9767 83.2156L32.2857 83.4295L30.9752 83.6911C30.2549 83.898 29.5089 84.0021 28.7593 84.0002ZM62.7844 1.18895C62.2809 1.19484 61.7819 1.2832 61.3071 1.45048C57.4471 2.73438 53.5871 3.97072 49.7033 5.20707L40.5061 8.10772L35.2403 9.67692C31.9045 10.6755 28.4495 11.6979 25.0899 12.8153L24.4704 13.0055C22.9217 13.5048 22.9217 13.5048 23.0408 15.9062C23.1599 18.3075 23.3029 20.6614 23.4697 22.8963L23.8271 29.2682V30.3381C24.0201 31.8587 23.9638 33.4005 23.6603 34.9031C23.6603 35.1884 23.6603 35.5926 24.2798 35.9968C24.4712 36.1061 24.6703 36.2014 24.8755 36.2821C25.2924 36.3897 25.6789 36.5915 26.0053 36.8718C26.3316 37.1521 26.5891 37.5035 26.7578 37.8988L26.9961 38.4932L25.6379 38.9212L23.8271 39.4918L18.7281 40.9897L9.19726 43.7952C7.14813 44.4134 5.12282 45.0554 3.09752 45.7211C1.07222 46.3868 1.19135 46.4819 1.16753 48.4791C1.16753 49.4301 1.16753 50.4049 1.16753 51.3797L1.42963 57.3237C1.62024 61.3656 1.78703 65.3837 1.92999 69.4256C1.92999 70.4004 2.23975 70.8046 3.12135 71.0661C3.94292 71.3492 4.73983 71.6991 5.50406 72.1122L10.5792 74.4898C15.5114 76.8674 20.6104 79.4114 25.6141 81.9554C27.0803 82.7232 28.7855 82.9019 30.3795 82.4547L31.69 82.0743L32.4048 81.8603L35.7883 80.8855C38.314 80.1247 40.9349 79.3639 43.5321 78.6744C48.7741 77.2637 54.016 75.8847 59.258 74.5374L70.2899 71.8032C71.6242 71.4465 73.03 71.0186 74.6026 70.4717C74.7789 70.4219 74.9314 70.3103 75.032 70.1575C75.1326 70.0047 75.1748 69.8208 75.1506 69.6396C75.1731 69.2991 75.1731 68.9576 75.1506 68.6172C74.9899 68.0377 74.9665 67.4288 75.0823 66.8387C75.1981 66.2486 75.4499 65.6935 75.8178 65.2173L76.0561 64.9319L77.6048 65.4075C78.5579 65.7165 79.5348 66.0019 80.4641 66.3585C81.1997 66.615 81.891 66.984 82.5132 67.4522C82.8375 67.7281 83.2339 67.906 83.656 67.965C84.078 68.0239 84.5082 67.9615 84.8959 67.785C85.7299 67.5235 86.5638 67.3333 87.3978 67.1431C88.2317 66.9529 89.6613 66.5963 90.7574 66.2158C96.6189 64.1236 102.671 62.5068 108.604 60.9138L113.989 59.4397C116.634 58.7027 119.278 57.7516 121.852 56.8244L123.734 56.1349C124.211 55.9685 124.33 55.8971 124.354 55.8496C124.383 55.573 124.383 55.294 124.354 55.0174C124.354 53.686 124.187 52.4734 124.091 51.2608C123.859 48.3028 123.795 45.3339 123.901 42.3687C123.901 39.9911 123.901 37.6135 123.901 35.2359C123.901 33.4765 123.901 31.7409 123.901 29.9815C123.997 29.3948 123.869 28.7935 123.543 28.2962C123.216 27.7989 122.715 27.4416 122.138 27.2948C121.987 27.2505 121.843 27.1865 121.709 27.1046L121.304 26.9382L102.981 20.804C101.877 20.3789 100.654 20.3789 99.5496 20.804C98.5488 21.2082 97.5481 21.5173 96.4997 21.8264L95.0939 22.2543L94.5459 22.4208L94.3315 21.8977C93.7291 20.043 93.5102 18.0855 93.6881 16.1439C93.8563 15.0747 93.6028 13.9821 92.9808 13.0954C92.3588 12.2088 91.4167 11.5971 90.3523 11.3888L89.9234 11.1986H89.7328L87.2071 10.0811C83.7999 8.67834 80.2973 7.22801 76.7709 6.01544C72.6488 4.75532 68.5267 3.06724 64.5476 1.54559C63.9879 1.31608 63.3895 1.19504 62.7844 1.18895ZM29.76 82.2407L29.6409 81.5988C29.6544 81.4406 29.6544 81.2815 29.6409 81.1233C29.5736 80.8175 29.5258 80.5078 29.4979 80.196V76.8436C29.3788 71.0661 29.2597 65.2648 29.1882 59.5111C29.1882 59.1544 29.1882 58.8453 29.1882 58.56C29.1882 56.3964 29.3073 56.1824 31.5709 55.4929L37.2417 53.8286C48.2499 50.5476 59.6392 47.1714 70.8856 43.9379L71.9578 43.5812C72.9347 43.2722 73.5542 43.0582 74.1022 43.4386C74.6503 43.819 74.7456 44.7463 74.7218 46.8861C74.7218 51.2846 74.7218 55.6831 74.5788 60.0817V66.6676C74.5788 67.2858 74.5788 67.9039 74.5788 68.5221C74.5815 69.0067 74.4136 69.4768 74.1044 69.8505C73.7953 70.2242 73.3644 70.4777 72.8871 70.5668L72.0293 70.8284L71.1477 71.0899L62.9273 73.2297C56.8276 74.8148 50.7438 76.3998 44.6758 77.9849C42.1501 78.6744 39.6245 79.4352 37.1703 80.1722L33.3103 81.3373L31.4994 81.8128L29.76 82.2407ZM73.2445 44.3896L72.2199 44.7225L71.1 45.0791C59.8537 48.3126 48.4643 51.6888 37.4562 54.9699L31.7853 56.6342C30.1651 57.1097 30.1651 57.1097 30.2128 58.5362C30.2128 58.7978 30.2128 59.1306 30.2128 59.4873C30.2128 65.2648 30.4034 71.0423 30.5225 76.7961V80.1722C30.5225 80.3625 30.5225 80.5527 30.5225 80.7666H30.8323L32.5955 80.2911L36.4316 79.1499C38.8143 78.3891 41.4591 77.6282 43.9848 76.9387C50.0607 75.322 56.1605 73.729 62.2364 72.1836L70.4567 70.0437L71.2907 69.7822L72.2199 69.5207C72.4517 69.4909 72.663 69.3728 72.8096 69.1911C72.9561 69.0094 73.0266 68.7782 73.0062 68.5459C73.0062 67.9515 73.0062 67.3571 73.0062 66.7627V60.153C73.0062 55.7545 73.0062 51.3797 73.1492 46.9812C73.3057 46.1264 73.3378 45.2536 73.2445 44.3896ZM28.3781 82.0981H27.9015C27.2954 82.0595 26.7029 81.9009 26.1589 81.6315C25.6148 81.3621 25.1299 80.9873 24.7325 80.5289L24.3989 80.1722L24.947 79.4114C25.2473 78.8101 25.6796 78.284 26.2117 77.8724C26.7439 77.4608 27.3622 77.1742 28.0207 77.0338H28.6402V77.9373C28.8815 79.1636 28.8653 80.4266 28.5925 81.6463L28.3781 82.0981ZM25.9954 80.0296C26.4297 80.4279 26.9655 80.6993 27.5441 80.8142C27.6667 80.0264 27.6667 79.2244 27.5441 78.4366C26.863 78.7946 26.3065 79.3499 25.9477 80.0296H25.9954ZM22.874 79.6254H22.3975C22.0082 79.5902 21.6321 79.467 21.2977 79.2651C20.9633 79.0633 20.6794 78.7881 20.4675 78.4604C20.4098 78.325 20.3801 78.1795 20.3801 78.0324C20.3801 77.8854 20.4098 77.7398 20.4675 77.6045C20.5061 77.3274 20.6311 77.0695 20.8249 76.8674L27.3058 71.0423C27.4177 70.9646 27.5508 70.9229 27.6871 70.9229C27.8234 70.9229 27.9564 70.9646 28.0683 71.0423H28.3066H28.7355V71.5178C28.7355 71.7318 28.7355 71.9696 28.7355 72.2074C28.7831 72.8484 28.7831 73.4921 28.7355 74.1332C28.6221 74.759 28.3135 75.3332 27.8539 75.7737C26.6625 76.9387 25.4712 78.1513 24.2798 79.0548C23.8844 79.4205 23.3655 79.6243 22.8264 79.6254H22.874ZM21.4444 77.9849C21.7179 78.2248 22.0592 78.3743 22.4213 78.4128C22.7532 78.4917 23.1028 78.4406 23.3982 78.2702C24.4942 77.2954 25.7809 76.1779 26.9246 75.0129C27.1894 74.7735 27.3726 74.4577 27.4488 74.1094C27.4964 73.5398 27.4964 72.9672 27.4488 72.3976L21.4444 77.7947V77.9849ZM18.2754 77.4856C17.7292 77.4705 17.1993 77.297 16.7504 76.9863C16.4883 76.8436 16.2739 76.6772 16.0118 76.5108L15.1779 75.9402L15.6067 75.4409C19.1403 71.5488 23.078 68.042 27.3535 64.9795L28.116 64.4564L28.3781 66.0494C28.3781 66.5012 28.521 66.8578 28.5925 67.1907C28.6858 67.6869 28.6419 68.1992 28.4656 68.6725C28.2893 69.1458 27.9872 69.5623 27.5918 69.8773C24.5657 72.5164 22.2783 74.6325 20.1577 76.6059C19.6924 77.1106 19.0553 77.4243 18.3707 77.4856H18.2754ZM16.9411 75.7024L17.3699 75.9877C17.514 76.1051 17.6803 76.1923 17.8589 76.244C18.0376 76.2958 18.2248 76.311 18.4095 76.2888C18.5941 76.2666 18.7724 76.2074 18.9336 76.1148C19.0948 76.0222 19.2356 75.8981 19.3476 75.7499C21.5635 73.7052 23.8271 71.6367 26.9008 68.9501C27.1453 68.7717 27.332 68.5258 27.4379 68.2427C27.5438 67.9595 27.5641 67.6516 27.4965 67.3571C27.4683 67.061 27.4206 66.7671 27.3535 66.4774C23.6492 69.2435 20.1967 72.3305 17.0364 75.7024H16.9411ZM13.7959 75.2982C13.1548 75.2092 12.5387 74.9907 11.985 74.6563C11.7117 74.5171 11.4489 74.3582 11.1987 74.1807L9.91207 73.3961L10.4839 72.8493C16.393 67.4046 21.3967 62.8872 26.591 58.5838C26.8328 58.4128 27.1327 58.3444 27.425 58.3936H28.3066L28.5925 61.5796C28.6122 62.0878 28.5049 62.5929 28.2803 63.0494C28.0557 63.5059 27.7208 63.8996 27.3058 64.1949L24.3036 66.6914L15.8688 74.1332C14.9634 74.9178 14.4869 75.2982 13.8912 75.2982H13.7959ZM11.9135 73.2059L12.5569 73.5863C13.8912 74.2521 13.8912 74.2521 14.9396 73.2535L23.3982 65.8117C24.3989 64.9319 25.3997 64.076 26.4242 63.2439C26.6863 63.0657 26.8983 62.8236 27.0401 62.5406C27.1819 62.2576 27.2488 61.9432 27.2344 61.6271V59.6062C22.326 63.7432 17.5367 68.0704 11.9135 73.2059ZM8.8875 72.8968C8.14886 72.8968 7.31492 72.3262 5.7185 71.2563L5.00369 70.757L5.4564 70.2577L5.76616 69.9011C5.98925 69.6112 6.24509 69.3479 6.52862 69.1165L12.1756 64.5278C15.7021 61.8173 19.0617 58.9404 22.6119 56.1111C24.3275 54.7083 25.7094 55.588 26.9008 56.3964L27.4726 56.7768L26.7102 57.6565C26.5219 57.8947 26.3147 58.1173 26.0907 58.3223L22.4689 61.5558C18.9664 64.6704 15.3208 67.8801 11.7229 71.0661L10.8413 71.8507C10.0312 72.5164 9.53084 72.8968 8.93516 72.8968H8.8875ZM6.79072 70.5193C8.86368 71.9458 8.93516 71.8745 10.0074 70.8997C10.2456 70.6619 10.5554 70.4004 10.9128 70.0913C14.5107 66.9767 18.0609 63.7669 21.6112 60.581L25.2567 57.3475C25.3958 57.2245 25.5234 57.0892 25.6379 56.9433C24.7087 56.3726 24.1607 56.2538 23.2552 56.9433L12.9858 65.455L7.31492 70.02C7.14417 70.1747 6.9849 70.3415 6.83837 70.5193H6.79072ZM3.88382 70.0675H3.02604L2.83542 69.4018C2.83542 69.1878 2.71629 68.9738 2.66863 68.7598C2.493 68.0676 2.53869 67.3378 2.79931 66.6728C3.05993 66.0077 3.52244 65.4406 4.12209 65.0508C5.48023 64.0047 6.83838 62.911 8.14886 61.8173L10.9605 59.4397C11.7468 58.8216 12.5569 58.2272 13.3432 57.6328C14.606 56.6817 15.9403 55.7069 17.1555 54.6608C17.4943 54.2994 17.9039 54.0113 18.3588 53.8144C18.8138 53.6174 19.3044 53.5158 19.8003 53.5158C20.2962 53.5158 20.7869 53.6174 21.2418 53.8144C21.6968 54.0113 22.1063 54.2994 22.4451 54.6608L23.0408 55.1125L22.1115 55.8496L4.47949 69.9011C4.31759 70.01 4.12671 70.0679 3.93147 70.0675H3.88382ZM19.8003 54.6846C19.1046 54.7369 18.452 55.0414 17.9656 55.5405C16.7266 56.6342 15.3685 57.6328 14.058 58.5838L11.6753 60.3908C10.7222 61.1278 9.79293 61.8886 8.8875 62.6495C7.55319 63.7432 6.19504 64.8606 4.81307 65.9068C4.38961 66.1564 4.06144 66.5396 3.88026 66.9959C3.69907 67.4522 3.67518 67.9557 3.81233 68.427C3.80179 68.5377 3.80179 68.6491 3.81233 68.7598L21.1108 55.1601C20.7262 54.8842 20.2727 54.7197 19.8003 54.6846ZM84.5385 67.1669C84.2437 67.1266 83.9633 67.0144 83.7223 66.8402C83.4812 66.666 83.2869 66.4352 83.1565 66.1683C82.9668 65.7686 82.8925 65.3239 82.9421 64.8844V64.6942C82.9421 62.7683 82.9421 60.8187 82.9421 58.8691C82.9421 53.9951 82.9421 48.9308 83.0851 43.9854C83.1091 43.534 83.1091 43.0816 83.0851 42.6302C83.0851 40.2526 83.371 40.0149 86.3732 39.0876L87.0165 38.8974C91.782 37.4471 96.5474 36.0443 101.313 34.7129L107.865 32.8108L121.304 28.8402L122.042 28.6976L123.377 28.4598V30.3381C123.377 31.0752 123.377 31.7647 123.377 32.4304V36.5436C123.377 37.9226 123.377 39.2778 123.377 40.6568C123.377 41.3225 123.377 41.9883 123.377 42.6778C123.254 45.6295 123.358 48.5863 123.686 51.5224C123.722 52.0448 123.722 52.5691 123.686 53.0916C123.686 53.4007 123.686 53.686 123.686 53.9951C123.732 54.482 123.598 54.9688 123.308 55.3633C123.018 55.7577 122.593 56.0322 122.114 56.1349L119.374 57.0859C117.706 57.6565 116.014 58.2272 114.299 58.7265C111.249 59.6062 108.199 60.4383 105.149 61.2705C102.099 62.1026 98.9301 62.9586 95.8326 63.862C94.1408 64.3375 92.4253 64.9082 90.805 65.4788L87.4216 66.5725C86.5128 66.8512 85.5792 67.0423 84.6338 67.1431L84.5385 67.1669ZM122.161 29.9339H121.566L108.127 33.9996L101.575 35.9017C96.8095 37.2331 92.0441 38.6359 87.2786 40.0862L86.6353 40.2764C84.2526 41.0135 84.2526 41.0135 84.2526 42.654C84.2766 43.1213 84.2766 43.5895 84.2526 44.0568C84.1096 49.0021 84.1096 54.0426 84.1096 58.9167C84.1096 60.8663 84.1096 62.8159 84.1096 64.7655V64.9557C84.0677 65.1916 84.0677 65.4331 84.1096 65.669C84.1988 65.8227 84.3314 65.9467 84.4909 66.0256C85.2999 65.9271 86.0978 65.752 86.8736 65.5026L90.2094 64.3851C91.8534 63.8383 93.569 63.2439 95.2845 62.7683C98.3821 61.8649 101.503 61.0089 104.601 60.1768C107.698 59.3446 110.724 58.5125 113.751 57.6328C115.442 57.1572 117.134 56.5629 118.754 55.9922L121.542 55.065C122.185 54.851 122.304 54.5657 122.281 54.1139C122.257 53.6622 122.281 53.472 122.281 53.1391C122.317 52.6722 122.317 52.2033 122.281 51.7364C121.933 48.7381 121.821 45.7172 121.947 42.7015C121.947 42.0358 121.947 41.3701 121.947 40.7044C121.947 39.3254 121.947 37.9464 121.947 36.5674V32.4779C121.947 31.8122 121.947 31.1465 121.947 30.4094L122.161 29.9339ZM81.1312 65.8592H81.0121C80.7148 65.7573 80.4622 65.5556 80.2973 65.2886V65.1459L79.7969 64.5753L80.6309 64.1236C80.8344 63.9783 81.0595 63.866 81.298 63.7907C81.7984 63.6243 82.0367 64.0285 82.1796 64.29L82.3464 64.5515L82.68 65.027L82.2035 65.3599L82.0605 65.4788C81.9437 65.6072 81.7997 65.708 81.639 65.7738C81.4782 65.8396 81.3047 65.8688 81.1312 65.8592ZM77.9384 64.7893C77.5963 64.7712 77.2615 64.684 76.9543 64.5327C76.6471 64.3815 76.3739 64.1695 76.1514 63.9096L75.7701 63.5292L76.1037 63.125C77.3271 61.6612 78.7096 60.3375 80.2258 59.1782L80.5594 58.9167C80.6998 58.8431 80.8536 58.7983 81.0116 58.7848C81.1697 58.7713 81.3288 58.7895 81.4797 58.8382C81.6307 58.8869 81.7703 58.9652 81.8905 59.0685C82.0107 59.1718 82.109 59.298 82.1796 59.4397C82.415 60.0175 82.449 60.6574 82.2762 61.2567C82.1033 61.8561 81.7337 62.38 81.2266 62.7446L80.1305 63.6243L79.368 64.2424C78.9648 64.5767 78.4623 64.7689 77.9384 64.7893ZM77.3904 63.4103C77.5806 63.5437 77.8123 63.605 78.0438 63.5832C78.2752 63.5614 78.4913 63.4579 78.6532 63.2914L79.368 62.697C79.7493 62.3879 80.1305 62.0788 80.5594 61.7935C80.83 61.5998 81.0283 61.3218 81.1232 61.0033C81.2181 60.6848 81.2042 60.3439 81.0836 60.0341C79.7588 61.053 78.5233 62.1825 77.3904 63.4103ZM3.14518 64.7655L2.83542 64.1949C2.57842 63.8004 2.40332 63.3584 2.32049 62.8952C2.23766 62.4319 2.24878 61.9568 2.35319 61.498C2.4576 61.0391 2.65319 60.6058 2.92837 60.2237C3.20356 59.8416 3.55275 59.5184 3.9553 59.2733C6.74307 57.2048 9.53084 55.0888 12.2948 52.9965L13.2002 52.307C13.8259 51.7987 14.6245 51.552 15.4286 51.6185C16.2326 51.685 16.9796 52.0595 17.5129 52.6636L17.9656 53.0678L17.5606 53.5195C13.1379 57.3957 8.5087 61.0308 3.6932 64.4089L3.14518 64.7655ZM15.0587 52.8776C14.6225 52.8929 14.2036 53.0517 13.8674 53.3293L12.9858 54.0188L4.76542 60.2006C4.27981 60.4554 3.90622 60.8809 3.71695 61.3948C3.52769 61.9087 3.5362 62.4744 3.74085 62.9823C7.17195 60.6047 14.1771 55.0888 16.2977 53.1391C15.9472 52.9 15.5309 52.7753 15.1064 52.7825L15.0587 52.8776ZM75.9369 61.6033L75.6272 61.318C75.4242 61.1551 75.2816 60.9292 75.2221 60.6761C75.1031 60.1561 75.1364 59.6129 75.318 59.1113C75.4997 58.6097 75.8221 58.1707 76.2467 57.8467L77.6525 56.6342L80.6309 54.1139C80.8166 53.9979 81.0313 53.9364 81.2504 53.9364C81.4695 53.9364 81.6842 53.9979 81.8699 54.1139C82.0322 54.2307 82.1643 54.3843 82.2555 54.5621C82.3466 54.7398 82.3941 54.9366 82.3941 55.1363V55.4692C82.4329 55.7332 82.417 56.0024 82.3473 56.26C82.2776 56.5177 82.1557 56.7583 81.989 56.967C80.6785 58.2034 79.2966 59.3446 77.9622 60.5334L76.9615 61.3893C76.794 61.5253 76.5813 61.5932 76.3658 61.5796L75.9369 61.6033ZM81.0836 55.279L78.2958 57.6565L76.89 58.8691C76.6887 59.0431 76.535 59.2653 76.4434 59.5149C76.3517 59.7644 76.325 60.033 76.3658 60.2957L77.0806 59.6775C78.3911 58.5362 79.7731 57.2999 81.0359 56.1587C81.065 55.9457 81.065 55.7297 81.0359 55.5167L81.0836 55.279ZM2.45419 58.8691L2.38271 58.346C2.0215 57.7394 1.914 57.0153 2.08341 56.3301C2.25283 55.645 2.68557 55.0539 3.28814 54.6846C4.24122 54.0188 5.17048 53.3293 6.09973 52.6398L9.12578 50.4049C9.64982 50.0877 10.2523 49.923 10.8652 49.9294C11.5283 49.9626 12.1524 50.2526 12.6045 50.7378C12.7185 50.8571 12.8052 50.9997 12.8587 51.1556C12.9121 51.3116 12.9311 51.4773 12.9143 51.6413C12.8594 51.8625 12.7562 52.0689 12.612 52.2456C12.4679 52.4224 12.2863 52.5651 12.0803 52.6636H11.9612C9.29257 54.6132 6.57628 56.5391 3.85999 58.4411C3.66488 58.5766 3.4302 58.6435 3.19283 58.6314L2.45419 58.8691ZM10.6984 51.142C10.333 51.179 9.98588 51.3192 9.69763 51.5462L6.67159 53.7573L3.88382 55.8258C3.59994 55.9759 3.37501 56.2171 3.24533 56.5104C3.11564 56.8038 3.08876 57.1321 3.169 57.4426C5.90912 55.588 8.5301 53.7098 11.1511 51.8077L11.294 51.6888C11.4216 51.6353 11.5356 51.5541 11.6276 51.451C11.3465 51.2954 11.04 51.1907 10.7222 51.142H10.6984ZM75.5795 56.5629L75.4127 56.1587C75.0512 55.3968 74.9928 54.5265 75.2493 53.7234C75.5058 52.9202 76.0581 52.2441 76.7947 51.8315C77.438 51.4035 78.0575 50.8804 78.6532 50.4049C79.2489 49.9294 79.6301 49.6203 80.1305 49.2399C80.4298 49.0674 80.7632 48.9619 81.1074 48.9308H81.4172L82.0367 48.7882V49.4063V49.7154C82.1327 50.0737 82.1327 50.4508 82.0367 50.8091C81.8999 51.5065 81.5791 52.1549 81.1074 52.6874C79.9161 53.7811 78.7247 54.8272 77.3904 55.8496L76.6994 56.4202C76.5863 56.4994 76.4584 56.555 76.3233 56.5836C76.1882 56.6122 76.0486 56.6132 75.9131 56.5866H75.3174L75.5795 56.5629ZM81.2027 49.9294C81.1162 49.9121 81.0271 49.9121 80.9406 49.9294L79.511 51.0469C78.8915 51.5462 78.2482 52.0692 77.581 52.521C77.1648 52.744 76.834 53.098 76.6401 53.528C76.4462 53.9579 76.4001 54.4397 76.5088 54.8985L77.0092 54.4706C78.2482 53.472 79.3919 52.4259 80.6785 51.3559C80.9761 50.9839 81.173 50.5418 81.2504 50.0721C81.2397 50.0229 81.2238 49.9751 81.2027 49.9294ZM28.1874 55.8258C27.7783 55.8277 27.373 55.7468 26.9961 55.588L17.0125 51.5224L6.74307 47.3378C6.50496 47.2263 6.30164 47.0525 6.15478 46.8347C6.00791 46.617 5.92301 46.3636 5.90912 46.1015C5.99287 45.8763 6.12967 45.6745 6.30799 45.5131C6.48631 45.3517 6.70091 45.2355 6.93368 45.1742L24.256 40.2051L26.7816 39.4918L27.282 39.3492C27.5828 39.2872 27.8778 39.1997 28.1636 39.0876C28.5123 38.9175 28.8953 38.8291 29.2835 38.8291C29.6716 38.8291 30.0547 38.9175 30.4034 39.0876L48.1069 47.8134C48.3556 47.9514 48.5808 48.128 48.7741 48.3364L49.1553 48.7406L49.9178 49.4539L43.7465 51.3322L34.3825 54.1853L32.2381 54.8034L29.1644 55.7307C28.8465 55.8174 28.5161 55.8496 28.1874 55.8258ZM7.14813 46.2441L17.3938 50.4049L27.3773 54.4706C27.5888 54.5582 27.8155 54.6033 28.0445 54.6033C28.2735 54.6033 28.5002 54.5582 28.7116 54.4706L31.833 53.5195L33.9536 52.9014L43.3176 50.0483L47.6542 48.8357L29.9507 40.0862C29.7537 39.9914 29.5379 39.9422 29.3192 39.9422C29.1006 39.9422 28.8848 39.9914 28.6878 40.0862C28.3468 40.222 27.9964 40.3333 27.6394 40.4191L27.1629 40.5379L24.7802 41.2512C19.014 42.9155 13.224 44.5561 7.45788 46.2441H7.14813ZM3.04987 53.8762C2.804 53.868 2.56844 53.7756 2.38271 53.6146C2.20479 53.4502 2.06875 53.2458 1.98587 53.0184C1.90299 52.7909 1.87567 52.5471 1.90617 52.307C2.03742 51.7134 2.33488 51.1692 2.76394 50.7378C3.28814 50.3098 3.88382 49.9056 4.43184 49.5252L5.50406 48.7882C5.75871 48.6045 6.04725 48.4729 6.35307 48.401C6.65888 48.3291 6.97593 48.3182 7.28597 48.3691C7.59601 48.4199 7.89291 48.5314 8.15959 48.6972C8.42627 48.8629 8.65746 49.0797 8.83985 49.335L9.34022 49.8343L7.55319 51.1182L3.81233 53.6622C3.58638 53.8103 3.32006 53.885 3.04987 53.8762ZM6.83837 49.4063C6.61254 49.4213 6.39655 49.5042 6.21887 49.6441L5.099 50.4287C4.55014 50.7741 4.02479 51.1553 3.52641 51.5699C3.2835 51.8468 3.11899 52.1833 3.04987 52.5447C3.04024 52.5918 3.04024 52.6403 3.04987 52.6874L6.71924 50.0483L7.33874 49.6203C7.19434 49.5053 7.02145 49.4313 6.83837 49.4063ZM76.4135 51.2133C76.2545 51.205 76.0987 51.1649 75.9555 51.0955C75.8122 51.026 75.6844 50.9287 75.5795 50.8091C75.3974 50.5533 75.2679 50.264 75.1983 49.9579C75.1288 49.6519 75.1207 49.3351 75.1745 49.0259V48.7168C75.1762 48.2871 75.3184 47.8697 75.5795 47.528C77.2097 45.9208 79.0347 44.5231 81.0121 43.3673L80.5832 43.0582L79.9875 43.4861C79.0821 44.1043 78.2005 44.7463 77.2951 45.3407C76.8594 45.6277 76.3368 45.7539 75.8178 45.6973C75.6462 45.6491 75.4911 45.5549 75.3693 45.425C75.2475 45.295 75.1636 45.1343 75.1268 44.9602C75.0362 44.6286 75.0279 44.28 75.1026 43.9444C75.1773 43.6088 75.3328 43.2965 75.5557 43.0344C75.7406 42.8519 75.959 42.7066 76.199 42.6064C77.0092 42.2498 77.8431 41.8694 78.5817 41.5365C78.9707 41.3728 79.3963 41.3151 79.815 41.3694C80.2337 41.4237 80.6303 41.5881 80.9645 41.8456V41.9883H81.2266L81.4648 42.5827L81.584 43.1533L81.9652 42.9631L82.823 42.5589V44.0092C82.823 44.3659 82.823 44.6749 82.823 44.984C82.8728 45.5339 82.7729 46.0871 82.5339 46.5851C82.2948 47.083 81.9255 47.5074 81.4648 47.8134C80.8453 48.2413 80.2496 48.7168 79.6301 49.2161L78.129 50.3811C78.0383 50.4389 77.9578 50.5112 77.8908 50.5951C77.6996 50.793 77.47 50.9499 77.216 51.0561C76.962 51.1624 76.6889 51.2159 76.4135 51.2133ZM81.3457 44.5085C79.6172 45.5545 78.0178 46.7994 76.5803 48.2175C76.4635 48.3516 76.3889 48.517 76.3658 48.6931V49.0497C76.3124 49.3565 76.3124 49.6702 76.3658 49.977C76.3658 49.977 76.6279 49.8105 76.7471 49.7154C76.8461 49.607 76.9581 49.5112 77.0806 49.4301C77.581 49.0497 78.0814 48.6693 78.5579 48.2651C79.0345 47.8609 79.7969 47.2903 80.4403 46.8385C80.7413 46.6506 80.9821 46.3805 81.1341 46.0603C81.2861 45.7401 81.343 45.3831 81.298 45.0316C81.3014 44.8563 81.3174 44.6815 81.3457 44.5085ZM78.963 42.654C78.1529 42.9631 77.3427 43.3435 76.5803 43.7001C76.4568 43.7607 76.3442 43.841 76.2467 43.9379C76.1993 44.1252 76.1993 44.3212 76.2467 44.5085C76.3907 44.478 76.5279 44.4216 76.6517 44.3421C77.438 43.7952 78.2482 43.2246 79.0583 42.654H78.963ZM2.71629 49.7867H2.57333C2.4215 49.753 2.27795 49.6894 2.1511 49.5996C2.02426 49.5098 1.91668 49.3956 1.83469 49.2637C1.68865 48.9891 1.6123 48.6829 1.6123 48.3721C1.6123 48.0612 1.68865 47.7551 1.83469 47.4805C1.90714 47.309 2.02137 47.1583 2.16701 47.042C2.31264 46.9258 2.48507 46.8477 2.66863 46.8148C3.12648 46.8144 3.58263 46.8703 4.02678 46.9812L4.76542 47.1476L5.90912 47.3616L4.55097 48.6693C4.30216 48.9287 4.03969 49.1747 3.76468 49.4063C3.46864 49.6257 3.10887 49.7426 2.74012 49.7392L2.71629 49.7867ZM2.71629 48.0036C2.64452 48.187 2.64452 48.3907 2.71629 48.5742L2.85925 48.4553C3.01379 48.3421 3.15738 48.2148 3.28814 48.0749H2.74012L2.71629 48.0036ZM51.9907 48.7168C51.7354 48.7255 51.4843 48.6503 51.2759 48.5028C51.0768 48.3527 50.9152 48.1588 50.8036 47.9361C50.692 47.7133 50.6335 47.4679 50.6326 47.219V46.2204C50.4896 44.9365 50.3705 43.6288 50.3466 42.3211C50.3466 38.2792 50.3466 34.2374 50.2275 30.1717V25.8207C50.2275 25.5116 50.2275 25.2025 50.2275 24.8935C50.1973 24.466 50.3266 24.0426 50.5906 23.7046C50.8545 23.3666 51.2344 23.138 51.6571 23.0627C61.6963 20.5266 71.656 17.9509 81.5363 15.3356L90.2094 12.958C90.6568 12.8153 91.1219 12.7353 91.5913 12.7202C91.8346 12.7489 92.0683 12.8323 92.2746 12.9641C92.481 13.0958 92.6547 13.2726 92.7827 13.4811C92.9489 13.8043 93.0308 14.164 93.021 14.5272C93.1878 17.3803 93.3545 20.1383 93.4975 22.8963V24.3942L93.6405 24.9886V34.4989C93.6405 35.9254 93.2592 36.4485 91.9726 36.8765C89.8281 37.5422 87.6837 38.1604 85.5393 38.7785L83.776 39.2778L83.228 39.3967C83.0336 39.4273 82.8422 39.4751 82.6562 39.5394C77.5999 41.4504 72.4269 43.0386 67.1686 44.2945C64.0949 45.1029 60.9259 45.9351 57.8522 46.8861L56.7561 47.2427L52.6102 48.5266C52.4478 48.5884 52.2804 48.6362 52.1098 48.6693L51.9907 48.7168ZM51.9907 47.528C52.1282 47.5782 52.2774 47.5865 52.4196 47.5518C53.8016 47.1476 55.1597 46.6959 56.5417 46.2679L57.6377 45.9351C60.7353 44.9602 63.9281 44.1281 67.0018 43.3197C72.2123 42.0601 77.3375 40.4718 82.3464 38.5645C82.6085 38.4659 82.8799 38.3942 83.1565 38.3506H83.5854L85.3486 37.8513L91.7343 35.6639C92.4968 35.4261 92.5682 35.3786 92.5682 34.4513V27.9368V25.6781V25.1312V23.0627C92.4253 20.3047 92.2585 17.5705 92.0917 14.8125C92.1278 14.608 92.1278 14.3988 92.0917 14.1943C92.0408 14.1194 91.9761 14.0549 91.9011 14.0041C91.4389 14.0321 90.9824 14.1201 90.5429 14.2657L81.8461 16.6432L51.9907 24.2277C51.5142 24.3466 51.4427 24.4893 51.4427 24.9172C51.4427 25.3452 51.4427 25.5354 51.4427 25.8207V30.1241C51.4427 34.166 51.4427 38.2079 51.5618 42.2498C51.5618 43.5099 51.7048 44.7938 51.8477 46.0539V47.0525C51.8479 47.2033 51.889 47.3512 51.9669 47.4805L51.9907 47.528ZM48.8932 47.2903C48.6032 47.2787 48.3189 47.2058 48.0592 47.0763C47.71 46.9476 47.393 46.7448 47.13 46.4819C46.997 46.3689 46.893 46.2257 46.8267 46.0644C46.7603 45.9031 46.7336 45.7283 46.7488 45.5546C46.7781 45.3583 46.8512 45.171 46.9625 45.0064C47.0738 44.8419 47.2206 44.7042 47.3921 44.6036C47.7204 44.3865 48.0828 44.2257 48.4643 44.1281L48.9885 43.9379L49.2506 44.0568C49.4621 44.1793 49.6226 44.3733 49.7033 44.6036C49.7033 44.8889 49.8701 45.198 49.9654 45.5071L50.0845 46.0064V46.1966V46.3868C50.0501 46.5536 49.9816 46.7115 49.8832 46.8506C49.7848 46.9897 49.6587 47.107 49.5127 47.1952C49.3384 47.2631 49.1481 47.2796 48.9647 47.2427L48.8932 47.2903ZM48.7502 45.1742C48.5311 45.228 48.322 45.3163 48.1307 45.4358C48.1307 45.4358 48.0116 45.4358 48.0116 45.5546C48.1973 45.6592 48.3882 45.7544 48.5834 45.84H48.8455V45.7211C48.8217 45.5784 48.7979 45.412 48.7502 45.1742ZM45.0809 45.1742C44.622 45.1443 44.174 45.0213 43.7643 44.8129C43.3547 44.6044 42.9919 44.3147 42.6981 43.9617L42.2216 43.4861L42.7696 43.082L44.4137 41.8218C45.6734 40.7887 47.0029 39.8433 48.3928 38.9925L48.9885 38.6597L49.2506 39.2778C49.6151 39.8903 49.7389 40.616 49.5981 41.3143C49.4572 42.0127 49.0617 42.6341 48.4881 43.0582C47.8369 43.502 47.2174 43.9775 46.6296 44.4847C46.2052 44.881 45.6599 45.1238 45.0809 45.1742ZM44.1754 43.5812C44.2913 43.7051 44.4315 43.8038 44.5873 43.8713C44.743 43.9388 44.911 43.9736 45.0809 43.9736C45.2507 43.9736 45.4187 43.9388 45.5744 43.8713C45.7302 43.8038 45.8704 43.7051 45.9863 43.5812C46.6058 43.0582 47.2491 42.5589 47.9163 42.0834C48.1963 41.915 48.4074 41.6529 48.5121 41.3439C48.6168 41.0348 48.6083 40.6987 48.4881 40.3953C47.3683 41.1086 46.3437 41.9169 45.2715 42.7729C44.9141 43.0106 44.5567 43.2959 44.1754 43.5575V43.5812ZM41.197 43.1533C40.3178 42.9975 39.4956 42.6119 38.8143 42.0358L38.1233 41.5841L38.6475 41.0372C41.0311 39.0763 43.5468 37.281 46.1769 35.6639L48.4405 34.1898L49.0838 33.7381L49.3221 34.4751C49.7039 35.1575 49.8081 35.9603 49.6129 36.7172C49.4177 37.4741 48.9382 38.1271 48.2737 38.5408C47.2015 39.254 46.1292 40.0387 45.0809 40.9184L42.9126 42.5113C42.4152 42.8832 41.8178 43.0985 41.197 43.1295V43.1533ZM40.101 41.4177C41.197 42.1072 41.34 42.012 42.2216 41.4177C43.1032 40.8233 43.6512 40.3715 44.366 39.8484C45.0809 39.3254 46.5105 38.2555 47.6304 37.4709C47.9744 37.3009 48.2443 37.0113 48.3891 36.6566C48.5339 36.3018 48.5437 35.9065 48.4166 35.545L46.8441 36.5912C44.5049 38.0602 42.2534 39.6638 40.101 41.3939V41.4177ZM36.7414 41.1086C36.3745 41.0953 36.0158 40.9977 35.693 40.8233C35.1688 40.5379 34.6208 40.1813 34.5493 39.5869C34.5424 39.3373 34.6002 39.0902 34.717 38.8694C34.8339 38.6487 35.0059 38.4618 35.2164 38.3268C35.608 37.9683 36.0218 37.6347 36.4554 37.3282C40.0057 34.9506 43.6036 32.3115 47.1776 29.815C47.4799 29.6066 47.8084 29.4388 48.1545 29.3158L48.7264 29.0542L49.5365 28.6738L49.6795 31.5982C49.7079 31.9977 49.6194 32.3969 49.4248 32.7472C49.2303 33.0975 48.938 33.3839 48.5834 33.5716C45.0809 35.9492 41.6974 38.1841 38.2425 40.5379C37.8106 40.8703 37.2863 41.0613 36.7414 41.0848V41.1086ZM35.7406 39.4443C35.7406 39.4443 35.9074 39.5631 36.241 39.7533C36.5746 39.9435 36.9796 39.9435 37.5753 39.5394C40.8873 37.1618 44.4375 34.7842 47.9401 32.573C48.4166 32.2402 48.512 32.0024 48.4881 31.622V30.457C48.2922 30.55 48.1013 30.6531 47.9163 30.7661C44.3422 33.2705 40.7761 35.7749 37.2179 38.2792C36.8129 38.5646 36.4316 38.8736 36.0504 39.1827L35.7406 39.4443ZM32.3572 39.0163C31.6873 38.9923 31.0366 38.7868 30.4748 38.4219C29.7839 37.9939 29.2358 37.6373 29.2358 37.0429C29.2358 36.4485 29.7839 35.9968 30.4272 35.5688L38.1233 30.5521L43.413 27.0808L45.2953 25.8207C45.9386 25.369 46.5581 24.941 47.2015 24.5368C47.5035 24.3422 47.8225 24.1751 48.1545 24.0375L48.6311 23.7998L49.2983 23.4669L49.5842 24.5844C49.6479 24.8186 49.6957 25.0569 49.7271 25.2976C49.8433 25.9554 49.7494 26.6329 49.4586 27.2345C49.1679 27.836 48.695 28.3312 48.1069 28.65C45.4383 30.3381 42.7935 32.1689 40.3154 33.9045H40.1725C38.3378 35.1646 36.4554 36.4961 34.7399 37.9226C34.1052 38.5639 33.2582 38.9527 32.3572 39.0163ZM30.4987 36.9953C30.6745 37.1497 30.8662 37.2852 31.0705 37.3995C31.4998 37.7203 32.034 37.869 32.5676 37.8162C33.1013 37.7634 33.5958 37.5129 33.9536 37.1142C35.7168 35.6401 37.623 34.3087 39.4577 33.0248H39.6006C42.1025 31.2891 44.7473 29.4346 47.4397 27.7465C47.8398 27.5499 48.1626 27.2255 48.3568 26.8249C48.5511 26.4243 48.6057 25.9705 48.512 25.5354C48.5232 25.4486 48.5232 25.3607 48.512 25.2739L47.8686 25.6305L45.9863 26.8906L44.1039 28.1745L38.7905 31.622L31.142 36.6625C30.9188 36.7556 30.7036 36.867 30.4987 36.9953ZM27.1391 36.5436C26.7459 36.5344 26.3612 36.4282 26.0192 36.2345C25.5188 35.9492 24.9708 35.6401 24.8517 35.1171C24.7325 34.594 25.352 33.7618 25.6856 33.5479C30.3557 30.4887 35.0417 27.4454 39.7436 24.4179C40.2201 24.1088 40.6967 23.7998 41.197 23.5145C41.6974 23.2291 42.4599 22.7299 43.0794 22.3019C43.713 21.8514 44.4952 21.6596 45.2659 21.7656C46.0366 21.8717 46.7376 22.2677 47.2253 22.8725L47.7018 23.3242L47.2015 23.7522L46.8441 24.0851C46.5871 24.3556 46.2992 24.595 45.9863 24.7983L39.0288 29.3158L28.8784 35.9017C28.3717 36.2766 27.7683 36.4993 27.1391 36.5436ZM26.0668 34.8555L26.5434 35.1646C27.0676 35.4737 27.4726 35.4024 28.2351 34.9268L38.3854 28.3172L45.2715 23.776C45.4836 23.6452 45.6761 23.4851 45.8433 23.3005C45.5412 23.0426 45.1567 22.9009 44.7592 22.9009C44.3616 22.9009 43.9772 23.0426 43.6751 23.3005L41.7451 24.513L40.3154 25.4165C35.7406 28.5312 30.9752 31.4794 26.3528 34.5464C26.2338 34.6249 26.1357 34.7309 26.0668 34.8555ZM94.4268 36.1156V31.8835C94.4268 29.506 94.4268 27.1284 94.2838 24.7508C94.255 24.3203 94.3738 23.8928 94.6206 23.5386C94.8674 23.1843 95.2275 22.9243 95.6419 22.8012C96.9048 22.3494 98.5727 21.7788 100.288 21.2557C100.879 21.0786 101.509 21.0786 102.099 21.2557C107.77 23.0865 113.441 24.9648 119.112 26.8431C119.377 26.9656 119.607 27.1539 119.779 27.3899L119.898 27.5326L120.327 27.9843L119.874 28.3885L119.731 28.5549C119.531 28.792 119.278 28.9792 118.992 29.1018L106.793 32.7395L99.6449 34.808L97.2622 35.5212L96.2853 35.7828L94.4268 36.1156ZM101.217 22.2068C100.983 22.2122 100.75 22.2522 100.526 22.3257C98.8586 22.825 97.1907 23.4193 95.9517 23.8711C95.7774 23.9107 95.6233 24.012 95.5182 24.1563C95.413 24.3006 95.3639 24.478 95.3798 24.6557C95.3798 27.0333 95.3798 29.4109 95.5228 31.7884V34.4989H95.7373L96.6665 34.2374L99.0492 33.5241L106.197 31.4556L118.397 27.8179L101.623 22.2781C101.493 22.2296 101.356 22.2054 101.217 22.2068ZM25.5903 32.5493C25.4493 32.5826 25.3024 32.5826 25.1614 32.5493C24.923 32.3904 24.7283 32.1744 24.5951 31.921C24.4619 31.6676 24.3944 31.385 24.3989 31.0989C24.2828 30.3869 24.3982 29.6564 24.7284 29.0146C25.0586 28.3728 25.5861 27.8534 26.2336 27.5326C28.5925 26.1536 30.9752 24.6795 33.1673 23.2767L37.9327 20.376C39.958 19.1635 40.5775 19.425 42.6981 21.1369L43.3415 21.6599L41.197 22.9914L38.1233 24.8221L32.381 28.5312L26.6387 32.1926C26.3298 32.4076 25.9664 32.5312 25.5903 32.5493ZM39.8865 20.804C39.398 20.8845 38.9385 21.0892 38.5522 21.3984L33.7868 24.2753C31.4041 25.7018 29.1644 27.1046 26.8293 28.4836C26.3851 28.6834 26.0213 29.0266 25.7965 29.4579C25.5717 29.8893 25.4991 30.3836 25.5903 30.8612C25.5706 31.0191 25.5706 31.1788 25.5903 31.3367L25.9 31.1465L31.6424 27.485L37.5038 23.776L40.5061 21.969L41.2209 21.5173C40.5061 21.018 40.2201 20.804 39.8627 20.804H39.8865ZM24.4704 27.9368L24.2322 26.1536C24.2322 25.7256 24.2322 25.4403 24.113 25.1312C23.9652 24.467 24.056 23.7722 24.3696 23.168C24.6832 22.5639 25.1996 22.089 25.8286 21.8264C28.0445 20.5662 29.9745 19.4488 31.7615 18.2124C32.3195 17.7774 32.9905 17.5105 33.6955 17.4431C34.4004 17.3757 35.11 17.5106 35.7406 17.832L37.7898 18.8544L37.5753 19.3537C37.5696 19.4328 37.5696 19.5123 37.5753 19.5914C37.5535 19.7291 37.5043 19.861 37.4306 19.9794C37.357 20.0978 37.2603 20.2003 37.1464 20.2809L27.0437 26.3438L24.4704 27.9368ZM34.0013 18.6642C33.4274 18.689 32.873 18.879 32.4048 19.211C30.594 20.3998 28.6402 21.5886 26.4004 22.8725C25.3759 23.4431 25.0661 23.99 25.2567 24.9172C25.2567 25.2263 25.2567 25.5354 25.3997 25.9871L26.3289 25.4165L36.2172 19.4963L35.1926 18.9733C34.8425 18.745 34.4416 18.6062 34.0251 18.5691L34.0013 18.6642ZM50.2513 22.9438H50.1084L49.465 22.825C49.0197 22.7505 48.5813 22.6392 48.1545 22.4921L29.8553 14.9789C29.3528 14.7798 28.8668 14.5413 28.4019 14.2657C28.233 14.1414 28.0999 13.9748 28.0162 13.7828C27.9326 13.5907 27.9012 13.38 27.9254 13.172C28.0399 12.8234 28.2769 12.5279 28.5925 12.3398C28.7693 12.2408 28.9634 12.1762 29.1644 12.1496H29.3073L32.4287 11.1986L39.7674 8.82099L46.6058 6.63361L53.3727 4.49379L56.2796 3.61408C57.8045 3.18612 59.4009 2.73438 60.902 2.18753C62.584 1.63036 64.4155 1.73235 66.0249 2.47284L73.3874 5.25462L78.7962 7.32311C81.1789 8.17904 83.2995 9.05875 85.5393 9.96223L86.7306 10.414C87.1362 10.5782 87.5268 10.7771 87.8981 11.0084C88.0719 11.1112 88.2159 11.2573 88.3162 11.4323C88.4164 11.6074 88.4694 11.8054 88.47 12.007C88.4428 12.2167 88.36 12.4154 88.2301 12.5826C88.1003 12.7498 87.9281 12.8794 87.7313 12.958C87.3263 13.1006 86.9212 13.1957 86.5162 13.3146L78.6294 15.502L53.8969 22.0641C53.0868 22.2781 52.2766 22.4445 51.5142 22.611L50.442 22.825L50.2513 22.9438ZM29.1644 13.4335C29.5456 13.6237 29.903 13.8139 30.2604 13.9566C36.384 16.3342 42.4837 18.8782 48.6073 21.3033C48.9581 21.4213 49.3163 21.5166 49.6795 21.5886H50.2513L51.2521 21.3984C52.0145 21.2557 52.8247 21.1131 53.6348 20.8991L78.2005 14.2657L86.1826 12.1258L87.0642 11.8881C86.7974 11.7381 86.5184 11.6109 86.2302 11.5077L85.0389 11.0321C82.823 10.1524 80.5832 9.27273 78.3196 8.4168L72.9109 6.44341L65.5483 3.63786C64.2084 2.99268 62.6681 2.89875 61.2594 3.37633C59.7107 3.92317 58.1143 4.39869 56.494 4.82665L53.611 5.68258L46.9394 7.84618L40.0772 10.0336L32.7146 12.4111L29.6171 13.3622H29.4026L29.1644 13.4335ZM24.3989 21.8977L23.8271 19.4963C23.7061 19.0859 23.7273 18.6468 23.8873 18.2499C24.0473 17.853 24.3366 17.5215 24.7087 17.309L25.6379 16.6432C26.0962 16.3966 26.5416 16.1268 26.9723 15.8349C28.7593 14.5985 30.1651 15.5496 31.5471 16.453L32.2857 16.9523L31.6185 17.4992C29.4973 18.9403 27.2847 20.2427 24.9946 21.3984L24.3989 21.8977ZM28.7116 16.6432C28.3311 16.6584 27.9647 16.7913 27.6633 17.0237L26.2098 17.7845L25.2805 18.3075C25.1229 18.3972 25.0012 18.5385 24.936 18.7075C24.8709 18.8765 24.8663 19.0628 24.9231 19.2348L25.1376 20.0907C26.8705 19.1771 28.5564 18.1772 30.1889 17.095C29.7464 16.8142 29.2359 16.6581 28.7116 16.6432ZM23.9462 17.2139L23.8271 16.2866C23.8271 16.1202 23.8271 16.0013 23.8271 15.8586C23.7429 15.6051 23.6947 15.341 23.6841 15.074C23.6507 14.821 23.6787 14.5636 23.7658 14.3237C23.8529 14.0837 23.9965 13.8681 24.1845 13.695C24.3865 13.5888 24.6114 13.5333 24.8397 13.5333C25.0681 13.5333 25.293 13.5888 25.495 13.695C25.7801 13.8056 26.0586 13.9327 26.3289 14.0754L27.9015 14.8125L23.9462 17.2139ZM24.7325 14.8363C24.717 14.9547 24.717 15.0745 24.7325 15.1929C24.7229 15.24 24.7229 15.2885 24.7325 15.3356L25.2329 15.0027H24.9231L24.7325 14.8363Z" fill="black"></path><path d="M182.634 47.9796C182.634 54.8746 176.63 58.5836 169.148 58.5836C162.238 58.5836 157.235 55.4927 155.066 50.5236L161.476 46.7908C162.042 48.342 163.1 49.6665 164.489 50.5633C165.878 51.4601 167.522 51.8803 169.172 51.7599C172.508 51.7599 175.057 50.6662 175.057 47.9082C175.057 41.7741 156.472 45.2216 156.472 32.8581C156.472 26.3911 162.072 22.3254 169.101 22.3254C171.687 22.2088 174.255 22.8145 176.516 24.0746C178.776 25.3347 180.639 27.1991 181.896 29.4582L175.605 32.977C175.043 31.7625 174.131 30.7429 172.985 30.0483C171.839 29.3538 170.511 29.0159 169.172 29.0778C166.48 29.0778 164.145 30.2428 164.145 32.7393C164.049 39.0161 182.634 35.2119 182.634 47.9796Z" fill="black"></path><path d="M228.311 23.2053V57.704H220.853V52.7349C219.471 54.6257 217.644 56.1482 215.533 57.1682C213.422 58.1882 211.093 58.6743 208.749 58.5837C206.422 58.5253 204.129 58.0083 202.003 57.0624C199.877 56.1165 197.96 54.7604 196.361 53.0722C194.762 51.384 193.513 49.3969 192.687 47.2254C191.861 45.0538 191.473 42.7407 191.546 40.419C191.473 38.0997 191.861 35.7889 192.688 33.62C193.515 31.4512 194.764 29.4673 196.363 27.7829C197.963 26.0984 199.881 24.7468 202.007 23.8061C204.133 22.8653 206.424 22.3541 208.749 22.3018C211.086 22.2031 213.412 22.6783 215.522 23.6856C217.633 24.6929 219.463 26.2016 220.853 28.0793V23.2053H228.311ZM220.853 40.419C220.922 38.9446 220.691 37.4716 220.173 36.089C219.655 34.7064 218.861 33.443 217.84 32.3752C216.819 31.3075 215.591 30.4575 214.231 29.8768C212.871 29.2961 211.408 28.9967 209.928 28.9967C208.449 28.9967 206.985 29.2961 205.625 29.8768C204.266 30.4575 203.038 31.3075 202.017 32.3752C200.995 33.443 200.202 34.7064 199.684 36.089C199.166 37.4716 198.935 38.9446 199.004 40.419C198.935 41.8934 199.166 43.3664 199.684 44.749C200.202 46.1316 200.995 47.395 202.017 48.4628C203.038 49.5305 204.266 50.3805 205.625 50.9612C206.985 51.5419 208.449 51.8413 209.928 51.8413C211.408 51.8413 212.871 51.5419 214.231 50.9612C215.591 50.3805 216.819 49.5305 217.84 48.4628C218.861 47.395 219.655 46.1316 220.173 44.749C220.691 43.3664 220.922 41.8934 220.853 40.419Z" fill="black"></path><path d="M242.203 7.34692H249.661V57.7041H242.203V7.34692Z" fill="black"></path><path d="M280.397 51.7603C282.123 51.8292 283.84 51.4752 285.398 50.7292C286.956 49.9832 288.306 48.8678 289.332 47.4807L295.456 51.0708C293.773 53.5003 291.5 55.4639 288.85 56.778C286.2 58.092 283.258 58.7134 280.302 58.584C268.912 58.584 261.502 50.8093 261.502 40.443C261.429 38.0359 261.852 35.6395 262.744 33.402C263.637 31.1646 264.98 29.1338 266.691 27.4354C268.402 25.737 270.444 24.4072 272.691 23.5283C274.938 22.6494 277.342 22.2401 279.754 22.3258C290.047 22.3258 297.1 30.5998 297.1 40.5144C297.087 41.5575 296.999 42.5983 296.838 43.629H269.246C269.783 46.1124 271.216 48.3125 273.271 49.8115C275.327 51.3105 277.863 52.004 280.397 51.7603ZM289.594 37.4948C289.336 35.0909 288.17 32.8753 286.333 31.2986C284.497 29.7219 282.127 28.9024 279.706 29.0069C277.208 28.8797 274.752 29.6862 272.818 31.2689C270.884 32.8516 269.61 35.0968 269.246 37.5662L289.594 37.4948Z" fill="black"></path><path d="M332.793 47.9797C332.793 54.8747 326.765 58.5837 319.307 58.5837C312.397 58.5837 307.393 55.4928 305.201 50.5237L311.634 46.7909C312.192 48.3383 313.241 49.6614 314.622 50.5585C316.002 51.4557 317.639 51.8776 319.283 51.76C322.595 51.76 325.168 50.6663 325.168 47.9083C325.168 41.7742 306.559 45.2217 306.559 32.8582C306.559 26.3912 312.159 22.3255 319.212 22.3255C321.798 22.2116 324.365 22.8186 326.624 24.0784C328.884 25.3382 330.748 27.2011 332.007 29.4583L325.716 32.9771C325.154 31.7626 324.242 30.743 323.096 30.0484C321.95 29.3539 320.622 29.016 319.283 29.0779C316.591 29.0779 314.232 30.2429 314.232 32.7394C314.184 39.0162 332.793 35.212 332.793 47.9797Z" fill="black"></path><path d="M380.877 40.4188C380.946 42.7385 380.556 45.0492 379.728 47.2179C378.901 49.3867 377.652 51.371 376.053 53.0567C374.454 54.7423 372.538 56.0963 370.413 57.0407C368.289 57.9851 365.998 58.5013 363.673 58.5598C361.33 58.6504 359 58.1643 356.889 57.1443C354.778 56.1243 352.951 54.6018 351.569 52.7109V57.6801H344.111V9.51025H351.569V28.1981C352.959 26.3203 354.789 24.8116 356.9 23.8043C359.01 22.797 361.336 22.3218 363.673 22.4205C365.988 22.473 368.269 22.9804 370.387 23.9137C372.505 24.847 374.418 26.1879 376.016 27.8596C377.614 29.5314 378.865 31.5012 379.699 33.6562C380.534 35.8113 380.934 38.1093 380.877 40.4188ZM373.419 40.4188C373.488 38.9444 373.256 37.4714 372.738 36.0888C372.221 34.7062 371.427 33.4428 370.406 32.3751C369.384 31.3073 368.157 30.4573 366.797 29.8766C365.437 29.2959 363.973 28.9965 362.494 28.9965C361.015 28.9965 359.551 29.2959 358.191 29.8766C356.831 30.4573 355.603 31.3073 354.582 32.3751C353.561 33.4428 352.767 34.7062 352.25 36.0888C351.732 37.4714 351.5 38.9444 351.569 40.4188C351.5 41.8932 351.732 43.3663 352.25 44.7489C352.767 46.1315 353.561 47.3948 354.582 48.4626C355.603 49.5304 356.831 50.3803 358.191 50.961C359.551 51.5418 361.015 51.8412 362.494 51.8412C363.973 51.8412 365.437 51.5418 366.797 50.961C368.157 50.3803 369.384 49.5304 370.406 48.4626C371.427 47.3948 372.221 46.1315 372.738 44.7489C373.256 43.3663 373.488 41.8932 373.419 40.4188Z" fill="black"></path><path d="M410.921 22.5872V30.671C406.013 30.3144 400.294 32.5969 400.294 40.324V57.7041H392.812V23.2054H400.294V29.0067C401.198 26.9832 402.701 25.2839 404.6 24.1365C406.5 22.9891 408.705 22.4485 410.921 22.5872Z" fill="black"></path><path d="M420.596 13.2908C420.596 12.3503 420.875 11.431 421.399 10.649C421.922 9.867 422.667 9.25752 423.537 8.89761C424.408 8.5377 425.366 8.44354 426.291 8.62702C427.215 8.81049 428.064 9.26338 428.731 9.9284C429.397 10.5934 429.851 11.4407 430.035 12.3631C430.219 13.2855 430.124 14.2416 429.764 15.1105C429.403 15.9794 428.792 16.7221 428.009 17.2446C427.225 17.7671 426.304 18.046 425.361 18.046C424.097 18.046 422.885 17.545 421.991 16.6532C421.098 15.7615 420.596 14.552 420.596 13.2908ZM421.739 23.2053H429.197V57.7041H421.739V23.2053Z" fill="black"></path><path d="M440.992 40.4189C440.943 38.0202 441.382 35.6365 442.281 33.4117C443.181 31.1868 444.523 29.1668 446.226 27.4737C447.93 25.7806 449.959 24.4494 452.192 23.5605C454.426 22.6716 456.816 22.2434 459.22 22.3017C462.362 22.2182 465.465 23.0048 468.187 24.5745C470.908 26.1441 473.14 28.4353 474.636 31.1938L468.226 34.9029C467.389 33.2433 466.089 31.8602 464.483 30.9197C462.877 29.9792 461.033 29.5212 459.172 29.6009C457.747 29.5745 456.331 29.8372 455.01 30.373C453.689 30.9089 452.491 31.7067 451.489 32.7182C450.486 33.7297 449.7 34.9338 449.178 36.2574C448.655 37.5811 448.408 38.9969 448.45 40.4189C448.404 41.8428 448.65 43.2611 449.17 44.5876C449.691 45.9141 450.477 47.121 451.48 48.1351C452.483 49.1491 453.682 49.9491 455.004 50.4864C456.327 51.0237 457.745 51.2871 459.172 51.2606C461.043 51.3117 462.892 50.8429 464.512 49.9067C466.131 48.9705 467.459 47.6037 468.345 45.9586L474.779 49.5963C473.25 52.3636 470.993 54.6614 468.251 56.2412C465.508 57.8211 462.386 58.6228 459.22 58.5598C456.816 58.6115 454.426 58.1779 452.195 57.2852C449.963 56.3924 447.935 55.0588 446.232 53.3645C444.53 51.6702 443.188 49.6502 442.288 47.4255C441.387 45.2009 440.946 42.8177 440.992 40.4189Z" fill="black"></path><path d="M506.969 57.7039L492.815 41.7741V57.7039H485.357V9.51025H492.815V38.4454L506.23 23.2051H515.332L500.13 40.1097L515.904 57.7039H506.969Z" fill="black"></path><path d="M549 47.9797C549 54.8747 542.972 58.5837 535.514 58.5837C528.604 58.5837 523.6 55.4928 521.408 50.5237L527.842 46.7909C528.403 48.3402 529.457 49.664 530.842 50.561C532.226 51.458 533.867 51.879 535.514 51.76C538.826 51.76 541.399 50.6663 541.399 47.9083C541.399 41.7742 522.79 45.2217 522.79 32.8582C522.79 26.3912 528.39 22.3255 535.442 22.3255C538.029 22.2116 540.595 22.8186 542.855 24.0784C545.115 25.3382 546.979 27.2011 548.238 29.4583L541.947 32.9771C541.384 31.7464 540.462 30.7138 539.301 30.014C538.141 29.3141 536.796 28.9796 535.442 29.0541C532.75 29.0541 530.391 30.2191 530.391 32.7156C530.391 39.0162 549 35.212 549 47.9797Z" fill="black"></path></g><defs><clipPath id="clip0_3208_7249"><rect width="549" height="84" fill="black"></rect></clipPath></defs></svg>