<svg width="577px" height="123px" viewBox="0 0 577 123" version="1.1" xmlns="http://www.w3.org/2000/svg" xmlns:xlink="http://www.w3.org/1999/xlink">
    <style>
    :root .fill,
    .crimson .fill {
      fill: crimson;
    }

    :root .stroke,
    .crimson .stroke {
      stroke: crimson;
    }
    
    .dodgerblue .fill {
      fill: dodgerblue;
    }

    .dodgerblue .stroke {
      stroke: dodgerblue;
    }

        
    .hotpink .fill {
      fill: hotpink;
    }

    .hotpink .stroke {
      stroke: hotpink;
    }
    </style>
    <g id="Page-1" stroke="none" stroke-width="1" fill="none" fill-rule="evenodd">
        <g id="logo" transform="translate(0.500000, 0.000000)">
            <g id="logo-general">
                <path class="fill" d="M149.421816,97.2023314 C146.097688,97.2023314 143.078837,96.8312229 140.365263,96.0890057 C137.651689,95.3467886 135.209472,94.3346743 133.038613,93.0526629 C130.867754,91.7706514 128.985212,90.2356114 127.390988,88.4475429 C125.796763,86.6594743 124.490855,84.7533257 123.473265,82.7290971 L135.073794,76.0491429 C136.634099,78.5456914 138.482721,80.6036571 140.61966,82.22304 C142.7566,83.8424229 145.588892,84.6521143 149.116539,84.6521143 C152.10147,84.6521143 154.458887,83.99424 156.18879,82.6784914 C157.918694,81.3627429 158.783646,79.6927543 158.783646,77.6685257 C158.783646,75.2394514 157.867814,73.4176457 156.036152,72.2031086 C154.20449,70.9885714 151.660514,69.6728229 148.404225,68.2558629 L144.84266,66.7376914 C142.264764,65.6581029 139.924307,64.4773029 137.821287,63.1952914 C135.718267,61.91328 133.920525,60.4288457 132.428059,58.7419886 C130.935593,57.0551314 129.782325,55.1321143 128.968252,52.9729371 C128.15418,50.81376 127.747144,48.2834743 127.747144,45.38208 C127.747144,42.7505829 128.238979,40.2877714 129.22265,37.9936457 C130.20632,35.69952 131.597027,33.7090286 133.39477,32.0221714 C135.192513,30.3353143 137.380331,29.0195657 139.958227,28.0749257 C142.536122,27.1302857 145.419294,26.6579657 148.607743,26.6579657 C153.15298,26.6579657 157.070702,27.5182629 160.36091,29.2388571 C163.651119,30.9594514 166.483411,33.8777143 168.857789,37.9936457 L157.766055,45.0784457 C156.544947,42.9192686 155.22208,41.36736 153.797453,40.42272 C152.372827,39.47808 150.642924,39.00576 148.607743,39.00576 C146.504724,39.00576 144.84266,39.5792914 143.621551,40.7263543 C142.400443,41.8734171 141.789889,43.3241143 141.789889,45.0784457 C141.789889,47.2376229 142.485242,48.8738743 143.875949,49.9872 C145.266656,51.1005257 147.488394,52.3319314 150.541165,53.6814171 L154.102731,55.1995886 C157.155501,56.4816 159.852115,57.8142171 162.192573,59.19744 C164.53303,60.5806629 166.500371,62.1325714 168.094596,63.8531657 C169.680299,65.5601205 170.923677,67.5525608 171.757921,69.7234286 C172.605913,71.9163429 173.029908,74.4972343 173.029908,77.4661029 C173.029908,80.6373943 172.436314,83.4544457 171.249126,85.9172571 C170.061937,88.3800686 168.416833,90.4549029 166.313813,92.14176 C164.210793,93.8286171 161.717697,95.09376 158.834525,95.9371886 C155.951353,96.7806171 152.813783,97.2023314 149.421816,97.2023314 L149.421816,97.2023314 Z M217.396842,97.2023314 C212.444569,97.2023314 207.797574,96.3082971 203.455856,94.5202286 C199.114137,92.73216 195.349054,90.2693486 192.160604,87.1317943 C188.972155,83.99424 186.445139,80.2662857 184.579557,75.9479314 C182.713975,71.6295771 181.781184,66.9401143 181.781184,61.8795429 C181.781184,56.8189714 182.713975,52.1295086 184.579557,47.8111543 C186.445139,43.4928 188.972155,39.7648457 192.160604,36.6272914 C195.349054,33.4897371 199.114137,31.0437943 203.455856,29.2894629 C207.797574,27.5351314 212.444569,26.6579657 217.396842,26.6579657 C223.705901,26.6579657 229.116089,27.78816 233.627405,30.0485486 C238.138722,32.3089371 241.954685,35.8682057 245.075295,40.7263543 L234.18708,48.4184229 C232.558936,45.7869257 230.354157,43.6277486 227.572744,41.9408914 C224.79133,40.2540343 221.399363,39.4106057 217.396842,39.4106057 C214.276232,39.4106057 211.426979,39.9841371 208.849084,41.1312 C206.271189,42.2782629 204.06641,43.84704 202.234747,45.8375314 C200.403085,47.8280229 198.978459,50.1896229 197.960869,52.9223314 C196.943278,55.65504 196.434483,58.6407771 196.434483,61.8795429 C196.434483,65.1183086 196.943278,68.1209143 197.960869,70.88736 C198.978459,73.6538057 200.403085,76.0491429 202.234747,78.0733714 C204.06641,80.0976 206.271189,81.6832457 208.849084,82.8303086 C211.426979,83.9773714 214.276232,84.5509029 217.396842,84.5509029 C221.874238,84.5509029 225.469724,83.6062629 228.183298,81.7169829 C230.896872,79.8277029 233.237329,77.3986286 235.20467,74.42976 L246.296403,82.0206171 C243.243633,86.6763429 239.34287,90.37056 234.594116,93.1032686 C229.845362,95.8359771 224.112937,97.2023314 217.396842,97.2023314 L217.396842,97.2023314 Z M275.603001,66.8389029 C281.437185,66.8389029 285.677145,65.8267886 288.322879,63.80256 C290.968614,61.7783314 292.291481,58.3371429 292.291481,53.4789943 C292.291481,48.6208457 290.951654,45.14592 288.272,43.0542171 C285.592345,40.9625143 281.369346,39.9166629 275.603001,39.9166629 L271.125605,39.9166629 L271.125605,66.8389029 L275.603001,66.8389029 Z M307.96237,96.2914286 L291.477409,96.2914286 L280.080398,78.8830629 C278.723611,79.0854857 277.366825,79.1866971 276.010038,79.1866971 L271.125605,79.1866971 L271.125605,96.2914286 L256.879342,96.2914286 L256.879342,27.4676571 L276.010038,27.4676571 C285.711064,27.4676571 293.292111,29.6943086 298.753179,34.1476114 C304.214246,38.6009143 306.94478,45.0447086 306.94478,53.4789943 C306.94478,58.8769371 305.791511,63.2965029 303.484973,66.7376914 C301.178435,70.17888 297.888227,72.8778514 293.614348,74.8346057 L307.96237,96.2914286 Z M319.664658,27.4676571 L333.91092,27.4676571 L333.91092,96.2914286 L319.664658,96.2914286 L319.664658,27.4676571 Z M367.287879,68.1546514 C373.122063,68.1546514 377.362022,66.99072 380.007757,64.6628571 C382.653491,62.3349943 383.976359,58.8094629 383.976359,54.0862629 C383.976359,49.2955886 382.636532,45.73632 379.956877,43.4084571 C377.277223,41.0805943 373.054224,39.9166629 367.287879,39.9166629 L362.810482,39.9166629 L362.810482,68.1546514 L367.287879,68.1546514 L367.287879,68.1546514 Z M348.564219,27.4676571 L367.694915,27.4676571 C372.511509,27.4676571 376.836267,28.0749257 380.669191,29.2894629 C384.502114,30.504 387.741442,32.2583314 390.387177,34.5524571 C393.032912,36.8465829 395.068092,39.6467657 396.492718,42.9530057 C397.917345,46.2592457 398.629658,49.9703314 398.629658,54.0862629 C398.629658,58.2696686 397.917345,61.9976229 396.492718,65.2701257 C395.068092,68.5426286 393.032912,71.3090743 390.387177,73.5694629 C387.741442,75.8298514 384.502114,77.5673143 380.669191,78.7818514 C376.836267,79.9963886 372.511509,80.6036571 367.694915,80.6036571 L362.810482,80.6036571 L362.810482,96.2914286 L348.564219,96.2914286 L348.564219,27.4676571 L348.564219,27.4676571 Z M424.476449,40.9166629 L404.735199,40.9166629 L404.735199,28.4676571 L458.463962,28.4676571 L458.463962,40.9166629 L438.722712,40.9166629 L438.722712,97.2914286 L424.476449,97.2914286 L424.476449,40.9166629 L424.476449,40.9166629 Z" id="Shape" fill="#DC143C"></path>
                <polygon class="fill" id="x" fill="#DC143C" points="52.4172023 0 105.99898 32.1500914 105.99898 92.1199714 52.4172023 122.529789 0 92.1199714 0 28.1002286"></polygon>
                <path class="stroke" d="M494.904209,55.4437143 L483.874957,55.4437143 L483.874957,44.0293143 L508.895018,44.0293143 L508.895018,85.8141714 L519.822147,85.8141714 L519.822147,97.2285714 L483.057975,97.2285714 L483.057975,85.8141714 L494.904209,85.8141714 L494.904209,55.4437143 Z M552.195043,70.5270286 C554.714082,70.5270286 556.654394,69.7796646 558.016037,68.2849143 C559.37768,66.790164 560.058491,64.9896962 560.058491,62.8834571 C560.058491,60.9810476 559.37768,59.2315366 558.016037,57.6348714 C556.654394,56.0382063 554.714082,55.2398857 552.195043,55.2398857 C549.403675,55.2398857 547.378262,56.0382063 546.118742,57.6348714 C544.859223,59.2315366 544.229472,60.9810476 544.229472,62.8834571 C544.229472,64.921753 544.842202,66.7052352 546.067681,68.2339571 C547.29316,69.7626791 549.335593,70.5270286 552.195043,70.5270286 Z M546.578294,86.3237429 C547.122952,85.5084245 547.752702,84.744075 548.467564,84.0306714 C549.182427,83.3172679 549.846218,82.6888027 550.458957,82.1452571 C551.207861,81.4658252 551.888672,80.8543456 552.501411,80.3108 C552.024836,80.4466864 551.463167,80.5655852 550.816387,80.6675 C550.169606,80.7694148 549.607937,80.8203714 549.131362,80.8203714 C546.544241,80.8203714 544.09332,80.3957328 541.778528,79.5464429 C539.463735,78.6971529 537.438322,77.4741937 535.702227,75.8775286 C533.966132,74.2808634 532.58749,72.3784825 531.566258,70.1703286 C530.545026,67.9621747 530.034417,65.4652996 530.034417,62.6796286 C530.034417,60.0298439 530.562046,57.5159833 531.617319,55.1379714 C532.672592,52.7599595 534.170377,50.6707376 536.110718,48.8702429 C538.051059,47.0697481 540.382837,45.659948 543.106123,44.6408 C545.829408,43.621652 548.824978,43.1120857 552.09292,43.1120857 C555.292781,43.1120857 558.220269,43.621652 560.875472,44.6408 C563.530676,45.659948 565.828414,47.0697481 567.768755,48.8702429 C569.709096,50.6707376 571.20688,52.7599595 572.262153,55.1379714 C573.317427,57.5159833 573.845055,60.063815 573.845055,62.7815429 C573.845055,65.4313275 573.300406,68.0810725 572.211092,70.7308571 C571.121778,73.3806418 569.623993,75.9624446 567.717693,78.4763429 L553.522638,97.2285714 L538.10211,97.2285714 L546.578294,86.3237429 Z" id="19" stroke="#DC143C" stroke-width="5" fill-rule="nonzero"></path>
            </g>
        </g>
    </g>
</svg>
