<?xml version="1.0" encoding="UTF-8"?>
<!-- Generator: Adobe Illustrator 22.1.0, SVG Export Plug-In . SVG Version: 6.00 Build 0)  -->
<svg version="1.1" id="Layer_1" xmlns="http://www.w3.org/2000/svg" xmlns:xlink="http://www.w3.org/1999/xlink" x="0px" y="0px" width="410px" height="107.5px" viewBox="0 0 410 107.5" style="enable-background:new 0 0 410 107.5;" xml:space="preserve">
<style type="text/css">
	.st0{fill:#005295;}
	.st1{fill:#FFFFFF;}
	.st2{fill:#FBB034;}
</style>
<path class="st0" d="M116.2,81c0,18.9-9.4,26.5-25.7,26.5c-10.2,0-23.9-5.3-25.3-17h17.7c0.4,1.6,1.6,2.7,2.9,3.4c1.4,0.7,3,1,4.5,1  c8.5,0,10.1-5.5,10.1-12.7v-2.1c-4.1,4.1-8.2,6.1-14.1,6.1c-13,0-21.9-9.9-21.9-22.7c0-13,9.2-24.1,22.8-24.1c5.2,0,10,1.7,13.1,6.2  h0.2v-4.7h15.8V81z M80.6,62.8c0,5.6,3.7,10,10.1,10c6.4,0,10.1-4.3,10.1-10c0-5.5-3.7-10.1-10.1-10.1  C84.4,52.7,80.6,57.3,80.6,62.8z"/>
<path class="st0" d="M0,81.7l5.7-11c3.2,2.3,8.6,4.5,12.5,4.5c2,0,4.9-1,4.9-3.4c0-3.5-4.9-3.6-9.9-4.9c-4.9-1.3-9.9-3.7-9.9-11.7  c0-10.9,9.9-15.8,19.6-15.8c5,0,10.1,0.8,14.6,2.9l-5.3,10.1c-2.4-1.3-5.8-2.2-8.5-2.2c-1.8,0-4.9,0.8-4.9,3c0,3,4.9,3.5,7.1,3.9  c7.4,1.5,12.9,4.9,12.9,13.2c0,11.7-10.7,16.6-21,16.6C11.6,86.8,5.4,85,0,81.7"/>
<g>
	<path class="st1" d="M60.8,33.3c0,5-4.1,9-9,9s-9-4.1-9-9s4.1-9,9-9S60.8,28.4,60.8,33.3z"/>
	<path class="st1" d="M255.3,33.3c0,5-4.1,9-9,9c-5,0-9-4.1-9-9s4.1-9,9-9C251.3,24.3,255.3,28.4,255.3,33.3z"/>
	<path class="st2" d="M79.8,22.6c0,4.5-3.7,8.2-8.2,8.2c-4.5,0-8.2-3.7-8.2-8.2c0-4.5,3.7-8.2,8.2-8.2   C76.1,14.4,79.8,18.1,79.8,22.6z"/>
	<path class="st2" d="M233.5,21.3c0,4.5-3.7,8.2-8.2,8.2c-4.5,0-8.2-3.7-8.2-8.2c0-4.5,3.7-8.2,8.2-8.2   C229.8,13.1,233.5,16.8,233.5,21.3z"/>
	<path class="st2" d="M97.6,14c0,3.8-3.1,6.9-7,6.9c-3.8,0-7-3.1-7-6.9c0-3.8,3.1-7,7-7C94.4,7.1,97.6,10.2,97.6,14z"/>
	<path class="st2" d="M213.2,12.9c0,3.8-3.1,6.9-7,6.9c-3.8,0-6.9-3.1-6.9-6.9c0-3.8,3.1-7,6.9-7C210,6,213.2,9.1,213.2,12.9z"/>
	<path class="st2" d="M113.8,8.2c0,3-2.5,5.5-5.5,5.5c-3,0-5.5-2.5-5.5-5.5c0-3,2.5-5.5,5.5-5.5C111.3,2.7,113.8,5.2,113.8,8.2z"/>
	<path class="st2" d="M127.1,5.5c0,2.2-1.8,4-4,4c-2.2,0-4-1.8-4-4s1.8-4,4-4C125.2,1.4,127.1,3.3,127.1,5.5z"/>
	<path class="st2" d="M177.9,4.5c0,2.2-1.8,4-4,4s-4-1.8-4-4c0-2.2,1.8-4,4-4S177.9,2.3,177.9,4.5z"/>
	<path class="st2" d="M164.3,3c0,1.6-1.4,3-3,3c-1.6,0-3-1.4-3-3c0-1.6,1.4-3,3-3C163,0,164.3,1.4,164.3,3z"/>
	<path class="st2" d="M139.9,3.5c0,1.6-1.4,3-3,3c-1.6,0-3-1.4-3-3c0-1.6,1.3-3,3-3C138.5,0.5,139.9,1.9,139.9,3.5z"/>
	<path class="st2" d="M151.8,2.9c0,1.2-1,2.2-2.2,2.2c-1.2,0-2.2-1-2.2-2.2s1-2.2,2.2-2.2C150.8,0.6,151.8,1.6,151.8,2.9z"/>
	<path class="st2" d="M194.3,7.8c0,3-2.5,5.5-5.5,5.5c-3,0-5.5-2.5-5.5-5.5c0-3,2.5-5.5,5.5-5.5C191.8,2.3,194.3,4.8,194.3,7.8z"/>
	<path class="st2" d="M60.8,33.3c0,5-4.1,9-9,9s-9-4.1-9-9s4.1-9,9-9S60.8,28.4,60.8,33.3z"/>
	<path class="st2" d="M255.3,33.3c0,5-4.1,9-9,9c-5,0-9-4.1-9-9s4.1-9,9-9C251.3,24.3,255.3,28.4,255.3,33.3z"/>
</g>
<path class="st0" d="M138.9,46.6h0.2c3.6-5.4,8.1-7.2,14.2-7.2c12,0,16.7,7.5,16.7,18.5v27.5h-15.8V63.6c0-4.2,0.7-11.7-7.1-11.7  c-6.4,0-8.2,4.8-8.2,10.3v23.1h-15.8V40.9h15.8V46.6z"/>
<path class="st0" d="M281.7,40.9v23.7c0,5.6,1.4,9.6,7.9,9.6c6.5,0,7.9-4,7.9-9.6V40.9h15.8v26.8c0,14.6-10.3,19.2-23.7,19.2  s-23.7-4.5-23.7-19.2V40.9H281.7z"/>
<path class="st0" d="M336,48.1h0.2c3-5.5,7.5-7.9,13.6-7.9h0.2v14.6c-0.6-0.6-1.7-0.9-3.1-0.9c-8.8,0-10.9,5.8-10.9,13.4v17.9h-15.8  V40.9H336V48.1z"/>
<path class="st0" d="M398.7,65.7h-33.2c0,6.4,3.4,9.9,9.9,9.9c3.4,0,5.8-1.1,7.5-4.1h15.2c-2.5,10.5-12.5,15.3-22.6,15.3  c-14.7,0-25.7-8.3-25.7-23.7c0-14.8,10.1-23.7,24.6-23.7c15.4,0,24.4,9.5,24.4,24.7V65.7z M384.1,56.6c-0.8-4.2-4.7-7-8.9-7  c-4.6,0-8.4,2.4-9.4,7H384.1z"/>
<g>
	<path class="st0" d="M194.2,99.5L194.2,99.5c0-3.1,2.3-5.5,5.5-5.5c2,0,3.2,0.7,4.2,1.6l-1.5,1.7c-0.8-0.7-1.7-1.2-2.7-1.2   c-1.8,0-3.1,1.5-3.1,3.3v0c0,1.8,1.3,3.3,3.1,3.3c1.2,0,2-0.5,2.8-1.2l1.5,1.5c-1.1,1.2-2.3,1.9-4.4,1.9   C196.5,105,194.2,102.6,194.2,99.5z"/>
	<path class="st0" d="M213.7,99.5L213.7,99.5c0-3.1,2.4-5.5,5.7-5.5c3.3,0,5.6,2.4,5.6,5.5v0c0,3-2.4,5.5-5.7,5.5   C216.1,105,213.7,102.5,213.7,99.5z M222.6,99.5L222.6,99.5c0-1.9-1.3-3.4-3.2-3.4c-1.9,0-3.2,1.5-3.2,3.3v0c0,1.8,1.3,3.3,3.2,3.3   C221.3,102.8,222.6,101.3,222.6,99.5z"/>
	<path class="st0" d="M235.8,94.2h2.2l5,6.6v-6.6h2.3v10.6h-2l-5.2-6.8v6.8h-2.3V94.2z"/>
	<path class="st0" d="M255.8,103.3l1.4-1.7c1,0.8,2,1.3,3.2,1.3c1,0,1.5-0.4,1.5-1v0c0-0.6-0.4-0.9-2.1-1.4   c-2.1-0.5-3.5-1.1-3.5-3.3v0c0-1.9,1.6-3.2,3.7-3.2c1.5,0,2.9,0.5,4,1.4l-1.2,1.8c-0.9-0.7-1.9-1-2.8-1c-0.9,0-1.4,0.4-1.4,0.9v0   c0,0.7,0.5,0.9,2.3,1.4c2.2,0.6,3.4,1.3,3.4,3.2v0c0,2.1-1.6,3.3-3.9,3.3C258.7,105,257,104.4,255.8,103.3z"/>
	<path class="st0" d="M274.7,100.3v-6.1h2.3v6c0,1.7,0.9,2.6,2.3,2.6c1.4,0,2.3-0.9,2.3-2.6v-6.1h2.3v6c0,3.2-1.8,4.8-4.7,4.8   C276.5,105,274.7,103.4,274.7,100.3z"/>
	<path class="st0" d="M295.1,94.2h2.3v8.5h5.3v2.1h-7.6V94.2z"/>
	<path class="st0" d="M314.1,96.3h-3.2v-2.2h8.8v2.2h-3.2v8.5h-2.3V96.3z"/>
	<path class="st0" d="M332.4,94.1h2.2l4.6,10.7h-2.5l-1-2.4h-4.5l-1,2.4h-2.4L332.4,94.1z M334.9,100.4l-1.4-3.5l-1.4,3.5H334.9z"/>
	<path class="st0" d="M349.5,94.2h2.2l5,6.6v-6.6h2.3v10.6h-2l-5.2-6.8v6.8h-2.3V94.2z"/>
	<path class="st0" d="M372.6,96.3h-3.2v-2.2h8.8v2.2H375v8.5h-2.3V96.3z"/>
	<path class="st0" d="M387.7,103.3l1.4-1.7c1,0.8,2,1.3,3.2,1.3c1,0,1.5-0.4,1.5-1v0c0-0.6-0.4-0.9-2.1-1.4   c-2.1-0.5-3.5-1.1-3.5-3.3v0c0-1.9,1.5-3.2,3.7-3.2c1.6,0,2.9,0.5,4,1.4l-1.2,1.8c-0.9-0.7-1.9-1-2.8-1c-0.9,0-1.4,0.4-1.4,0.9v0   c0,0.7,0.5,0.9,2.3,1.4c2.2,0.6,3.4,1.3,3.4,3.2v0c0,2.1-1.6,3.3-3.9,3.3C390.6,105,389,104.4,387.7,103.3z"/>
</g>
<g>
	<path class="st0" d="M257,40.9c-2.4,3.3-6.3,5.5-10.7,5.5c-4.4,0-8.3-2.2-10.7-5.5h-6.2v13h8.7v31.5h0h0.2h15.6h0h0.2V53.9h8.4v-13   H257z"/>
	<path class="st0" d="M43.7,43.6v41.8h15.8V43.9c-2.2,1.6-4.8,2.5-7.7,2.5C48.7,46.4,45.9,45.3,43.7,43.6z"/>
</g>
<path class="st0" d="M225.8,85.5H210v-5h-0.2C207,85,201.6,87,196.4,87c-13.2,0-22.5-11-22.5-23.8s9.1-23.7,22.3-23.7  c5.1,0,10.5,1.9,13.8,5.8v-4.3h15.8V85.5z M190.2,63.2c0,5.6,3.7,10,10.2,10c6.4,0,10.2-4.3,10.2-10c0-5.5-3.7-10.1-10.2-10.1  C193.9,53.2,190.2,57.8,190.2,63.2z"/>
<g>
	<path class="st0" d="M410,44.8c0,3-2.4,5.3-5.4,5.3s-5.5-2.4-5.5-5.3c0-3,2.4-5.3,5.5-5.3C407.6,39.6,410,41.9,410,44.8z    M400.5,44.8c0,2.4,1.8,4.2,4.1,4.2c2.3,0,4-1.9,4-4.2c0-2.4-1.7-4.3-4.1-4.3C402.2,40.6,400.5,42.5,400.5,44.8z M403.7,47.6h-1.2   v-5.3c0.5-0.1,1.2-0.2,2-0.2c1,0,1.5,0.2,1.8,0.4c0.3,0.2,0.5,0.6,0.5,1.1c0,0.6-0.5,1.1-1.1,1.3V45c0.5,0.2,0.8,0.6,0.9,1.3   c0.2,0.8,0.3,1.1,0.4,1.3h-1.3c-0.2-0.2-0.3-0.6-0.4-1.3c-0.1-0.6-0.4-0.8-1.1-0.8h-0.6V47.6z M403.8,44.6h0.6   c0.7,0,1.2-0.2,1.2-0.8c0-0.5-0.4-0.8-1.1-0.8c-0.3,0-0.5,0-0.7,0.1V44.6z"/>
</g>
</svg>