<svg id="acb345c8-4c62-45ee-acac-2670b83bb739" data-name="Layer 1" xmlns="http://www.w3.org/2000/svg" width="286.196" height="58.061" viewBox="0 0 286.196 58.061"><path d="M79.867,26.857C75.526,19.639,65.8,23.769,67.881,32.1c2.787,11.18,16.4,13.857,21.416,23.824,2.754,5.473,1.029,10.945-3.185,13.347-4.324,2.463-11.629,3.438-16.118.146-2.25-1.65-2.062-2.9-3.25.209-.381,1-1.016,2.1-2.253,1.044-1.949-1.655-1.909-6.907,1.374-9.141,2.091-1.117,3.51-.528,5.448,1.388,4.7,3.864,10.683,2.715,12.232-.483,1-2.057-.008-5.274-2.006-7.519-2.89-3.248-7.448-6.047-11.2-10.428-4.947-5.78-8.721-12.248-6.254-18.62,2.147-5.544,8.313-10.651,15.59-6.968,4.3,2.176,8.5,7.146,6.092,12.078-1.659,3.4-6.794,4.494-9.167.974-1.432-2.123,4.468-3.132,3.266-5.1Z" transform="translate(-16.902 -15.97)" fill="#231f20" fill-rule="evenodd"/><path d="M98.859,38.495c.2,6.15-6.787,5.673-6.976-.23A3.082,3.082,0,0,1,95.4,34.972a4.091,4.091,0,0,1,2.222,1.038,3.46,3.46,0,0,1,1.242,2.485Z" transform="translate(-16.902 -15.97)" fill="#231f20" fill-rule="evenodd"/><path d="M92.423,52.228c-.1.062-.2.121-.3.175-2.966,1.655-2.072-1.724-.475-3.714,1.611-2.009,2.964-2.757,4.215-2.583a2.394,2.394,0,0,1,2.172,1.779c.807,3.9-3.585,14.836,1.061,17.719a2,2,0,0,0,2.676-.437c.873-1.016.992-2.677,2.084-3.009.491-.148.9.061,1.078,1.365.324,3.925-1.425,9.535-6.773,7.612-4.758-2.165-4.551-11.262-4.534-16.251,0-.339-.126-3.323-1.208-2.656Z" transform="translate(-16.902 -15.97)" fill="#231f20" fill-rule="evenodd"/><path d="M126.869,45.472a2.308,2.308,0,0,0-2.267-1.647c-2.622.207-3.134.1-5.585.25s-4.55.251-6.3.315q.512-4.5,1.024-9,1.424-13.08.127-16.1Q112.9,17,110.741,17.5c-2.238.414-2.769,4.274-3.015,11.53a156.9,156.9,0,0,0,.784,16.128c-.534.131-2.165.6-3.236.922a12.817,12.817,0,0,0-2.562,1.007,1.138,1.138,0,0,0-.547,1.141,5.277,5.277,0,0,0,.493,2.016q1.294,3.023,4.009,9.186t3.658,8.371q1.642,3.838,4.262,3.742,2.109-.076,2.518-.59t-.43-2.474A43.289,43.289,0,0,1,113.583,57.8a71.312,71.312,0,0,1-.448-8.386c5.468-1.257,9.219-.921,12.359-1.755l.164-.058c1.211-.762.542-.368.961-.825A1.018,1.018,0,0,0,126.869,45.472ZM110.383,62.507l-.157.2-.251.011s-.116-.229-.445-.909-1.553-5.051-1.621-5.126-1.148-4.115-1.273-4.54a1.255,1.255,0,0,1-.035-.707,1.732,1.732,0,0,1,.414-.571,5.777,5.777,0,0,1,1.339-.578l.211-.01.184.344.127.861.318,2.148.972,6.168.327,2.345Z" transform="translate(-16.902 -15.97)" fill="#231f20"/><path d="M145.974,64.626c-3.387,4.232-8.157,8.077-13.546,6.556-3.066-1.09-5.059-4.1-6.052-7.772A24,24,0,0,1,126.17,52.4c1.218-5.574,4.585-10.155,8.522-10.2,7.394.738,11.177,8.918,7.408,14.688-2.1,3.21-6.45,4.845-8.561,5.856-.8.383-1.429.56-1.322,2.121.254,3.747,6.6,3.688,10.6-4.573.368-.76,2.864-4.039,4.493-3.055,3.412,2.064-.913,6.871-1.331,7.392Zm-15.521-5.144c4.444-1.421,8.082-5.263,8.414-7.366.626-3.972-5.455-7.385-7.7-.873-.572,1.66-.727,5.324-.713,8.239Z" transform="translate(-16.902 -15.97)" fill="#231f20" fill-rule="evenodd"/><path d="M175.8,50.02c-.324,3.338,4.725,20.6,1.094,20.9-2.141.175-3.455.4-4.018-.753-.533-1.1,1.573-9.982-.156-7.287-.4.618-.32.669-.959,1.813-5.949,10.64-14.018,7.812-18.711-.843a35.669,35.669,0,0,1-3.613-20.221c1.28-12.345,6.578-28.529,19.037-25.871,9.789,2.089,3.049,15.176-.373,11.832C160.01,11.873,143.885,54.661,161.727,65c5.152,2.986,9.557-6.747,8.5-11.03-.74-3.01-.914-3.115-2.41-2.666-1.162.35-5.148,3.765-6.26,2.733-1.395-1.293-2.148-6.38.646-6.528,3.233-.168,5.065.881,8.883-3.732,3.471-4.193,6.3-2.941,5.7,1.6-.261,1.987-.845,3.12-.994,4.646Z" transform="translate(-16.902 -15.97)" fill="#231f20" fill-rule="evenodd"/><path d="M198.725,43.678a15.852,15.852,0,0,0-10.154-2.986c-5.432.563-10.455,4.217-9.94,9.926.221,2.437.467,12.842,1.4,17.119a3.963,3.963,0,0,0,2.595,3.215,3.073,3.073,0,0,0,3.741-1.554c.892-2.09-.092-4.028-.6-5.8a71.6,71.6,0,0,1-1.787-11.717c-.6-6.374,9.06-7.247,11.342-3.538-1.641,2.536.736,4.13,3.709,1.827,2.683-2.08,1.607-5.016-.3-6.492Z" transform="translate(-16.902 -15.97)" fill="#231f20" fill-rule="evenodd"/><path d="M211.921,71.512c13.371-2.254,18.514-23.045,1.93-30.139-17.253-5.589-18.144,33.538-1.93,30.139Zm-6.066-16.767c1.566-16.333,12.312-8.735,13.7,1.907,1.375,10.547-16,16.864-13.7-1.907Z" transform="translate(-16.902 -15.97)" fill="#231f20" fill-rule="evenodd"/><path d="M231.212,50.159c-2.064,4.639-1.252,23.247,8.344,14.431,2.092-1.923,2.357-8.1,1.574-13.384-.181-1.219-1.211-4.929-1.556-6.047-.44-1.425.746-3.416,2.548-4.023a3.1,3.1,0,0,1,3.713,1.817c1,2.383.342,6.289.235,7.889-.319,4.768-1.1,10.637.6,13.722.725,1.318,1.727,1.451,1.762,2.433.127,3.511-4.051,5.76-5.639,3.581-.424-.581-.072-1.541-.719-1.972-7.888,7.083-16.578,1.529-16.445-8.616.029-2.218-.279-5.837.524-8.976.625-2.442,1.021-4.77,2.3-6.092,1.672-1.208,2.536-.482,3.069-.084,1.172.881.293,3.654-.307,5.321Z" transform="translate(-16.902 -15.97)" fill="#231f20" fill-rule="evenodd"/><path d="M266.488,65.98c1.406-4.784,3.052-12.593,2-15.483-1.577-4.33-7.581-5.918-10.543-1.486-1.819,2.717-1.868,12.446.447,18.139.553,1.361-.475,3.259-2.229,3.838-6.6,2.185-1.47-16.109-5.324-21.954-.83-1.257-1.842-1.382-1.955-2.321-.406-3.35,3.592-5.495,5.352-3.417.468.556.193,1.47.871,1.883,7.322-6.759,18.218-1.679,18.888,8a40.954,40.954,0,0,1-2.576,14.79,10.283,10.283,0,0,1-1.76,3.008,2.25,2.25,0,0,1-3.058.078c-1.24-.839-.582-3.484-.115-5.076Z" transform="translate(-16.902 -15.97)" fill="#231f20" fill-rule="evenodd"/><path d="M295.572,44.688c.623-5.243-1.575-20.48-5.6-20.864-1.084-.1-1.34-2.746-.6-4.314s2.481-2.065,5.381-.867c4.647,1.92,5,19.376,5.094,24.635.09,5.054-.156,11.321.617,16.109a17.846,17.846,0,0,0,1.319,4.446c.845,1.918,1.689,3.247,1.144,4.333-1.18,2.35-4.777,3.27-6,2.11a6.68,6.68,0,0,1-1.437-3.973c-6.942,11.048-17.957,2.355-19.514-8.271-1.5-10.252,7.834-22.152,19.6-13.344ZM284.726,65.042c8.711,6.311,11.461-10.042,7.119-16.1-5.322-7.426-18.8,6.99-7.119,16.1Z" transform="translate(-16.902 -15.97)" fill="#231f20" fill-rule="evenodd"/><path d="M30.118,61.311c-6.813-2.228-11.674-8.847-12.865-15.783C13.967,26.384,34.338,9.109,54.688,18.7c.24,4.3-1.756,10.419-7.237,12.258,27.2,17.172,3.946,52.349-24.56,40.782-5.2-2.651-2.423-7.5,3.136-4.691,6.21,2.14,14.278,2.14,19.362-.666a23,23,0,0,0,8.277-7.374,23.889,23.889,0,0,0,1.963-3.631c.432-1.015,1.821-5.2.742-5.657-.269-.113-.412.207-.486.507a17.753,17.753,0,0,1-3.894,7.356,19.673,19.673,0,0,1-8.4,5.749c-4.064,1.481-8.775,1.668-15.253.251.428-.463,1.285-1.751,1.783-2.275ZM48.9,20.421a13.415,13.415,0,0,1,.183,1.895,9,9,0,0,1-3,7.468q-.687.687-1.555,1.428c7.681,4.776,11.693,15.221,7.234,22.521-6.017,9.836-17.943,7.6-24.457.865-6.822-7.05-5.917-16.171-1.019-22.933A28.414,28.414,0,0,1,48.9,20.421Z" transform="translate(-16.902 -15.97)" fill="#97ca4f" fill-rule="evenodd"/><path d="M25.745,42.014c1.462-14.6,18.257-17.49,24.5,1.967,5.037,20-26.818,15.647-24.5-1.967Zm13.695,9.6c13.263.484,6.908-13.081-1.8-16.079-8.632-2.971-13.43,16.078,1.8,16.079Z" transform="translate(-16.902 -15.97)" fill="#231f20" fill-rule="evenodd"/></svg>