<svg xmlns="http://www.w3.org/2000/svg" viewBox="0 0 427.3 128"><defs><style>.cls-1{fill:#0a2944;}.cls-2,.cls-3{fill:#5cdbdd;}.cls-2{isolation:isolate;opacity:0.4;}.cls-4{fill:#44a0a0;}</style></defs><g id="Layer_2" data-name="Layer 2"><g id="Layer_1-2" data-name="Layer 1"><circle class="cls-1" cx="64" cy="64" r="64"/><path class="cls-2" d="M84.09,52.22l-16.5,1.9L48.46,73.23c-3.38,3.39-7.39,2-6.94,2.81l18.33-1.6L79.53,54.77A9.64,9.64,0,0,1,84.09,52.22Z"/><path class="cls-3" d="M75.61,18.81,34.81,59.58A9.65,9.65,0,0,0,48.46,73.23L89.27,32.45A9.65,9.65,0,0,0,75.61,18.81Z"/><path class="cls-3" d="M79.53,54.77,38.74,95.54a9.65,9.65,0,0,0,13.65,13.65l40.8-40.77A9.66,9.66,0,0,0,79.53,54.77Z"/><path class="cls-1" d="M154.66,65.16a27.54,27.54,0,0,0,13.12,3.07c11.26,0,17.59-5.41,17.59-13.68,0-7-4.16-11-12.26-14-6.34-2.42-9.15-4.15-9.15-8,0-3.48,2.81-6.38,8-6.38a17.87,17.87,0,0,1,9.67,2.8l2-6c-2.46-1.56-6.53-2.75-11.46-2.75-10.24,0-16.28,5.86-16.28,13.39,0,5.61,3.87,10.15,12.45,13.24,6.44,2.32,9,4.45,9,8.51s-3,7-9.36,7A23.2,23.2,0,0,1,156.69,59l-2,6.17Z"/><path class="cls-1" d="M202.38,67.43V21h-8V67.43ZM198.42,2A4.93,4.93,0,0,0,193.34,7a4.76,4.76,0,0,0,4.89,5,4.83,4.83,0,0,0,5.17-5,4.86,4.86,0,0,0-5-5Z"/><path class="cls-1" d="M216.47,12.45V21.2h-7.34v5.94h7.34V52.71c0,6.2.94,10.3,3.18,12.5,2,1.88,5,3,9.06,3a27.69,27.69,0,0,0,7.63-1L236,61.68a15.73,15.73,0,0,1-5,.6c-4.79,0-6.46-3.37-6.46-9.3V27.14h12.33V21.2H224.5V9.92l-8,2.53Z"/><path class="cls-1" d="M281.08,45.15a20.16,20.16,0,0,0,.28-3.87c0-8.34-3.87-21.29-19.45-21.29-14,0-22.22,10.71-22.22,24.41,0,14.82,8.53,23.83,23.32,23.83a42,42,0,0,0,15.8-2.67l-1.51-5.83c-3,1.43-6.85,2.55-13.1,2.55-8.84,0-16.28-5-16.48-17.13Zm-33.26-5.94c.69-5.7,4.47-13.27,13.4-13.27,9.83,0,12.21,8.13,12.11,13.27Z"/><path class="cls-1" d="M289.33,86.68h8V61.59h.2c2.94,4.22,8.61,6.64,15.1,6.64,11.55,0,21.4-7.63,21.4-24.81,0-14.42-7.94-23.24-19.88-23.24-8,0-13.88,2.89-17.37,8.22h-.19L296.16,21h-7.22c.2,4.46.39,9.31.39,15.32V86.68Zm8-46a12.94,12.94,0,0,1,.61-3.39,13.9,13.9,0,0,1,13.47-11.14c9.42,0,14.59,8.2,14.59,17.68,0,11-5.47,18.47-14.89,18.47a13.7,13.7,0,0,1-13.37-10.17,13,13,0,0,1-.41-3.56V40.66Z"/><path class="cls-1" d="M381.38,45.15a20.16,20.16,0,0,0,.28-3.87c0-8.34-3.87-21.29-19.44-21.29C348.22,20,340,30.7,340,44.4c0,14.82,8.53,23.83,23.32,23.83a42,42,0,0,0,15.8-2.67l-1.51-5.83c-3,1.43-6.85,2.55-13.1,2.55-8.84,0-16.28-5-16.48-17.13Zm-33.26-5.94c.69-5.7,4.47-13.27,13.4-13.27,9.83,0,12.21,8.13,12.11,13.27Z"/><path class="cls-1" d="M387.68,67.43h8V39a12.13,12.13,0,0,1,.6-4,12.65,12.65,0,0,1,11.79-8.81c8.29,0,11.19,6.36,11.19,14v27.3h8V39.25c0-15.76-9.62-19.07-16.31-19.07-8,0-13.59,3.72-15.93,7.71h-.18L394.43,21h-7.15c.3,3.83.4,7.67.4,12.57V67.43Z"/><path class="cls-4" d="M170.75,114.45h-10.5l-2.17,4.94h-2.91l9-19.77h2.79l9,19.77h-3Zm-1-2.26-4.27-9.69-4.26,9.69Z"/><path class="cls-4" d="M197.38,101.46a6.91,6.91,0,0,1,0,10.11,9.17,9.17,0,0,1-6,1.83h-4.89v6h-2.82V99.62h7.71A9.17,9.17,0,0,1,197.38,101.46Zm-2,8.34a4.54,4.54,0,0,0,0-6.58,6.4,6.4,0,0,0-4.1-1.14h-4.8V111h4.8A6.4,6.4,0,0,0,195.35,109.8Z"/><path class="cls-4" d="M222.28,101.46a6.89,6.89,0,0,1,0,10.11,9.15,9.15,0,0,1-6,1.83h-4.88v6h-2.83V99.62h7.71A9.15,9.15,0,0,1,222.28,101.46Zm-2,8.34a4.54,4.54,0,0,0,0-6.58,6.39,6.39,0,0,0-4.09-1.14h-4.8V111h4.8A6.39,6.39,0,0,0,220.25,109.8Z"/><path class="cls-4" d="M246.11,99.62h8.33a12.06,12.06,0,0,1,5.57,1.25,9.19,9.19,0,0,1,3.77,3.48,10.59,10.59,0,0,1,0,10.31,9.28,9.28,0,0,1-3.77,3.49,12.18,12.18,0,0,1-5.57,1.24h-8.33Zm8.16,17.31a9.21,9.21,0,0,0,4.23-.93,6.76,6.76,0,0,0,2.81-2.61,8.19,8.19,0,0,0,0-7.77A6.76,6.76,0,0,0,258.5,103a9.21,9.21,0,0,0-4.23-.93h-5.33v14.85Z"/><path class="cls-4" d="M288.58,116.93v2.46H274.24V99.62h13.95v2.46H277.06v6.07H287v2.4h-9.91v6.38Z"/><path class="cls-4" d="M314.84,99.62l-8.67,19.77h-2.79l-8.7-19.77h3.05l7.11,16.24L312,99.62Z"/><path class="cls-4" d="M338.89,102.08h-6.77V99.62h16.35v2.46h-6.78v17.31h-2.8Z"/><path class="cls-4" d="M370.69,116.93v2.46H356.34V99.62h14v2.46H359.17v6.07h9.91v2.4h-9.91v6.38Z"/><path class="cls-4" d="M392.65,114.45h-10.5L380,119.39h-2.91L386,99.62h2.79l9,19.77h-3Zm-1-2.26-4.27-9.69-4.26,9.69Z"/><path class="cls-4" d="M423.85,119.39l0-14.4-7.15,12h-1.3l-7.14-11.92v14.32h-2.71V99.62h2.31l8.25,13.9,8.13-13.9h2.32l0,19.77Z"/></g></g></svg>