<svg width="426" height="392" viewBox="0 0 426 392" fill="none" xmlns="http://www.w3.org/2000/svg">
<path fill-rule="evenodd" clip-rule="evenodd" d="M40.0059 286V322.262H34.8335V346.676H59.8335V322.262H54.6611V286H40.0059ZM40.0059 383V346.717H54.6611V383H40.0059Z" fill="#E5DEDE"/>
<path d="M37.8335 325.794C37.8335 325.355 38.1889 325 38.6272 325H57.0397C57.4781 325 57.8335 325.355 57.8335 325.794V344.206C57.8335 344.645 57.4781 345 57.0397 345H38.6272C38.1889 345 37.8335 344.645 37.8335 344.206V325.794Z" fill="#DDA700"/>
<path d="M74.8335 300H113.833V370H74.8335V300Z" fill="#E5DEDE"/>
<path d="M77.8335 303.794C77.8335 303.355 78.1889 303 78.6272 303H112.04C112.478 303 112.833 303.355 112.833 303.794V360.206C112.833 360.645 112.478 361 112.04 361H78.6272C78.1889 361 77.8335 360.645 77.8335 360.206V303.794Z" fill="#C83F18"/>
<path d="M131.833 278H209.833V392H131.833V278Z" fill="#E5DEDE"/>
<path d="M135.833 284.794C135.833 284.355 136.189 284 136.627 284H205.04C205.478 284 205.833 284.355 205.833 284.794V378.206C205.833 378.645 205.478 379 205.04 379H136.627C136.189 379 135.833 378.645 135.833 378.206V284.794Z" fill="#C61440"/>
<path d="M225.833 290H405.833V378H225.833V290Z" fill="#E5DEDE"/>
<path d="M232.833 297.794C232.833 297.355 233.189 297 233.627 297H400.04C400.478 297 400.833 297.355 400.833 297.794V372.206C400.833 372.645 400.478 373 400.04 373H233.627C233.189 373 232.833 372.645 232.833 372.206V297.794Z" fill="#711F56"/>
<path fill-rule="evenodd" clip-rule="evenodd" d="M263.556 220.889C263.556 219.04 264.242 217.191 265.615 215.342C266.988 213.492 268.578 212.568 270.386 212.568C271.39 212.568 272.512 212.948 273.751 213.707C274.99 214.467 276.128 215.309 277.166 216.233C278.204 217.158 279.66 218 281.535 218.759C283.41 219.519 285.385 219.899 287.461 219.899C290.072 219.899 292.349 219.354 294.291 218.264C296.233 217.174 297.204 215.54 297.204 213.36C297.204 211.181 296.116 209.266 293.939 207.615C291.763 205.964 289.118 204.461 286.005 203.107C282.891 201.753 279.761 200.235 276.613 198.55C273.466 196.866 270.805 194.472 268.628 191.368C266.452 188.264 265.364 184.566 265.364 180.273C265.364 173.405 267.875 168.27 272.897 164.869C277.919 161.468 283.979 159.767 291.077 159.767C292.818 159.767 294.642 159.866 296.551 160.065C298.459 160.263 300.602 160.642 302.979 161.204C305.356 161.765 307.298 162.673 308.805 163.928C310.311 165.183 311.064 166.702 311.064 168.485C311.064 170.202 310.512 171.985 309.407 173.834C308.302 175.683 306.779 176.608 304.837 176.608C304.034 176.608 302.326 175.981 299.715 174.726C297.103 173.471 294.224 172.844 291.077 172.844C287.729 172.844 285.218 173.422 283.544 174.577C281.87 175.733 281.033 177.136 281.033 178.787C281.033 180.306 281.82 181.693 283.393 182.948C284.967 184.203 286.925 185.276 289.269 186.168C291.613 187.059 294.174 188.215 296.953 189.635C299.731 191.055 302.293 192.607 304.636 194.291C306.98 195.975 308.938 198.336 310.512 201.374C312.086 204.412 312.872 207.879 312.872 211.775C312.872 218.71 310.562 224.109 305.942 227.972C301.322 231.836 295.262 233.767 287.762 233.767C281.267 233.767 275.609 232.447 270.788 229.805C265.967 227.163 263.556 224.191 263.556 220.889ZM0 165.117V228.121C0 229.376 0.619377 230.465 1.85815 231.39C3.09692 232.314 4.75418 232.777 6.82996 232.777H29.1278C35.2882 232.777 40.193 231.076 43.8423 227.675C47.4917 224.274 49.3163 218.875 49.3163 211.478V209.398C49.3163 204.775 48.4459 201.291 46.7049 198.947C44.9639 196.602 42.3859 194.803 38.9709 193.548C44.6626 191.104 47.5084 185.92 47.5084 177.995C47.5084 166.239 40.8124 160.362 27.4203 160.362H6.82996C4.95506 160.362 3.34803 160.774 2.00881 161.6C0.669597 162.426 0 163.598 0 165.117ZM25.6124 219.304H15.5683V199.492H25.6124C30.9692 199.492 33.6476 202.529 33.6476 208.605V210.19C33.6476 216.266 30.9692 219.304 25.6124 219.304ZM15.5683 187.604H26.1146C27.9225 187.604 29.3286 186.927 30.3331 185.573C31.3375 184.219 31.8397 182.618 31.8397 180.769C31.8397 178.919 31.3375 177.301 30.3331 175.915C29.3286 174.528 27.9225 173.834 26.1146 173.834H15.5683V187.604ZM57.452 165.018V228.022C57.452 229.541 58.2221 230.713 59.7621 231.538C61.3022 232.364 63.1436 232.777 65.2864 232.777C67.4291 232.777 69.2705 232.364 70.8106 231.538C72.3507 230.713 73.1207 229.541 73.1207 228.022V204.148H79.7498L93.5102 230.498C94.5146 232.413 96.1886 233.371 98.5322 233.371C100.876 233.371 103.102 232.513 105.212 230.795C107.321 229.078 108.375 227.262 108.375 225.347C108.375 224.621 108.208 224.026 107.873 223.564L95.6194 201.671C103.722 198.567 107.773 191.864 107.773 181.561C107.773 167.428 99.5367 160.362 83.0644 160.362H62.2732C60.867 160.362 59.7119 160.824 58.808 161.749C57.904 162.673 57.452 163.763 57.452 165.018ZM73.1207 192.26H83.0644C86.0106 192.26 88.2538 191.55 89.7939 190.13C91.334 188.71 92.104 186.349 92.104 183.047C92.104 179.745 91.334 177.384 89.7939 175.964C88.2538 174.544 86.0106 173.834 83.0644 173.834H73.1207V192.26ZM115.306 183.741V209.992C115.306 218.049 117.549 223.96 122.035 227.724C126.522 231.489 132.481 233.371 139.914 233.371C147.413 233.371 153.406 231.489 157.893 227.724C162.379 223.96 164.622 218.049 164.622 209.992V183.741C164.622 175.683 162.379 169.773 157.893 166.008C153.406 162.244 147.413 160.362 139.914 160.362C132.481 160.362 126.522 162.244 122.035 166.008C117.549 169.773 115.306 175.683 115.306 183.741ZM130.975 209.992C130.975 216.596 133.954 219.899 139.914 219.899C145.94 219.899 148.953 216.596 148.953 209.992V183.741C148.953 177.136 145.94 173.834 139.914 173.834C133.954 173.834 130.975 177.136 130.975 183.741V209.992ZM172.808 162.244C170.632 163.499 169.544 164.919 169.544 166.504C169.544 166.966 169.611 167.395 169.745 167.791L189.732 228.22C190.268 229.871 191.507 231.142 193.449 232.034C195.39 232.925 197.6 233.371 200.078 233.371C202.555 233.371 204.765 232.925 206.707 232.034C208.649 231.142 209.82 229.871 210.222 228.22L215.445 204.742L220.668 228.22C221.07 229.871 222.242 231.142 224.183 232.034C226.125 232.925 228.335 233.371 230.812 233.371C233.29 233.371 235.483 232.925 237.391 232.034C239.3 231.142 240.555 229.871 241.158 228.22L261.146 167.791C261.279 167.395 261.346 166.966 261.346 166.504C261.346 164.919 260.258 163.499 258.082 162.244C255.906 160.989 253.612 160.362 251.202 160.362C248.39 160.362 246.716 161.319 246.18 163.235L230.913 214.054L222.978 180.571C222.71 179.316 221.84 178.325 220.367 177.599C218.894 176.872 217.253 176.509 215.445 176.509C213.637 176.509 211.997 176.872 210.523 177.599C209.05 178.325 208.18 179.316 207.912 180.571L199.977 214.054L184.71 163.235C184.175 161.319 182.501 160.362 179.688 160.362C177.278 160.362 174.984 160.989 172.808 162.244ZM320.606 165.117V228.022C320.606 229.541 321.276 230.713 322.615 231.538C323.954 232.364 325.561 232.777 327.436 232.777H363.193C364.733 232.777 365.905 232.116 366.709 230.795C367.512 229.475 367.914 227.923 367.914 226.139C367.914 224.224 367.495 222.606 366.658 221.285C365.821 219.965 364.666 219.304 363.193 219.304H336.275V202.463H351.341C352.881 202.463 354.053 201.869 354.857 200.68C355.66 199.492 356.062 198.138 356.062 196.619C356.062 194.968 355.643 193.548 354.806 192.359C353.969 191.17 352.814 190.576 351.341 190.576H336.275V173.834H363.193C364.666 173.834 365.821 173.174 366.658 171.853C367.495 170.532 367.914 168.914 367.914 166.999C367.914 165.216 367.512 163.664 366.709 162.343C365.905 161.022 364.733 160.362 363.193 160.362H327.436C325.561 160.362 323.954 160.774 322.615 161.6C321.276 162.426 320.606 163.598 320.606 165.117ZM374.744 228.022V165.018C374.744 163.763 375.196 162.673 376.1 161.749C377.004 160.824 378.159 160.362 379.565 160.362H400.356C416.829 160.362 425.065 167.428 425.065 181.561C425.065 191.864 421.014 198.567 412.911 201.671L425.165 223.564C425.5 224.026 425.667 224.621 425.667 225.347C425.667 227.262 424.613 229.078 422.503 230.795C420.394 232.513 418.168 233.371 415.824 233.371C413.48 233.371 411.806 232.413 410.802 230.498L397.042 204.148H390.413V228.022C390.413 229.541 389.643 230.713 388.102 231.538C386.562 232.364 384.721 232.777 382.578 232.777C380.435 232.777 378.594 232.364 377.054 231.538C375.514 230.713 374.744 229.541 374.744 228.022ZM400.356 192.26H390.413V173.834H400.356C403.302 173.834 405.546 174.544 407.086 175.964C408.626 177.384 409.396 179.745 409.396 183.047C409.396 186.349 408.626 188.71 407.086 190.13C405.546 191.55 403.302 192.26 400.356 192.26Z" fill="#711F56"/>
<path fill-rule="evenodd" clip-rule="evenodd" d="M37.5445 72.5872C35.7371 75.0025 34.8335 77.4177 34.8335 79.833C34.8335 84.146 38.0073 88.0276 44.3549 91.478C50.7025 94.9284 58.1521 96.6536 66.7038 96.6536C76.5779 96.6536 84.5564 94.1305 90.6395 89.0843C96.7227 84.0381 99.7642 76.9865 99.7642 67.9292C99.7642 62.8399 98.7283 58.3113 96.6565 54.3434C94.5847 50.3754 92.0061 47.2917 88.9204 45.0921C85.8347 42.8924 82.4626 40.8654 78.8039 39.0108C75.1452 37.1562 71.7731 35.6467 68.6874 34.4822C65.6017 33.3177 63.0231 31.916 60.9513 30.277C58.8795 28.6381 57.8436 26.8267 57.8436 24.8427C57.8436 22.6862 58.9456 20.8532 61.1496 19.3437C63.3537 17.8341 66.6597 17.0793 71.0678 17.0793C75.2113 17.0793 79.0022 17.8988 82.4405 19.5377C85.8789 21.1767 88.1269 21.9961 89.1849 21.9961C91.7416 21.9961 93.7472 20.7885 95.2019 18.3732C96.6565 15.958 97.3839 13.629 97.3839 11.3862C97.3839 9.05722 96.3921 7.07327 94.4084 5.43434C92.4248 3.7954 89.8681 2.60935 86.7384 1.87614C83.6087 1.14293 80.7875 0.646946 78.2749 0.388167C75.7623 0.129388 73.36 0 71.0678 0C61.7226 0 53.7441 2.22116 47.132 6.66353C40.5199 11.1059 37.2138 17.8125 37.2138 26.7835C37.2138 32.3904 38.6465 37.2209 41.5117 41.2751C44.377 45.3293 47.8813 48.4562 52.0249 50.6558C56.1685 52.8554 60.29 54.8394 64.3895 56.6077C68.4891 58.376 71.9714 60.3384 74.8366 62.4949C77.7019 64.6514 79.1345 67.1529 79.1345 69.9994C79.1345 72.846 77.8562 74.9809 75.2995 76.4042C72.7428 77.8275 69.7453 78.5391 66.307 78.5391C63.574 78.5391 60.9733 78.0431 58.5048 77.0511C56.0363 76.0592 54.1188 74.9594 52.7523 73.7517C51.3858 72.5441 49.887 71.4443 48.256 70.4523C46.625 69.4603 45.1484 68.9643 43.8259 68.9643C41.4456 68.9643 39.3518 70.1719 37.5445 72.5872ZM109.354 2.6638C108.291 4.43967 107.759 6.54037 107.759 8.96595C107.759 11.5648 108.313 13.7521 109.421 15.528C110.528 17.3039 112.057 18.1918 114.007 18.1918H132.352V88.7499C132.352 90.7424 133.372 92.28 135.41 93.3629C137.448 94.4457 139.886 94.9871 142.722 94.9871C145.558 94.9871 147.995 94.4457 150.033 93.3629C152.072 92.28 153.091 90.7424 153.091 88.7499V18.1918H171.436C173.386 18.1918 174.915 17.3039 176.023 15.528C177.13 13.7521 177.684 11.5648 177.684 8.96595C177.684 6.54037 177.153 4.43967 176.089 2.6638C175.026 0.887924 173.475 0 171.436 0H114.007C111.969 0 110.418 0.887924 109.354 2.6638ZM175.36 86.7386C175.36 86.4808 175.448 86.0083 175.623 85.3209L200.141 6.70194C200.844 4.55387 202.448 2.89988 204.952 1.73993C207.457 0.57997 210.335 0 213.586 0C216.838 0 219.716 0.57997 222.22 1.73993C224.725 2.89988 226.329 4.55387 227.032 6.70194L251.681 85.3209C251.857 86.0083 251.945 86.4808 251.945 86.7386C251.945 88.9726 250.517 90.9058 247.661 92.5383C244.805 94.1709 241.839 94.9871 238.763 94.9871C234.984 94.9871 232.744 93.7413 232.041 91.2495L227.559 75.1391H199.746L195.264 91.2495C194.561 93.7413 192.32 94.9871 188.541 94.9871C185.466 94.9871 182.5 94.1709 179.644 92.5383C176.788 90.9058 175.36 88.9726 175.36 86.7386ZM214.317 24.9966L224.307 59.9919H204.328L214.317 24.9966ZM248.95 8.96595C248.95 6.54037 249.482 4.43967 250.545 2.6638C251.609 0.887924 253.16 0 255.198 0H312.627C314.666 0 316.217 0.887924 317.28 2.6638C318.344 4.43967 318.876 6.54037 318.876 8.96595C318.876 11.5648 318.322 13.7521 317.214 15.528C316.106 17.3039 314.577 18.1918 312.627 18.1918H294.282V88.7499C294.282 90.7424 293.263 92.28 291.224 93.3629C289.186 94.4457 286.749 94.9871 283.913 94.9871C281.077 94.9871 278.64 94.4457 276.601 93.3629C274.563 92.28 273.544 90.7424 273.544 88.7499V18.1918H255.198C253.248 18.1918 251.72 17.3039 250.612 15.528C249.504 13.7521 248.95 11.5648 248.95 8.96595ZM331.535 6.23719V88.7499C331.535 90.7424 332.431 92.28 334.222 93.3629C336.013 94.4457 338.162 94.9871 340.669 94.9871H388.488C390.547 94.9871 392.114 94.1209 393.189 92.3883C394.264 90.6557 394.801 88.62 394.801 86.2811C394.801 83.7688 394.241 81.6465 393.122 79.9139C392.003 78.1814 390.458 77.3151 388.488 77.3151H352.489V55.2251H372.638C374.697 55.2251 376.264 54.4454 377.339 52.8861C378.414 51.3268 378.951 49.551 378.951 47.5585C378.951 45.3928 378.391 43.5304 377.272 41.9711C376.152 40.4118 374.608 39.6321 372.638 39.6321H352.489V17.672H388.488C390.458 17.672 392.003 16.8058 393.122 15.0732C394.241 13.3406 394.801 11.2183 394.801 8.70607C394.801 6.36712 394.264 4.33139 393.189 2.59883C392.114 0.866267 390.547 0 388.488 0H340.669C338.162 0 336.013 0.541417 334.222 1.62427C332.431 2.70712 331.535 4.24474 331.535 6.23719Z" fill="#DDA700"/>
<path fill-rule="evenodd" clip-rule="evenodd" d="M143.833 136.354V126.646C143.833 123.666 144.652 121.48 146.288 120.088C147.924 118.696 150.098 118 152.809 118C155.545 118 157.73 118.696 159.367 120.088C161.003 121.48 161.821 123.666 161.821 126.646V136.354C161.821 139.334 161.003 141.52 159.367 142.912C157.73 144.304 155.545 145 152.809 145C150.098 145 147.924 144.304 146.288 142.912C144.652 141.52 143.833 139.334 143.833 136.354ZM149.549 136.354C149.549 138.796 150.635 140.018 152.809 140.018C155.007 140.018 156.106 138.796 156.106 136.354V126.646C156.106 124.204 155.007 122.982 152.809 122.982C150.635 122.982 149.549 124.204 149.549 126.646V136.354ZM172.3 143.022V119.758C172.3 119.197 172.544 118.763 173.033 118.458C173.521 118.153 174.107 118 174.791 118H187.504C188.065 118 188.493 118.244 188.786 118.733C189.079 119.221 189.226 119.795 189.226 120.455C189.226 121.163 189.073 121.761 188.768 122.25C188.462 122.738 188.041 122.982 187.504 122.982H178.015V129.174H183.547C184.084 129.174 184.506 129.393 184.811 129.833C185.116 130.273 185.269 130.798 185.269 131.408C185.269 131.97 185.122 132.471 184.829 132.91C184.536 133.35 184.109 133.57 183.547 133.57H178.015V143.022C178.015 143.583 177.734 144.017 177.173 144.322C176.611 144.628 175.939 144.78 175.158 144.78C174.376 144.78 173.705 144.628 173.143 144.322C172.581 144.017 172.3 143.583 172.3 143.022ZM210.44 120.528C210.44 119.844 210.586 119.252 210.879 118.751C211.172 118.25 211.6 118 212.162 118H227.988C228.55 118 228.977 118.25 229.27 118.751C229.563 119.252 229.71 119.844 229.71 120.528C229.71 121.261 229.557 121.877 229.252 122.378C228.947 122.879 228.525 123.129 227.988 123.129H222.932V143.022C222.932 143.583 222.651 144.017 222.09 144.322C221.528 144.628 220.856 144.78 220.075 144.78C219.293 144.78 218.622 144.628 218.06 144.322C217.498 144.017 217.217 143.583 217.217 143.022V123.129H212.162C211.624 123.129 211.203 122.879 210.898 122.378C210.592 121.877 210.44 121.261 210.44 120.528ZM238.796 143.022V119.722C238.796 119.16 239.077 118.733 239.639 118.44C240.201 118.147 240.872 118 241.654 118C242.436 118 243.107 118.147 243.669 118.44C244.231 118.733 244.512 119.16 244.512 119.722V128.697H251.802V119.722C251.802 119.16 252.083 118.733 252.645 118.44C253.206 118.147 253.878 118 254.659 118C255.441 118 256.113 118.147 256.674 118.44C257.236 118.733 257.517 119.16 257.517 119.722V143.022C257.517 143.583 257.236 144.017 256.674 144.322C256.113 144.628 255.441 144.78 254.659 144.78C253.878 144.78 253.206 144.628 252.645 144.322C252.083 144.017 251.802 143.583 251.802 143.022V133.094H244.512V143.022C244.512 143.583 244.231 144.017 243.669 144.322C243.107 144.628 242.436 144.78 241.654 144.78C240.872 144.78 240.201 144.628 239.639 144.322C239.077 144.017 238.796 143.583 238.796 143.022ZM268.289 143.022V119.758C268.289 119.197 268.533 118.763 269.022 118.458C269.51 118.153 270.096 118 270.78 118H283.822C284.384 118 284.811 118.244 285.104 118.733C285.397 119.221 285.544 119.795 285.544 120.455C285.544 121.163 285.391 121.761 285.086 122.25C284.781 122.738 284.359 122.982 283.822 122.982H274.004V129.174H279.499C280.037 129.174 280.458 129.393 280.763 129.833C281.068 130.273 281.221 130.798 281.221 131.408C281.221 131.97 281.075 132.471 280.781 132.91C280.488 133.35 280.061 133.57 279.499 133.57H274.004V139.798H283.822C284.359 139.798 284.781 140.042 285.086 140.531C285.391 141.019 285.544 141.617 285.544 142.326C285.544 142.985 285.397 143.559 285.104 144.047C284.811 144.536 284.384 144.78 283.822 144.78H270.78C270.096 144.78 269.51 144.628 269.022 144.322C268.533 144.017 268.289 143.583 268.289 143.022Z" fill="#C61440"/>
</svg>
