<svg width="300" height="200" viewBox="0 0 300 200" fill="none" xmlns="http://www.w3.org/2000/svg">
<rect width="100%" height="100%" fill="rgb(51,51,51)"></rect>
<svg width="237" height="163" viewBox="-60 -50 297 213" fill="none" xmlns="http://www.w3.org/2000/svg">
<path d="M0.94751 0H45.068V11.6292H17.6411V116.566H45.068V128.183H0.94751V0Z" fill="white"/>
<path d="M192.537 116.566H219.964V11.6292H192.537V0H236.644V128.185H192.537V116.566Z" fill="white"/>
<path d="M75.6067 104.687V40.9861H52.6889V26.295H115.214V40.9861H92.4125V104.687H75.6067Z" fill="white"/>
<path d="M119.796 93.6404L128.854 80.9459C132.074 84.304 135.944 86.973 140.226 88.7913C144.509 90.6095 149.117 91.5391 153.77 91.5236C162.936 91.5236 167.402 87.2941 167.402 82.8263C167.402 68.9583 122.271 78.4787 122.271 48.9784C122.271 35.9334 133.554 25.1194 152.004 25.1194C164.462 25.1194 174.805 28.8803 182.561 36.0496L173.277 48.2734C166.927 42.3939 158.472 39.6943 150.472 39.6943C143.303 39.6943 139.307 42.8664 139.307 47.5705C139.307 60.0287 184.322 51.6838 184.322 80.9479C184.322 95.2865 174.096 106.1 152.941 106.1C137.897 106.099 127.083 101.044 119.796 93.6404Z" fill="white"/>
<path d="M5.50672 162.252V149.022H0.751465V145.966H13.7472V149.018H8.99784V162.248L5.50672 162.252Z" fill="white"/>
<path d="M30.9919 162.252L29.9897 159.496H23.0015L21.9756 162.252H18.0297L24.3306 145.97H28.6724L34.9458 162.252H30.9919ZM26.5005 149.438L23.9624 156.444H29.0386L26.5005 149.438Z" fill="white"/>
<path d="M41.8317 162.252V145.966H45.2972V159.196H52.1889V162.248L41.8317 162.252Z" fill="white"/>
<path d="M69.6347 162.252L64.7121 155.734L63.4421 157.248V162.252H59.9766V145.966H63.4421V153.251L69.1956 145.966H73.4685L66.9982 153.606L73.9076 162.248L69.6347 162.252Z" fill="white"/>
<path d="M79.7675 159.958L81.6459 157.322C82.3152 158.018 83.1188 158.572 84.0082 158.95C84.8977 159.327 85.8544 159.52 86.8206 159.517C88.7247 159.517 89.6521 158.639 89.6521 157.711C89.6521 154.831 80.2794 156.808 80.2794 150.682C80.2794 147.972 82.6226 145.726 86.4543 145.726C89.0417 145.726 91.1801 146.513 92.8006 147.996L90.8729 150.534C89.5703 149.374 87.8815 148.742 86.1373 148.762C84.6487 148.762 83.8178 149.422 83.8178 150.398C83.8178 152.986 93.1668 151.253 93.1668 157.331C93.1668 160.309 91.0442 162.555 86.6493 162.555C83.5264 162.545 81.2856 161.496 79.7675 159.958Z" fill="white"/>
<path d="M100.102 154.124C100.102 149.119 103.884 145.703 108.766 145.703C112.353 145.703 114.429 147.656 115.575 149.682L112.593 151.145C112.226 150.443 111.676 149.854 111.002 149.438C110.327 149.022 109.554 148.796 108.762 148.782C105.808 148.782 103.66 151.052 103.66 154.128C103.66 157.204 105.808 159.474 108.762 159.474C109.555 159.465 110.331 159.241 111.006 158.825C111.681 158.408 112.23 157.816 112.593 157.111L115.571 158.553C114.399 160.579 112.349 162.556 108.762 162.556C103.884 162.546 100.102 159.127 100.102 154.124Z" fill="white"/>
<path d="M132.226 162.252L129.029 156.467H126.489V162.252H123.029V145.966H130.645C134.038 145.966 136.113 148.187 136.113 151.215C136.113 154.094 134.306 155.632 132.549 156.047L136.21 162.248L132.226 162.252ZM132.567 151.225C132.567 149.847 131.517 149.028 130.127 149.028H126.489V153.421H130.127C131.517 153.415 132.567 152.586 132.567 151.219V151.225Z" fill="white"/>
<path d="M144.098 162.252V145.966H147.565V162.248L144.098 162.252Z" fill="white"/>
<path d="M156.151 162.252V145.966H163.765C167.309 145.966 169.233 148.358 169.233 151.215C169.233 154.072 167.282 156.463 163.765 156.463H159.616V162.248L156.151 162.252ZM165.694 151.225C165.694 149.847 164.669 149.028 163.302 149.028H159.616V153.421H163.302C164.669 153.415 165.694 152.56 165.694 151.219V151.225Z" fill="white"/>
<path d="M180.512 162.252V149.022H175.753V145.966H188.749V149.018H184.023V162.248L180.512 162.252Z" fill="white"/>
<path d="M190.583 158.592H194.358V162.319H190.583V158.592Z" fill="white"/>
<path d="M200.236 146.005H212.658V149.268H203.825V152.741H211.609V156.008H203.825V162.323H200.236V146.005Z" fill="white"/>
<path d="M220.186 146.005H224.055L228.344 152.897L232.632 146.005H236.502V162.319H232.936V151.676L228.344 158.645H228.251L223.707 151.753V162.333H220.186V146.005Z" fill="white"/>
</svg>
</svg>