<?xml version="1.0" encoding="UTF-8"?>
<svg width="517px" height="140px" viewBox="0 0 517 140" version="1.1" xmlns="http://www.w3.org/2000/svg" xmlns:xlink="http://www.w3.org/1999/xlink">
    <!-- Generator: Sketch 55.2 (78181) - https://sketchapp.com -->
    <title>TEKsystems_logo_RGB</title>
    <desc>Created with Sketch.</desc>
    <g id="TEKsystems_logo_RGB" stroke="none" stroke-width="1" fill="none" fill-rule="evenodd">
        <polyline id="Fill-1" fill="#0E1722" points="232.574 69.92 258.855 102.064 241.775 102.064 217.25 72.103 217.25 102.064 201.81 102.064 201.81 38.207 217.25 38.207 217.25 67.14 217.434 67.14 236.959 38.207 253.945 38.207 232.574 69.92"></polyline>
        <polyline id="Fill-2" fill="#0E1722" points="113.718 102.05 113.718 51.499 93.687 51.499 93.687 38.201 149.333 38.201 149.333 51.499 129.302 51.499 129.302 102.05 113.718 102.05"></polyline>
        <polyline id="Fill-3" fill="#0E1722" points="152.554 102.05 152.554 38.201 198.021 38.201 198.021 51.021 167.855 51.021 167.855 64.051 196.608 64.051 196.608 75.727 167.855 75.727 167.855 89.231 198.499 89.231 198.499 102.05 152.554 102.05"></polyline>
        <path d="M492.354,67.725 L492.59,67.725 C492.863,67.725 493.088,67.632 493.088,67.408 C493.088,67.21 492.943,67.078 492.627,67.078 C492.496,67.078 492.404,67.092 492.354,67.104 L492.354,67.725 Z M492.336,68.94 L491.836,68.94 L491.836,66.774 C492.033,66.747 492.313,66.708 492.668,66.708 C493.078,66.708 493.262,66.774 493.406,66.881 C493.539,66.974 493.631,67.131 493.631,67.342 C493.631,67.607 493.436,67.778 493.184,67.857 L493.184,67.883 C493.395,67.95 493.5,68.121 493.566,68.411 C493.631,68.742 493.684,68.86 493.725,68.94 L493.195,68.94 C493.129,68.86 493.088,68.677 493.027,68.411 C492.984,68.187 492.852,68.081 492.574,68.081 L492.336,68.081 L492.336,68.94 Z M491.006,67.819 C491.006,68.781 491.729,69.546 492.693,69.546 C493.631,69.56 494.344,68.781 494.344,67.831 C494.344,66.867 493.631,66.088 492.668,66.088 C491.729,66.088 491.006,66.867 491.006,67.819 Z M494.898,67.819 C494.898,69.031 493.922,69.996 492.68,69.996 C491.439,69.996 490.447,69.031 490.447,67.819 C490.447,66.603 491.439,65.653 492.693,65.653 C493.922,65.653 494.898,66.603 494.898,67.819 L494.898,67.819 Z" id="Fill-4" fill="#0E1722"></path>
        <path d="M274.652,102.411 C274.436,102.411 274.223,102.406 274.01,102.399 L274.008,102.399 C271.963,102.399 269.934,102.096 268.158,101.523 C262.429,99.844 258.999,95.782 258.999,90.659 L258.999,90.153 L261.331,90.153 L261.331,90.659 C261.331,94.658 264.117,97.891 268.787,99.305 C270.426,99.808 272.26,100.074 274.092,100.074 C274.279,100.081 274.447,100.083 274.615,100.083 C276.145,100.083 277.752,99.838 279.264,99.371 C283.631,98.106 286.131,95.314 286.131,91.712 C286.131,85.872 280.055,85.129 273.623,84.339 L273.416,84.314 C266.621,83.464 259.594,82.585 259.594,75.353 C259.594,70.881 262.679,67.333 267.848,65.864 C269.436,65.374 271.318,65.124 273.436,65.124 C275.307,65.124 277.236,65.379 279.02,65.862 C284.521,67.49 287.672,70.997 287.672,75.485 L287.672,75.995 L285.348,75.995 L285.348,75.485 C285.348,70.692 280.5,68.76 278.416,68.155 C274.914,67.18 271.232,67.293 268.52,68.093 C264.367,69.289 261.989,71.936 261.989,75.353 C261.989,80.248 266.895,81.198 273.824,82.008 C281.055,82.888 288.465,83.792 288.465,91.712 C288.465,96.423 285.338,100.048 279.885,101.658 C278.225,102.15 276.414,102.411 274.652,102.411" id="Fill-5" fill="#0E1722"></path>
        <polyline id="Fill-6" fill="#0E1722" points="298.854 114.489 296.303 114.489 301.779 101.762 286.521 65.516 289.074 65.516 303.068 98.963 317.832 65.516 320.389 65.516 298.854 114.489"></polyline>
        <path d="M334.42,102.411 C334.205,102.411 333.99,102.406 333.775,102.399 L333.773,102.399 C331.732,102.399 329.703,102.096 327.922,101.523 C322.195,99.844 318.768,95.782 318.768,90.659 L318.768,90.153 L321.098,90.153 L321.098,90.659 C321.098,94.66 323.885,97.891 328.553,99.305 C330.191,99.808 332.025,100.074 333.861,100.074 C334.047,100.081 334.215,100.083 334.383,100.083 C335.912,100.083 337.52,99.838 339.029,99.371 C343.398,98.105 345.898,95.314 345.898,91.712 C345.898,85.872 339.822,85.129 333.391,84.339 L333.186,84.314 C326.387,83.464 319.359,82.585 319.359,75.353 C319.359,70.883 322.443,67.333 327.609,65.864 C329.203,65.374 331.09,65.124 333.205,65.124 C335.07,65.124 337,65.379 338.789,65.861 C344.293,67.49 347.441,70.997 347.441,75.485 L347.441,75.995 L345.107,75.995 L345.107,75.485 C345.107,70.689 340.266,68.76 338.186,68.155 C334.672,67.176 330.992,67.296 328.287,68.093 C324.135,69.289 321.756,71.936 321.756,75.353 C321.756,80.248 326.66,81.198 333.59,82.008 C340.82,82.888 348.229,83.792 348.229,91.712 C348.229,96.423 345.102,100.048 339.656,101.658 C337.99,102.15 336.18,102.411 334.42,102.411" id="Fill-7" fill="#0E1722"></path>
        <path d="M363.203,102.254 C355.381,102.254 353.852,97.667 353.852,89.742 L353.852,67.979 L347.15,67.979 L347.15,65.715 L353.852,65.715 L353.852,58.291 L356.184,58.291 L356.184,65.715 L365.973,65.715 L365.973,67.979 L356.184,67.979 L356.184,89.742 C356.184,97.756 357.465,100.763 365.996,99.811 L366.504,99.753 L366.742,102.016 L366.24,102.072 C365.137,102.192 364.115,102.254 363.203,102.254" id="Fill-8" fill="#0E1722"></path>
        <path d="M367.658,82.07 L398.68,82.07 C397.887,73.461 391.729,67.719 383.203,67.719 C376.428,67.719 371.189,71.167 368.828,77.179 C368.215,78.686 367.824,80.329 367.658,82.07 Z M383.203,102.337 C375.432,102.337 369.393,98.342 366.635,91.373 C365.74,89.132 365.283,86.594 365.283,83.829 C365.283,81.106 365.74,78.588 366.635,76.347 C369.391,69.381 375.428,65.383 383.203,65.383 C388.262,65.383 392.662,67.119 395.922,70.399 C399.264,73.763 401.084,78.533 401.051,83.832 L401.047,84.339 L367.621,84.339 C367.674,86.557 368.08,88.642 368.828,90.539 C371.191,96.556 376.432,100.006 383.203,100.006 C389.689,100.006 394.658,96.939 397.189,91.367 L397.326,91.07 L399.795,91.07 L399.506,91.772 C396.738,98.488 390.797,102.337 383.203,102.337 L383.203,102.337 Z" id="Fill-9" fill="#0E1722"></path>
        <path d="M458.338,102.073 L456.01,102.073 L456.01,81.792 C455.945,77.164 454.789,73.486 452.66,71.164 C450.605,68.918 447.77,67.78 444.234,67.78 L444.1,67.78 C441.572,67.78 438.027,68.432 435.5,71.535 C433.451,74.015 432.455,77.475 432.455,82.12 L432.455,102.073 L430.127,102.073 L430.127,82.12 C430.127,77.333 428.977,73.646 426.713,71.164 C424.742,68.948 421.852,67.78 418.35,67.78 L418.217,67.78 C415.688,67.78 412.141,68.432 409.615,71.535 C407.656,73.826 406.637,77.187 406.574,81.534 L406.574,102.073 L404.246,102.073 L404.246,65.516 L406.574,65.516 L406.574,71.876 C406.928,71.197 407.33,70.58 407.775,70.039 C410.936,66.245 415.197,65.448 418.217,65.448 L418.35,65.448 C422.541,65.448 426.035,66.87 428.449,69.563 C429.605,70.856 430.613,72.745 431.246,74.727 C431.834,72.796 432.824,71.122 433.723,70.038 C436.811,66.245 441.072,65.448 444.1,65.448 L444.234,65.448 C448.422,65.448 451.914,66.87 454.334,69.56 C456.928,72.437 458.273,76.548 458.338,81.786 L458.338,102.073" id="Fill-10" fill="#0E1722"></path>
        <path d="M477.58,102.411 C477.367,102.411 477.152,102.406 476.939,102.399 L476.936,102.399 C474.895,102.399 472.863,102.096 471.082,101.523 C465.355,99.843 461.928,95.782 461.928,90.659 L461.928,90.153 L464.26,90.153 L464.26,90.659 C464.26,94.66 467.045,97.891 471.715,99.305 C473.355,99.808 475.189,100.074 477.021,100.074 C477.207,100.081 477.375,100.083 477.543,100.083 C479.074,100.083 480.682,99.838 482.191,99.371 C486.557,98.105 489.059,95.314 489.059,91.712 C489.059,85.872 482.984,85.127 476.551,84.339 L476.348,84.314 C469.551,83.464 462.523,82.585 462.523,75.353 C462.523,70.882 465.605,67.333 470.771,65.864 C472.363,65.374 474.248,65.124 476.365,65.124 C478.232,65.124 480.164,65.379 481.947,65.861 C487.453,67.492 490.605,70.999 490.605,75.485 L490.605,75.995 L488.271,75.995 L488.271,75.485 C488.271,70.69 483.428,68.76 481.346,68.155 C477.834,67.18 474.16,67.296 471.449,68.093 C467.297,69.289 464.918,71.936 464.918,75.353 C464.918,80.248 469.822,81.198 476.752,82.008 C483.982,82.888 491.391,83.792 491.391,91.712 C491.391,96.423 488.266,100.047 482.816,101.658 C481.156,102.15 479.346,102.411 477.58,102.411" id="Fill-11" fill="#0E1722"></path>
        <path d="M42.791,42.569 C37.933,42.569 34.421,42.84 32.636,43.351 C32.582,43.365 32.503,43.384 32.401,43.406 C29.249,44.089 27.332,45.958 26.7,48.959 C25.885,52.833 30.432,57.359 30.477,57.405 C30.73,57.618 57.905,80.78 60.399,82.954 C63.033,85.245 66.659,86.405 68.715,85.529 C69.554,85.171 70.207,84.743 70.7,84.343 C69.926,84.58 69.124,84.703 68.341,84.703 C66.646,84.703 65.093,84.155 63.726,83.077 C58.625,79.057 52.699,67.043 51.743,64.846 L51.354,63.962 C49.749,60.335 47.549,55.368 48.84,48.915 C49.431,45.962 50.377,43.758 50.851,42.771 C49.528,42.707 46.265,42.569 42.791,42.569" id="Fill-12" fill="#2188BD"></path>
        <path d="M43.666,40.813 C46.992,40.813 50.062,40.987 51.629,41.158 L52.595,41.26 C56.539,41.665 61.942,42.221 66.9,46.54 C69.174,48.519 70.618,50.434 71.239,51.335 C72.733,48.987 78.761,39.358 79.771,35.232 C79.784,35.177 79.808,35.097 79.84,34.994 C80.806,31.919 80.135,29.329 77.847,27.297 C76.749,26.321 75.09,25.827 72.914,25.827 C70.655,25.827 68.659,26.381 68.638,26.386 C68.327,26.5 34.737,38.603 31.612,39.692 C28.674,40.714 25.545,43.086 25.248,45.635 C25.145,46.537 25.192,47.316 25.296,47.944 C25.783,45.802 27.15,43.611 29.856,42.518 C33.339,41.109 39.29,40.813 43.666,40.813" id="Fill-13" fill="#EB9030"></path>
        <path d="M53.377,64.79 C54.65,67.263 59.926,77.327 62.98,80.279 C63.02,80.32 63.075,80.377 63.145,80.455 C63.721,81.092 65.476,83.025 68.405,83.025 C69.176,83.025 69.982,82.888 70.803,82.621 C74.565,81.394 76.214,75.192 76.231,75.131 C76.289,74.801 82.78,39.691 83.419,36.443 C84.015,33.392 83.546,29.496 81.496,27.955 C80.768,27.409 80.07,27.056 79.475,26.829 C81.08,28.333 82.283,30.616 81.863,33.501 C80.928,39.936 73.481,51.066 72.054,52.99 L71.481,53.771 C69.141,56.972 65.937,61.358 59.708,63.463 C56.852,64.426 54.47,64.708 53.377,64.79" id="Fill-14" fill="#0E1722"></path>
    </g>
</svg>