<?xml version="1.0" encoding="utf-8"?>
<!-- Generator: Adobe Illustrator 19.1.0, SVG Export Plug-In . SVG Version: 6.00 Build 0)  -->
<svg version="1.1" id="Layer_1" xmlns="http://www.w3.org/2000/svg" xmlns:xlink="http://www.w3.org/1999/xlink" x="0px" y="0px"
	 viewBox="0 0 66.3 65.7" style="enable-background:new 0 0 66.3 65.7;" xml:space="preserve">
<style type="text/css">
	.st0{fill:#1675BC;}
	.st1{fill:#1675BC;stroke:#FFFFFF;stroke-miterlimit:10;}
	.st2{fill:#FFFFFF;}
</style>
<g>
	<rect x="4.6" y="4.2" class="st0" width="56.4" height="56.4"/>
	<g>
		<rect x="8" y="7.7" class="st1" width="49.5" height="49.5"/>
		<g>
			<path class="st2" d="M22.7,48.8h-1.1l-4-6.1c-0.1-0.2-0.2-0.3-0.2-0.5h0c0,0.2,0,0.5,0,1.1v5.6h-0.9v-7.7h1.2l3.9,6
				c0.2,0.3,0.3,0.4,0.3,0.5h0c0-0.2-0.1-0.6-0.1-1.1v-5.4h0.9V48.8z"/>
			<g>
				<path class="st2" d="M30.9,19.8h-5.5v15.6h-4.3V19.8h-5.4v-3.5h15.2V19.8z"/>
				<path class="st2" d="M36.7,34.7v-4.3c0.8,0.6,1.6,1.1,2.5,1.5c0.9,0.3,1.8,0.5,2.7,0.5c0.5,0,1,0,1.4-0.1c0.4-0.1,0.7-0.2,1-0.4
					c0.3-0.2,0.5-0.4,0.6-0.6c0.1-0.2,0.2-0.5,0.2-0.8c0-0.4-0.1-0.7-0.3-1c-0.2-0.3-0.5-0.6-0.9-0.8c-0.4-0.2-0.8-0.5-1.3-0.7
					c-0.5-0.2-1.1-0.5-1.6-0.7c-1.5-0.6-2.6-1.4-3.3-2.3c-0.7-0.9-1.1-2-1.1-3.3c0-1,0.2-1.8,0.6-2.6c0.4-0.7,0.9-1.3,1.6-1.8
					c0.7-0.5,1.5-0.8,2.4-1c0.9-0.2,1.9-0.3,2.9-0.3c1,0,1.9,0.1,2.6,0.2c0.8,0.1,1.5,0.3,2.1,0.6v4c-0.3-0.2-0.7-0.4-1-0.6
					c-0.4-0.2-0.8-0.3-1.2-0.4c-0.4-0.1-0.8-0.2-1.2-0.2c-0.4-0.1-0.8-0.1-1.1-0.1c-0.5,0-0.9,0-1.3,0.1c-0.4,0.1-0.7,0.2-1,0.4
					c-0.3,0.2-0.5,0.4-0.6,0.6c-0.2,0.2-0.2,0.5-0.2,0.8c0,0.3,0.1,0.6,0.3,0.9c0.2,0.3,0.4,0.5,0.7,0.7c0.3,0.2,0.7,0.4,1.1,0.7
					c0.4,0.2,0.9,0.4,1.5,0.7c0.8,0.3,1.5,0.7,2.1,1c0.6,0.4,1.1,0.8,1.6,1.2c0.4,0.5,0.8,1,1,1.6s0.3,1.3,0.3,2
					c0,1.1-0.2,2-0.6,2.7c-0.4,0.7-1,1.3-1.6,1.8c-0.7,0.4-1.5,0.8-2.4,1c-0.9,0.2-1.9,0.3-2.9,0.3c-1,0-2-0.1-3-0.3
					C38.2,35.3,37.4,35,36.7,34.7z"/>
				<path class="st2" d="M35.8,41.1l-2.5,4.9v2.8h-0.9v-2.8l-2.5-4.9h1l1.7,3.5c0,0,0.1,0.2,0.2,0.5h0c0-0.1,0.1-0.3,0.2-0.5
					l1.8-3.5H35.8z"/>
			</g>
			<path class="st2" d="M48.9,48.4c-0.6,0.3-1.3,0.5-2.1,0.5c-1.1,0-2-0.4-2.6-1.1s-1-1.6-1-2.8c0-1.2,0.4-2.2,1.1-3
				c0.7-0.8,1.7-1.1,2.8-1.1c0.7,0,1.3,0.1,1.8,0.3v1c-0.6-0.3-1.2-0.5-1.8-0.5c-0.9,0-1.6,0.3-2.2,0.9S44.1,44,44.1,45
				c0,0.9,0.3,1.7,0.8,2.2c0.5,0.6,1.2,0.8,2,0.8c0.8,0,1.4-0.2,2-0.5V48.4z"/>
		</g>
	</g>
</g>
</svg>
