<?xml version="1.0" encoding="UTF-8"?>
<svg id="Layer_2" data-name="Layer 2" xmlns="http://www.w3.org/2000/svg" xmlns:xlink="http://www.w3.org/1999/xlink" viewBox="0 0 450 98.73">
  <defs>
    <style>
      .cls-1 {
        mask: url(#mask);
      }

      .cls-2 {
        fill: #f4adac;
      }

      .cls-3 {
        fill: #ed6f57;
      }

      .cls-4 {
        fill: #ed7aa7;
      }

      .cls-5 {
        fill: #ea5c58;
      }

      .cls-6 {
        fill: #fff;
      }

      .cls-7 {
        fill: #f5c6ae;
      }

      .cls-8 {
        fill: #eb8e5e;
      }

      .cls-9 {
        fill: #a5d6e0;
      }

      .cls-10 {
        fill: #c5bdff;
      }

      .cls-11 {
        fill: #183359;
      }

      .cls-12 {
        fill: #886fff;
      }

      .cls-13 {
        fill: #6d5acc;
      }

      .cls-14 {
        fill: #4bacc3;
      }
    </style>
    <mask id="mask" x="23.32" y="70.23" width="59.53" height="28.49" maskUnits="userSpaceOnUse">
      <g id="mask-2">
        <path id="path-1" class="cls-6" d="m23.32,98.73h59.53v-28.49H23.32v28.49h0Z"/>
      </g>
    </mask>
  </defs>
  <g id="Layer_1-2" data-name="Layer 1">
    <g>
      <g>
        <path id="Fill-1" class="cls-9" d="m8.59,77.24c-.59-1.93-.91-3.97-.91-6.09,0-4.09,1.42-7.84,3.79-10.81-2.01-7-2.05-14.46-.12-21.48-4.12,1.46-7.9,3.65-11.18,6.41-.92,11.09,1.89,22.43,8.42,31.97"/>
        <path id="Fill-6" class="cls-7" d="m17.92,73.2c-2.99-3.93-5.14-8.3-6.45-12.86-2.37,2.97-3.79,6.72-3.79,10.81,0,2.12.32,4.17.91,6.09,1.7,2.48,3.64,4.85,5.84,7.05,2.74,2.74,5.73,5.07,8.89,7.03,1.68.43,3.42.69,5.24.69,4.94,0,9.52-1.45,13.41-3.91-6.44-1.22-12.62-4.05-17.91-8.48-2.92-1.07-5.21-3.44-6.13-6.43"/>
        <path id="Fill-8" class="cls-2" d="m77.27,21.47c13.22,13.22,15.07,33.54,5.58,48.77-.86,7.56-3.33,14.63-7.07,20.86,3.02-1.91,5.88-4.17,8.51-6.8,19.26-19.26,19.26-50.6,0-69.86C70.55.7,50.67-3.23,33.41,2.63c6.78,1.45,13.16,3.98,18.94,7.42,9.09.68,17.99,4.48,24.92,11.42"/>
        <path id="Fill-10" class="cls-10" d="m.17,45.27c3.28-2.76,7.06-4.95,11.18-6.41,1.75-6.37,5.11-12.39,10.11-17.39,8.45-8.45,19.81-12.25,30.88-11.42-5.78-3.44-12.16-5.97-18.94-7.42-6.94,2.36-13.45,6.29-18.97,11.81C5.85,23.03,1.1,34.02.17,45.27"/>
        <path id="Fill-12" class="cls-10" d="m84.03,14.18c.93,1.68,1.64,3.53,2.06,5.52.81,3.84.23,7.67-1.39,10.96,3.27,6.13,4.79,13.11,4.38,20.12,3.56-2.27,6.65-5.15,9.16-8.45-1.35-10.6-6.22-20.63-14.21-28.15"/>
        <g class="cls-1">
          <path id="Fill-14" class="cls-10" d="m77.27,77.27c-9.58,9.58-22.9,13.19-35.31,10.84-3.88,2.46-8.47,3.91-13.41,3.91-1.81,0-3.56-.26-5.24-.69,16.02,9.94,36.52,9.86,52.46-.23,3.73-6.23,6.2-13.3,7.07-20.86-1.56,2.5-3.41,4.87-5.58,7.04"/>
        </g>
        <path id="Fill-29" class="cls-14" d="m15.14,73.86c-.5-1.62-.77-3.34-.77-5.13,0-3.44,1.2-6.6,3.19-9.09-1.69-5.89-1.73-12.16-.1-18.06-3.47,1.23-6.64,3.07-9.4,5.39-.77,9.33,1.59,18.86,7.08,26.89"/>
        <path id="Fill-33" class="cls-8" d="m22.99,70.46c-2.51-3.31-4.32-6.98-5.42-10.82-1.99,2.49-3.19,5.65-3.19,9.09,0,1.78.27,3.5.77,5.13,1.43,2.09,3.06,4.08,4.91,5.93,2.3,2.3,4.82,4.27,7.47,5.92,1.41.36,2.88.58,4.4.58,4.15,0,8.01-1.22,11.27-3.29-5.41-1.03-10.61-3.41-15.06-7.13-2.46-.9-4.38-2.9-5.15-5.41"/>
        <path id="Fill-35" class="cls-5" d="m72.89,26.95c11.11,11.11,12.67,28.21,4.69,41.01-.73,6.36-2.8,12.31-5.94,17.55,2.54-1.61,4.95-3.51,7.16-5.72,16.2-16.2,16.2-42.55,0-58.75-11.55-11.55-28.28-14.86-42.79-9.93,5.7,1.22,11.06,3.35,15.93,6.24,7.64.57,15.13,3.77,20.96,9.6"/>
        <path id="Fill-37" class="cls-13" d="m8.06,46.97c2.76-2.32,5.94-4.16,9.4-5.39,1.47-5.36,4.3-10.42,8.51-14.63,7.11-7.11,16.66-10.3,25.97-9.6-4.86-2.89-10.22-5.02-15.93-6.24-5.83,1.98-11.31,5.29-15.96,9.93-7.22,7.22-11.22,16.47-12,25.93"/>
        <path id="Fill-39" class="cls-13" d="m78.58,20.83c.78,1.41,1.38,2.97,1.73,4.64.68,3.23.19,6.45-1.17,9.22,2.75,5.16,4.02,11.03,3.68,16.92,2.99-1.91,5.59-4.33,7.71-7.1-1.13-8.92-5.23-17.35-11.95-23.68"/>
        <path id="Fill-41" class="cls-12" d="m72.89,73.89c-8.06,8.06-19.26,11.09-29.69,9.12-3.26,2.07-7.12,3.29-11.27,3.29-1.52,0-2.99-.21-4.4-.58,13.47,8.36,30.71,8.3,44.12-.2,3.14-5.24,5.21-11.19,5.94-17.55-1.31,2.1-2.87,4.09-4.69,5.92"/>
        <path class="cls-8" d="m83.18,47.2c-.47-1.11-1.07-2.18-1.83-3.17-2.09-2.72-4.82-4.63-7.82-5.73,2.05,4.06,3.1,8.66,2.9,13.44-.03.8-.1,1.61-.2,2.42-.16,1.26-.42,2.48-.75,3.67-.9,3.31-2.4,6.34-4.35,8.99,2.63.05,5.3-.75,7.55-2.48,1.17-.9,2.16-1.94,2.97-3.08.65-1.98,1.13-4.05,1.42-6.2.35-2.66.37-5.3.12-7.86Z"/>
        <path id="Fill-47" class="cls-12" d="m21.92,47.03c1.69-12.86,12.1-22.47,24.49-23.68,4.53-2.72,9.46-4.35,14.47-4.93-2.33-.85-4.78-1.47-7.34-1.81-18.74-2.46-35.99,10.78-38.46,29.52-1.76,13.37,4.48,25.98,15.01,33-2.07-4.34-3.37-8.93-3.92-13.56-3.47-5.29-5.13-11.79-4.25-18.54"/>
        <path id="Fill-49" class="cls-3" d="m67.6,79.41c-2.91-.64-5.71-1.79-8.25-3.45-4.25,1.73-8.98,2.42-13.85,1.78-8.22-1.08-15.11-5.73-19.34-12.18.55,4.63,1.85,9.22,3.92,13.56,4.23,2.82,9.15,4.75,14.52,5.46,8.36,1.1,16.41-.93,23-5.18"/>
        <path id="Fill-51" class="cls-14" d="m81.64,61.26c-.81,1.14-1.8,2.18-2.97,3.08-2.25,1.73-4.92,2.53-7.55,2.48-3,4.07-7.09,7.24-11.77,9.15,2.55,1.65,5.35,2.8,8.25,3.44,6.49-4.18,11.55-10.52,14.04-18.15"/>
        <path id="Fill-53" class="cls-4" d="m52.64,23.44c9.32,1.23,16.94,7.03,20.89,14.85,3,1.1,5.73,3.01,7.82,5.73.77,1,1.36,2.07,1.83,3.17-1.3-13.02-10-24.27-22.3-28.78-5.01.58-9.94,2.21-14.47,4.93,2.03-.2,4.12-.18,6.23.1"/>
      </g>
      <g>
        <path id="Fill-55" class="cls-11" d="m126.37,69.62v-35.54h-13.66v-5.71h33.48v5.71h-13.66v35.54h-6.17Z"/>
        <path id="Fill-57" class="cls-11" d="m178.08,70.36c-8.47,0-17.03-5.35-17.03-17.31v-24.63h6.17v24.63c0,7.94,5.46,11.49,10.86,11.49s10.69-3.57,10.69-11.55v-24.63h6.17v24.68c0,8.62-5.21,17.31-16.85,17.31"/>
        <path id="Fill-59" class="cls-11" d="m232.48,45.57c2.86,0,7.66-.69,7.66-5.32,0-3.83-2.95-6.12-7.89-6.12h-11.89v11.44h12.12Zm-.23,18.12c4.15,0,9.09-1.02,9.09-5.89-.05-4.44-4.63-6.46-8.86-6.46h-12.12v12.35h11.89Zm-18.11,5.94V28.37h18.11c8.54,0,14.06,4.64,14.06,11.83,0,3.48-1.82,6.44-4.93,8.16,4.24,1.89,6.19,6.15,6.19,9.62,0,7.52-5.44,11.66-15.31,11.66h-18.11Z"/>
        <path id="Fill-61" class="cls-11" d="m281.4,70.36c-8.47,0-17.03-5.35-17.03-17.31v-24.63h6.17v24.63c0,7.94,5.46,11.49,10.86,11.49s10.69-3.57,10.69-11.55v-24.63h6.17v24.68c0,8.62-5.21,17.31-16.85,17.31"/>
        <path id="Fill-63" class="cls-11" d="m317.46,69.62V28.37h6.22v35.37h21.77v5.88h-28Z"/>
        <path id="Fill-65" class="cls-11" d="m386.39,55l-8.53-19.42-8.53,19.42h17.06Zm6.44,14.62l-3.94-8.8h-22.04l-3.89,8.8h-6.8l18.51-41.25h6.41l18.51,41.25h-6.74Z"/>
        <path id="Fill-67" class="cls-11" d="m433.12,49.51c5.12,0,8.17-2.84,8.17-7.6.03-2.11-.78-4.15-2.21-5.6-1.44-1.46-3.42-2.23-5.73-2.23h-12.58v15.43h12.35Zm8.91,20.11l-12.46-14.4h-8.8v14.4h-6.22V28.37h18.8c9.73,0,14.17,6.96,14.17,13.42.05,5.53-2.8,11.67-10.84,12.88l13.33,14.94h-7.97Z"/>
      </g>
    </g>
  </g>
</svg>