<svg id="Layer_1" data-name="Layer 1" xmlns="http://www.w3.org/2000/svg" viewBox="0 0 469.09 160.78"><defs><style>.cls-1{fill:#da2c88;}</style></defs><path class="cls-1" d="M337.16,0V49.27c-6.48-19.56-23.49-35.43-52.83-35.43-30,0-47.14,16.62-53.27,36.82-6.13-20.2-23.25-36.82-53.27-36.82-38.6,0-55.88,27.47-55.88,54.7a58.91,58.91,0,0,0,7.43,29.14c-3.43,1.84-7.85,2.75-13.29,2.75-14.89,0-22.13-6.9-22.13-21.09V55.94l26.56-31.46H93.92L93.66.23,69.76,29.39V80.51c0,.65,0,1.26.08,1.89,0-.26,0-.51-.06-.78.33,13.38-8.61,19.44-23.17,19.44-14.89,0-22.13-6.9-22.13-21.1l-.31-55.84H0l.31,57C.31,107.36,17.62,123,46.61,123,61.16,123,74,118.5,82,111.24c8,7.22,19.54,11.14,34.06,11.14,12,0,21.87-2.71,29.46-7.68,8.37,5.32,19.08,8.54,32.28,8.54,27.61,0,44.3-14,51.57-32v40l23.21,29.57V115c8.3,5.12,18.83,8.22,31.76,8.22,29.34,0,46.35-15.87,52.83-35.44v35.25h23.2V87.75c6.47,19.59,23.49,35.49,52.85,35.49,13.33,0,24.11-3.28,32.52-8.69v8.63h23.21V72.72c.09-1.39.15-2.79.15-4.18,0-27.23-17.28-54.7-55.88-54.7-29.36,0-46.38,15.9-52.85,35.49V29.91ZM177.79,100.7c-19,0-31.27-12.63-31.27-32.16s12.27-32.16,31.27-32.16S208.91,49,208.91,68.54,196.7,100.7,177.79,100.7Zm106.54,0c-19,0-31.27-12.63-31.27-32.16s12.27-32.16,31.27-32.16S315.46,49,315.46,68.54,303.24,100.7,284.33,100.7ZM413.21,36.38c18.9,0,31.12,12.62,31.12,32.16s-12.22,32.16-31.12,32.16-31.28-12.63-31.28-32.16S394.21,36.38,413.21,36.38Z"/></svg>