<svg xmlns="http://www.w3.org/2000/svg" xmlns:xlink="http://www.w3.org/1999/xlink" viewBox="0 0 888.34 153.87"><defs><style>.cls-1{isolation:isolate;}.cls-2{fill:url(#linear-gradient);}.cls-3{fill:url(#linear-gradient-2);}.cls-4{fill:url(#linear-gradient-3);}.cls-5{fill:url(#linear-gradient-4);}.cls-6{fill:url(#linear-gradient-5);}.cls-7{fill:url(#linear-gradient-6);}.cls-8{fill:url(#linear-gradient-7);}.cls-9{fill:url(#linear-gradient-8);}.cls-10{fill:url(#linear-gradient-9);}.cls-11{fill:url(#linear-gradient-10);}.cls-12{fill:url(#linear-gradient-11);}.cls-13,.cls-15,.cls-18,.cls-19,.cls-21,.cls-23,.cls-25,.cls-30,.cls-32,.cls-35,.cls-38,.cls-39,.cls-41,.cls-42,.cls-44,.cls-46,.cls-47,.cls-49{opacity:0.28;mix-blend-mode:multiply;}.cls-13{fill:url(#linear-gradient-12);}.cls-14{fill:url(#linear-gradient-13);}.cls-15{fill:url(#linear-gradient-14);}.cls-16{fill:url(#linear-gradient-15);}.cls-17{fill:url(#linear-gradient-16);}.cls-18{fill:url(#linear-gradient-17);}.cls-19{fill:url(#linear-gradient-18);}.cls-20{fill:url(#linear-gradient-19);}.cls-21{fill:url(#linear-gradient-20);}.cls-22{fill:url(#linear-gradient-21);}.cls-23{fill:url(#linear-gradient-22);}.cls-24{fill:url(#linear-gradient-23);}.cls-25{fill:url(#linear-gradient-24);}.cls-26{fill:url(#linear-gradient-25);}.cls-27{fill:url(#linear-gradient-26);}.cls-28{fill:url(#linear-gradient-27);}.cls-29{fill:url(#linear-gradient-28);}.cls-30{fill:url(#linear-gradient-29);}.cls-31{fill:url(#linear-gradient-30);}.cls-32{fill:url(#linear-gradient-31);}.cls-33{fill:url(#linear-gradient-32);}.cls-34{fill:url(#linear-gradient-33);}.cls-35{fill:url(#linear-gradient-34);}.cls-36{fill:url(#linear-gradient-35);}.cls-37{fill:url(#linear-gradient-37);}.cls-38{fill:url(#linear-gradient-38);}.cls-39{fill:url(#linear-gradient-39);}.cls-40{fill:url(#linear-gradient-40);}.cls-41{fill:url(#linear-gradient-41);}.cls-42{fill:url(#linear-gradient-42);}.cls-43{fill:url(#linear-gradient-43);}.cls-44{fill:url(#linear-gradient-44);}.cls-45{fill:url(#linear-gradient-45);}.cls-46{fill:url(#linear-gradient-46);}.cls-47{fill:url(#linear-gradient-47);}.cls-48{fill:url(#linear-gradient-48);}.cls-49{fill:url(#linear-gradient-49);}</style><linearGradient id="linear-gradient" x1="434.8" y1="340" x2="497.02" y2="402.22" gradientUnits="userSpaceOnUse"><stop offset="0" stop-color="#f58b1f"/><stop offset="0.25" stop-color="#ee742c"/><stop offset="0.76" stop-color="#dc384e"/><stop offset="1" stop-color="#d31b5e"/></linearGradient><linearGradient id="linear-gradient-2" x1="503.2" y1="353.33" x2="563.51" y2="413.64" xlink:href="#linear-gradient"/><linearGradient id="linear-gradient-3" x1="568.17" y1="346.55" x2="642.04" y2="420.42" xlink:href="#linear-gradient"/><linearGradient id="linear-gradient-4" x1="651.99" y1="345.6" x2="709.3" y2="402.91" xlink:href="#linear-gradient"/><linearGradient id="linear-gradient-5" x1="720.78" y1="344.58" x2="783.24" y2="407.03" xlink:href="#linear-gradient"/><linearGradient id="linear-gradient-6" x1="792.12" y1="353.89" x2="862.39" y2="424.16" xlink:href="#linear-gradient"/><linearGradient id="linear-gradient-7" x1="863.58" y1="354.18" x2="911.64" y2="402.24" gradientUnits="userSpaceOnUse"><stop offset="0" stop-color="#3dbcec"/><stop offset="1" stop-color="#913191"/></linearGradient><linearGradient id="linear-gradient-8" x1="925.29" y1="359.45" x2="987.93" y2="422.09" xlink:href="#linear-gradient-7"/><linearGradient id="linear-gradient-9" x1="993.12" y1="353.33" x2="1053.43" y2="413.64" xlink:href="#linear-gradient-7"/><linearGradient id="linear-gradient-10" x1="1051.43" y1="346.73" x2="1126.6" y2="421.89" xlink:href="#linear-gradient-7"/><linearGradient id="linear-gradient-11" x1="363.14" y1="371.77" x2="393.48" y2="308.36" gradientUnits="userSpaceOnUse"><stop offset="0" stop-color="#913191"/><stop offset="1" stop-color="#3dbcec"/></linearGradient><linearGradient id="linear-gradient-12" x1="347.18" y1="375.43" x2="415.72" y2="375.43" gradientUnits="userSpaceOnUse"><stop offset="0" stop-color="#5b052c"/><stop offset="0.18" stop-color="#82415f"/><stop offset="0.4" stop-color="#ae8497"/><stop offset="0.6" stop-color="#d1b9c4"/><stop offset="0.78" stop-color="#eadfe4"/><stop offset="0.91" stop-color="#f9f6f8"/><stop offset="1" stop-color="#fff"/></linearGradient><linearGradient id="linear-gradient-13" x1="369.52" y1="376.3" x2="400.36" y2="311.83" xlink:href="#linear-gradient-11"/><linearGradient id="linear-gradient-14" x1="347.18" y1="357.6" x2="415.72" y2="357.6" xlink:href="#linear-gradient-12"/><linearGradient id="linear-gradient-15" x1="238.94" y1="333.77" x2="353.39" y2="333.77" gradientUnits="userSpaceOnUse"><stop offset="0.02" stop-color="#3f68b0"/><stop offset="0.16" stop-color="#4577b8"/><stop offset="0.73" stop-color="#5ab3d8"/><stop offset="1" stop-color="#63cae4"/></linearGradient><linearGradient id="linear-gradient-16" x1="0.11" y1="26.32" x2="114.56" y2="26.32" xlink:href="#linear-gradient-15"/><linearGradient id="linear-gradient-17" x1="238.83" y1="316.36" x2="353.39" y2="316.36" gradientUnits="userSpaceOnUse"><stop offset="0" stop-color="#fff"/><stop offset="0.09" stop-color="#f9f6f8"/><stop offset="0.22" stop-color="#eadfe4"/><stop offset="0.4" stop-color="#d1b9c4"/><stop offset="0.6" stop-color="#ae8497"/><stop offset="0.82" stop-color="#82415f"/><stop offset="1" stop-color="#5b052c"/></linearGradient><linearGradient id="linear-gradient-18" x1="0" y1="11.49" x2="114.56" y2="11.49" xlink:href="#linear-gradient-17"/><linearGradient id="linear-gradient-19" x1="238.94" y1="316.73" x2="353.39" y2="316.73" xlink:href="#linear-gradient-15"/><linearGradient id="linear-gradient-20" x1="238.83" y1="316.73" x2="353.39" y2="316.73" xlink:href="#linear-gradient-17"/><linearGradient id="linear-gradient-21" x1="0.11" y1="5.81" x2="114.56" y2="5.81" xlink:href="#linear-gradient-15"/><linearGradient id="linear-gradient-22" x1="0" y1="5.81" x2="114.56" y2="5.81" xlink:href="#linear-gradient-17"/><linearGradient id="linear-gradient-23" x1="0.11" y1="12.37" x2="114.56" y2="12.37" xlink:href="#linear-gradient-15"/><linearGradient id="linear-gradient-24" x1="0" y1="12.37" x2="114.56" y2="12.37" xlink:href="#linear-gradient-17"/><linearGradient id="linear-gradient-25" x1="238.94" y1="401.19" x2="347.18" y2="401.19" gradientUnits="userSpaceOnUse"><stop offset="0" stop-color="#f58b1f"/><stop offset="0.15" stop-color="#ee742c"/><stop offset="0.46" stop-color="#dc384e"/><stop offset="0.61" stop-color="#d31b5e"/><stop offset="0.7" stop-color="#c61c5e"/><stop offset="0.87" stop-color="#a41d5e"/><stop offset="0.98" stop-color="#8c1e5e"/></linearGradient><linearGradient id="linear-gradient-26" x1="0.11" y1="26.32" x2="114.56" y2="26.32" xlink:href="#linear-gradient-15"/><linearGradient id="linear-gradient-27" x1="0.11" y1="26.32" x2="108.35" y2="26.32" xlink:href="#linear-gradient-25"/><linearGradient id="linear-gradient-28" x1="0.11" y1="27.6" x2="108.35" y2="27.6" xlink:href="#linear-gradient-25"/><linearGradient id="linear-gradient-29" x1="238.83" y1="309.62" x2="353.39" y2="309.62" xlink:href="#linear-gradient-17"/><linearGradient id="linear-gradient-30" x1="238.94" y1="309.62" x2="347.18" y2="309.62" xlink:href="#linear-gradient-25"/><linearGradient id="linear-gradient-31" x1="238.83" y1="308.29" x2="353.39" y2="308.29" xlink:href="#linear-gradient-17"/><linearGradient id="linear-gradient-32" x1="238.94" y1="308.29" x2="347.18" y2="308.29" xlink:href="#linear-gradient-25"/><linearGradient id="linear-gradient-33" x1="0.11" y1="12.39" x2="114.56" y2="12.39" xlink:href="#linear-gradient-15"/><linearGradient id="linear-gradient-34" x1="0" y1="12.39" x2="114.56" y2="12.39" xlink:href="#linear-gradient-17"/><linearGradient id="linear-gradient-35" x1="0.11" y1="12.39" x2="108.35" y2="12.39" xlink:href="#linear-gradient-25"/><linearGradient id="linear-gradient-37" x1="238.94" y1="316.73" x2="347.18" y2="316.73" xlink:href="#linear-gradient-25"/><linearGradient id="linear-gradient-38" x1="0" y1="6.17" x2="114.56" y2="6.17" xlink:href="#linear-gradient-17"/><linearGradient id="linear-gradient-39" x1="0.16" y1="6.17" x2="98.56" y2="6.17" xlink:href="#linear-gradient-17"/><linearGradient id="linear-gradient-40" x1="0.11" y1="6.19" x2="114.56" y2="6.19" xlink:href="#linear-gradient-15"/><linearGradient id="linear-gradient-41" x1="0" y1="6.19" x2="114.56" y2="6.19" xlink:href="#linear-gradient-17"/><linearGradient id="linear-gradient-42" x1="0.16" y1="6.19" x2="98.56" y2="6.19" xlink:href="#linear-gradient-17"/><linearGradient id="linear-gradient-43" x1="238.94" y1="401.19" x2="347.18" y2="401.19" xlink:href="#linear-gradient-25"/><linearGradient id="linear-gradient-44" x1="238.99" y1="401.19" x2="337.39" y2="401.19" xlink:href="#linear-gradient-17"/><linearGradient id="linear-gradient-45" x1="238.94" y1="334.29" x2="347.18" y2="334.29" xlink:href="#linear-gradient-25"/><linearGradient id="linear-gradient-46" x1="238.99" y1="334.29" x2="337.39" y2="334.29" xlink:href="#linear-gradient-17"/><linearGradient id="linear-gradient-47" x1="238.83" y1="316.78" x2="353.39" y2="316.78" xlink:href="#linear-gradient-17"/><linearGradient id="linear-gradient-48" x1="238.94" y1="316.78" x2="347.18" y2="316.78" xlink:href="#linear-gradient-25"/><linearGradient id="linear-gradient-49" x1="238.99" y1="316.78" x2="337.39" y2="316.78" xlink:href="#linear-gradient-17"/></defs><title>venturplex-logo</title><g class="cls-1"><g id="Horizontal_Logo" data-name="Horizontal Logo"><g id="Name"><path class="cls-2" d="M479.83,345.64h22.88l-24.79,75.68H453.85l-24.7-75.68h23L462.44,384q3.21,12.78,3.52,17.81.36-3.63,1.45-9.06t1.91-8.54Z" transform="translate(-238.83 -307.07)"/><path class="cls-3" d="M555.83,421.32H510.89V345.64h44.94v16.41H531.34V374H554v16.41H531.34v14.29h24.49Z" transform="translate(-238.83 -307.07)"/><path class="cls-4" d="M641.14,421.32H614.32L586.68,368h-.47q1,12.58,1,19.21v34.11H569.08V345.64h26.71l27.54,52.6h.31q-.74-11.44-.73-18.38V345.64h18.23Z" transform="translate(-238.83 -307.07)"/><path class="cls-5" d="M690.88,421.32H670.44v-59H652V345.64h57.35v16.72H690.88Z" transform="translate(-238.83 -307.07)"/><path class="cls-6" d="M784.48,345.64V391.2q0,14.85-8.41,23t-24.26,8.15q-15.48,0-23.78-7.92t-8.31-22.78v-46h20.55v44.42q0,8,3,11.65t8.85,3.62q6.27,0,9.09-3.6T764,390V345.64Z" transform="translate(-238.83 -307.07)"/><path class="cls-7" d="M820.82,393.78v27.54H800.37V345.64h24.8Q856,345.64,856,368q0,13.15-12.84,20.35l22.05,33H842l-16-27.54Zm0-15.37h3.83q10.71,0,10.71-9.47,0-7.83-10.51-7.82h-4Z" transform="translate(-238.83 -307.07)"/><path class="cls-8" d="M927,369.71q0,12.69-7.48,19.6t-21.25,6.91h-5.75v25.1H872.12V345.64h26.19q14.34,0,21.54,6.27T927,369.71Zm-34.48,9.84h3.73a10.19,10.19,0,0,0,7.33-2.59,9.4,9.4,0,0,0,2.72-7.14q0-7.67-8.5-7.66h-5.28Z" transform="translate(-238.83 -307.07)"/><path class="cls-9" d="M939.1,421.32V345.64h20.45v59.17H988.7v16.51Z" transform="translate(-238.83 -307.07)"/><path class="cls-10" d="M1045.74,421.32h-44.93V345.64h44.93v16.41h-24.48V374h22.67v16.41h-22.67v14.29h24.48Z" transform="translate(-238.83 -307.07)"/><path class="cls-11" d="M1127.17,421.32h-23.66l-14.75-23.65-14.6,23.65H1051l25.11-38.72-23.61-37h22.68l13.66,23.4,13.15-23.4h23.35l-24,38.57Z" transform="translate(-238.83 -307.07)"/></g><g id="Mark"><path class="cls-12" d="M412.47,307.07H379.34a3.61,3.61,0,0,0-3.13,1.8l-38,64.59a3.64,3.64,0,0,0,0,3.64l16.92,29.24c1.52,2.17,4.71,1.32,5.15.55h0a3.62,3.62,0,0,1-5.44-1l-7.19-12.46a3.64,3.64,0,0,1,0-3.65L395,309.5a3.64,3.64,0,0,1,3.07-1.79l14-.22a3.62,3.62,0,0,1,3.19,5.45l-18.05,31,18.43-31.44A3.63,3.63,0,0,0,412.47,307.07Z" transform="translate(-238.83 -307.07)"/><path class="cls-13" d="M361.12,405.92l36.05-62-36.88,62.93A3.41,3.41,0,0,0,361.12,405.92Z" transform="translate(-238.83 -307.07)"/><path class="cls-14" d="M412,307.49l-14,.22A3.64,3.64,0,0,0,395,309.5l-47.28,80.3a3.64,3.64,0,0,0,0,3.65l7.19,12.46a3.62,3.62,0,0,0,5.44,1L397.17,344l18.05-31A3.62,3.62,0,0,0,412,307.49Z" transform="translate(-238.83 -307.07)"/><path class="cls-15" d="M412,307.49l-14,.22A3.64,3.64,0,0,0,395,309.5l-47.28,80.3a3.64,3.64,0,0,0,0,3.65l7.19,12.46a3.62,3.62,0,0,0,5.44,1L397.17,344l18.05-31A3.62,3.62,0,0,0,412,307.49Z" transform="translate(-238.83 -307.07)"/><path class="cls-16" d="M343.1,326.07h-54l9.29,17.19h34.69a3.65,3.65,0,0,0,3.14-1.8l10-17.19A3.63,3.63,0,0,1,343.1,326.07Z" transform="translate(-238.83 -307.07)"/><polygon class="cls-17" points="7.81 18.26 13.38 27.91 17.11 34.38 17.11 34.38 7.81 18.26 7.81 18.26"/><path class="cls-18" d="M239.49,312.93h0l-.06-.11a3.54,3.54,0,0,1-.36-2.78,3.13,3.13,0,0,1,.36-.84,3.59,3.59,0,0,1,3.14-1.82h-.11a3.63,3.63,0,0,0-3.17,5.4l6.38,11.43a3.61,3.61,0,0,0,1,1.12l-6.79-11.78Z" transform="translate(-238.83 -307.07)"/><polygon class="cls-19" points="107.41 17.2 114.06 5.77 107.41 17.2 107.41 17.2"/><path class="cls-20" d="M280,309.29l9.08,16.78h54a3.63,3.63,0,0,0,3.14-1.8l6.66-11.43a3.64,3.64,0,0,0-3.14-5.46H276.84A3.62,3.62,0,0,1,280,309.29Z" transform="translate(-238.83 -307.07)"/><path class="cls-21" d="M280,309.29l9.08,16.78h54a3.63,3.63,0,0,0,3.14-1.8l6.66-11.43a3.64,3.64,0,0,0-3.14-5.46H276.84A3.62,3.62,0,0,1,280,309.29Z" transform="translate(-238.83 -307.07)"/><polygon class="cls-22" points="0.6 5.76 0.66 5.86 0.66 5.86 0.6 5.76"/><polygon class="cls-23" points="0.6 5.76 0.66 5.86 0.66 5.86 0.6 5.76"/><polygon class="cls-24" points="1.04 6.53 1.01 6.48 7.81 18.26 7.81 18.26 1.04 6.53"/><polygon class="cls-25" points="1.04 6.53 1.01 6.48 7.81 18.26 7.81 18.26 1.04 6.53"/><path class="cls-26" d="M327.08,393,298.4,343.26H278.54l58.85,103.33-7.31,12.54a3.62,3.62,0,0,1-6.27,0L255.94,341.45h0l1,1.81,66.83,115.86a3.62,3.62,0,0,0,6.27,0l12.86-22.08,3.75-6.42a3.64,3.64,0,0,0,0-3.64Z" transform="translate(-238.83 -307.07)"/><polygon class="cls-27" points="7.81 18.26 7.81 18.26 17.11 34.38 17.11 34.39 7.81 18.26"/><polygon class="cls-28" points="7.81 18.26 7.81 18.26 17.11 34.38 17.11 34.39 7.81 18.26"/><polygon class="cls-29" points="29.91 19 39.7 36.2 59.57 36.2 50.27 19 29.91 19"/><path class="cls-30" d="M239.07,310a3.13,3.13,0,0,1,.36-.84A3.13,3.13,0,0,0,239.07,310Z" transform="translate(-238.83 -307.07)"/><path class="cls-31" d="M239.07,310a3.13,3.13,0,0,1,.36-.84A3.13,3.13,0,0,0,239.07,310Z" transform="translate(-238.83 -307.07)"/><path class="cls-32" d="M239.43,309.2a3.59,3.59,0,0,1,3.14-1.82h0A3.59,3.59,0,0,0,239.43,309.2Z" transform="translate(-238.83 -307.07)"/><path class="cls-33" d="M239.43,309.2a3.59,3.59,0,0,1,3.14-1.82h0A3.59,3.59,0,0,0,239.43,309.2Z" transform="translate(-238.83 -307.07)"/><polygon class="cls-34" points="7.81 18.26 7.81 18.26 1.04 6.53 7.81 18.26"/><polygon class="cls-35" points="7.81 18.26 7.81 18.26 1.04 6.53 7.81 18.26"/><polygon class="cls-36" points="7.81 18.26 7.81 18.26 1.04 6.53 7.81 18.26"/><path class="cls-21" d="M239.43,309.2a3.13,3.13,0,0,0-.36.84,3.54,3.54,0,0,0,.36,2.78l.06.11a3.62,3.62,0,0,1,3.2-5.44l13.54.22a3.62,3.62,0,0,1,3.1,1.83l9.41,16.53h20.37L280,309.29a3.62,3.62,0,0,0-3.19-1.91H242.57A3.59,3.59,0,0,0,239.43,309.2Z" transform="translate(-238.83 -307.07)"/><path class="cls-37" d="M239.43,309.2a3.13,3.13,0,0,0-.36.84,3.54,3.54,0,0,0,.36,2.78l.06.11a3.62,3.62,0,0,1,3.2-5.44l13.54.22a3.62,3.62,0,0,1,3.1,1.83l9.41,16.53h20.37L280,309.29a3.62,3.62,0,0,0-3.19-1.91H242.57A3.59,3.59,0,0,0,239.43,309.2Z" transform="translate(-238.83 -307.07)"/><polygon class="cls-38" points="0.66 5.86 1.01 6.48 0.66 5.86 0.66 5.86"/><polygon class="cls-39" points="0.66 5.86 1.01 6.48 0.66 5.86 0.66 5.86"/><polygon class="cls-40" points="0.66 5.86 1.01 6.48 1.04 6.53 0.66 5.86 0.66 5.86"/><polygon class="cls-41" points="0.66 5.86 1.01 6.48 1.04 6.53 0.66 5.86 0.66 5.86"/><polygon class="cls-42" points="0.66 5.86 1.01 6.48 1.04 6.53 0.66 5.86 0.66 5.86"/><path class="cls-43" d="M255.94,341.45l67.87,117.67a3.62,3.62,0,0,0,6.27,0l7.31-12.54L278.54,343.26H259.08A3.62,3.62,0,0,1,255.94,341.45Z" transform="translate(-238.83 -307.07)"/><path class="cls-44" d="M255.94,341.45l67.87,117.67a3.62,3.62,0,0,0,6.27,0l7.31-12.54L278.54,343.26H259.08A3.62,3.62,0,0,1,255.94,341.45Z" transform="translate(-238.83 -307.07)"/><path class="cls-45" d="M248.84,326.07a3.64,3.64,0,0,1-2.2-.74l9.3,16.12a3.62,3.62,0,0,0,3.14,1.81h19.46l-9.8-17.19Z" transform="translate(-238.83 -307.07)"/><path class="cls-46" d="M248.84,326.07a3.64,3.64,0,0,1-2.2-.74l9.3,16.12a3.62,3.62,0,0,0,3.14,1.81h19.46l-9.8-17.19Z" transform="translate(-238.83 -307.07)"/><path class="cls-47" d="M268.74,326.07l-9.41-16.53a3.62,3.62,0,0,0-3.1-1.83l-13.54-.22a3.62,3.62,0,0,0-3.2,5.44l.38.66,6.77,11.74a3.64,3.64,0,0,0,2.2.74Z" transform="translate(-238.83 -307.07)"/><path class="cls-48" d="M268.74,326.07l-9.41-16.53a3.62,3.62,0,0,0-3.1-1.83l-13.54-.22a3.62,3.62,0,0,0-3.2,5.44l.38.66,6.77,11.74a3.64,3.64,0,0,0,2.2.74Z" transform="translate(-238.83 -307.07)"/><path class="cls-49" d="M268.74,326.07l-9.41-16.53a3.62,3.62,0,0,0-3.1-1.83l-13.54-.22a3.62,3.62,0,0,0-3.2,5.44l.38.66,6.77,11.74a3.64,3.64,0,0,0,2.2.74Z" transform="translate(-238.83 -307.07)"/></g></g></g></svg>