<svg width="752" height="336" fill="none" xmlns="http://www.w3.org/2000/svg"><path fill-rule="evenodd" clip-rule="evenodd" d="M305.04 300c16.48 22.4 42.88 36 70.96 36 48.56 0 88-39.44 88-88 0-11.76-2.4-23.44-6.88-34.16l22.96-38.24c25.04-2.32 48-15.36 62.88-35.6h50.08c16.48 22.4 42.88 36 70.96 36 48.56 0 88-39.44 88-88S712.56 0 664 0c-28.16 0-54.48 13.6-70.96 36h-50.08C526.48 13.6 500.16 0 472 0c-28.16 0-54.48 13.6-70.96 36h-50.08C334.48 13.6 308.08 0 280 0c-48.56 0-88 39.44-88 88 0 11.76 2.4 23.44 6.88 34.16L184 146.96l-14.88-24.8c4.56-10.8 6.88-22.4 6.88-34.16 0-48.56-39.44-88-88-88S0 39.44 0 88c0 45.76 35.12 83.52 79.92 87.6l22.96 38.24C98.32 224.64 96 236.24 96 248c0 48.56 39.44 88 88 88 28.16 0 54.48-13.6 70.96-36h50.08ZM617.6 76c5.36-20.64 24.08-36 46.4-36 26.48 0 48 21.52 48 48s-21.52 48-48 48c-22.32 0-41.04-15.36-46.4-36h-99.12c-5.36 20.64-24.08 36-46.4 36-4.72 0-9.28-.72-13.6-2l-48.24 80.32c8.56 8.72 13.84 20.56 13.84 33.68 0 26.48-21.52 48-48 48-22.32 0-41.04-15.36-46.4-36h-99.12c-5.36 20.64-24.08 36-46.4 36-26.48 0-48-21.52-48-48A47.73 47.73 0 0 1 150 214.32L101.76 134c-4.32 1.28-8.88 2-13.6 2-26.48 0-48-21.52-48-48s21.52-48 48-48 48 21.52 48 48a47.73 47.73 0 0 1-13.84 33.68L170.56 202c4.32-1.28 8.88-2 13.6-2 4.72 0 9.28.72 13.6 2L246 121.68c-8.56-8.72-13.84-20.56-13.84-33.68 0-26.48 21.52-48 48-48 22.32 0 41.04 15.36 46.4 36h99.12c5.36-20.64 24.08-36 46.4-36s41.04 15.36 46.4 36h99.12Zm-288 160c5.36-20.64 24.08-36 46.4-36 4.72 0 9.28.72 13.6 2l48.24-80.32c-5.84-5.92-10.08-13.36-12.24-21.68h-99.12c-5.36 20.64-24.08 36-46.4 36-4.72 0-9.28-.72-13.6-2l-48.24 80.32c5.84 5.92 10.08 13.36 12.24 21.68h99.12Z" fill="#000"/></svg>