<svg width="501" height="195" viewBox="0 0 501 195" fill="none" xmlns="http://www.w3.org/2000/svg">
<g clip-path="url(#clip0_652_1064)">
<path d="M287.073 3.62009C277.162 8.80131 273.464 17.555 273.464 41.7103C277.106 38.4491 281.328 35.8973 285.911 34.1869C290.459 32.4911 294.744 30.1656 298.643 27.2786C307.036 21.1747 308.34 13.2964 308.34 0.00033455C308.34 0.00033455 294.684 -0.354546 287.002 3.62009" fill="black"/>
<path d="M228.299 9.2972C223.127 14.3192 219.507 20.7151 217.867 27.7272L191.123 131.139L168.86 46.5121C166.702 37.4982 162.79 26.3787 156.602 18.8553C148.731 9.27356 132.727 8.68209 131.044 8.68209C129.361 8.68209 113.31 9.27356 105.438 18.8553C99.2739 26.3787 95.362 37.4982 93.2045 46.5121L70.9417 131.162L44.1979 27.7509C42.5517 20.7342 38.9327 14.3321 33.7659 9.2972C20.6548 -2.2245 1 0.236015 1 0.236015L52.2352 193.503C52.2352 193.503 69.1398 194.709 77.6039 190.403C88.6997 184.773 93.9868 180.396 100.72 154.111C106.719 130.666 123.457 61.8428 125.046 56.8982C125.804 54.5323 126.8 48.665 131.068 48.665C135.335 48.665 136.308 54.4614 137.066 56.8982C138.607 61.7955 155.393 130.666 161.392 154.111C168.125 180.396 173.388 184.867 184.508 190.403C192.972 194.709 209.853 193.503 209.853 193.503L261.112 0.236015C261.112 0.236015 241.41 -2.12987 228.299 9.2972" fill="black"/>
<path d="M307.866 32.0781C305.077 35.815 301.489 38.8859 297.363 41.0684C292.622 43.6708 288.188 45.4452 283.375 47.7637C275.314 51.6201 273.133 55.9259 273.133 62.4794V193.216C273.133 193.216 286.007 194.849 294.471 190.567C305.306 185.054 307.795 179.731 307.89 155.765V39.0574L307.866 32.0781Z" fill="black"/>
<path d="M436.013 97.3348L501 0.878917C501 0.878917 473.568 -3.85278 459.983 8.5443C453.177 15.325 447.018 22.7225 441.585 30.6414L417.662 65.0409C417.326 66.128 416.65 67.0791 415.732 67.7546C414.815 68.4302 413.705 68.7947 412.565 68.7947C411.425 68.7947 410.315 68.4302 409.397 67.7546C408.48 67.0791 407.803 66.128 407.467 65.0409L383.545 30.7597C378.117 22.8303 371.949 15.4316 365.123 8.6626C351.538 -3.6635 324.106 0.997217 324.106 0.997217L389.117 97.4531L324.272 193.625C324.272 193.625 352.865 197.245 366.427 184.895C372.846 178.605 378.583 171.659 383.545 164.17L407.467 129.771C407.803 128.684 408.48 127.732 409.397 127.057C410.315 126.381 411.425 126.017 412.565 126.017C413.705 126.017 414.815 126.381 415.732 127.057C416.65 127.732 417.326 128.684 417.662 129.771L441.585 164.147C446.787 171.595 452.677 178.542 459.177 184.895C472.762 197.245 500.834 193.625 500.834 193.625L436.013 97.3348Z" fill="black"/>
</g>
<defs>
<clipPath id="clip0_652_1064">
<rect width="500" height="194" fill="white" transform="translate(1)"/>
</clipPath>
</defs>
</svg>
