<svg version="1.1" id="Layer_1" xmlns="http://www.w3.org/2000/svg" x="0px" y="0px" viewBox="0 0 1095.82 474.51" width="127" height="52"><g><g fill="#000"><path class="st0" d="M142.57,31.29h17.75l-31.57,93.34h-13.41L100.58,71.4l-14.49,53.24H72.53L41.11,31.29h17.75l20.59,65.3 l14.63-52.43h13.14l14.63,52.7L142.57,31.29z"></path><path class="st0" d="M178.25,78.03c0-26.41,20.73-48.36,47.42-48.36c26.55,0,47.42,21.95,47.42,48.36 c0,26.42-20.86,48.23-47.42,48.23C198.98,126.27,178.25,104.45,178.25,78.03z M256.56,78.03c0-17.88-13.14-32.91-31.02-32.91 c-17.75,0-30.62,15.03-30.62,32.91c0,17.89,12.87,32.79,30.62,32.79C243.42,110.82,256.56,95.92,256.56,78.03z"></path><path class="st0" d="M409.82,124.64h-16.53l-7.45-62.72l-25.2,52.15h-13.41L321.9,62.05l-7.59,62.59h-16.53l11.38-93.34h14.36 l30.35,64.22l30.21-64.22h14.36L409.82,124.64z"></path><path class="st0" d="M457.15,109.87h42.27v14.76h-58.66V31.29h57.3v14.77h-40.91v25.19h35.76V86.3h-35.76V109.87z"></path><path class="st0" d="M582.49,31.29h16.53v93.34h-15.04l-37.26-62.86v62.86H530.2V31.29h15.58l36.71,62.32V31.29z"></path><path class="st0" d="M768.42,31.29h17.74l-31.56,93.34h-13.41L726.42,71.4l-14.49,53.24h-13.54l-31.43-93.34h17.75l20.59,65.3 l14.63-52.43h13.14l14.63,52.7L768.42,31.29z"></path><path class="st0" d="M867.09,31.29h16.53v93.34h-16.53V85.62h-38.75v39.02h-16.53V31.29h16.53v39.56h38.75V31.29z"></path><path class="st0" d="M913.6,78.03c0-26.41,20.73-48.36,47.42-48.36c26.55,0,47.42,21.95,47.42,48.36 c0,26.42-20.86,48.23-47.42,48.23C934.33,126.27,913.6,104.45,913.6,78.03z M991.9,78.03c0-17.88-13.14-32.91-31.02-32.91 c-17.75,0-30.62,15.03-30.62,32.91c0,17.89,12.87,32.79,30.62,32.79C978.76,110.82,991.9,95.92,991.9,78.03z"></path><path class="st0" d="M40.92,316.55c0-70.48,56.38-129.02,126.49-129.02c40.84,0,76.62,19.15,99.02,48.43l-33.25,25.3 c-15.18-19.88-37.58-32.53-64.69-32.53c-47.34,0-83.12,40.12-83.12,87.82S120.43,404,168.5,404c27.11,0,49.51-12.65,64.69-32.52 l33.25,25.3c-22.41,29.27-58.18,48.43-99.02,48.43C97.3,445.2,40.92,387.01,40.92,316.55z"></path><path class="st0" d="M288.85,316.55c0-70.48,55.29-129.02,126.49-129.02c70.83,0,126.49,58.54,126.49,129.02 c0,70.47-55.66,128.65-126.49,128.65C344.14,445.2,288.85,387.01,288.85,316.55z M497.73,316.55c0-47.7-35.05-87.82-82.76-87.82 c-47.34,0-81.67,40.12-81.67,87.82S367.63,404,414.97,404C462.68,404,497.73,364.25,497.73,316.55z"></path><path class="st0" d="M687.1,191.87c71.19,0,112.76,54.21,112.76,125.04c0,70.48-41.56,123.96-112.76,123.96h-97.57v-249H687.1z M687.1,401.47c45.17,0,68.3-38.31,68.3-84.57c0-46.61-23.13-85.65-68.3-85.65h-53.48v170.22H687.1z"></path><path class="st0" d="M892.73,401.47h112.75v39.39H849v-249h152.87v39.39H892.73v67.22h95.41v40.11h-95.41V401.47z"></path></g><g fill="#000"><path class="st0" d="M1080.83,422.22c0,15.15-12.04,27.41-27.19,27.41c-15.14,0-27.1-12.27-27.1-27.41s11.96-27.5,27.1-27.5 C1068.79,394.72,1080.83,407.07,1080.83,422.22z M1076.01,422.22c0-12.51-9.94-22.68-22.37-22.68c-12.5,0-22.37,10.17-22.37,22.68 c0,12.5,9.86,22.6,22.37,22.6C1066.07,444.81,1076.01,434.72,1076.01,422.22z M1057.91,426.41l6.76,9.39h-6.29l-6.45-9.09h-1.87 v9.09h-5.67v-26.72h10.64c6.06,0,8.93,4.2,8.93,8.62C1063.97,422.83,1061.72,425.48,1057.91,426.41z M1050.07,414.29v7.69h4.27 c2.87,0,4.04-2.18,4.04-3.88s-1.17-3.8-3.88-3.8H1050.07z"></path></g></g></svg>