<?xml version="1.0" encoding="utf-8"?>
<svg version="1.1" id="layer" xmlns="http://www.w3.org/2000/svg" xmlns:xlink="http://www.w3.org/1999/xlink" x="0px" y="0px"
	 viewBox="0 0 652 652" style="enable-background:new 0 0 652 652;" xml:space="preserve">
<style type="text/css">
	.st0{fill:#66CC00;}
</style>
<path class="st0" d="M155.3,250.9l-36.1,110.2L103.9,310H79.4l28.1,80.8h26.1l49.1-139.9H155.3z M62.1,361.1L44.8,310H20l28.1,81.1
	h28.6l11.3-34.5l-12.4-36L62.1,361.1z M359.6,346.3l39.6-36.5h-33l-25.5,23.9v-60.2h-23.3v117.3H341v-32.3l31.6,32.3h31.6
	L359.6,346.3z M309.3,334.1c-3.5-1.7-7.3-2.5-11.2-2.1c-5,0-9.8,2.3-13,6.1c-3.1,5.1-4.5,11-4.1,16.9v35.8h-24.5V310H281v11.5h0.3
	c3.4-8,11.4-13.2,20.1-13c2.8-0.1,5.6,0.4,8.1,1.6L309.3,334.1z M203.9,393.1c-25.7,0-45.1-16.2-45.1-42.3
	c0-26.1,19.5-42.3,45.1-42.3s45.1,16.1,45.1,42.5S229.7,393.1,203.9,393.1z M203.9,329.3c-11.5,0-18.5,9.1-18.5,21.1
	c0,12,6.8,21.1,18.5,21.1c11.7,0,18.5-9.1,18.5-21.1c0-12-6.8-21.2-18.5-21.2V329.3z M609.5,390.8h-25l-0.5-8.3
	c-5.8,6.6-14.3,10.4-23.1,10.4c-14.3,0-29.5-7.7-29.5-25.9c0-18.2,16.6-24.2,31.6-24.9l20.4-0.8v-1.8c0-8.6-6.1-13.1-16.7-13.1
	c-8.8,0.3-17.3,2.8-24.9,7.3l-6.9-17.2c10.8-5.2,22.6-8,34.5-8.1c15.2,0,23.9,3.5,30.3,9.5c6.4,6.1,9.5,13.9,9.5,27.6L609.5,390.8z
	 M583.3,355.4l-13,0.8c-8.1,0.3-12.9,3.9-12.9,9.9s5.1,10,12.4,10c5.4,0,10.5-2.8,13.5-7.4L583.3,355.4z M530.8,309.9l-33.4,80.8
	h-24.1l-33.2-80.8h27.3l18.4,51.1l18.2-51.2L530.8,309.9z M433.1,390.8h-26.3V310h26.3V390.8z M406.9,303.3v-29.9h32.2L406.9,303.3z
	 M612,310c-4.4,0-8-3.6-8-8c0-4.4,3.6-8,8-8c4.4,0,8,3.6,8,8c-0.1,4.4-3.8,7.9-8.2,7.8c-0.1,0-0.1,0-0.2,0L612,310z M612,295.2
	c-3.8,0-6.8,3-6.9,6.8s3,6.8,6.8,6.9c3.8,0,6.8-3,6.9-6.8c0.1-3.7-2.9-6.7-6.6-6.8c0,0,0,0,0,0L612,295.2z M615.8,306.7h-2.2l-2-3.8
	h-1v3.8h-1.9v-9.5h3.6c2.1,0,3.3,1.1,3.3,2.8c0.1,1.2-0.7,2.4-1.9,2.7L615.8,306.7z M611.6,299h-1.1v2.6h1.1c0.9,0,1.7,0,1.7-1.2
	c0-1.2-0.6-1.5-1.6-1.5L611.6,299z"/>
</svg>
