<svg width="558" height="40" viewBox="0 0 558 40" fill="none" xmlns="http://www.w3.org/2000/svg">
<path d="M0 0H40.4587V40L20.2294 20L0 0Z" fill="white"/>
<path d="M0 0L20.2294 20L40.4587 40H0V0Z" fill="#268BCC"/>
<path d="M57.014 39V32.216L77.101 8.684H57.173V1.9H86.482V8.684L66.395 32.216H86.323V39H57.014ZM100.942 39.636C98.8223 39.636 97.0203 39.212 95.5363 38.364C94.0876 37.516 92.9746 36.2087 92.1973 34.442C91.42 32.64 91.0313 30.3257 91.0313 27.499V12.5H98.0273V26.068C98.0273 27.8347 98.2216 29.2303 98.6103 30.255C99.0343 31.2443 99.6173 31.9687 100.359 32.428C101.137 32.852 102.002 33.064 102.956 33.064C104.794 33.0993 106.189 32.5517 107.143 31.421C108.097 30.255 108.574 28.5767 108.574 26.386V12.5H115.57V39H108.998L108.733 35.396C107.85 36.7387 106.737 37.781 105.394 38.523C104.087 39.265 102.603 39.636 100.942 39.636ZM121.631 39V12.5H128.627V17.376C129.723 15.7153 131.101 14.4787 132.761 13.666C134.457 12.818 136.206 12.394 138.008 12.394V19.178C136.383 19.178 134.846 19.3723 133.397 19.761C131.984 20.1497 130.836 20.7857 129.952 21.669C129.069 22.5523 128.627 23.683 128.627 25.061V39H121.631ZM142.137 39V12.5H149.133V39H142.137ZM145.635 8.207C144.575 8.207 143.639 7.81833 142.826 7.041C142.014 6.22833 141.607 5.27433 141.607 4.179C141.607 3.08367 142.014 2.14733 142.826 1.37C143.639 0.557331 144.575 0.150998 145.635 0.150998C146.731 0.150998 147.667 0.557331 148.444 1.37C149.257 2.14733 149.663 3.08367 149.663 4.179C149.663 5.27433 149.257 6.22833 148.444 7.041C147.667 7.81833 146.731 8.207 145.635 8.207ZM168.357 39.636C165.601 39.636 163.146 39.053 160.99 37.887C158.835 36.6857 157.157 35.0427 155.955 32.958C154.754 30.838 154.153 28.4353 154.153 25.75C154.153 23.0293 154.754 20.6267 155.955 18.542C157.157 16.4573 158.817 14.832 160.937 13.666C163.057 12.4647 165.495 11.864 168.251 11.864C170.901 11.864 173.322 12.5177 175.512 13.825C177.703 15.1323 179.293 17.0227 180.282 19.496L173.71 21.828C173.216 20.8033 172.438 19.9907 171.378 19.39C170.354 18.754 169.205 18.436 167.933 18.436C166.626 18.436 165.478 18.754 164.488 19.39C163.499 19.9907 162.722 20.8387 162.156 21.934C161.591 23.0293 161.308 24.3013 161.308 25.75C161.308 27.1987 161.591 28.4707 162.156 29.566C162.722 30.626 163.517 31.474 164.541 32.11C165.566 32.746 166.732 33.064 168.039 33.064C169.311 33.064 170.46 32.7283 171.484 32.057C172.544 31.3857 173.322 30.5023 173.816 29.407L180.441 31.739C179.417 34.2477 177.809 36.191 175.618 37.569C173.463 38.947 171.043 39.636 168.357 39.636ZM184.57 39V1.9H191.566V15.892C192.449 14.5847 193.545 13.5953 194.852 12.924C196.159 12.2173 197.626 11.864 199.251 11.864C201.371 11.864 203.155 12.288 204.604 13.136C206.088 13.984 207.219 15.309 207.996 17.111C208.773 18.8777 209.162 21.1743 209.162 24.001V39H202.166V25.432C202.166 23.63 201.954 22.2343 201.53 21.245C201.106 20.2557 200.523 19.549 199.781 19.125C199.039 18.6657 198.173 18.436 197.184 18.436C195.382 18.4007 193.986 18.9483 192.997 20.079C192.043 21.2097 191.566 22.888 191.566 25.114V39H184.57ZM236.595 39.742C234.793 39.742 233.185 39.4593 231.772 38.894C230.394 38.2933 229.21 37.5337 228.221 36.615C227.267 35.6963 226.507 34.707 225.942 33.647C225.376 32.587 224.988 31.5623 224.776 30.573L230.924 28.241C231.489 29.7957 232.231 30.997 233.15 31.845C234.104 32.693 235.287 33.117 236.701 33.117C237.761 33.117 238.768 32.8697 239.722 32.375C240.676 31.8803 241.435 31.0853 242.001 29.99C242.601 28.8947 242.902 27.4813 242.902 25.75V1.9H250.11V27.87C250.11 29.7073 249.774 31.368 249.103 32.852C248.431 34.3007 247.477 35.5373 246.241 36.562C245.039 37.5867 243.608 38.3817 241.948 38.947C240.322 39.477 238.538 39.742 236.595 39.742ZM270.078 39.636C268.205 39.636 266.456 39.4063 264.831 38.947C263.205 38.4877 261.757 37.8517 260.485 37.039C259.213 36.191 258.153 35.2547 257.305 34.23C256.492 33.2053 255.962 32.1277 255.715 30.997L262.817 28.877C263.276 30.0783 264.089 31.1207 265.255 32.004C266.421 32.852 267.887 33.2937 269.654 33.329C271.526 33.3643 273.046 32.958 274.212 32.11C275.413 31.262 276.014 30.1667 276.014 28.824C276.014 27.658 275.537 26.6863 274.583 25.909C273.664 25.0963 272.392 24.478 270.767 24.054L265.944 22.782C264.142 22.3227 262.552 21.6337 261.174 20.715C259.796 19.761 258.718 18.595 257.941 17.217C257.163 15.839 256.775 14.2313 256.775 12.394C256.775 8.896 257.923 6.17533 260.22 4.232C262.552 2.25333 265.838 1.264 270.078 1.264C272.445 1.264 274.512 1.61733 276.279 2.324C278.081 2.99533 279.582 3.967 280.784 5.239C281.985 6.511 282.904 8.01267 283.54 9.744L276.491 11.917C276.067 10.7157 275.289 9.691 274.159 8.843C273.028 7.995 271.597 7.571 269.866 7.571C268.099 7.571 266.703 7.97733 265.679 8.79C264.689 9.60266 264.195 10.751 264.195 12.235C264.195 13.401 264.583 14.3197 265.361 14.991C266.173 15.6623 267.269 16.1747 268.647 16.528L273.523 17.747C276.703 18.5243 279.176 19.92 280.943 21.934C282.709 23.948 283.593 26.1917 283.593 28.665C283.593 30.8557 283.063 32.7813 282.003 34.442C280.943 36.0673 279.406 37.3393 277.392 38.258C275.378 39.1767 272.94 39.636 270.078 39.636ZM318.822 39.636C315.218 39.636 312.02 38.8233 309.229 37.198C306.438 35.5373 304.247 33.276 302.657 30.414C301.067 27.5167 300.272 24.1953 300.272 20.45C300.272 16.7047 301.067 13.401 302.657 10.539C304.247 7.64167 306.42 5.38033 309.176 3.755C311.967 2.09433 315.165 1.264 318.769 1.264C321.313 1.264 323.68 1.72333 325.871 2.642C328.062 3.52533 329.97 4.77967 331.595 6.405C333.256 7.995 334.528 9.83233 335.411 11.917L328.68 14.408C328.079 13.1007 327.284 11.97 326.295 11.016C325.306 10.0267 324.175 9.267 322.903 8.737C321.631 8.17167 320.253 7.889 318.769 7.889C316.614 7.889 314.688 8.43667 312.992 9.532C311.331 10.592 310.024 12.0583 309.07 13.931C308.151 15.8037 307.692 17.9767 307.692 20.45C307.692 22.9233 308.169 25.114 309.123 27.022C310.077 28.8947 311.402 30.3787 313.098 31.474C314.794 32.534 316.737 33.064 318.928 33.064C320.447 33.064 321.825 32.7813 323.062 32.216C324.334 31.6153 325.447 30.8027 326.401 29.778C327.39 28.7533 328.185 27.5697 328.786 26.227L335.517 28.665C334.634 30.8203 333.362 32.7283 331.701 34.389C330.076 36.0497 328.168 37.3393 325.977 38.258C323.786 39.1767 321.401 39.636 318.822 39.636ZM352.297 39.636C349.612 39.636 347.209 39.053 345.089 37.887C343.005 36.6857 341.362 35.0427 340.16 32.958C338.994 30.8733 338.411 28.4707 338.411 25.75C338.411 23.0293 338.994 20.6267 340.16 18.542C341.326 16.4573 342.952 14.832 345.036 13.666C347.121 12.4647 349.506 11.864 352.191 11.864C354.912 11.864 357.315 12.4647 359.399 13.666C361.484 14.832 363.109 16.4573 364.275 18.542C365.441 20.6267 366.024 23.0293 366.024 25.75C366.024 28.4707 365.441 30.8733 364.275 32.958C363.109 35.0427 361.484 36.6857 359.399 37.887C357.35 39.053 354.983 39.636 352.297 39.636ZM352.297 33.17C353.605 33.17 354.753 32.852 355.742 32.216C356.732 31.58 357.491 30.7143 358.021 29.619C358.587 28.4883 358.869 27.1987 358.869 25.75C358.869 24.3013 358.587 23.0293 358.021 21.934C357.456 20.8033 356.661 19.92 355.636 19.284C354.647 18.648 353.499 18.33 352.191 18.33C350.919 18.33 349.771 18.648 348.746 19.284C347.757 19.92 346.98 20.8033 346.414 21.934C345.849 23.0293 345.566 24.3013 345.566 25.75C345.566 27.1987 345.849 28.4883 346.414 29.619C346.98 30.7143 347.775 31.58 348.799 32.216C349.824 32.852 350.99 33.17 352.297 33.17ZM370.638 39V12.5H377.21L377.528 16.104C378.376 14.726 379.454 13.6837 380.761 12.977C382.104 12.235 383.623 11.864 385.319 11.864C387.404 11.864 389.188 12.288 390.672 13.136C392.156 13.984 393.287 15.309 394.064 17.111C394.842 18.8777 395.213 21.1743 395.177 24.001V39H388.181V25.432C388.181 23.63 387.969 22.2343 387.545 21.245C387.157 20.2557 386.591 19.549 385.849 19.125C385.107 18.6657 384.242 18.436 383.252 18.436C381.45 18.4007 380.055 18.9483 379.065 20.079C378.111 21.2097 377.634 22.888 377.634 25.114V39H370.638ZM403.411 39V18.118H399.012V12.5H403.411V9.85C403.411 7.02333 404.136 4.83266 405.584 3.278C407.033 1.688 409.241 0.892998 412.209 0.892998C413.234 0.892998 414.312 1.06966 415.442 1.423C416.608 1.77633 417.668 2.20033 418.622 2.695L416.025 7.73C415.46 7.44733 414.948 7.23533 414.488 7.094C414.029 6.95267 413.605 6.882 413.216 6.882C412.262 6.882 411.556 7.21767 411.096 7.889C410.637 8.525 410.407 9.56733 410.407 11.016V12.5H416.926V18.118H410.407V39H403.411ZM433.879 39V33.647C433.879 32.6223 434.197 31.4917 434.833 30.255C435.469 29.0183 436.352 27.7817 437.483 26.545C438.613 25.3083 439.938 24.16 441.458 23.1L447.076 19.072C447.853 18.542 448.577 17.9413 449.249 17.27C449.955 16.5987 450.521 15.8743 450.945 15.097C451.404 14.2843 451.634 13.507 451.634 12.765C451.634 11.8463 451.404 11.016 450.945 10.274C450.521 9.532 449.885 8.949 449.037 8.525C448.189 8.101 447.146 7.889 445.91 7.889C444.85 7.889 443.896 8.101 443.048 8.525C442.235 8.949 441.564 9.51433 441.034 10.221C440.504 10.9277 440.133 11.6873 439.921 12.5L432.448 11.228C432.801 9.46133 433.561 7.81833 434.727 6.299C435.893 4.77966 437.412 3.56066 439.285 2.642C441.193 1.688 443.348 1.211 445.751 1.211C448.507 1.211 450.874 1.70566 452.853 2.695C454.831 3.68433 456.351 5.04467 457.411 6.776C458.506 8.472 459.054 10.4507 459.054 12.712C459.054 15.0087 458.418 17.058 457.146 18.86C455.909 20.6267 454.195 22.2873 452.005 23.842L446.97 27.499C445.945 28.2057 445.062 28.983 444.32 29.831C443.578 30.679 443.012 31.6153 442.624 32.64H459.531V39H433.879ZM479.04 39.636C476.037 39.636 473.387 38.8233 471.09 37.198C468.793 35.5373 466.991 33.276 465.684 30.414C464.377 27.5167 463.723 24.1953 463.723 20.45C463.723 16.7047 464.377 13.401 465.684 10.539C466.991 7.64167 468.776 5.38033 471.037 3.755C473.334 2.09433 475.984 1.264 478.987 1.264C481.99 1.264 484.64 2.09433 486.937 3.755C489.269 5.38033 491.089 7.64167 492.396 10.539C493.703 13.401 494.357 16.7047 494.357 20.45C494.357 24.1953 493.703 27.5167 492.396 30.414C491.089 33.276 489.287 35.5373 486.99 37.198C484.693 38.8233 482.043 39.636 479.04 39.636ZM479.04 33.064C480.63 33.064 482.043 32.534 483.28 31.474C484.552 30.3787 485.541 28.8947 486.248 27.022C486.955 25.114 487.308 22.9233 487.308 20.45C487.308 17.9767 486.955 15.786 486.248 13.878C485.541 11.97 484.552 10.486 483.28 9.426C482.043 8.33066 480.612 7.783 478.987 7.783C477.397 7.783 475.984 8.33066 474.747 9.426C473.51 10.486 472.539 11.97 471.832 13.878C471.161 15.786 470.825 17.9767 470.825 20.45C470.825 22.9233 471.161 25.114 471.832 27.022C472.539 28.8947 473.51 30.3787 474.747 31.474C476.019 32.534 477.45 33.064 479.04 33.064ZM498.938 39V33.647C498.938 32.6223 499.256 31.4917 499.892 30.255C500.528 29.0183 501.412 27.7817 502.542 26.545C503.673 25.3083 504.998 24.16 506.517 23.1L512.135 19.072C512.913 18.542 513.637 17.9413 514.308 17.27C515.015 16.5987 515.58 15.8743 516.004 15.097C516.464 14.2843 516.693 13.507 516.693 12.765C516.693 11.8463 516.464 11.016 516.004 10.274C515.58 9.532 514.944 8.949 514.096 8.525C513.248 8.101 512.206 7.889 510.969 7.889C509.909 7.889 508.955 8.101 508.107 8.525C507.295 8.949 506.623 9.51433 506.093 10.221C505.563 10.9277 505.192 11.6873 504.98 12.5L497.507 11.228C497.861 9.46133 498.62 7.81833 499.786 6.299C500.952 4.77966 502.472 3.56066 504.344 2.642C506.252 1.688 508.408 1.211 510.81 1.211C513.566 1.211 515.934 1.70566 517.912 2.695C519.891 3.68433 521.41 5.04467 522.47 6.776C523.566 8.472 524.113 10.4507 524.113 12.712C524.113 15.0087 523.477 17.058 522.205 18.86C520.969 20.6267 519.255 22.2873 517.064 23.842L512.029 27.499C511.005 28.2057 510.121 28.983 509.379 29.831C508.637 30.679 508.072 31.6153 507.683 32.64H524.59V39H498.938ZM542.775 39.636C540.266 39.636 538.128 39.1943 536.362 38.311C534.63 37.3923 533.199 36.138 532.069 34.548C530.973 32.958 530.161 31.1207 529.631 29.036C529.136 26.916 528.889 24.637 528.889 22.199C528.889 19.3723 529.189 16.7047 529.79 14.196C530.39 11.652 531.291 9.40833 532.493 7.465C533.729 5.52166 535.302 4.00233 537.21 2.907C539.118 1.81167 541.414 1.264 544.1 1.264C546.043 1.264 547.933 1.54667 549.771 2.112C551.643 2.67733 553.322 3.49 554.806 4.55L551.202 9.85C550.106 9.07267 548.923 8.50733 547.651 8.154C546.414 7.80067 545.266 7.624 544.206 7.624C541.485 7.624 539.347 8.82533 537.793 11.228C536.238 13.6307 535.496 17.429 535.567 22.623L534.136 21.616C534.948 19.6727 536.203 18.118 537.899 16.952C539.595 15.786 541.609 15.203 543.941 15.203C546.308 15.203 548.393 15.7507 550.195 16.846C552.032 17.9413 553.463 19.443 554.488 21.351C555.548 23.2237 556.078 25.326 556.078 27.658C556.078 29.9547 555.53 32.0217 554.435 33.859C553.339 35.661 551.785 37.0743 549.771 38.099C547.792 39.1237 545.46 39.636 542.775 39.636ZM542.775 33.488C543.941 33.488 544.983 33.223 545.902 32.693C546.82 32.163 547.545 31.4387 548.075 30.52C548.605 29.6013 548.87 28.5413 548.87 27.34C548.87 26.1387 548.605 25.0787 548.075 24.16C547.545 23.206 546.82 22.464 545.902 21.934C544.983 21.3687 543.941 21.086 542.775 21.086C541.609 21.086 540.549 21.3687 539.595 21.934C538.676 22.464 537.952 23.206 537.422 24.16C536.892 25.0787 536.627 26.1387 536.627 27.34C536.627 28.5413 536.892 29.6013 537.422 30.52C537.952 31.4387 538.676 32.163 539.595 32.693C540.549 33.223 541.609 33.488 542.775 33.488Z" fill="black"/>
</svg>
